<?xml version="1.0" standalone="no"?>
<!DOCTYPE svg PUBLIC "-//W3C//DTD SVG 20010904//EN"
 "http://www.w3.org/TR/2001/REC-SVG-20010904/DTD/svg10.dtd">
<svg version="1.0" xmlns="http://www.w3.org/2000/svg"
 width="320.000000pt" height="320.000000pt" viewBox="0 0 320.000000 320.000000"
 preserveAspectRatio="xMidYMid meet">
<metadata>
Created by potrace 1.11, written by Peter Selinger 2001-2013
</metadata>
<g transform="translate(0.000000,320.000000) scale(0.100000,-0.100000)"
fill="#000000" stroke="none">
<path d="M410 2408 c128 -473 452 -1644 456 -1648 8 -7 393 -12 430 -5 l31 5
92 338 c165 599 175 632 181 625 4 -5 64 -219 134 -478 80 -293 134 -475 144
-482 11 -10 72 -13 222 -13 150 0 210 3 222 13 9 7 103 332 242 839 124 454
226 829 226 832 0 4 -93 5 -207 4 l-206 -3 -135 -475 c-73 -261 -137 -478
-141 -483 -4 -4 -67 205 -141 465 -73 260 -138 479 -143 486 -7 9 -64 12 -223
12 -193 0 -214 -2 -222 -17 -5 -10 -69 -231 -143 -491 -74 -260 -136 -467
-139 -460 -2 7 -65 227 -140 488 l-135 475 -207 3 -206 2 8 -32z"/>
</g>
</svg>
