<?xml version="1.0" standalone="no"?>
<!DOCTYPE svg PUBLIC "-//W3C//DTD SVG 20010904//EN"
 "http://www.w3.org/TR/2001/REC-SVG-20010904/DTD/svg10.dtd">
<svg version="1.0" xmlns="http://www.w3.org/2000/svg"
 width="240.000000pt" height="240.000000pt" viewBox="0 0 240.000000 240.000000"
 preserveAspectRatio="xMidYMid meet">
<metadata>
Created by potrace 1.11, written by Peter Selinger 2001-2013
</metadata>
<g transform="translate(0.000000,240.000000) scale(0.100000,-0.100000)"
fill="#000000" stroke="none">
<path d="M30 1933 c16 -60 45 -166 65 -238 20 -71 38 -137 40 -145 27 -118
328 -1185 335 -1190 14 -8 435 -9 448 -1 5 3 55 173 111 376 56 204 116 421
133 483 18 64 35 107 39 100 4 -7 21 -67 39 -133 27 -104 70 -259 196 -715 14
-52 30 -100 35 -106 12 -15 434 -15 453 0 7 6 32 81 56 166 94 349 272 998
285 1045 14 44 45 159 105 380 11 39 20 73 20 78 0 4 -93 6 -206 5 l-207 -3
-134 -470 c-73 -259 -136 -477 -139 -485 -8 -18 -10 -10 -155 500 -80 281
-102 361 -115 410 -14 50 -13 50 -240 50 -193 0 -214 -2 -222 -17 -5 -10 -69
-230 -143 -490 l-134 -472 -16 52 c-9 29 -33 113 -54 187 -21 74 -43 153 -50
175 -7 22 -46 158 -86 302 l-74 263 -206 0 -207 0 28 -107z"/>
</g>
</svg>
