<?xml version="1.0" encoding="UTF-8" standalone="no"?>
<svg width="240px" height="240px" viewBox="0 0 240 240" version="1.1" xmlns="http://www.w3.org/2000/svg" xmlns:xlink="http://www.w3.org/1999/xlink">
    <!-- Generator: Sketch 3.6 (26304) - http://www.bohemiancoding.com/sketch -->
    <title>Slice 2</title>
    <desc>Created with Sketch.</desc>
    <defs></defs>
    <g id="Page-1" stroke="none" stroke-width="1" fill="none" fill-rule="evenodd">
        <g id="Grey" fill="#8D99AE">
            <g id="apple" transform="translate(20.000000, 1.000000)">
                <path d="M195.686522,185.219512 C192.10029,193.502439 187.855362,201.126829 182.937101,208.136585 C176.233043,217.692683 170.743913,224.307317 166.513623,227.980488 C159.955942,234.009756 152.929855,237.097561 145.406087,237.273171 C140.004783,237.273171 133.491014,235.736585 125.908696,232.619512 C118.301493,229.517073 111.310536,227.980488 104.918261,227.980488 C98.2142029,227.980488 91.0241739,229.517073 83.3335362,232.619512 C75.6311884,235.736585 69.4262754,237.360976 64.6822029,237.521951 C57.4672899,237.829268 50.2757971,234.653659 43.0974783,227.980488 C38.5158841,223.985366 32.7852319,217.136585 25.9201594,207.434146 C18.5544783,197.073171 12.4988696,185.058537 7.7547971,171.360976 C2.67405797,156.565854 0.127101449,142.239024 0.127101449,128.36878 C0.127101449,112.480488 3.56110145,98.7770732 10.4393478,87.2936585 C15.8450435,78.0697561 23.0365362,70.7936585 32.0372464,65.4521951 C41.0379565,60.1107317 50.7632319,57.3887805 61.2364928,57.2146341 C66.9671449,57.2146341 74.4821304,58.9868293 83.820971,62.4697561 C93.1334638,65.9643902 99.1129565,67.7365854 101.734565,67.7365854 C103.694551,67.7365854 110.33713,65.6643902 121.597899,61.5331707 C132.246812,57.7019512 141.234348,56.1156098 148.597101,56.7404878 C168.548261,58.3502439 183.537246,66.2131707 193.505507,80.3790244 C175.662174,91.1878049 166.835652,106.326829 167.011304,125.747805 C167.172319,140.875122 172.661449,153.463415 183.44942,163.458537 C188.338406,168.097561 193.798261,171.682927 199.872899,174.229268 C198.555507,178.04878 197.164928,181.707317 195.686522,185.219512 L195.686522,185.219512 Z M149.92913,5.20487805 C149.92913,17.0616098 145.596377,28.1321951 136.960145,38.3790244 C126.538116,50.5604878 113.932145,57.5995122 100.262014,56.4887805 C100.087826,55.0663415 99.9868261,53.5692683 99.9868261,51.9960976 C99.9868261,40.6136585 104.943145,28.4321951 113.744783,18.4721951 C118.139014,13.4292683 123.727681,9.23614634 130.504928,5.89121951 C137.267536,2.59619512 143.664203,0.77395122 149.68029,0.46195122 C149.855942,2.04697561 149.92913,3.63214634 149.92913,5.20473171 L149.92913,5.20487805 Z" id="Shape"></path>
            </g>
        </g>
    </g>
</svg>