<?xml version="1.0" encoding="UTF-8" standalone="no"?>
<svg width="240px" height="240px" viewBox="0 0 240 240" version="1.1" xmlns="http://www.w3.org/2000/svg" xmlns:xlink="http://www.w3.org/1999/xlink">
    <!-- Generator: Sketch 3.6 (26304) - http://www.bohemiancoding.com/sketch -->
    <title>Slice 2</title>
    <desc>Created with Sketch.</desc>
    <defs></defs>
    <g id="Page-1" stroke="none" stroke-width="1" fill="none" fill-rule="evenodd">
        <g id="Grey" fill="#8D99AE">
            <g id="ea">
                <path d="M119.881321,0 C53.7782583,0 0,53.778979 0,119.883243 C0,185.987508 53.7782583,239.765766 119.881321,239.765766 C185.984865,239.765766 239.762883,185.987508 239.762883,119.883243 C239.763123,53.778979 185.984865,0 119.881321,0 L119.881321,0 Z M119.881321,224.238559 C62.3399399,224.238559 15.5272072,177.424865 15.5272072,119.883243 C15.5272072,62.3409009 62.3399399,15.5274474 119.881321,15.5274474 C177.421982,15.5274474 224.235676,62.3411411 224.235676,119.883243 C224.235676,177.424625 177.422222,224.238559 119.881321,224.238559 L119.881321,224.238559 Z M160.60997,84.9155556 L161.556036,84.9155556 L161.556036,80.3327327 L163.261261,80.3327327 L163.261261,79.5236036 L158.908829,79.5236036 L158.908829,80.3327327 L160.61021,80.3327327 L160.61021,84.9155556 L160.60997,84.9155556 Z M164.77045,80.7493093 L164.787748,80.7493093 L166.283243,84.9155556 L167.053694,84.9155556 L168.548709,80.7493093 L168.56985,80.7493093 L168.56985,84.9155556 L169.458498,84.9155556 L169.458498,79.5238438 L168.152553,79.5238438 L166.707267,83.741021 L166.682282,83.741021 L165.201922,79.5238438 L163.874595,79.5238438 L163.874595,84.9155556 L164.77045,84.9155556 L164.77045,80.7493093 L164.77045,80.7493093 Z M137.544024,79.5192793 L78.5684084,79.5192793 L69.6201802,93.8995796 L128.528048,93.8995796 L137.544024,79.5192793 L137.544024,79.5192793 Z M149.596396,79.6564565 L113.543303,137.064985 L73.551952,137.064985 L82.7783784,122.672432 L106.747387,122.672432 L115.903423,108.286847 L60.4910511,108.286847 L51.3369369,122.672432 L64.4639039,122.672432 L46.2508108,151.407808 L122.26018,151.407808 L150.334655,107.132733 L160.571051,122.672432 L151.341021,122.672432 L142.59988,137.064985 L169.932733,137.064985 L179.423664,151.407808 L196.859339,151.407808 L149.596396,79.6564565 L149.596396,79.6564565 Z" id="Shape"></path>
            </g>
        </g>
    </g>
</svg>