<?xml version="1.0" encoding="UTF-8" standalone="no"?>
<svg width="240px" height="240px" viewBox="0 0 240 240" version="1.1" xmlns="http://www.w3.org/2000/svg" xmlns:xlink="http://www.w3.org/1999/xlink">
    <!-- Generator: Sketch 3.6 (26304) - http://www.bohemiancoding.com/sketch -->
    <title>Slice 2</title>
    <desc>Created with Sketch.</desc>
    <defs></defs>
    <g id="Page-1" stroke="none" stroke-width="1" fill="none" fill-rule="evenodd">
        <g id="Grey" fill="#8D99AE">
            <path d="M89.7992943,46.0947583 C98.1274972,49.7061029 106.403056,53.3911484 114.720731,57.0130217 C115.984175,57.5394567 116.794885,58.6765565 117.742468,59.6030822 C115.268223,62.3194872 112.657105,64.9095477 110.18286,67.6364814 C103.402377,60.4453783 96.5271346,53.3490336 89.7992943,46.0947583 Z M226.346023,46 C230.904951,48.7374624 235.474407,51.4538673 240.001749,54.2229158 C239.970163,64.2988831 239.99122,74.385379 239.99122,84.471875 C235.137489,89.8099266 230.599618,95.4427818 226.36708,101.29674 C226.314437,82.8715123 226.356552,64.4357562 226.346023,46 Z M227.377836,132.072134 C231.104996,125.112662 235.274362,118.363765 239.970163,112.014958 C239.99122,139.505397 239.970163,166.995837 239.980691,194.475747 C235.432292,194.486276 230.883893,194.486276 226.335494,194.475747 C226.324966,174.75549 226.346023,155.024703 226.324966,135.293917 C226.219679,134.125231 226.851401,133.082889 227.377836,132.072134 Z M89.8414092,164.921682 C93.6106843,168.048707 97.3167872,171.281018 101.128177,174.355399 C101.201878,181.062182 101.149234,187.768965 101.159763,194.486276 L89.8414092,194.486276 C89.8414092,184.631412 89.8308805,174.766018 89.8414092,164.921682 Z M118.363661,175.145052 C122.375097,171.75481 126.39706,168.375097 130.419024,164.995383 C130.387438,167.722317 130.461139,170.449251 130.366381,173.155127 C129.524085,173.818435 128.702846,174.481743 127.892136,175.166109 C124.70194,175.176638 121.543329,175.208224 118.363661,175.145052 Z M0.0315861042,46.0737009 C27.3851524,46.0631722 54.7281899,46.0526435 82.0817562,46.0842296 C91.4207144,55.9917376 100.812316,65.8466022 110.203918,75.7014667 C119.51129,65.7729013 128.966064,55.9706802 138.294493,46.0737009 C165.795461,46.0631722 193.306958,46.0631722 220.797397,46.0737009 C220.807926,66.415152 220.786869,86.7460745 220.807926,107.098054 C220.744754,108.02458 221.007971,109.056393 220.555237,109.919746 C213.732639,121.069641 207.815508,132.798614 203.372396,145.096138 C202.803847,146.422754 202.277412,147.949416 200.99291,148.760126 C199.897925,149.223389 198.287034,149.023343 197.697426,147.865186 C196.918303,146.401697 196.960417,144.696047 196.739315,143.095684 C196.023363,136.894279 195.370583,130.661288 194.349299,124.491469 C193.738635,121.343387 193.04374,117.942617 190.69584,115.573659 C188.495341,113.425804 185.126157,113.21523 182.26235,113.910124 C179.630175,114.489203 177.15593,116.057979 175.829314,118.447994 C174.102607,121.40656 174.123664,124.996847 174.744857,128.271273 C175.829314,134.009415 177.766595,139.536983 179.745991,145.022437 C183.662667,155.361622 187.631988,165.700806 191.559194,176.029462 C192.538363,178.672167 194.086082,181.3991 196.791958,182.588843 C199.118801,183.568013 201.750976,183.557484 204.214693,183.199508 C206.352019,182.873118 208.194542,181.451744 209.257941,179.609221 C211.237336,176.240036 212.005932,172.354946 213.174618,168.659371 C215.511989,161.120821 217.754603,153.519099 220.765811,146.21218 C220.828983,162.300036 220.765811,178.39842 220.786869,194.486276 C203.625085,194.496805 186.452773,194.486276 169.280461,194.496805 C168.585567,188.516502 168.080189,182.483556 168.39605,176.471668 C168.469751,170.596653 168.711911,164.753223 168.648739,158.878208 C168.827727,150.360488 167.722214,141.91647 167.237893,133.419808 C166.690401,126.828841 167.406352,120.195759 166.816745,113.604792 C171.691534,110.551468 176.776897,107.86665 181.683272,104.86597 C184.978755,102.823402 188.516399,101.065108 191.338091,98.3487034 C192.896339,96.8325704 194.107139,94.5162561 193.170085,92.3473436 C191.190689,88.3253797 185.978982,86.1459385 181.77803,87.9147603 C178.335145,89.4940655 176.292576,92.9369509 173.155023,94.9374042 C169.238347,97.3590055 165.290083,99.738492 161.26812,102.002163 C158.225325,100.412329 154.571865,99.8858938 151.286911,100.917707 C149.497031,101.496785 147.844025,102.718115 147.128074,104.497465 C146.285777,106.455804 146.9912,108.603659 146.612167,110.614641 C146.370007,111.857027 145.401367,112.741438 144.348496,113.331046 C139.905384,115.963221 135.420158,118.532224 130.987574,121.185457 C126.428647,123.849218 122.006592,126.91307 116.879114,128.397617 C113.762619,129.313614 110.109159,130.366484 108.603555,133.546152 C107.161123,136.64159 108.866773,140.200292 111.277845,142.263917 C113.351999,144.243313 116.521139,144.664461 119.174371,143.727407 C122.638314,142.590307 125.491592,140.189763 128.365928,138.041908 C131.945686,135.304445 135.609674,132.693327 139.273662,130.071681 C141.253058,128.713478 143.242983,127.228931 145.569826,126.502451 C147.149131,125.912844 149.139056,126.597209 149.802364,128.197572 C151.37114,131.714158 150.876291,135.694007 150.949992,139.442225 C151.04475,151.950322 149.897122,164.416305 149.465445,176.913873 C149.433859,182.77836 149.381216,188.632318 149.654962,194.496805 C145.106563,194.475747 140.568693,194.53892 136.020294,194.45469 C136.062408,180.619976 136.05188,166.774734 136.030822,152.94002 C127.397287,160.194296 118.774281,167.480157 110.151274,174.734432 C101.50721,167.490686 92.8947326,160.204824 84.2717261,152.961078 C84.2506687,166.795791 84.2611974,180.651562 84.2717261,194.486276 C56.1811507,194.507333 28.0800467,194.496805 0,194.486276 C0.0315861042,145.011908 0.0315861042,95.5480688 0.0315861042,46.0737009 Z" id="MTV"></path>
        </g>
    </g>
</svg>