<?xml version="1.0" encoding="UTF-8" standalone="no"?>
<svg width="240px" height="240px" viewBox="0 0 240 240" version="1.1" xmlns="http://www.w3.org/2000/svg" xmlns:xlink="http://www.w3.org/1999/xlink">
    <!-- Generator: Sketch 3.6 (26304) - http://www.bohemiancoding.com/sketch -->
    <title>Slice 2</title>
    <desc>Created with Sketch.</desc>
    <defs></defs>
    <g id="Page-1" stroke="none" stroke-width="1" fill="none" fill-rule="evenodd">
        <g id="Grey" fill="#8D99AE">
            <g id="Starbucks">
                <path d="M119.396339,42.8338983 C123.656136,45.2892203 128.174644,48.4490847 131.614373,51.7976949 L130.263051,53.1555254 C123.475525,52.4338983 116.32678,53.3345085 109.892339,53.4337627 C109.17478,52.7096949 107.729085,51.6211525 109.075525,50.7115932 L119.396339,42.8338983 L119.396339,42.8338983 L119.396339,42.8338983 Z M239.413424,127.148746 C239.503729,130.21261 239.791729,132.843661 238.59661,135.979119 C226.196339,139.505898 218.050983,126.376678 206.019254,128.356881 L207.379525,135.162305 C218.510644,135.528407 225.463322,146.202305 236.962983,145.743458 C235.329356,149.006644 237.691932,157.603525 230.453695,154.167051 C222.940475,152.361763 217.508339,145.743458 209.275119,145.743458 C208.281763,147.567458 208.910644,150.092746 208.736542,152.250305 C217.422102,153.613017 223.66861,160.953763 232.351729,162.309153 C231.534915,165.293288 230.725424,168.634576 228.279864,170.454508 C221.215729,168.735458 215.698169,162.391322 208.177627,162.572746 L206.838508,168.821695 C213.985627,169.005559 218.60339,175.328542 225.026441,177.226576 C225.202983,179.862508 222.846915,182.217763 221.489898,184.570576 C215.787661,182.858034 211.439186,177.959593 204.924203,178.320814 C204.833898,175.866305 206.290983,173.079051 205.741017,170.454508 C198.423864,172.63078 193.517288,165.831864 188.094102,161.753492 C187.937898,148.407051 173.887729,139.651525 173.145763,127.148746 C173.00339,124.656 173.383322,121.994847 174.519051,119.135186 C179.136814,108.458034 177.686237,94.5957966 172.622644,84.6410847 C171.084203,82.0214237 168.357966,79.9533559 165.81722,78.4132881 C169.534373,86.2909831 174.064271,95.5989153 171.80339,105.281898 C171.541424,112.759322 167.129492,119.94061 167.079051,127.148746 C167.061966,129.71878 167.610305,132.288814 169.088542,134.884068 C174.975458,145.486373 185.566373,155.522441 181.584,168.819254 C180.488949,172.903322 177.228203,176.061559 176.414644,180.218034 C183.301424,185.921898 189.813153,192.349017 198.951051,192.711051 C202.206915,190.631593 200.398373,181.409898 207.096407,185.663186 L216.876203,190.555119 C216.163525,193.173153 213.971797,195.519458 211.986712,197.322305 C208.276068,195.516203 204.656542,193.351322 200.029831,193.527864 C198.665492,194.975186 197.491525,196.599864 197.595661,198.676881 C200.851525,199.213017 203.838102,200.587119 206.557831,202.490847 C205.295186,205.210576 202.834169,206.914983 200.571661,208.997695 L192.98522,206.285288 C191.718508,208.097898 189.087458,210.002441 190.010847,211.991593 C191.722576,212.72461 193.621424,213.715525 194.881627,214.985492 C191.533017,218.605017 187.288678,220.933424 183.20461,223.390373 C179.68678,211.892339 168.096,203.83078 169.090983,190.533966 L168.552407,189.996203 C165.827797,193.059254 166.738169,197.957695 166.913898,201.932746 C170.174644,210.261153 177.952271,216.693966 179.131932,225.826983 C177.770034,228.177356 174.699661,228.645966 172.344407,229.640949 C172.617763,213.174508 147.640678,200.685559 163.658034,184.029559 C168.999864,175.873627 177.949831,168.090305 174.778576,156.861559 C171.522712,146.020068 160.00678,139.302508 160.108475,127.148746 L160.126373,126.200949 C162.749288,113.526508 170.717288,100.040136 164.199051,86.5570169 C162.382373,81.1338305 158.323525,74.9711186 152.802712,72.7045424 C161.033492,82.1255593 164.296678,97.4969492 159.587797,110.173831 C157.214644,115.216271 153.94739,121.223593 153.619525,127.151186 L153.6,127.151186 C153.425085,130.24678 154.05722,133.325288 156.054508,136.244339 C162.304271,146.384542 173.15878,157.522983 166.914712,170.737627 C159.856271,181.322034 147.547932,192.088678 154.421695,206.029831 C159.399051,214.355797 167.098576,222.663864 165.021559,232.899254 L156.876203,235.611661 C162.306712,216.520678 135.695186,205.303322 146.835254,186.205831 C153.713085,175.97939 166.014102,166.384271 159.050847,152.811661 C154.887864,144.401898 146.286102,139.424542 146.557831,128.914983 L146.853966,127.150373 C149.656678,112.245153 160.987119,98.1364068 153.064678,82.2085424 C150.98278,77.5053559 146.822237,72.7102373 142.204475,69.9929492 L141.925424,70.272 C151.161763,79.2317288 153.971797,93.9734237 148.992,105.823729 C146.668475,112.776407 141.569085,119.702237 140.53261,127.152814 C140.039593,130.665763 140.455322,134.306441 142.485153,138.141559 C148.367186,147.456 158.682305,157.336678 152.245424,169.378983 C145.466847,179.325559 134.150237,189.003661 138.670373,201.938441 C143.649356,213.255051 154.045831,224.035525 148.432271,238.067797 L140.02739,239.965831 C146.722169,226.290712 136.683661,212.721356 130.803254,200.861288 C123.649627,183.845695 146.173017,175.697898 146.534237,160.141017 C146.448814,150.100068 135.774102,144.398644 133.518102,135.168 C128.897898,131.270237 124.109288,136.717831 118.586034,135.706576 C114.508475,136.525831 108.245695,130.093831 105.811525,137.066034 C102.912814,147.287593 89.7071186,154.802441 95.5110508,166.926102 C101.033492,177.700068 114.323797,185.578576 109.884203,199.521356 C105.909153,212.544814 92.7783051,224.945085 100.922034,239.965831 C97.576678,238.882169 91.3293559,240.956746 91.419661,235.612475 C86.263322,217.422102 108.252203,206.824678 101.46061,188.644068 C98.2999322,177.508068 83.8991186,171.355932 87.0695593,157.962305 C89.4134237,146.936949 101.78522,139.229288 100.049898,127.152 C99.9091525,126.140746 99.6602034,125.105898 99.304678,124.027119 C94.6869153,110.994712 85.2658983,97.9590508 90.8810847,82.7487458 C92.4227797,78.404339 95.5021017,74.6945085 98.208,70.8113898 C89.2474576,75.6065085 84.727322,85.7458983 84.9128136,96.0610169 C84.5223051,107.278373 92.8084068,116.887322 93.9872542,127.152 C94.4509831,131.294644 93.7724746,135.536542 90.8810847,140.036339 C85.0031186,148.012475 77.3157966,156.422237 80.8401356,166.924475 C84.1911864,177.517831 97.4033898,183.935186 96.5890169,196.248407 C96.4995254,210.813559 79.5750508,219.882305 84.3717966,236.17139 L75.9482034,233.438644 C72.603661,218.963797 87.9864407,211.557966 88.1629831,198.165153 C90.3400678,182.763661 70.696678,177.04922 71.8755254,162.035797 C71.7909153,150.628881 81.8318644,143.404475 86.2665763,133.809356 C87.0272542,131.474441 87.2802712,129.268068 87.1785763,127.152814 C86.6351186,116.544 77.0757966,108.249763 78.6622373,96.3221695 C79.1959322,87.5438644 82.1825085,79.8492203 87.8863729,73.2471864 C80.0168136,76.408678 76.7658305,85.467661 74.592,93.0711864 C70.8195254,105.263186 79.8248136,116.229966 80.7278644,127.153627 C81.1281356,131.97722 79.9492881,136.773153 75.4104407,141.676475 C68.8905763,149.359729 62.2787797,159.054102 66.9860339,169.38061 C71.9707119,180.774508 87.6309153,189.643119 80.8385085,203.854373 C77.1327458,212.815729 68.2592542,219.599186 68.6237288,230.184407 C66.2725424,229.18861 63.8334915,228.196068 61.8353898,226.39078 C61.8353898,212.908475 81.0142373,204.487322 71.876339,190.278508 C71.0668475,193.082034 70.8927458,196.891932 70.2589831,200.059119 C67.0877288,208.298847 60.3026441,214.894373 57.7635254,223.412339 C53.5175593,221.773831 49.0779661,218.330847 45.5463051,214.711322 L50.4382373,211.717424 C49.8947797,209.904 48.4490847,208.367186 47.1848136,206.828746 C44.0078644,206.382102 41.9218983,208.466441 39.3030508,209.283254 C37.0405424,207.288407 34.8569492,205.477424 33.0532881,203.034305 C34.6771525,198.40922 47.3654237,202.233763 40.9374915,194.629424 C36.5979661,191.916203 32.2421695,195.792 28.4420339,197.601356 L23.2905763,191.094508 C27.7252881,188.382102 32.1486102,184.572203 37.6645424,185.664814 C39.024,188.112814 39.1183729,191.712814 41.7372203,192.990915 C51.0606102,192.809492 57.6667119,185.757559 64.8138305,180.235119 C59.8324068,172.82278 55.7776271,162.589831 60.2025763,153.626034 C63.7480678,144.643525 72.9860339,137.078237 73.4050169,127.147932 C73.4993898,124.887864 73.1471186,122.509831 72.1586441,119.950373 C67.2740339,107.368678 65.5501017,90.3644746 74.8734915,79.2284746 C69.8042034,80.5903729 66.8151864,86.9084746 65.0928814,91.7060339 C59.4882712,103.991593 66.5768136,115.373288 66.8216949,127.147119 C66.8550508,129.264814 66.6833898,131.38739 66.1700339,133.525424 C61.371661,143.208407 53.5972881,151.704407 52.3346441,162.846915 C46.8122034,166.369627 42.2782373,172.529898 34.4094915,170.451254 C34.1328814,172.530712 34.7666441,175.700339 35.4882712,178.055593 C29.2482712,177.793627 24.9933559,182.392678 19.7393898,184.564881 C16.9407458,183.666712 16.2126102,180.048814 15.1289492,177.517017 C21.2786441,175.44 25.7149831,169.274847 32.7758644,169.372475 C33.5943051,167.098576 32.3170169,165.015051 31.9566102,162.845288 C23.1734237,158.946712 9.25098305,182.116881 8.08027119,162.028475 C16.8569492,161.485017 22.4656271,153.338034 31.1576949,152.526102 L31.4172203,146.019254 C21.5528136,145.022644 15.2070508,155.163661 5.34671186,154.163797 L3.1720678,145.480678 C14.5781695,146.193356 21.3738305,135.971797 32.2364746,135.421831 C33.6797288,133.523797 33.8538305,130.717831 34.1320678,128.095729 C22.2752542,126.55078 14.1388475,139.690576 1.55471186,135.700068 C1.55471186,135.700068 1.12108475,130.231322 0.885966102,127.147932 L0.903050847,127.147932 C0.817627119,125.942237 0.736271186,125.101831 0.736271186,125.101831 C11.9576949,129.456 21.8172203,121.396068 31.4172203,117.235525 C33.8587119,116.504949 37.6661695,117.771661 38.7612203,115.059254 C38.6660339,112.977356 42.4629153,110.543186 39.3022373,109.090169 C25.2675254,107.185627 15.9441356,124.113356 1.55308475,116.416271 L0.473491525,114.24 C3.46738983,73.3383051 26.5350508,33.7944407 64.8138305,14.3349153 C80.3170169,5.47525424 99.5772203,0.959186441 119.000949,0.798915254 C142.442034,0.604474576 166.128,6.75335593 183.748068,19.2260339 C200.858847,29.7217627 217.226034,47.0188475 226.108475,64.5778983 C234.603661,79.9623051 238.513627,97.2252203 239.681085,115.603525 C224.835254,126.820881 214.875661,105.03539 199.758102,109.911051 C200.572475,112.268746 201.023186,114.707797 202.751186,116.698576 C216.149695,116.604203 225.376271,130.63322 239.40122,125.104271 L239.413424,127.148746 L239.413424,127.148746 L239.413424,127.148746 Z M68.8816271,76.7747797 C59.4679322,70.6185763 47.5330169,76.4151864 38.7595932,79.7678644 C37.9452203,71.5281356 34.5990508,64.0214237 27.6219661,58.5917288 C26.9450847,58.2549153 26.0094915,57.5463051 25.1666441,57.4942373 C24.6622373,57.4625085 24.1822373,57.6658983 23.8096271,58.3110508 C26.9719322,77.7656949 14.3251525,91.3407458 5.36298305,106.098712 C8.34711864,108.537763 13.1414237,108.173288 16.7609492,107.456542 C26.2616949,103.65722 35.3117288,97.0446102 46.6242712,99.3111864 C49.9696271,93.6097627 55.5905085,88.087322 60.199322,83.5623051 C63.0150508,81.1256949 66.8835254,79.5783051 68.8816271,76.7747797 L68.8816271,76.7747797 L68.8816271,76.7747797 Z M97.6669831,88.9928136 C97.4863729,90.164339 97.7572881,92.2527458 99.5633898,91.4456949 C102.373424,87.5544407 107.348339,90.6329492 110.423593,90.9071186 L110.423593,89.8120678 C108.736271,87.1623051 105.264814,85.831322 101.739661,85.9639322 C100.926102,85.9924068 100.099525,86.1111864 99.3038644,86.2958644 C98.1242034,86.5578305 97.303322,87.6374237 97.6669831,88.9928136 L97.6669831,88.9928136 L97.6669831,88.9928136 Z M141.921356,77.3336949 C139.394441,71.7209492 133.601898,69.4494915 128.345492,68.0924746 C125.768949,67.7751864 123.09478,67.5604068 120.442576,67.5351864 C119.945492,67.5303051 119.44922,67.5237966 118.954576,67.5351864 C111.535729,67.6848814 104.447186,69.5894237 100.11661,75.696 C99.4950508,77.4199322 96.7623051,79.8410847 99.2997966,81.3860339 C105.002034,81.0215593 111.508881,80.3064407 115.309831,85.2 C115.309831,89.5484746 118.117424,95.3336949 113.413424,97.4155932 C109.515661,93.8066441 104.899525,98.9515932 100.658441,96.055322 C98.6644068,94.8772881 97.4025763,96.2522034 96.5857627,97.9712542 C95.4069153,109.191051 101.281627,121.573424 111.778169,127.815864 C116.032271,129.350237 121.75078,130.809763 126.190373,128.632678 C136.869153,123.660203 141.292475,112.263864 143.280814,101.764068 C143.013966,99.7659661 143.109153,95.8722712 140.305627,95.7778983 C137.140068,97.7800678 132.523119,96.5971525 129.168,95.7778983 C127.184542,96.4181695 127.093424,99.3201356 124.835797,99.8701017 L123.460068,98.7726102 C122.282034,93.8025763 121.555525,86.7408814 126.175729,83.3019661 C131.338576,81.2200678 137.402034,80.3105085 142.741424,81.9441356 C143.738034,80.2258983 142.199593,78.8729492 141.921356,77.3336949 L141.921356,77.3336949 L141.921356,77.3336949 Z M136.472949,86.2576271 C136.114169,86.2665763 135.765153,86.2844746 135.412068,86.2958644 C133.515661,87.5609492 127.989153,86.6513898 129.984,90.9071186 C133.425356,88.1849492 138.222102,90.0927458 141.661017,91.4456949 C142.93261,90.8143729 142.656814,89.5468475 142.74061,88.4542373 C141.63661,86.4 138.998237,86.2071864 136.472949,86.2576271 L136.472949,86.2576271 Z M175.876881,47.992678 C169.178034,47.6371525 163.568542,51.4397288 157.413153,53.1604068 C156.877017,47.9227119 160.856136,42.391322 161.764068,37.1332881 C151.811797,37.7735593 143.92922,43.7637966 135.696,48.5491525 C133.790644,43.9452203 131.879593,39.3176949 129.987254,34.696678 L140.847458,24.376678 L141.125695,23.0172203 L126.456407,22.2004068 C123.929492,17.7730169 122.933695,12.4401356 119.947119,8.36745763 C117.503186,12.9827797 115.861424,17.8673898 113.419932,22.4786441 L98.7677288,23.2978983 L98.7677288,24.376678 L109.888271,34.4176271 C108.528814,39.5788475 107.265356,45.1867119 103.92,49.0877288 C97.4042034,45.1850847 90.9811525,40.9374915 83.8372881,38.2275254 C82.1182373,37.672678 79.6677966,36.7704407 78.1293559,37.9492881 C80.3886102,42.9282712 83.5525424,48.2839322 83.0204746,53.7185085 C80.0322712,53.1685424 77.6835254,51.2526102 74.8759322,50.4471864 C71.5183729,49.5311186 67.5343729,47.7412881 64.2768814,48.8298305 C69.7082034,56.427661 74.1412881,64.3793898 75.6748475,73.5229831 C93.6927458,64.8268475 114.705356,60.0439322 136.516881,63.7602712 C146.740881,65.3873898 156.142373,69.552 165.284339,72.9827797 C165.641492,63.3949831 171.704949,55.6905763 175.876881,47.992678 L175.876881,47.992678 L175.876881,47.992678 Z M206.818169,100.128814 C216.042305,102.570305 225.295729,112.620203 235.063322,106.099525 C226.556746,91.9834576 213.895322,78.9477966 217.416407,60.4881356 C217.784949,59.2279322 216.970576,57.9522712 215.799051,57.7732881 C210.280678,60.0284746 206.007051,65.4654915 203.823458,70.8097627 C202.925288,73.9704407 202.39322,77.3304407 201.128136,80.3096949 C194.517153,76.8691525 187.46278,73.536 179.408542,74.3414237 C176.504136,74.7034576 172.340339,74.8938305 171.804203,77.8755254 C180.944542,82.7601356 188.461017,90.912 194.062373,99.592678 C197.962576,98.9564746 202.745492,99.4999322 206.818169,100.128814 L206.818169,100.128814 L206.818169,100.128814 Z M110.162441,112.886237 L110.42278,114.522305 C113.959322,116.878373 115.047051,120.871322 119.943051,120.508475 C124.285017,120.766373 127.542508,116.698576 129.705763,113.442712 C123.830237,112.631593 116.680678,113.886915 110.162441,112.886237 L110.162441,112.886237 L110.162441,112.886237 Z" id="inner_artwork"></path>
                <g id="g4377" transform="translate(112.830508, 103.694915)">
                    <path d="M1.00433898,3.0839322 C3.56867797,3.69084746 4.20325424,4.60040678 6.22983051,4.85423729 C8.38413559,4.816 8.07335593,4.37830508 11.8311864,3.08149153 C12.0776949,2.99444068 12.4169492,2.45016949 11.996339,2.03281356 C9.66305085,-0.283389831 8.05057627,1.37138983 6.58779661,1.41532203 C4.64745763,1.43647458 2.82752542,-0.245966102 0.931932203,1.94088136 C0.608949153,2.38508475 0.440542373,2.82115254 1.00433898,3.0839322 L1.00433898,3.0839322 L1.00433898,3.0839322 Z" id="path3032-6"></path>
                </g>
            </g>
        </g>
    </g>
</svg>