<?xml version="1.0" encoding="UTF-8" standalone="no"?>
<svg width="240px" height="240px" viewBox="0 0 240 240" version="1.1" xmlns="http://www.w3.org/2000/svg" xmlns:xlink="http://www.w3.org/1999/xlink">
    <!-- Generator: Sketch 3.6 (26304) - http://www.bohemiancoding.com/sketch -->
    <title>Slice 2</title>
    <desc>Created with Sketch.</desc>
    <defs></defs>
    <g id="Page-1" stroke="none" stroke-width="1" fill="none" fill-rule="evenodd">
        <g id="Grey" fill="#8D99AE">
            <g id="un" transform="translate(0.000000, 18.000000)">
                <g id="Laurels" transform="translate(0.149216, 6.795756)">
                    <path d="M199.919405,157.801432 C192.651802,159.746236 184.896749,160.371572 177.838613,162.776825 C189.79298,152.534096 189.11055,136.685366 197.086275,124.621584 C199.626938,121.205909 201.726921,117.625678 204.688501,114.384449 C199.837065,124.10946 201.941001,136.726834 196.367616,146.164195 C194.222176,149.912937 191.153886,153.549782 187.76084,156.49414 C188.869461,156.452672 189.839745,155.4936 190.814648,154.853118 C199.867365,145.825849 211.693942,143.301458 221.486404,135.967213 C225.409047,132.843807 229.001685,128.750794 230.726201,124.324051 C228.873235,139.30126 213.962557,153.33914 199.919405,157.801432 L199.919405,157.801432 L199.919405,157.801432 L199.919405,157.801432 Z" id="path1989"></path>
                    <path d="M232.532395,97.1612844 C228.103198,103.459439 222.745209,109.322488 218.653267,115.723328 C219.109758,110.655449 219.710503,104.423776 217.735017,99.6231442 C214.311677,89.2852998 211.30398,78.7888105 210.333697,67.4431804 L210.467415,63.1046439 C213.043646,74.6911931 224.433495,82.6560445 223.714837,95.6525713 C223.975683,98.8023064 223.000785,101.480071 222.410577,104.249999 L222.606216,104.454715 L223.119353,103.880059 C224.808302,97.5048881 225.660678,90.8012516 228.286979,84.8532858 C232.019258,76.2940368 236.679668,67.655796 234.780591,57.3212408 C240.457402,69.5054836 238.737493,85.7847147 232.532395,97.1612844 L232.532395,97.1612844 L232.532395,97.1612844 L232.532395,97.1612844 Z" id="path1991"></path>
                    <path d="M225.541449,31.5171028 C233.009965,41.6314728 234.646874,57.7497614 229.207199,69.3514564 C227.179673,74.2679368 225.747631,79.5069636 224.951241,84.9487313 C224.571166,84.0100695 224.484213,82.7482006 224.144974,81.7022367 C221.174167,70.3460711 210.426572,62.2528671 206.006596,51.5460678 C204.604846,48.0448229 203.40994,44.4270683 202.747274,40.6263227 C207.47026,49.3554052 219.109758,53.8640989 222.282127,63.4837971 C223.581774,65.916693 223.508655,68.9565036 224.314921,71.5723973 C224.484213,71.5723973 224.653505,71.4466668 224.653505,71.2748649 C223.257031,61.3655409 223.683215,50.9944523 225.028972,41.2082166 C224.951241,35.9073187 224.433495,30.7653821 221.486404,26.66217 C223.376253,27.7624353 224.227314,29.8757506 225.541449,31.5171028 L225.541449,31.5171028 L225.541449,31.5171028 L225.541449,31.5171028 Z" id="path1993"></path>
                    <path d="M220.275681,29.5755894 C222.237339,38.4386259 219.371925,47.0702814 221.174167,56.0185583 L221.106984,56.0955752 C216.281889,46.6141112 206.038211,42.1393156 198.989957,34.5506582 C194.905267,30.0475592 193.129372,24.5593833 192.107704,18.7483306 C196.146284,28.4779528 207.044068,30.6218835 213.300545,38.8207381 C215.393945,40.7109093 216.077029,43.3294386 217.426739,45.4730322 L217.64741,45.2600863 C214.049503,37.5848741 212.844054,28.9472871 210.333697,20.7615967 C209.076862,17.2146039 206.582309,13.729489 203.23538,11.4930787 C211.448241,13.1703038 218.566314,21.7384435 220.275681,29.5755894 L220.275681,29.5755894 L220.275681,29.5755894 L220.275681,29.5755894 Z" id="path1995"></path>
                    <path d="M198.31807,9.24909868 C204.503405,14.7810475 207.300968,21.9438198 209.107168,29.365279 L210.12883,31.7221488 C201.151201,25.2699668 192.995649,16.5965068 187.262852,7.43627487 L180.26137,0.358089074 C186.416405,2.96608298 193.052301,4.52284869 198.31807,9.24909868 L198.31807,9.24909868 L198.31807,9.24909868 L198.31807,9.24909868 Z" id="path1997"></path>
                    <path d="M56.5289601,1.53274257 C50.3232077,6.96924583 46.0191621,13.8446841 41.4153984,20.2560592 C37.2885504,25.3621162 32.0096079,28.7290769 27.3314105,33.1199466 C29.8569242,27.8881591 29.9491451,21.6387178 33.5312405,16.832822 C38.6283783,7.94641615 48.0802793,4.82005082 56.5289601,1.53274257 L56.5289601,1.53274257 L56.5289601,1.53274257 L56.5289601,1.53274257 Z" id="path1999"></path>
                    <path d="M22.5912984,20.4640643 C25.6095319,16.714661 29.4360075,14.1089724 33.7420294,13.0087071 C25.3809558,18.7483306 25.9250541,29.0341789 23.2743825,37.5848741 C22.4292507,40.7467822 20.961634,43.6598781 20.2304631,46.9011083 L20.4432283,47.0702814 C21.8344348,43.4061252 24.2795857,39.9440493 27.3314105,36.9542667 C33.2697274,31.4762959 42.0543551,28.0622662 44.9645568,19.958857 C44.8315001,31.2195772 35.430971,40.0724086 26.4362155,46.4011721 C22.7269924,49.652931 19.1501718,53.3588917 17.1074895,57.5391208 C16.9072434,54.6981078 17.5277518,51.8455685 17.3255295,48.802145 C16.3473342,38.9721366 15.6365811,27.7522301 22.5912984,20.4640643 L22.5912984,20.4640643 L22.5912984,20.4640643 L22.5912984,20.4640643 Z" id="path2001"></path>
                    <path d="M5.67417321,54.0773751 C5.42254189,44.1160481 9.55993277,35.9846592 15.3902246,28.5625394 C15.5595099,28.4779528 15.6800542,28.3087865 15.8980942,28.3495935 C9.48023091,38.0953457 14.7894729,50.3710841 14.4970059,61.4524327 L13.6505521,72.7980629 C13.7763711,72.8803442 13.7763711,73.2213192 14.0741061,73.0903243 C14.4535261,71.8258199 14.5358653,70.4744305 14.7894729,69.1737229 C16.3012237,60.0220514 24.2545541,53.528395 31.2013659,47.203905 C32.6847867,45.5497188 33.9962913,43.8701884 34.7584229,41.9290053 C34.1912694,46.4857519 32.7618578,51.0816677 30.8700327,55.2958014 C25.463295,65.8324367 15.4751944,74.4779169 13.6505521,86.5410465 C12.7652388,74.9808256 4.88898637,66.3379743 5.67417321,54.0773751 L5.67417321,54.0773751 L5.67417321,54.0773751 L5.67417321,54.0773751 Z" id="path2003"></path>
                    <path d="M0.818784898,68.2429542 C1.53744339,65.1274478 2.08680977,61.9033318 3.44376394,59.044544 C0.872800809,72.2135335 9.73646923,81.7022367 12.6440403,93.1169839 C13.8606867,97.3864037 14.1584217,101.971791 15.8980942,105.977913 C16.0601352,106.065458 16.2010973,105.896284 16.3012237,105.767926 C11.9721465,93.6422649 18.2213787,82.3743118 24.5009106,72.8803442 C26.0278112,70.307893 26.9078564,67.4431804 27.6673574,64.4863117 C28.3346373,69.9741573 26.9460615,76.2940368 26.1483622,81.9918693 C24.6214549,89.2418501 22.3423045,96.1172957 20.3582517,103.152032 C19.0526761,107.547842 19.3958673,112.507111 20.066439,117.112902 L19.4373708,116.610654 C14.8336071,108.1271 5.7176463,101.510356 3.01032807,92.2421679 C0.782556194,84.8532858 -0.698240648,76.2940368 0.818784898,68.2429542 L0.818784898,68.2429542 L0.818784898,68.2429542 L0.818784898,68.2429542 Z" id="path2005"></path>
                    <path d="M0.403136235,93.9634965 C1.41689915,107.921731 16.4375788,115.297442 23.4002015,126.853053 C25.0476464,129.217499 26.4770579,131.833386 28.6784829,133.812754 C28.3346373,132.325759 26.9460615,131.074426 26.4362155,129.551228 C24.0002853,124.704518 23.1123415,118.929016 23.6979366,113.07123 C24.372461,105.941709 27.3650085,99.3256182 26.2227959,91.8268119 C32.3409411,105.008965 30.4827074,121.462628 33.9034161,135.746698 C34.7992654,138.870758 36.6087579,141.660436 37.7944437,144.646262 C25.2241828,136.090962 8.08375638,127.95102 2.50707219,112.271457 C0.156772954,106.865232 -0.105394433,100.172124 0.403136235,93.9634965 L0.403136235,93.9634965 L0.403136235,93.9634965 L0.403136235,93.9634965 Z" id="path2007"></path>
                    <path d="M7.91182686,126.017076 C14.92056,141.861201 32.4739977,143.173752 44.2432677,152.821753 C46.4091182,154.739898 48.6783935,156.371045 51.1235444,157.509165 L51.2493634,157.381466 C48.5473132,154.94001 45.4217089,152.159553 43.5298772,148.995334 C36.641695,139.424349 39.0644449,126.017076 33.9034161,115.723328 C38.5928039,121.329004 42.8573291,127.155849 45.6884901,133.515222 C49.8996537,143.896516 51.5088934,155.621959 61.2532681,163.469311 C50.7078957,159.996369 38.3536918,160.966637 29.0460447,154.477915 C18.8833907,148.236373 9.81354043,137.649703 7.91182686,126.017076 L7.91182686,126.017076 L7.91182686,126.017076 L7.91182686,126.017076 Z" id="path2009"></path>
                    <path d="M25.9250541,155.575221 C37.1627381,168.346952 55.525079,164.085433 70.4943868,167.428033 C72.6088589,167.716352 74.5441637,168.562864 76.7851158,168.219253 C75.0006549,167.091008 72.5245433,167.213443 70.576726,166.187889 C58.8430306,162.068546 57.1218063,149.374486 50.7520299,140.814577 C58.8897954,146.214877 65.7312128,153.498439 73.2385948,160.555884 C78.6347898,165.279498 85.1303786,167.459633 91.9744269,168.849861 C90.3296194,169.450183 88.1736437,169.28562 86.4082851,169.747715 C74.1127042,172.769091 60.4522704,177.707296 47.413006,173.286478 C38.9359952,170.619242 30.1902336,163.92087 25.9250541,155.575221 L25.9250541,155.575221 L25.9250541,155.575221 L25.9250541,155.575221 Z" id="path2011"></path>
                    <path d="M178.449901,185.345651 C165.786759,190.067951 152.570957,185.129746 142.680346,177.63489 C138.676018,175.091402 135.145963,171.428891 129.966486,171.752751 C128.087828,171.717202 126.276365,171.809358 124.679637,172.270139 C134.288319,176.738349 143.213908,182.898276 151.374729,190.776236 C149.999333,192.345506 148.218164,193.813405 146.54042,195.166776 C138.676018,186.699022 129.966486,178.548544 120.214867,173.788066 C118.305255,174.03557 116.488517,175.183558 114.766632,176.107748 C106.827797,181.123624 98.9778849,187.575813 93.0757971,195.474836 L88.0043511,191.289667 C96.0986443,183.107596 105.051903,176.738349 114.84634,172.188511 C105.221849,169.142123 98.9396803,177.19913 91.6338729,181.297408 C83.1206399,187.237473 70.8770985,190.027145 60.5886255,185.928866 C55.0554144,183.831674 49.6947939,180.743156 45.6884901,175.723324 C53.7854132,181.297408 65.8445127,181.881931 75.0526944,178.261547 C87.4088743,172.906011 100.248547,166.116797 115.144076,169.363298 C117.468682,169.404105 119.727415,171.717202 121.923572,169.747715 C132.994601,166.875103 145.528633,168.849861 155.060242,173.90655 L164.884319,177.84158 C174.015429,181.21578 185.820928,180.282383 193.647778,174.722784 C189.623687,179.728131 184.126712,183.314287 178.449901,185.345651 L178.449901,185.345651 L178.449901,185.345651 L178.449901,185.345651 Z" id="path2013"></path>
                    <path d="M192.020091,172.270139 C177.802385,177.63489 163.499042,171.049737 149.876151,168.849861 L147.253149,168.516786 L147.253149,168.433844 C153.767186,166.956724 160.090191,165.01883 165.274936,160.341294 C172.911422,153.006065 179.706729,145.455916 188.187032,139.675803 C181.898279,147.733464 181.231653,159.20252 170.843061,164.382965 C168.272091,166.06414 165.027264,166.361666 162.373955,167.634724 C166.157619,167.716352 169.6218,166.361666 173.368575,165.982512 C187.299081,163.797115 203.23538,166.039126 213.008078,154.180382 C209.379873,162.44375 200.293557,169.363298 192.020091,172.270139 L192.020091,172.270139 L192.020091,172.270139 L192.020091,172.270139 Z" id="path2015"></path>
                    <path d="M217.85293,132.294821 C212.238041,135.967213 206.546742,139.373006 201.151201,143.548301 L201.151201,143.035524 C209.415447,129.310309 205.375545,110.455336 210.467415,95.3504285 L212.366491,90.2904496 C211.30398,99.7001609 215.393945,107.67093 215.106746,117.112902 C214.819547,122.816652 212.9567,127.874002 209.959545,132.42845 L210.467415,132.42845 C214.516537,127.114382 217.67837,121.462628 222.410577,116.400674 C229.755911,109.322488 237.223766,102.0646 238.188127,92.2421679 C240.68268,108.639877 231.475159,123.011494 217.85293,132.294821 L217.85293,132.294821 L217.85293,132.294821 L217.85293,132.294821 Z" id="path2017"></path>
                </g>
                <g id="Globe" transform="translate(34.947309, 0.055255)">
                    <path d="M83.3190963,103.299811 L85.8666737,103.299811 L85.8666737,167.214763 L83.3190963,167.214763 L83.3190963,103.299811 L83.3190963,103.299811 L83.3190963,103.299811 Z" id="polygon2021"></path>
                    <path d="M69.4897009,97.0223896 L71.2893049,98.8230399 L26.0276673,143.98373 L24.2280566,142.181766 L69.4897009,97.0223896 L69.4897009,97.0223896 L69.4897009,97.0223896 Z" id="polygon2023"></path>
                    <path d="M65.1632543,83.707603 L65.1593016,86.2530589 L1.19937635,86.1767017 L1.202007,83.6309163 L65.1632543,83.707603 L65.1632543,83.707603 L65.1632543,83.707603 Z" id="polygon2025"></path>
                    <path d="M71.2356195,71.3805155 L69.4333781,73.1798448 L24.2129067,27.9783403 L26.0148244,26.1790109 L71.2356195,71.3805155 L71.2356195,71.3805155 L71.2356195,71.3805155 Z" id="polygon2027"></path>
                    <path d="M85.8386811,66.1309533 L83.2910968,66.1289783 L83.3497264,2.21271075 L85.8973037,2.21534628 L85.8386811,66.1309533 L85.8386811,66.1309533 L85.8386811,66.1309533 Z" id="polygon2029"></path>
                    <path d="M98.6394943,72.2280121 L96.8398834,70.4257236 L142.127544,25.2913544 L143.927148,27.0933193 L98.6394943,72.2280121 L98.6394943,72.2280121 L98.6394943,72.2280121 Z" id="polygon2031"></path>
                    <path d="M103.578867,86.4531706 L103.57623,83.9077082 L167.535501,83.8274018 L167.540115,86.372864 L103.578867,86.4531706 L103.578867,86.4531706 L103.578867,86.4531706 Z" id="polygon2033"></path>
                    <path d="M96.1940126,99.4622012 L97.9936234,97.6599055 L143.258553,142.816984 L141.458942,144.618949 L96.1940126,99.4622012 L96.1940126,99.4622012 L96.1940126,99.4622012 Z" id="polygon2035"></path>
                    <path d="M108.446114,21.0192995 C143.674202,34.1780905 161.577428,73.4266887 148.409052,108.628034 C135.24067,143.829373 95.9644517,161.720333 60.7396561,148.561218 C25.5122229,135.403087 7.61131059,96.1551428 20.7770482,60.9531437 C33.9457538,25.7511442 73.2213181,7.86150607 108.446114,21.0192995 L108.446114,21.0192995 L108.446114,21.0192995 L108.446114,21.0192995 Z M107.415225,23.7793523 C141.116412,36.3684229 158.244326,73.9184082 145.647718,107.596218 C133.050442,141.275027 95.4717317,158.390235 61.7708757,145.801165 C28.0696887,133.213415 10.9424289,95.6627701 23.5390434,61.9846289 C36.1369732,28.3068116 73.7140379,11.1909425 107.415225,23.7793523 L107.415225,23.7793523 L107.415225,23.7793523 L107.415225,23.7793523 Z" id="path2037"></path>
                    <path d="M102.981414,35.6311806 C130.138264,45.7748448 143.93703,76.0304091 133.788204,103.166848 C123.636747,130.302956 93.3582446,144.093661 66.2046862,133.950658 C39.0507971,123.807655 25.2490639,93.5507693 35.3992122,66.4146609 C45.5493537,39.2788832 75.8275251,25.4878468 102.981414,35.6311806 L102.981414,35.6311806 L102.981414,35.6311806 L102.981414,35.6311806 Z M101.945257,38.4070265 C127.565325,47.9773505 140.588124,76.5260718 131.011065,102.130097 C121.434,127.734454 92.863218,140.747111 67.2434807,131.175466 C41.6211059,121.605142 28.5979762,93.0560968 38.1763504,67.4523946 C47.7547314,41.8480383 76.3225518,28.8353881 101.945257,38.4070265 L101.945257,38.4070265 L101.945257,38.4070265 L101.945257,38.4070265 Z" id="path2039"></path>
                    <path d="M97.6797471,49.8030149 C117.008095,57.022394 126.830194,78.5561217 119.606727,97.8692319 C112.379961,117.182019 90.8314089,126.998526 71.5060228,119.778493 C52.1783297,112.558784 42.3562296,91.0253867 49.5813501,71.7126065 C56.8061335,52.3998196 78.3546846,42.5839662 97.6797471,49.8030149 L97.6797471,49.8030149 L97.6797471,49.8030149 L97.6797471,49.8030149 Z M96.730206,52.3432129 C114.654504,59.0386192 123.764535,79.0089957 117.064087,96.9203654 C110.362977,114.831398 90.3795317,123.933708 72.4555643,117.238295 C54.5319206,110.543874 45.4232109,90.5728363 52.1223441,72.6614734 C58.8224622,54.7510948 78.8062383,45.6481302 96.730206,52.3432129 L96.730206,52.3432129 L96.730206,52.3432129 L96.730206,52.3432129 Z" id="path2041"></path>
                    <path d="M91.7170526,65.7445608 C102.238385,69.6746567 107.585832,81.3964742 103.652647,91.9107374 C99.7194549,102.42335 87.9903729,107.767367 77.4687171,103.836617 C66.9473848,99.9071823 61.6009225,88.1853576 65.533123,77.6711008 C69.4666456,67.1578281 81.1980342,61.814465 91.7170526,65.7445608 L91.7170526,65.7445608 L91.7170526,65.7445608 L91.7170526,65.7445608 Z M90.6884709,68.4924336 C99.6937689,71.8554444 104.267888,81.8868725 100.903825,90.8838632 C97.5368023,99.8805234 87.5002911,104.452409 78.4976298,101.089399 C69.4933231,97.7263945 64.9182131,87.6956197 68.2822753,78.6982991 C71.648968,69.7013154 81.6881166,65.1290993 90.6884709,68.4924336 L90.6884709,68.4924336 L90.6884709,68.4924336 L90.6884709,68.4924336 Z" id="path2043"></path>
                    <path d="M124.331035,10.9243489 C165.534329,33.5830257 181.173541,85.0652475 159.23701,125.838028 C137.303109,166.61246 86.0580291,181.315176 44.8550658,158.656829 C3.65243262,135.998806 -11.9871165,84.5159305 9.94942114,43.7424897 C31.8846367,2.96838823 83.1277405,-11.7339976 124.331035,10.9243489 L124.331035,10.9243489 L124.331035,10.9243489 L124.331035,10.9243489 Z M122.889104,13.6070545 C162.596458,35.4425882 177.666547,85.0543819 156.526393,124.348405 C135.388884,163.641112 86.0043437,177.810641 46.2986424,155.974778 C6.59030328,134.13793 -8.47978531,84.5261356 12.660031,45.2327738 C33.7975406,5.93940525 83.1814191,-8.2291397 122.889104,13.6070545 L122.889104,13.6070545 L122.889104,13.6070545 L122.889104,13.6070545 Z" id="path2045"></path>
                    <path d="M134.329671,124.294757 C134.377758,124.732168 134.227569,125.80874 134.431774,126.055915 C134.643217,126.391288 135.432357,126.319872 135.774233,126.201388 C136.708293,125.850538 137.637741,124.617303 138.069194,123.692789 C138.372865,123.223455 138.577064,122.673815 138.510535,122.059007 L137.857089,120.08096 C137.693727,119.38716 137.474379,118.16775 136.733979,117.879762 C136.803146,117.69611 137.037651,117.409113 137.009982,117.146139 C136.838713,116.36447 135.531822,116.56984 135.064795,117.14384 C134.829635,117.430838 134.896164,118.043994 134.845446,118.402414 C134.832273,119.112997 134.633336,120.547659 134.350089,121.193075 C134.066843,121.837177 133.273089,122.705738 133.262553,123.41599 C133.318539,123.941278 133.883062,124.245059 134.329671,124.294757 L134.329671,124.294757 L134.329671,124.294757 L134.329671,124.294757 Z M90.8363537,118.806911 L91.068552,119.317059 C91.0787571,119.404935 91.1834974,119.572126 91.27275,119.564556 C91.8649354,120.131972 92.6945871,118.817116 91.70421,118.641034 C91.6149497,118.648603 91.4311689,118.575867 91.3521283,118.671642 C91.1785534,118.688097 91.0023471,118.703566 90.8363537,118.806911 L90.8363537,118.806911 L90.8363537,118.806911 L90.8363537,118.806911 Z M91.4924297,117.508509 C91.0916066,117.897537 90.9460311,118.176964 91.59717,118.472522 L91.4924297,117.508509 L91.4924297,117.508509 L91.4924297,117.508509 Z M80.929931,109.777337 C80.2866978,110.365162 80.3354457,110.008057 80.0060889,110.214748 C79.761041,110.412224 79.9652464,110.659729 79.7406231,111.034602 C79.6714574,111.218253 79.4165343,111.329499 79.4369589,111.505251 C79.3779988,111.775794 79.658945,111.927522 79.9319789,111.991369 C80.2919658,112.047322 81.3436101,111.954181 81.6726363,111.747814 C81.9970555,111.452917 81.8692601,111.109975 82.0174734,110.83054 C82.0965209,110.735094 82.2523023,110.543874 82.3313498,110.448098 C82.3695549,110.001802 81.4275951,109.465986 80.929931,109.777337 L80.929931,109.777337 L80.929931,109.777337 L80.929931,109.777337 Z M106.292115,107.060734 L106.386312,107.93687 L106.284209,108.655024 C107.238688,108.480256 107.826267,108.16265 108.673375,107.820684 C108.926321,107.709769 109.431554,107.486625 109.627847,107.646246 C109.909124,107.79929 109.76091,108.077072 109.691745,108.260724 C109.554075,108.626713 109.007999,109.29649 108.77284,109.583487 C108.060765,110.354958 107.009458,110.449412 106.120853,111.237673 C105.643283,111.723461 105.516148,112.177325 105.035948,112.663444 C104.559039,113.147917 104.216502,113.268053 103.971461,113.466844 C103.736962,113.753841 103.933256,113.913139 103.435929,114.223176 L103.719176,113.579073 C103.448441,113.513907 103.096029,113.545829 102.891831,113.297341 C102.777209,113.043588 102.748886,112.779299 102.807515,112.509087 C102.928059,111.967015 103.037407,110.539923 103.351613,110.157151 C103.430655,110.061705 104.112429,109.823092 104.364716,109.71217 L104.247463,110.254241 C104.510291,110.231201 104.947019,110.191709 105.112359,110.088364 C105.541841,109.960995 105.972639,109.036151 106.197263,108.662593 L105.008279,109.123036 C105.215115,108.573396 105.802032,107.458645 106.292115,107.060734 L106.292115,107.060734 L106.292115,107.060734 L106.292115,107.060734 Z M82.7805965,109.699336 C82.6020837,110.513265 83.099741,110.201914 83.4007744,110.529725 C83.5947677,110.689017 83.623091,110.95199 83.6510837,111.215948 L82.9594332,111.366363 L82.6554385,111.835697 L82.2648214,112.313915 L83.4518224,112.65061 C82.8573372,112.880339 82.4973435,112.824056 82.1169387,113.390488 L83.6049732,113.256533 C84.5775699,113.257848 85.3077561,113.457953 86.2240303,112.932342 L86.0300366,112.773044 L86.2954954,111.951876 L85.6344754,111.569103 L85.4019534,111.058956 L84.2890489,109.741464 L83.9191802,109.597312 C84.2330633,109.214863 84.8660842,108.537523 83.9623295,108.353871 L83.5157202,108.305488 L83.9063373,107.827269 C83.3701443,107.78777 82.9235349,107.739064 82.5227056,108.129406 C82.0530411,108.702085 82.0401981,109.411355 82.7805965,109.699336 L82.7805965,109.699336 L82.7805965,109.699336 L82.7805965,109.699336 Z M82.2625146,98.3230971 L82.2420968,98.9441598 L82.0378912,98.6969854 L82.0632533,99.7567679 C82.2190415,100.363675 82.9004798,100.125392 83.0562679,99.9338404 C83.2222616,99.8308252 83.2706789,99.4710921 83.2528917,99.2963245 C83.2351046,99.1215561 83.1277405,98.9533744 83.0309058,98.874052 C82.8444874,98.8013154 82.7575413,98.8092153 82.5816591,98.8243546 L82.525343,98.2990737 L82.2625146,98.3230971 L82.2625146,98.3230971 L82.2625146,98.3230971 Z M10.0656822,103.910669 C10.0310993,105.241985 10.3818655,105.210061 10.6792767,106.33501 C10.8337429,106.940934 10.590017,107.139725 11.0725245,108.336097 C11.3047227,108.847559 11.4476679,109.365277 12.001648,109.580851 C11.8422377,108.089914 11.6594416,107.221346 11.1591469,105.849223 C10.8017973,104.995794 10.5287566,104.932279 10.2402423,103.893885 L10.0656822,103.910669 L10.0656822,103.910669 L10.0656822,103.910669 Z M131.098011,89.3396011 C130.679733,89.553868 130.531519,89.8329647 130.579606,90.2703698 C130.538763,90.7179865 130.92675,91.0369063 131.355572,90.909538 C131.950388,90.6798079 132.052491,89.1648403 131.098011,89.3396011 L131.098011,89.3396011 L131.098011,89.3396011 L131.098011,89.3396011 Z M48.2820341,89.1480496 C48.0663009,89.6111354 48.0254653,90.0574305 48.5013826,90.3687811 C48.4542873,89.93137 48.5817455,89.4758603 48.2820341,89.1480496 L48.2820341,89.1480496 L48.2820341,89.1480496 L48.2820341,89.1480496 Z M74.157025,89.5742716 L74.4491615,89.8138759 C75.0924015,89.2247365 75.2304024,88.8574324 75.700067,88.2847531 C76.0903535,87.8065348 76.3535125,87.7834956 76.5972316,87.5847046 C76.7526892,87.3931531 76.7335867,87.2174014 76.7922164,86.9468581 C76.9302173,86.5795548 77.1841488,86.4686397 77.1189357,85.8551463 C77.1498964,85.3209754 76.8014371,84.5554298 76.1977243,84.6979375 L76.0623608,84.2674419 C75.7995323,84.2908113 75.3707103,84.4178562 75.1269843,84.6163168 C74.8832584,84.8157682 75.0080859,85.1587181 74.6866279,85.4532847 C74.2960107,85.9305184 73.6145726,86.1688019 73.4485788,86.2721477 C73.1946406,86.3843836 73.3109017,86.639451 72.8998667,86.9419175 C72.3254688,87.3474053 71.9463726,87.1153703 71.6054882,87.2351694 C71.1766661,87.3615536 70.5413383,88.0385698 70.2195565,88.3331365 C69.7498919,88.9058158 69.6135368,89.273119 69.4169062,89.9109664 C69.348071,90.0933032 69.2011798,90.3724008 69.3072353,90.5409131 C69.4129602,90.7081114 69.6761124,90.6837514 69.8430977,90.5804056 C70.1839821,90.4619213 70.9342623,90.0409703 71.2076267,90.1048228 C71.4691399,90.0804628 71.5761801,90.2486522 71.7612764,90.3203977 C72.0333255,90.3839204 72.2082162,90.3687811 72.3929819,90.4402037 C72.5767629,90.5129402 72.7809683,90.7601145 72.9749615,90.9197359 C73.4410039,91.1428869 73.9106618,90.5702076 74.0483389,90.2042183 C74.1171741,90.0205667 74.1850178,89.8369151 74.157025,89.5742716 L74.157025,89.5742716 L74.157025,89.5742716 L74.157025,89.5742716 Z M74.66621,82.7982218 L74.6764223,82.8861045 L74.5779417,82.806452 L74.66621,82.7982218 L74.66621,82.7982218 L74.66621,82.7982218 Z M75.4421761,83.4370595 C75.6743744,83.9478614 76.5293879,84.490593 77.0145328,84.8904799 C77.1801961,84.7871345 77.258252,84.6913587 77.327094,84.5083609 C77.5428203,84.0459424 77.4482925,83.168491 76.9812653,82.9446862 C76.7006497,82.7929575 76.35845,82.9124329 76.1058339,83.0233478 C76.0956216,82.9358022 75.9806758,82.6807282 75.8838479,82.6004219 C75.1944975,81.9540146 74.3319157,83.8023879 75.4421761,83.4370595 L75.4421761,83.4370595 L75.4421761,83.4370595 L75.4421761,83.4370595 Z M71.778072,82.2607613 C72.3689419,82.8275161 72.3791541,82.9147382 73.1679632,82.8439764 C73.0477495,83.3860407 72.3458866,84.2463779 71.7714886,83.855375 C71.3937146,83.6233467 71.3555095,83.272497 71.1717285,83.200414 C70.8897976,83.0486921 70.8680577,83.6704089 70.7122763,83.8612998 C70.3394397,84.5146161 69.7169549,84.4823628 69.6556946,85.5503749 L69.9873582,85.3423698 C70.3242898,86.0210239 70.9497426,85.2571226 71.3696678,85.0422085 C71.2916118,85.1379843 71.1348388,85.3298594 71.0669884,85.5121967 C71.0057281,85.7837246 71.2982019,86.0236594 71.5521333,85.9114296 C71.8047495,85.8001847 72.1084203,85.3298594 72.3511546,85.1307383 C72.5961959,84.932608 72.6828183,84.9247082 72.9367565,84.8124788 C73.1804757,84.6143418 73.5022642,84.3197752 73.7473054,84.1206541 C74.4797917,83.5239446 74.5166814,83.874464 74.7732502,82.9657503 C74.7528324,82.7906522 74.8318799,82.6948765 74.8127774,82.519455 C74.4643181,81.7535791 73.2088057,82.3976812 73.1103251,82.3186892 L72.5652419,82.1896693 C72.3814543,82.1175931 72.0395851,82.2370617 71.778072,82.2607613 L71.778072,82.2607613 L71.778072,82.2607613 L71.778072,82.2607613 Z M75.8262098,82.0751347 L75.3884907,82.1139735 L75.5047585,82.3690474 C76.0215183,82.2344329 76.371293,82.2025099 76.3930329,81.5807865 C75.95499,81.6202857 75.8670455,81.6278553 75.8262098,82.0751347 L75.8262098,82.0751347 L75.8262098,82.0751347 L75.8262098,82.0751347 Z M48.2323014,83.7513758 L47.826204,85.736662 L48.007678,86.6052228 L48.3726025,88.3433413 C48.5972259,87.9697828 49.0003621,86.7822953 49.0412045,86.3360002 L49.1409937,85.6178473 C49.1716238,85.0843366 49.2404658,84.9013388 49.0082675,84.390537 L48.4414444,84.8838944 L48.4068615,83.7362366 L48.2323014,83.7513758 L48.2323014,83.7513758 L48.2323014,83.7513758 Z M76.7335867,81.4616413 C76.6776012,80.9353701 76.7744292,81.0156763 77.2210385,81.0637294 L77.2147789,80.1787085 C76.9608475,80.2899537 76.6110661,80.3218834 76.3660249,80.5203439 C75.9754078,80.9979084 76.0241557,81.4372879 76.7335867,81.4616413 L76.7335867,81.4616413 L76.7335867,81.4616413 L76.7335867,81.4616413 Z M74.1300171,80.2787644 L74.430059,80.6059146 C75.0337718,80.4630767 75.2277651,80.6223749 75.7725244,80.7510578 L75.5594287,80.4156842 L75.784052,80.0414651 C76.3100326,79.9950568 76.3508751,79.5477774 76.1288891,79.1251817 C76.0317306,79.0451989 75.8466276,78.9734531 75.7497997,78.8931468 C74.8065178,78.3586453 74.7172647,79.1633599 74.4926414,79.5375723 L74.1300171,80.2787644 L74.1300171,80.2787644 L74.1300171,80.2787644 Z M76.3979703,79.9865031 C76.5728611,79.9707033 76.749067,79.9552339 76.914737,79.8522188 C77.2365189,79.5573219 77.0553686,78.6877705 76.7717918,78.5363721 C76.5000731,78.4721958 76.3535125,78.7506324 76.372615,78.9260606 L76.3126701,79.1979185 L76.3597653,79.6359836 L76.3979703,79.9865031 L76.3979703,79.9865031 L76.3979703,79.9865031 Z M48.2372389,82.157416 C48.5498001,81.7753038 48.6584861,81.1453569 48.6993286,80.6987313 C48.1147183,81.0176514 48.1710411,81.5432688 48.2372389,82.157416 L48.2372389,82.157416 L48.2372389,82.157416 L48.2372389,82.157416 Z M51.3411033,76.4773582 C51.4254189,77.2669337 51.3259534,77.9840959 51.0502821,78.7170647 C50.6978701,79.5461327 49.8478008,80.6849065 49.6692879,81.4971907 L49.4664045,81.2496863 C49.0846776,81.8154569 49.0412045,83.0595511 49.2839389,83.6572447 C49.7611784,83.1717804 49.870856,82.5418334 50.1643078,81.984293 C50.7426652,80.7816664 51.5146786,79.7386684 51.8107678,78.383329 C51.8618226,78.0245794 51.9332884,77.0437827 51.7188774,76.7090629 C51.6128287,76.541211 51.5248842,76.5494411 51.3411033,76.4773582 L51.3411033,76.4773582 L51.3411033,76.4773582 L51.3411033,76.4773582 Z M131.113161,78.7999998 C131.572944,78.1384601 131.695465,76.800235 131.871347,75.986306 C132.28765,74.0898798 133.165719,73.2144034 132.910142,70.846014 C132.854149,70.3200731 132.652581,69.2754236 132.022191,69.1543035 C131.039389,69.0657738 131.442519,70.3575906 131.383895,70.6284644 C131.412219,70.8920921 131.343053,71.0750832 131.273887,71.2587416 C130.843089,72.1825946 131.044657,73.227244 131.059807,74.1998106 L130.873389,77.4045073 L131.113161,78.7999998 L131.113161,78.7999998 L131.113161,78.7999998 Z M116.926417,63.6894969 C116.944197,63.8645949 117.041031,63.9449012 117.148402,64.1120993 C117.24523,64.1924056 117.342719,64.2720514 117.439554,64.3520274 C118.003416,64.6554848 118.297198,64.0982745 118.082457,63.7625639 C117.978384,63.5950423 117.618067,63.5387591 117.442191,63.5548892 C117.268286,63.5706821 117.09241,63.5861516 116.926417,63.6894969 L116.926417,63.6894969 L116.926417,63.6894969 L116.926417,63.6894969 Z M130.030893,62.1600505 C130.11521,62.9496259 130.432053,64.2500032 130.771293,64.9276729 L131.544621,66.3636488 L132.458258,69.1154715 C132.927922,68.5421313 132.678273,67.855908 132.524793,67.2499842 C132.129561,66.0457129 131.559771,64.8569111 131.085499,63.7487392 C130.756143,63.1582916 130.516369,62.5592835 130.030893,62.1600505 L130.030893,62.1600505 L130.030893,62.1600505 L130.030893,62.1600505 Z M125.188679,60.7349334 L125.117537,61.7150696 L123.919993,61.2908292 C123.90023,61.9135369 124.178208,62.8624038 124.673565,63.3488522 L125.635288,64.0597661 C126.411255,64.6989273 127.197763,65.4256408 127.894682,66.159587 C128.507285,66.9021002 128.534954,67.1653977 128.747058,67.5001174 C128.941382,67.6594156 129.135045,67.819698 129.387991,67.7081292 C129.553985,67.6047839 129.594827,67.1584886 129.663332,66.9748369 L129.957121,66.4172965 C130.08491,65.9634317 129.747647,65.2854317 129.525662,64.8621754 L128.945989,63.5861516 C128.703585,62.9878041 128.558009,62.4694259 128.152242,61.9747541 C127.463223,61.3280234 126.937565,61.3750855 126.209686,61.1743197 L125.188679,60.7349334 L125.188679,60.7349334 L125.188679,60.7349334 Z M100.816872,61.9457901 C100.765494,62.3048634 100.735194,62.8393648 100.306372,62.9660794 C100.219419,62.9739793 99.8597623,62.9176961 99.7622734,62.8373899 L99.4283031,63.8418861 C99.2800903,64.1203227 99.0044186,64.853615 99.0350486,65.1172495 C98.9942134,65.5628841 99.606816,65.5079221 99.9183857,65.1261334 C100.242474,64.8315668 100.283317,64.3849413 100.507941,64.0107289 C100.870234,63.2698603 101.54146,62.9433707 101.623145,62.0511105 L100.816872,61.9457901 L100.816872,61.9457901 L100.816872,61.9457901 Z M127.968454,58.625568 C128.229307,59.399674 128.412433,59.4717502 128.839279,60.1418503 C129.061265,60.5647762 129.002642,60.83565 129.517756,60.7010355 C129.209478,60.2860094 128.349196,58.857603 127.968454,58.625568 L127.968454,58.625568 L127.968454,58.625568 L127.968454,58.625568 Z M91.2345454,63.3360183 C90.2517429,63.2474819 90.9002443,64.3405079 90.7724554,64.7943727 C90.5580446,65.256798 89.5729354,65.9650763 89.0956963,65.6533956 C88.8427491,65.7649643 88.5799209,65.7886639 88.3068874,65.7241574 C88.0361529,65.659644 87.84216,65.5003525 87.5793317,65.5240454 L86.1831874,66.5347901 C85.9381466,66.7335877 85.6087895,66.9402784 85.2567081,66.9715408 C84.9961797,66.9952404 84.6440983,67.0261793 84.4883101,67.2183847 C84.2432689,67.4165217 84.4754672,67.9273235 84.5930503,68.1823976 L85.0090294,68.7652823 C84.1513785,69.0190352 84.217583,69.6325285 84.3018986,70.4227578 C84.3503091,70.8608229 84.5189403,72.4396435 84.6440983,72.7825934 C84.7791381,73.2137496 85.353536,73.6047457 85.8080511,73.7403511 C86.0912974,73.8930639 86.5379066,73.9407866 86.8007349,73.9177476 L86.8619949,72.849075 L87.1251471,72.826036 L87.3955509,73.6876876 C87.4825037,73.6791339 87.6583791,73.663988 87.745332,73.6557646 L88.8351746,73.9128136 C88.9323326,73.9924593 88.9323326,73.9924593 89.0291674,74.0721051 C89.1441137,74.3271791 88.929702,74.7896044 88.9576954,75.0529018 C89.1108454,75.6584953 89.7438737,75.7792851 90.2698543,75.7318926 C90.2570109,76.441155 90.3258463,76.2581639 90.2850043,76.7044591 C90.3334209,77.1431849 90.0705926,77.1668777 90.61173,78.0920518 C90.7191009,78.2592499 90.9410871,78.6825061 91.2039154,78.6588065 C91.4667437,78.6354372 92.0131491,77.9663279 92.5977591,77.6483921 C92.7327926,78.0785573 92.7430046,78.1667635 93.1207783,78.3987985 L92.9933134,78.8526633 L93.9886354,78.2322609 C93.6925389,79.5869397 93.1286837,79.2831589 92.5134437,80.1352659 C92.2963954,80.5980147 92.4317589,81.028517 92.30397,81.4827054 L92.4011289,81.5623579 L92.7327926,81.3556672 L92.9857389,81.2447522 C93.7640117,81.0857843 93.1593146,82.0257673 93.1770943,82.2011888 C93.2050937,82.4648233 93.391506,82.5359086 93.5752869,82.6086453 L93.1642517,82.910458 L93.4066551,83.5091357 L91.8293683,83.6506593 C91.0507646,83.8089734 90.4048937,84.3981065 89.7514483,84.8993638 L89.7718663,85.0747921 L90.0426,85.1389684 L88.5315103,85.8946388 C88.9883254,86.0299139 89.5831474,85.8001847 90.022182,85.7606854 C90.4510046,85.6333167 90.3719571,85.7300769 90.8900391,85.5938241 L91.170648,85.7468668 L91.1196,86.10528 L93.0443614,86.7289782 C93.5011834,86.8652375 93.8331771,86.6585398 94.1164234,86.8105988 C94.494198,87.0426338 94.3664091,87.496499 94.9994297,87.6162981 C95.7269854,87.8167396 96.304014,87.4112518 96.9064114,87.2684135 L96.1940126,88.0411985 L96.5233697,88.6316527 L97.381014,88.3779001 C96.7453551,89.0539252 96.775986,88.5207376 95.55078,88.6303388 C95.8317189,88.7820671 96.6663077,89.1493704 96.852726,89.2221069 C97.309548,89.3586899 97.5519514,89.1582544 98.1951917,89.3675808 C98.7389597,89.4949492 99.3999797,89.8790432 99.576186,89.0651142 C99.683226,89.2336265 99.7905969,89.400818 99.8874249,89.4811315 C100.168701,89.632853 100.344577,89.6173839 100.617942,89.6812364 C100.977605,89.7375196 101.829981,90.2805746 101.791776,90.7272003 C101.712729,90.8226454 101.633681,90.918422 101.557271,91.0141977 C101.439364,90.7578087 101.324742,90.5040493 101.120543,90.2565521 C100.617942,89.6812364 99.8465889,89.9274197 99.2138923,89.8063066 L97.939938,89.4784959 L96.9574594,89.3892984 C96.4239043,89.3484919 96.1225406,89.0219951 95.5968831,89.0690646 C95.4206777,89.0845337 95.1680614,89.1954488 95.1884854,89.3712005 C95.206266,89.5459681 95.4002597,89.7069111 95.4974177,89.7858961 C96.0612797,90.0893537 95.8570809,89.8418488 96.7124186,90.3852344 C97.1870271,90.6965918 97.3530214,90.593246 97.8098426,90.7295052 L98.2768697,90.9539641 C98.6368569,91.0102474 98.7056923,90.8265958 99.0656786,90.8825484 C99.2392543,90.8674099 99.5992414,90.9233557 99.7853289,90.9960922 L98.2643503,91.6632333 L97.0977677,91.5026209 C97.329966,92.0127616 97.427124,92.0930751 97.0365069,92.5699726 L96.822096,92.2359134 C96.5872671,92.5215952 96.6076851,92.6976776 96.3728563,92.9843444 L95.9822323,93.4615786 C95.9133969,93.6452302 95.678568,93.9322277 95.5023626,93.9473662 C95.2395334,93.9717202 94.9408071,93.6439163 94.7441769,93.4846178 C94.3664091,93.2522522 94.1905269,93.2677222 93.7617051,93.3950974 C94.083156,93.8976688 94.2491563,93.794323 94.7135469,94.0174748 C95.093958,94.249503 96.0639171,95.0479619 96.3652749,95.3757727 C96.2756906,95.3833428 96.1890686,95.3912426 96.1202331,95.5748942 C95.9644517,95.7661151 96.1353831,96.547791 96.3395889,96.7939812 C96.5335817,96.9545936 96.7199931,97.0260093 96.9801909,97.0032999 L95.9364523,97.9827826 C96.3932743,98.1177211 96.5592677,98.0147058 96.9472543,98.3346167 L96.0714926,98.4122938 L94.9154451,97.5427428 L93.7106571,97.0299588 C94.1598969,97.0783422 94.8693343,97.104017 95.2879509,96.8884353 C96.0385551,96.4674844 95.6811986,95.6143936 95.099226,95.1348536 C94.7214523,94.9024889 94.4583,94.9268489 94.01169,94.8784655 C93.6517037,94.8221822 93.0980469,94.6056164 92.7456351,94.6372158 L91.791156,94.8119843 L91.8524229,94.5404499 C91.5790517,94.4766034 91.4822237,94.3962977 91.2371829,94.5954184 C90.9460311,94.3554835 90.9384497,94.2689224 90.5784626,94.2126452 L90.6245726,94.6500502 L90.2263809,94.2432545 L90.1881763,94.6895496 C89.9737646,94.3541687 89.9635526,94.2676076 89.5959909,94.1234485 L89.8920866,95.2470835 L89.7465043,95.5261871 C89.2590591,95.9240988 89.2639963,96.8094503 89.3226266,97.336052 C89.4349346,98.3882644 89.2001057,98.675261 89.1108454,99.4799761 C89.0877909,100.101039 89.2919957,100.348536 89.1236889,101.250018 C89.0752783,101.60843 88.7406463,102.612266 88.5927703,102.891693 L88.2021471,103.368597 L87.9086949,103.925807 C87.760482,104.205235 87.5180709,104.404032 87.3701949,104.68346 C87.232194,105.049449 87.4261809,105.210061 87.5335517,105.377253 C87.678804,105.894971 87.3089349,105.750811 87.9189009,106.494309 L87.6073311,106.875767 L87.9571054,106.843837 C87.760482,107.481685 88.1586737,107.889801 88.7610711,107.746964 C89.1898937,107.619265 89.6595583,107.046585 89.7873463,106.591399 L89.9635526,106.575929 L91.1426546,108.506914 C91.3468534,108.754419 91.3952709,109.193144 91.755258,109.249091 C92.1152451,109.305374 92.2506154,108.939385 92.3984983,108.659957 C92.5542789,108.468736 92.72028,108.365391 92.8757306,108.17417 C93.0927789,107.712405 92.6665946,107.041644 92.7074297,106.595019 C92.7558471,106.23693 93.0008889,106.037808 93.0417309,105.591513 C92.9755269,104.978026 92.5183809,104.841437 92.217348,104.513627 C91.9159834,104.187137 91.8804163,103.836617 91.8319989,103.397892 C91.7272654,102.432234 92.2249226,102.122528 92.3168126,101.317814 C92.3474434,100.783312 92.0464097,100.456822 92.0078743,100.104988 C91.9798817,99.8420151 92.0385043,99.5718015 92.3016634,99.5474484 C92.9063674,99.4046032 92.9804709,100.107287 93.0288883,100.545029 L92.9472034,101.437619 C92.898786,101.797353 92.75091,102.075466 92.7993206,102.513862 C92.9244789,102.857135 93.1286769,103.10464 93.2432991,103.359713 C93.447498,103.606887 93.4758214,103.871176 93.6698143,104.030474 C93.8535951,104.10189 93.95043,104.180881 94.1266363,104.165742 C94.3104171,104.238479 94.494198,104.309571 94.6704043,104.294432 C95.099226,104.166733 95.5405671,103.330089 95.9489717,103.029274 C96.1940126,102.829162 96.5539997,102.886429 96.816828,102.862076 C96.6689451,103.141503 96.278328,103.619722 96.1225406,103.809958 C95.7908769,104.016319 95.185848,104.159157 95.155218,104.693659 C94.9687997,105.419381 95.9311843,105.332496 95.9107663,105.953552 C95.8699243,106.400178 95.1911169,105.841323 94.9842806,106.390964 C94.6908214,106.948504 95.078808,107.268745 95.2138414,107.699571 C95.2421709,107.962538 95.0965954,108.240321 95.0353286,108.512178 C94.6651354,109.165164 94.3538897,108.750469 93.8559026,109.060505 C93.437286,109.276079 92.9778334,109.936635 92.5490109,110.06434 C92.2097726,110.182825 91.9159834,109.94289 91.6531551,109.965929 C91.3033809,109.997852 91.0099217,110.556383 90.4279491,110.076844 C89.8357637,109.509429 90.5096271,109.184254 90.3640517,108.665222 L90.006702,107.8118 C89.509038,108.121836 89.0215929,108.521069 89.1849489,109.214863 C89.42736,109.811572 90.0093326,110.291104 89.7056683,110.760439 C89.4606274,110.95956 88.93464,111.006629 88.5262354,111.309095 C88.0285783,111.620115 87.5104963,112.551215 87.3445029,112.655874 C87.0994611,112.854671 86.8366329,112.877711 86.5942226,113.076502 L85.7135229,113.952632 C85.6367823,114.048407 85.6367823,114.048407 85.5577347,114.144183 L84.4603173,113.799588 L84.5265152,114.413082 C84.0874875,114.452575 84.0874875,114.452575 83.7274938,114.396622 C83.4570973,114.331454 82.9208976,114.291962 82.7832272,114.657951 C82.6350207,114.937379 83.3652068,115.137483 83.5516184,115.208906 C84.6668229,115.729252 84.8865088,116.94867 84.4092693,117.435772 C84.0874875,117.729024 83.5335074,117.513449 83.1738442,117.457497 C82.3646174,117.352837 81.0909872,117.023705 80.2946032,117.007251 C79.2426352,117.100392 79.5798975,117.778722 79.3756919,118.328692 C79.3243134,118.688097 78.9926498,118.894786 78.9340269,119.165331 C78.8546488,119.260776 78.8651917,119.348982 78.8750734,119.436858 C78.8651917,119.348982 79.1635877,120.473607 79.1533755,120.385732 C79.2785334,120.728682 79.8937738,120.674043 80.2537608,120.729996 C80.707945,120.865265 80.8255281,121.121653 81.2029717,121.353688 C81.5731709,121.496532 81.7391646,121.393187 82.0810406,121.274696 C82.8675427,121.20328 83.6178229,121.579467 84.7870435,120.942942 C85.0396596,120.832027 85.2847008,120.63323 85.353536,120.449577 C85.5883649,120.163901 85.4711191,119.907506 85.7925703,119.61294 C86.1933994,119.222597 86.9719963,119.064291 87.3827074,118.762154 C87.7044891,118.467581 87.4722909,117.95744 88.0667837,117.726718 C88.4956054,117.600334 88.970538,117.911692 89.5653609,117.680641 C90.0808054,117.545373 90.6374229,116.965123 91.155498,116.830178 C91.6811546,116.782786 92.0078743,117.373241 92.7380606,117.573676 L95.6350954,118.198359 C95.724348,118.190788 95.9081289,118.263526 96.0052877,118.343832 C96.781254,118.981679 95.663088,119.259461 95.2342654,119.38716 C94.8923897,119.505644 94.8054369,119.513214 94.4533551,119.545144 C94.5528206,119.624459 94.560396,119.712335 94.6575609,119.792642 C95.0277531,119.936801 95.9209723,120.033891 96.2450606,119.738994 C96.4008489,119.547773 96.3830614,119.371691 96.3550689,119.109047 C96.6943071,118.990562 96.8603014,118.887217 96.9983023,118.519914 C96.9699789,118.257271 96.852726,118.002196 97.0977677,117.803076 C97.253556,117.611854 97.6030063,117.579931 97.868466,117.555577 C97.4600614,117.062213 97.1283977,117.268581 96.5922051,117.227767 C96.3218014,117.164244 96.2144306,116.995732 95.9413963,116.932209 C95.678568,116.956239 95.4361577,117.15536 95.0659654,117.011201 C94.7929243,116.946034 94.5017726,116.706429 94.2313697,116.642577 C93.9477926,116.490854 93.2281491,116.378619 93.2689851,115.931993 C93.3378206,115.748341 93.416868,115.652896 93.5904429,115.637427 C93.6698143,115.541981 93.7564371,115.534081 93.8456897,115.525197 L93.970848,115.869792 C94.9052331,115.520264 94.601238,115.989591 95.4104717,116.094258 C96.1380206,116.294362 96.9956717,116.04061 97.7357323,116.328921 C98.1928851,116.463866 98.0446714,116.743293 98.4428631,117.150089 C98.9280086,117.550637 99.6196586,117.398908 100.231938,117.343946 C100.155528,117.439722 100.066599,117.448606 100.076481,117.535167 C99.9282677,117.814594 100.122591,117.973893 100.309003,118.045315 C100.967062,118.429403 101.945257,117.633578 101.108024,117.266275 L102.453127,116.614604 C101.802312,116.318722 101.480199,116.613289 100.625186,116.069897 C101.064551,116.030404 101.150843,116.022835 101.472955,115.727938 L101.52368,115.368534 L102.947817,114.621087 C102.4966,115.369849 103.004469,115.147689 103.175077,115.929695 C103.614442,115.890195 104.157879,116.017571 104.597244,115.979392 C104.939114,115.859587 105.873175,115.510058 106.118216,115.310937 C106.360619,115.112146 106.42188,114.841603 106.66429,114.642812 L107.678053,114.197501 C108.089088,113.895365 108.400665,113.512922 108.71421,113.130149 C108.869668,112.938928 109.025787,112.7477 109.299151,112.812543 C109.666713,112.956696 109.76091,113.834147 109.799115,114.184997 C109.916368,114.440071 110.041526,114.7817 110.069849,115.045658 C110.015834,116.201222 108.801164,116.399029 108.06867,116.995732 C107.581219,117.393643 107.208388,118.046629 106.700519,118.26978 C106.047074,118.771038 104.175666,119.470102 103.318016,119.723855 L101.497987,120.064176 C101.079701,120.279751 100.592256,120.677663 100.454578,121.043652 C100.316253,121.410955 100.53824,121.833227 100.119954,122.047487 C99.7010134,122.263062 97.9580494,122.506616 97.5111163,122.459555 C96.791466,122.346004 97.0338763,122.146882 95.9822323,122.241344 C95.0198546,122.328229 93.9784226,122.510567 92.9857389,122.33317 C93.1411963,122.141949 93.4554034,121.75917 93.514026,121.488963 C93.5828614,121.305304 93.4860334,121.224998 93.4656154,121.050237 C93.45771,120.963345 93.437286,120.787594 93.340458,120.707287 C93.1362591,120.459783 92.4367029,120.522315 92.1738746,120.546344 C91.5688397,120.689182 91.6762106,120.856381 90.7138329,120.942942 L87.4798663,121.321765 C85.9048791,121.462297 84.6464051,122.10739 84.0338021,122.162352 C83.5947677,122.201845 82.6119654,122.112654 82.1551438,121.976065 C81.7852751,121.831906 81.3972887,121.512002 80.9783483,121.727576 C80.5495263,121.854945 80.4118558,122.220934 79.9066168,122.442764 C79.3984234,122.666245 78.4363695,122.752807 77.8593342,123.158288 C77.2849362,123.5641 77.5849781,123.89158 76.9124301,124.217086 C76.5715457,124.336885 75.4240651,124.35071 74.9853612,124.390202 C74.0127645,124.389218 73.524989,124.78713 72.6765587,125.128766 L71.7408585,125.478294 C71.4002979,125.596778 70.7083236,125.747523 70.5617562,126.02662 C70.414865,126.304734 70.627954,126.640114 70.6562841,126.904072 C70.6842768,127.166715 70.6253234,127.437252 70.5653784,127.708779 C70.1072415,128.369665 68.9268237,128.917991 69.1195017,129.875749 C69.2726524,130.481666 69.6326393,130.537619 70.3114469,131.09615 C71.203674,131.990386 71.8709541,133.259163 72.8320163,133.969747 C74.0740248,134.833044 75.8709982,135.911921 77.4074568,136.216693 L80.0749241,136.331558 C81.5043357,136.46814 82.6020837,136.813726 84.1029678,136.766657 L87.4008257,136.205497 C88.1026817,136.142965 89.1441137,135.960628 89.8739691,136.16074 C90.6041554,136.360845 90.7470934,136.879877 92.0615597,136.761393 L93.8918006,136.508954 C94.3206223,136.38257 94.6624989,136.262764 95.1272254,136.48723 C96.2552734,137.094468 94.3436777,138.239497 95.2164789,138.958964 C95.7016234,139.358197 97.3069106,139.479317 97.950144,139.686992 C98.397084,139.735706 99.8057469,140.494342 100.107441,140.822147 C100.301104,140.981444 100.318885,141.157527 100.52309,141.405031 C100.724651,141.652536 101.184441,141.787804 101.212103,142.051762 C101.240427,142.314406 100.673934,142.808093 100.517815,142.999321 C100.038275,143.485109 99.1091589,144.719658 99.632502,145.469735 C99.8367077,145.716909 100.390688,145.93249 100.673934,146.084219 L103.229093,146.829031 C104.336392,147.261501 104.431244,148.138953 105.102477,148.609601 C105.577409,148.921943 106.365894,148.85052 106.989033,148.883764 L109.62324,149.5328 C110.539514,149.805973 110.156795,150.370753 110.876115,150.482982 C112.39511,150.613316 114.726307,149.252382 115.964032,148.433519 L118.478349,147.145315 C119.484206,146.612466 120.389937,145.998972 121.296329,145.3868 C123.014262,144.082142 124.420618,142.361474 125.272995,140.425556 C125.566784,139.868346 126.398742,138.553152 126.450121,138.195064 C126.567373,137.652992 126.00285,137.349212 126.220229,136.887777 C126.503475,136.241047 127.647003,135.34187 127.920368,134.609899 C128.147629,134.235019 128.0811,133.621533 127.700358,133.389498 C127.332796,133.245339 127.087755,133.44413 126.357899,133.244025 C126.909243,131.778424 127.907194,130.360223 128.737176,129.045367 C129.119888,128.48058 129.80364,127.444822 129.816813,126.735889 C129.819444,125.938744 129.106714,125.91307 128.808318,125.58658 C128.517166,125.346975 128.583695,125.163324 128.399914,125.090587 C128.032353,124.947743 127.445435,125.265355 127.085779,125.209072 C126.82229,125.232111 126.628634,125.072812 126.444846,125.001391 C126.1616,124.849668 125.821707,124.968152 125.558878,124.991192 C125.163647,123.787244 125.9877,121.588358 126.391491,120.401201 C127.177339,117.851458 128.229307,115.276709 127.848572,112.566354 L127.445435,110.477391 C127.33082,110.221003 127.118715,109.886937 126.77684,110.005428 C126.261065,110.140697 125.806557,111.686603 125.59247,112.148038 L124.408099,114.291962 C124.104435,114.761296 123.90748,115.399144 123.506982,115.789155 C123.184869,116.084052 122.676999,116.305882 122.258714,116.520142 C122.123019,116.090307 121.870727,116.201222 121.528858,116.321021 L119.940697,117.171814 C119.609364,117.378505 118.955919,117.879762 118.516554,117.919261 C118.166772,117.951184 117.962573,117.70368 117.447459,117.837634 C117.097678,117.869564 116.502862,118.100277 116.229491,118.035111 C115.869835,117.979157 115.481848,117.660237 115.121531,117.604285 C114.851458,117.539117 114.333052,117.674392 114.080106,117.785308 C113.204013,117.864293 111.833224,117.454861 110.927493,117.27121 C111.093494,117.167864 111.269369,117.152724 111.251583,116.976643 C111.379371,116.522778 110.679815,115.788171 111.537466,115.534081 C111.624412,115.526512 111.800295,115.510058 111.887241,115.502489 L113.385164,115.45641 L114.254005,115.290533 C114.700614,115.339241 114.817867,115.594314 115.430469,115.539352 L117.582493,114.99234 C118.460561,114.913025 118.814949,115.767761 119.723979,115.154274 C120.464371,114.645441 121.161297,112.899429 121.426755,112.079252 L122.192186,110.150902 L122.488605,108.796547 C122.822576,107.791397 123.12624,107.322062 123.003719,106.181967 L122.825206,104.514947 C122.748796,103.813578 122.605857,103.294547 121.883247,103.979455 C121.324653,104.561026 121.127698,105.198542 120.234479,105.101775 C119.997344,106.185918 120.147533,107.588656 119.065259,108.217612 C118.654224,108.519749 118.197733,108.383166 117.771549,108.510865 C117.515964,108.62178 117.18397,108.829784 117.000189,108.757048 C116.737361,108.779763 116.543698,108.620465 116.515375,108.357821 C116.564122,107.999402 117.158938,107.768688 117.413861,107.657443 C118.26163,107.315807 118.690453,107.188109 119.315575,106.424208 C119.695656,105.858107 119.736492,105.411488 120.040162,104.942154 C120.351732,104.559704 120.625096,104.623557 120.936673,104.242099 C121.171178,103.955102 121.602631,103.030588 121.827255,102.656699 L122.898986,99.4608864 C123.417392,98.5284732 124.285579,98.3625965 124.512839,97.1905781 L124.647873,97.6217278 C125.574689,97.1843228 125.566784,96.2993019 125.385633,95.430742 C125.91129,95.3833428 126.981045,95.4639792 127.409867,95.337595 L129.397866,94.0967896 C129.895861,93.7854398 130.7153,93.1808364 130.832553,92.6387656 C130.970223,92.2727772 130.401093,91.0842987 130.196888,90.8368006 C130.092154,90.6696031 129.995326,90.5892965 129.808908,90.5178739 C129.351756,90.3816146 128.749695,90.5244598 128.420338,89.933675 C128.011935,89.4390034 127.560051,87.7084541 127.223449,87.0298003 C126.498207,85.2354047 126.450121,85.5938241 126.110221,84.9158241 C125.888235,84.4932217 125.929077,84.046603 125.880329,83.6078773 C125.755833,83.2655812 125.551634,83.0180835 125.533846,82.8420014 C125.494981,82.4914819 125.740022,82.2923608 125.975187,82.0060176 C126.345381,81.3523778 126.288734,80.8264301 126.689894,80.4360877 C127.011345,80.1415211 127.294591,80.2939036 127.440167,80.0148064 C127.978997,79.2584751 126.677374,78.6667064 127.116078,77.8300688 C127.340702,77.4555262 127.97636,76.7791708 128.415064,76.739348 C128.754963,76.6208567 129.03821,76.7719315 129.377448,76.6534403 C129.709443,76.4460958 129.732498,75.8243722 129.870168,75.4577295 C130.212044,74.5414394 130.748237,74.5822531 130.878663,73.3312432 C130.919499,72.8846244 130.939923,72.262247 130.727812,71.9275206 C130.319408,71.4321882 129.74501,71.8383303 129.60734,72.2049798 C129.303675,72.6743073 129.370204,73.2891151 129.426196,73.8150628 C129.395235,74.3489037 129.29577,75.066066 128.992099,75.5360609 C128.6219,76.1897074 127.863721,75.726298 127.649641,75.3915714 C127.544901,75.2237196 127.614066,75.0407284 127.593648,74.8646464 C127.606161,74.155047 127.401962,73.9082031 127.580475,73.0952651 C127.629216,72.7361852 127.963186,71.7323494 127.859108,71.5648278 C127.828154,71.3015236 127.023857,70.4003794 126.82229,70.1522211 C126.424428,69.7454184 125.707084,68.8353835 125.043764,69.2494255 C124.458824,69.5670311 124.581344,70.7077799 124.471997,71.337073 C124.412713,71.60794 124.292823,72.150011 124.030001,72.1737106 C123.866638,72.2770559 123.57351,72.0371211 123.381824,71.8778229 C122.886466,71.3907206 122.585433,71.0635704 122.501117,70.273995 C122.771852,70.3378477 123.501707,70.5386135 123.552431,70.1795336 C123.514227,69.8290141 123.098577,69.2461361 122.746166,69.2780591 C122.386503,69.2217759 122.337761,69.5801953 121.860191,69.2691751 C121.472205,68.9495945 120.611923,67.5211814 120.203519,67.0261793 C119.691042,66.3636488 118.924958,65.8126938 118.174677,65.4371603 C117.720163,65.3015617 116.242011,64.7249321 115.831629,65.0277289 C115.665636,65.1310742 115.693299,65.393711 115.624793,65.5767089 C115.527959,65.497717 115.430469,65.4174106 115.257231,65.4328801 C114.624204,65.3127509 114.437786,66.037813 114.39695,66.4844386 C114.41473,66.6595298 114.452936,67.0110401 114.199989,67.1219551 C113.945066,67.2328701 113.750749,67.0735718 113.556425,66.9136198 C113.081493,66.6022625 113.071611,66.5143866 112.430685,66.3063816 C112.555836,66.6493315 112.680993,66.9926117 112.893098,67.3273314 C113.408219,67.9898619 113.757993,67.9579322 113.676315,68.8515135 C112.938555,68.5631954 112.103958,68.195892 111.598726,67.6205836 L112.280495,67.3822935 L112.262054,67.2075257 C111.981438,67.0551432 111.019053,66.3445597 110.980848,65.9940402 C110.952525,65.7307361 111.302307,65.6988131 111.274637,65.4358392 C111.335898,65.1649722 111.052652,65.0132436 111.190322,64.6466007 C111.424827,64.3596038 111.932697,64.1371133 111.894492,63.7862635 C111.874067,63.610842 111.680404,63.4515437 111.496623,63.3794608 C111.118519,63.1474326 110.447293,62.6767772 110.046794,63.0664658 C109.725336,63.3610323 109.967746,63.9590563 109.789233,64.7719942 C109.515869,64.7084718 109.048842,64.4840131 108.778108,64.4201604 C108.418445,64.3638772 107.999505,64.5781375 107.532477,64.3549933 C106.889568,64.1466579 106.659676,63.6358492 106.105696,63.419614 C105.084689,62.9802345 104.227045,63.2346479 103.272566,63.4087551 C102.835839,63.4475938 102.133645,63.510786 101.715359,63.7250463 C101.383371,63.9323976 101.235159,64.2108342 101.089582,64.4896078 C100.699627,64.967826 99.9282677,65.2133555 100.005339,65.914718 C100.158159,66.5213024 100.694352,66.5621094 100.888014,66.7207471 L101.447263,67.8226638 C100.844541,67.9648479 100.561295,67.8137798 100.038275,67.8605117 L97.9629934,68.3117477 C96.9011434,68.318987 96.5717871,67.7285327 95.9209723,67.4326517 C95.5534106,67.2884927 95.2905814,67.311862 95.0073351,67.1601333 C94.7161834,66.9211893 94.6881909,66.6578851 94.591026,66.5772485 C94.3868271,66.330735 93.493608,66.2329842 93.2307797,66.2566838 C93.2485671,66.4327659 93.2587791,66.5199813 93.1029917,66.7105487 C92.9551089,66.9899761 92.2045046,67.4115877 91.8547234,67.4428501 C91.68906,67.5461954 91.4156889,67.4823494 91.231908,67.4102665 L91.2806554,67.0511934 C91.3214983,66.6055586 91.0583391,66.6289212 90.7191009,66.747736 C90.200688,66.8826808 89.8894491,67.264793 89.478408,67.5672595 C89.6266209,67.2884927 89.7642917,66.9218431 89.9991274,66.6355067 C90.3209091,66.34094 90.7497309,66.2132413 91.1683406,65.9989743 L92.4930189,65.1718812 C92.8246826,64.9651905 93.3328826,64.7420463 93.5752869,64.5432554 C94.3077797,63.9462156 94.4609306,62.073489 94.2695743,61.1163918 C92.914266,61.6798572 93.2739291,61.7361404 92.3576554,62.2614209 C92.0259917,62.4681115 91.8497854,62.4842416 91.59717,62.5951565 C91.3544289,62.7946079 91.293168,63.0658052 91.2345454,63.3360183 L91.2345454,63.3360183 L91.2345454,63.3360183 L91.2345454,63.3360183 Z M100.530995,60.1119023 L101.393907,60.7431636 L102.051967,61.9234117 C102.55786,61.7009213 102.626365,61.5179234 102.968895,61.3987851 C103.134235,61.2954397 104.224407,61.5518281 103.971461,60.8662586 C103.874633,60.7859523 103.777798,60.7062998 103.68097,60.6266541 L103.622341,60.8975211 C103.331189,60.6579165 102.943209,60.3383359 102.57301,60.1941836 C102.202811,60.0506851 100.967062,60.0730635 100.530995,60.1119023 L100.530995,60.1119023 L100.530995,60.1119023 L100.530995,60.1119023 Z M103.497189,60.5545712 C104.722395,60.4449774 104.510291,60.1092668 105.212485,60.0467352 C105.551723,59.9269294 106.09516,60.0559494 106.455477,60.1119023 L106.40673,60.4703149 C107.144491,60.758633 107.098381,60.3199074 107.642486,60.4479364 C108.196459,60.6641716 108.535697,61.3428322 109.449341,61.6143597 C109.816903,61.7591727 110.003321,61.830595 110.335308,61.6239043 C110.546758,61.9592847 110.636342,61.9517151 110.986123,61.9197853 C111.026959,61.4734968 111.279251,61.3619213 111.161998,61.1068473 C111.047384,60.8511195 110.123204,60.491379 110.044156,61.38463 C109.732587,60.9689434 109.898581,60.865598 109.783965,60.6111846 C109.472396,60.1954979 108.849904,60.1629144 108.420428,60.2899593 C108.239277,59.4207381 108.354554,59.6758054 107.14186,59.0764671 C106.761779,58.8447624 105.92719,58.4767985 105.477944,58.4284219 C104.944388,58.3876082 104.806711,58.7542577 104.38777,58.9691718 C104.153265,59.2561688 103.879901,59.1916622 103.637497,59.3907833 C103.402331,59.6771265 103.458984,60.2037281 103.497189,60.5545712 L103.497189,60.5545712 L103.497189,60.5545712 L103.497189,60.5545712 Z M122.008405,56.680435 L123.116358,57.9100437 C123.532668,58.4922679 123.948316,59.0751527 124.443674,59.5616011 C124.831653,59.8811817 125.385633,60.097417 125.901408,59.9628024 C126.243285,59.8433338 127.276804,58.7766361 126.432333,58.3207963 C126.151064,58.1693979 125.73014,58.3839885 125.469949,58.4073579 C125.490374,57.7856343 125.452168,57.4347913 125.298687,56.8285372 C125.2809,56.6531157 125.242695,56.3025962 124.900165,56.4217413 C124.481878,56.6366554 124.974598,57.9202488 124.313247,57.5368155 L124.032632,57.3850935 L123.74148,57.145489 C123.427935,57.527271 123.797473,57.67143 124.099167,57.9985802 C124.487146,58.3188213 124.785543,58.6459715 124.844172,59.1719126 C123.892331,58.5482208 123.836338,58.0229336 123.223729,57.2807574 C122.827844,56.8733009 122.536692,56.633366 122.008405,56.680435 L122.008405,56.680435 L122.008405,56.680435 L122.008405,56.680435 Z M125.809187,55.8089085 C126.048961,56.4069256 126.98829,57.7398866 127.631853,57.9475681 C127.195126,57.1899156 126.633902,56.0886662 125.809187,55.8089085 L125.809187,55.8089085 L125.809187,55.8089085 L125.809187,55.8089085 Z M60.9540671,62.2436461 C61.2168956,62.2202836 61.5679855,62.1886841 61.7425456,62.1728843 L64.0273013,62.8535199 C64.660329,62.9739793 65.2831443,63.0068932 65.6991235,63.5891174 C64.5605331,63.6918021 64.8032674,63.4923508 63.8995127,63.3080385 C63.0929164,63.2033788 62.8478752,63.4024999 62.2250599,63.3692624 C61.8650662,63.3129793 61.6812854,63.2412267 61.4082513,63.1773807 L59.0625659,63.5644337 C58.4397506,63.5318501 58.304387,63.1013478 57.9341877,62.9571955 C57.5564137,62.7251605 57.2145377,62.8443056 56.8825503,63.0516501 C56.2903652,63.2820404 55.7136536,63.6875219 55.1379403,64.093664 C54.0645629,64.8091884 52.8268377,65.6290354 52.0544937,66.6723704 C51.5173093,67.4287018 51.6513575,67.8598511 51.1138493,68.6161825 C50.5677746,69.2849681 49.309301,69.9290701 48.4592249,71.0685045 C47.8429996,71.9206116 47.898992,72.4465525 47.6654716,72.7335496 C47.5083681,72.924117 46.4261005,73.5530731 46.1721691,73.663988 C45.919553,73.7749097 45.6567245,73.7986025 45.4907241,73.9026085 C45.2470049,74.1013993 45.100107,74.3801662 44.9522243,74.6592701 L44.0843678,75.6222921 C43.8597444,75.9965044 42.9484148,77.4064823 42.8986821,77.7655621 C42.8769422,78.3872789 43.880169,78.6518975 43.3505595,79.4961048 C43.2725035,79.5912199 43.1947713,79.6869957 43.1167153,79.7831017 C42.5413258,80.1885832 42.3868597,79.5823359 41.9402504,79.5339526 C41.3951673,79.4055933 40.5849421,80.0980718 40.0998039,79.6988455 C39.7987704,79.3716953 39.9275439,78.9178305 39.8906608,78.5666504 C39.7552905,78.1361549 39.5613041,77.9765263 39.4361461,77.6335764 C39.2128381,77.2099967 39.3903662,76.3970519 38.7698577,75.5673233 C38.451037,75.0650818 38.0821531,74.9209228 37.7975915,75.5669998 L37.5907553,76.1159798 C37.2436114,75.3507645 37.4399115,74.7129177 36.8068839,74.5917976 C36.0006181,74.4877917 35.7542548,75.4840579 35.2845903,76.0570678 C34.1127391,77.4907385 33.917761,77.33111 33.0202592,78.0308346 L31.8296292,79.2890837 L31.0869307,79.7985712 C30.6874167,80.1885832 30.4219575,81.0094279 30.2164367,81.5590618 L29.3574704,85.0899313 C29.1697368,85.814333 28.8545451,86.9952414 28.0851623,87.2401108 C27.8322157,87.3510251 27.0335248,87.3345649 26.7614757,87.2707193 C26.4795447,87.1189901 26.2766613,86.8718166 26.0046121,86.8066493 C25.7417837,86.8310024 25.0399276,86.8932104 24.3891128,86.5973229 C24.0011331,86.2787328 23.4879887,85.615542 23.1177962,85.4727041 C22.7489123,85.3272306 22.3981461,85.3591536 22.0483715,85.3910766 C21.6093371,85.4292548 20.9967341,85.4852077 20.6367405,85.4292548 C19.7231039,85.1570734 19.1332256,83.7928434 18.7860816,83.0269675 C18.6612542,82.6840175 18.4287321,82.1732157 18.1468011,82.021487 C17.7588147,81.7019065 17.2904722,82.27524 16.8336507,82.139311 C16.4736637,82.0827043 15.6772731,81.2691057 15.2115679,81.0446402 C15.1144027,80.9646642 14.8222662,80.7257202 14.6575878,80.8290656 C14.4826971,80.8442048 14.4316491,81.2039385 14.3637987,81.3862758 C14.3512795,82.0961987 14.5465948,82.255497 14.9523617,82.7508294 C15.0491896,82.8301516 15.3505537,83.1579623 15.1055124,83.3567532 C14.6971082,83.6588894 14.1075603,82.2949896 13.6481013,82.9562057 C13.5789357,83.1398574 13.5891479,83.227403 13.5101004,83.3221946 L13.3352165,83.3383179 L12.9116624,81.8710795 L12.8464494,81.2569256 L12.2568948,79.8930326 L11.5346141,80.5776113 L11.3620304,79.7959357 L11.1209418,79.1979185 C10.9855783,78.7674162 10.6361274,78.7986854 10.3041333,79.0050458 C9.65068783,79.5069636 9.19881043,80.2557254 8.7904062,80.5578616 C8.29274883,80.8685582 7.91365939,80.6365232 7.57310553,80.7556683 C7.15448895,80.9705892 6.86069987,81.5277993 6.73192642,81.9826483 L6.05805633,85.5849334 C5.47476813,88.3828338 5.10226205,89.0358197 5.42371338,92.017703 L5.77843226,93.6682694 L6.11174174,95.9408827 L6.40915302,97.0655087 L6.5850285,97.0490477 C6.4625079,95.9089603 6.49840608,93.7801687 6.82249481,92.6887867 C7.13900862,91.5101901 7.64457139,91.2870392 7.6699335,89.8675235 L7.87940704,91.0013633 C8.35796185,90.5139244 8.32074159,90.163405 8.99230483,89.8382299 C9.21560606,90.2601709 9.31244083,90.3408082 9.45670131,90.8598329 C9.59206491,91.289345 9.62895463,91.6401941 9.85225594,92.0637805 C10.0745724,92.4857156 10.2583533,92.558453 10.4714491,92.893833 C10.6756545,93.1400232 10.8097028,93.5711789 10.9345235,93.9141221 C11.1772647,94.5124762 11.3686204,95.4702345 12.0971607,95.6703394 C12.3820528,95.0249227 12.2977373,94.2356844 12.3079496,93.5254242 C12.3767848,93.3417726 12.4087303,92.8085927 12.5734087,92.7052477 C13.0022307,92.5775419 13.1758061,93.3595475 13.2037989,93.622191 C13.4541149,94.3084218 13.6365737,95.1782965 14.0525529,95.7595369 C14.4876346,96.5184965 14.829841,96.3986974 15.398971,97.587169 L15.5277512,97.1333047 C15.7691703,97.7313281 15.4654994,98.2019772 16.1265197,98.5847495 C16.0883147,98.2339064 16.0168421,96.7353921 16.1620874,96.4559648 C16.2312531,96.2723132 16.4940815,96.2492739 16.6702875,96.2341355 L17.0786919,99.208118 C17.1155816,99.558968 17.2496298,99.9901237 17.4538286,100.237622 C17.9488552,100.72473 18.5245753,100.317928 18.7465612,100.741184 L19.0923831,102.303544 C19.3897945,103.4285 19.8047889,104.808523 20.266548,105.828812 C20.6150073,106.595019 21.0784123,107.616629 21.6705975,108.183054 C21.8747962,108.430558 22.1748448,108.758369 22.5153987,108.638233 C22.8575985,108.519749 22.7222349,108.088592 22.7808645,107.818379 C22.8319125,107.459966 22.9965909,107.356621 23.0565359,107.085087 C23.0973716,106.638468 22.9517958,106.119436 23.1764191,105.745878 C23.0591666,106.287949 23.2429474,106.359364 23.3002551,106.885966 C23.3756804,107.587334 23.5479337,108.369341 23.7992344,109.054249 C24.1747017,110.084744 24.4539952,111.032297 25.0834007,111.950562 C25.5006952,112.53344 26.4617643,113.243693 27.0437372,113.723232 C27.8401211,114.536831 28.6249842,115.263869 29.5860465,115.974121 L30.7322118,116.757441 L31.6840533,117.381141 C32.5291851,117.83632 32.618445,117.030291 33.1440951,116.984212 C33.4171358,117.048065 34.3768828,117.758318 34.6680345,117.998246 C36.1435566,119.371691 35.6584117,118.972788 36.6767883,120.209649 L38.9740564,122.65966 C39.5662416,123.226084 40.3013653,124.312531 41.1092835,124.415877 L41.9171951,124.521857 C42.8209566,124.706824 43.8317517,125.058658 44.7760183,124.79602 C45.127115,124.764091 45.3708409,124.566284 45.5276139,124.375063 C45.7614579,124.088066 45.8991284,123.722077 46.2502251,123.690154 C46.6098814,123.746437 47.446123,124.113741 47.8146764,124.258883 C48.747746,124.705509 50.0687952,125.47303 51.0604944,125.649112 C52.0531785,125.826508 52.7655773,125.053723 52.6022143,124.359923 C52.351905,123.6737 51.3028983,122.971017 50.7426652,121.870414 C50.2002128,120.94557 49.8250761,119.916397 49.2045609,119.086008 L47.780424,117.354151 L46.9277173,116.01362 L46.5117381,115.431066 C46.4046911,115.263869 46.2515403,114.657951 46.2232171,114.393993 L45.2483203,111.913368 C44.8040178,111.067846 43.9259489,111.146832 43.356819,109.95836 C43.7639013,110.453038 44.5411893,111.0922 45.0938475,111.307775 C44.8438687,110.621551 44.2832985,109.520949 43.8660039,108.938071 L42.9741074,108.044166 C43.4589218,108.443062 43.8469014,108.763303 44.4799291,108.883101 L44.6663474,108.157379 C44.9420187,107.424086 45.1946349,107.313171 45.1883753,106.42815 C45.1155873,104.929643 43.7306404,102.751161 43.533025,100.909697 C43.4473941,100.120128 43.6249155,99.3078433 43.7154906,98.503129 L43.7398611,97.0836065 C43.7115379,96.8206393 43.867326,96.6280968 43.9183741,96.2709992 L43.9019022,95.2981025 C44.0204768,94.7560308 44.089312,94.5723792 44.0333198,94.0454477 L43.6094351,92.5788626 L43.584073,91.5177602 L43.4322443,90.1150217 C43.3186139,89.0628093 43.8851065,88.569121 43.9849023,87.8522826 C44.0359504,87.4928792 43.5814424,86.5591443 43.3861339,86.3998527 C43.1042029,86.2481243 42.5018054,86.3909627 42.7162165,85.9291976 C42.9319496,85.467433 43.7270182,86.2810386 43.931217,86.5285359 C44.1864705,85.6204828 43.9924773,85.4598634 43.820224,84.6785181 L43.4869145,82.4059045 C43.3337637,81.7996572 42.9457773,81.4807304 42.9164692,81.217433 C42.9764075,80.9462357 43.2392359,80.9225361 43.5508122,80.5407475 C43.8646887,80.158305 43.9924773,79.7041098 44.0333198,79.2578145 L44.0484696,77.7507466 C44.1469501,77.0335843 44.752963,76.0936013 45.5239917,75.8474113 C46.3025951,75.6894342 47.0976637,76.5030328 47.5353761,76.4641941 C47.9744105,76.4243711 48.1888215,75.9629367 48.3367043,75.6835093 L49.3475061,72.7592242 L49.523712,72.7430942 C49.9587938,73.502061 50.4159392,73.6376597 51.006809,74.2047446 L51.5120413,74.7793993 C51.6091997,74.859045 51.7752002,74.7556996 51.9408633,74.6523543 C52.2524397,74.2702421 52.6275764,72.8197808 52.4055904,72.3968549 C52.2804324,72.053905 51.8924528,71.7343244 51.7570825,71.3038288 C51.7290897,71.0405247 51.8759809,70.7617578 52.0225483,70.4833145 C52.2293844,69.9330201 52.3380705,69.3034034 52.7372541,68.9133846 C53.5287005,68.0454845 55.1059948,67.9036307 56.0670571,68.614868 C56.5535174,69.0141011 56.492257,69.2849681 56.6964626,69.5324726 C56.997496,69.8596227 57.4352084,69.820784 57.5794689,70.3391622 C57.5985714,70.5145836 57.5590443,70.9608789 57.4991061,71.2317527 C57.5564137,71.758024 57.661147,71.9255456 57.4556262,72.4751863 C57.1621744,73.0327267 56.6747226,73.4306386 56.4767767,74.0681552 C56.2024207,74.8014475 56.6503521,74.850161 56.5406744,75.4794474 C56.3440505,76.1172942 55.865489,76.6030888 55.6688651,77.2406053 C55.4429265,77.6151479 55.4814621,77.9656674 55.0730577,78.2681339 C54.7410636,78.4744943 54.2052012,78.4343411 53.8554199,78.4656103 C53.33866,78.6002248 52.9289404,78.9030216 52.5103239,79.1176054 C52.528111,79.293364 52.5472136,79.4681249 52.6532691,79.6359836 C52.7985144,80.1543551 53.2365573,80.1148624 53.664064,79.9878174 C54.3557145,79.8380637 55.2719885,79.3124531 55.9524419,79.871308 C56.5433118,80.4387233 56.7231399,82.1050828 57.2273874,82.679407 C57.7122018,83.0786401 58.0632917,83.047371 58.6080511,83.1757303 C58.976935,83.3198894 59.2591898,83.4716181 59.5500109,83.7112226 C60.229149,84.2697472 60.014738,84.7321657 60.3233463,85.1468683 C60.6144981,85.3858123 60.8684295,85.2762117 61.1684781,85.6027081 L62.4559361,87.7005542 L63.3432257,86.9126299 C63.6442592,87.2401108 63.9953559,87.2081807 64.0348762,86.7618925 C64.0068835,86.4992482 63.8639383,85.9815305 63.7463619,85.7251424 C64.3385471,86.2925582 64.3859729,86.7312832 64.3833356,87.5284222 C64.402438,87.7031898 64.3336029,87.8868414 64.4406431,88.0553537 C64.4778633,88.4045591 64.9040481,89.0756428 65.194876,89.3152479 C65.5739655,89.5459681 65.8265816,89.435053 66.1585757,89.2283554 C66.4622399,88.7590279 66.6397679,87.9454228 67.1081104,87.3727503 C67.5000495,86.8945252 68.2783226,86.7365475 68.9818245,85.87555 C68.7980436,85.8041342 68.2440634,85.588553 68.3026931,85.3170254 C68.4403635,84.9510365 68.9663509,84.903644 69.2980077,84.6966231 C69.7857901,84.2987111 70.1582961,83.6450646 70.2669823,83.0161085 L69.1959117,82.9344811 L68.5641994,82.8140216 L67.6874527,82.8933438 L66.8248641,82.2617522 L65.5792335,82.1962548 C65.7936446,81.73449 65.9415273,81.4550626 66.4675147,81.4079937 C66.7303364,81.3843009 67.0992202,81.5291137 67.2652139,81.4257684 C67.6057745,81.3059695 67.5675695,80.9551197 67.8126107,80.7563289 C68.2809532,80.1829887 68.9712885,80.0325812 69.0723996,79.3150819 C69.7920496,79.4273179 69.9491531,79.2367505 70.3078247,79.2927034 C71.0465706,79.580361 71.276462,80.8883079 71.6147157,81.5666381 C70.7007419,81.29445 70.8730019,82.0757953 70.851262,82.6975121 C71.1832562,82.4908213 71.5738732,82.0132569 71.9144271,81.8937883 L73.0632298,81.8793029 C73.3260515,81.8556101 73.4037837,81.7604881 73.6580457,81.6489194 C74.2614279,81.5067353 74.6596266,81.9135312 74.9787711,82.4161096 C75.3107653,82.209419 75.2916627,82.0336671 75.0782365,81.6986171 L75.5162793,81.6591177 L75.2659701,80.9738786 C74.8282577,81.0127173 74.7297771,80.9330648 74.6023123,81.3869296 C74.2245449,81.1555552 74.2245449,81.1555552 73.7766135,81.1068484 L74.0993869,80.8129356 L74.0789691,80.6368535 C73.3313263,80.26132 74.1889705,80.0075671 74.3164353,79.5530417 C74.3763736,79.2818444 74.2706554,79.1149766 74.1632847,78.9471247 L75.2646548,78.4939136 C75.7329973,77.921234 76.1311959,78.3280367 76.3278198,77.6901899 C77.2315746,77.875156 76.93417,76.7505372 77.6169236,76.5119168 C77.781602,76.4085714 78.0533274,76.473078 78.2295333,76.4569548 C78.4821495,76.3460398 78.7347657,76.2351248 78.9900191,76.1235494 C79.3397937,76.0922802 79.5159998,76.077141 79.8552383,75.9570118 C80.1872325,75.7506514 80.4908966,75.2806565 80.7257322,74.9943202 C80.8815204,74.802108 81.2029717,74.508202 81.2721375,74.3245436 C81.3307604,74.0536766 81.2158147,73.7992631 81.1700347,73.3598769 C81.5296911,73.4158298 81.79285,73.3924604 82.0250483,73.106124 C82.2700895,72.9070029 82.2318844,72.5561531 81.8616852,72.4123243 C81.774739,72.4205545 81.5119106,72.4442473 81.4252882,72.4518169 L82.6350207,71.368996 L82.8724869,70.2848539 L82.5302805,70.403999 L82.6504942,69.861928 L81.6854793,69.9488198 C81.8412674,69.7575918 82.3109319,69.1842583 82.4667134,68.9930371 C82.877755,68.6905706 83.3243643,68.7392775 83.5312005,68.1886527 C82.6656508,68.3551902 81.6014942,69.158914 81.055089,69.8276997 L80.2023823,70.9664736 L80.2537608,70.6080542 C79.3961165,70.8624677 79.4521088,71.3887457 79.1201146,71.5954363 L78.9544447,71.6984514 C79.2172731,71.6750821 77.456198,71.7445295 77.7292387,71.8090361 C77.2813072,71.7603292 76.7961691,71.3614264 76.4081827,71.0411853 C76.1160394,70.801911 75.9141476,70.5547368 75.5824839,70.7617578 L73.9412919,69.4923194 C74.0967495,69.3010981 74.1761276,69.2053224 73.9821344,69.0453636 C73.7881412,68.8857418 73.3313263,68.7494825 72.9522369,68.5177779 C72.2717834,67.9592533 72.3037288,67.4247518 72.2180979,66.6355067 C72.1443185,65.9341374 72.0547349,65.941707 71.8149617,65.3433595 C71.6987007,65.087625 71.6795982,64.9125337 71.4753927,64.6650293 C71.2725093,64.4175249 70.7965851,64.1065047 70.5054334,63.8665699 C70.1174537,63.5476431 69.6326393,63.1480864 69.1847147,63.0993728 C68.5530024,62.979574 68.0652268,63.3774859 67.5191521,63.2487963 C67.0623305,63.1128674 66.4711369,62.5461126 65.9174872,62.3298774 C65.5574936,62.273601 65.1197812,62.3130935 64.7686845,62.3443626 C64.749582,62.1689344 64.711377,61.8184149 64.5275961,61.7463388 C64.2466499,61.5946101 63.738787,61.8171006 63.3890056,61.8483697 C63.0382395,61.8796322 62.9219785,61.6245649 62.6502598,61.5600516 C62.3782107,61.4962055 61.1414703,61.518584 60.9846973,61.709475 C60.8186968,61.8131506 60.9359494,62.0682246 60.9540671,62.2436461 L60.9540671,62.2436461 L60.9540671,62.2436461 L60.9540671,62.2436461 Z M123.568242,53.0873641 C124.285579,53.9970688 125.566784,55.2105543 126.646413,55.3797274 C126.3276,54.8764951 126.054229,54.8129726 125.666249,54.493392 C125.094482,54.1017285 124.122222,53.3032691 123.568242,53.0873641 L123.568242,53.0873641 L123.568242,53.0873641 L123.568242,53.0873641 Z M116.553579,49.5545264 L116.331594,49.1316005 C116.701793,49.275099 117.071992,49.4192513 117.284097,49.7546316 C117.398712,50.0097057 117.419136,50.1851339 117.447459,50.4484313 C117.503451,50.9747026 118.424994,52.1319117 118.958549,52.1720649 C119.144307,52.244141 119.134425,52.1569257 119.310307,52.1407957 L118.858423,50.4102531 C118.654224,50.1627487 118.401939,50.2743242 118.100905,49.9471741 L116.278239,47.8078538 C116.170869,47.6400019 115.765101,47.1453233 115.823724,46.8747799 C115.979182,46.6835586 116.418547,46.6440661 116.594422,46.6289269 L114.925238,45.095854 C114.730914,44.9359019 114.429887,44.6087518 114.088011,44.7278901 C113.748111,44.8470352 113.620323,45.3012303 113.47211,45.5796737 C113.326533,45.859101 113.092035,46.1454375 113.119698,46.4087417 C113.244855,46.7520151 113.643378,47.1588178 113.8456,47.405992 L115.40017,48.6833302 C115.798038,49.0907867 115.999599,49.3382911 116.553579,49.5545264 L116.553579,49.5545264 L116.553579,49.5545264 L116.553579,49.5545264 Z M139.268715,49.3771232 C139.038823,48.0691763 138.196329,46.816852 137.208912,45.842971 L135.65435,44.5653025 C135.054259,43.9110021 134.406081,42.8179761 133.522744,42.0112865 C132.553116,41.2128271 131.823261,41.0127151 130.960341,40.3814538 L129.492724,39.0958854 L126.873675,36.9397813 C126.194536,36.3812567 125.388271,35.4787914 124.875133,34.8169214 C124.351453,34.0665151 124.499666,33.7877414 124.198632,33.4605912 C123.994427,33.2130936 123.256665,32.9247754 122.897009,32.8688225 L123.03468,32.5021798 L122.383872,32.206292 C122.746166,31.4654302 122.238296,31.6879206 121.725152,31.0260507 C121.520953,30.7785462 121.485385,30.4270359 121.163927,29.9247945 C120.660671,29.3501399 119.989438,28.8788306 119.330725,28.4957276 L116.135301,26.7451051 C115.103751,26.2178497 113.694096,25.4582222 112.538055,25.3851552 C111.652081,25.3759409 111.085588,25.8696287 110.217401,26.0355124 C109.439459,26.1941501 107.757101,26.1681519 107.21827,26.9244832 C106.672196,27.5932622 108.040347,28.7991849 108.535697,29.2862871 L109.921636,30.6669708 C110.320159,31.0744272 110.434773,31.3295013 110.840547,31.8241798 C111.231165,32.1437604 111.986706,32.6075001 112.298282,33.0218656 C112.607221,33.4368984 112.091446,33.5721668 112.507095,34.1543909 C112.82657,34.6569694 113.605173,35.2958003 113.837702,35.8066022 C113.962853,36.149552 114.018845,36.6758234 114.309997,36.9157582 C114.590613,37.0674868 114.9226,36.8601356 115.185429,36.836436 C115.61425,36.709728 116.873061,36.0656261 117.250505,36.2976611 C117.628603,36.5290355 118.91969,37.8300734 119.221377,38.1578774 C119.41504,38.3171756 119.810925,38.7239782 119.752303,38.9958361 C119.800389,39.4339013 118.419719,38.937578 118.749082,39.5280323 C118.855792,39.6958843 119.700924,40.1510635 119.992076,40.3909983 L121.069076,41.3569861 L122.319974,42.3071676 C122.611125,42.5471023 122.929947,43.0493505 123.213193,43.2014095 C123.767173,43.4173144 124.050419,42.7722283 124.527989,43.0832485 C125.459413,43.5308582 126.128008,44.799973 127.098298,45.5981021 C127.757012,45.9815356 127.922344,45.8781902 128.476324,46.0944254 C128.943358,46.3182303 129.245046,46.6453804 129.719325,46.9570611 C130.467621,47.3325946 130.528881,47.0617277 131.401683,47.7805346 C132.565629,48.7382923 133.556336,49.7125035 134.554294,50.7742671 C134.952156,51.181063 135.932321,52.0674051 136.389473,52.203334 C136.476426,52.1957645 136.562718,52.1881881 136.652301,52.1799647 L137.655522,51.6474382 C137.655522,51.6474382 137.745105,51.6388778 137.734569,51.5516625 C137.793192,51.2807887 137.754987,50.9299457 137.813617,50.6587416 C137.874877,50.3878746 138.04087,50.2845293 138.089619,49.9254494 C138.148241,49.6552362 138.092249,49.1283043 138.344541,49.0173894 C138.600119,48.9058206 139.084933,49.305047 139.268715,49.3771232 L139.268715,49.3771232 L139.268715,49.3771232 L139.268715,49.3771232 Z M117.886163,26.5877818 C117.847959,26.2369388 117.751124,26.1572863 117.625972,25.8143364 C117.102292,25.0642602 116.520643,24.5853814 115.693299,24.3046396 C115.423226,24.241117 114.606417,24.0482511 114.458211,24.327018 C114.233587,24.7012371 115.185429,25.3249288 115.466044,25.4766575 C115.757196,25.7159318 116.127395,25.8600841 116.418547,26.100019 C116.982402,26.4034763 117.253136,26.4676526 117.886163,26.5877818 L117.886163,26.5877818 L117.886163,26.5877818 L117.886163,26.5877818 Z M83.5667682,19.2160203 C84.7257831,19.288757 85.1621802,19.2499182 86.2698103,19.6814046 C87.2806046,20.0335688 87.87279,20.6003235 89.031798,20.6737208 L87.7324894,19.284807 L88.4728809,18.7759802 C88.0849011,18.4563996 87.9113254,18.471869 87.5309211,18.2404946 C87.3369274,18.0808661 87.3191409,17.9051143 87.1251471,17.7454858 C86.9489417,17.7616158 86.509914,17.8004478 86.3363383,17.8162475 C85.8182563,17.9508621 85.3917411,18.0785608 84.7972491,18.3086209 C84.2788433,18.4432354 83.5898234,18.5936429 83.5667682,19.2160203 L83.5667682,19.2160203 L83.5667682,19.2160203 L83.5667682,19.2160203 Z M88.878648,16.791678 C88.7508591,17.2455429 88.3220366,17.3725878 87.9113254,17.674724 C88.0081603,17.7543697 88.0183663,17.8425759 88.1155311,17.9222284 C88.3987774,18.0739503 89.8384011,18.2990763 90.1983883,18.355683 C91.084032,18.364904 91.114662,17.8310564 92.1560871,17.6487259 L93.4603406,17.4433496 C94.6855534,17.3330884 96.3600069,17.2718713 97.452486,16.7311213 C97.0365069,16.1488972 96.7736786,16.1716059 96.1327526,15.9639244 C95.129856,15.6993125 94.0601006,15.6183456 93.0367869,15.9754439 C92.0921897,16.2374336 92.1303943,16.5882767 90.9028817,16.6985378 L88.878648,16.791678 L88.878648,16.791678 L88.878648,16.791678 Z M70.2706045,166.876417 C49.8095957,162.510892 74.4326964,167.74268 70.2706045,166.876417 L70.2706045,166.876417 L70.2706045,166.876417 L70.2706045,166.876417 Z" id="path2047"></path>
                </g>
            </g>
        </g>
    </g>
</svg>