<?xml version="1.0" encoding="UTF-8" standalone="no"?>
<svg width="680px" height="96px" viewBox="0 0 680 96" version="1.1" xmlns="http://www.w3.org/2000/svg" xmlns:xlink="http://www.w3.org/1999/xlink">
    <!-- Generator: Sketch 3.6 (26304) - http://www.bohemiancoding.com/sketch -->
    <title>Slice 1</title>
    <desc>Created with Sketch.</desc>
    <defs>
        <path id="path-1" d="M47.4921284,83.9783889 C47.2816563,83.2386124 25.1005643,2.13967677 24.8740055,1.33748505 C24.6474467,0.535293321 23.8596491,0.535293321 23.8596491,0.535293321 L44.5341768,0.535293321 C44.5341768,0.535293321 45.3298868,0.535293321 45.544338,1.32370527 C45.7587893,2.11211721 68.7321846,83.2152576 68.9549389,83.9665688 C69.1912835,84.7637177 69.9878672,84.7637177 69.9878672,84.7637177 L48.5159305,84.7637177 C48.5159305,84.7637177 47.7155605,84.7637177 47.4921284,83.9783889 Z"></path>
        <linearGradient x1="9.74716321%" y1="3.88094985%" x2="9.7471629%" y2="89.8198074%" id="linearGradient-3">
            <stop stop-color="#000000" stop-opacity="0.1" offset="0%"></stop>
            <stop stop-color="#000000" stop-opacity="0" offset="100%"></stop>
        </linearGradient>
        <path id="path-4" d="M96.8025068,83.9783889 C96.5790747,83.1930601 73.9649123,0.535293321 73.9649123,0.535293321 L94.631479,0.535293321 C94.631479,0.535293321 118.028973,83.16942 118.265317,83.9665688 C118.501662,84.7637177 119.298246,84.7637177 119.298246,84.7637177 L97.8263089,84.7637177 C97.8263089,84.7637177 97.0259389,84.7637177 96.8025068,83.9783889 Z"></path>
    </defs>
    <g id="Page-1" stroke="none" stroke-width="1" fill="none" fill-rule="evenodd">
        <g id="Light">
            <path d="M139.647763,0.110418642 C136.243745,0.110418642 133.4701,1.24407307 131.326829,3.51138191 C129.183558,5.77869076 128.048885,8.54984602 128.048885,11.6988861 C128.048885,14.8479262 129.183558,17.4931198 131.326829,19.6344671 C133.4701,21.7758143 136.243745,22.9094687 139.647763,22.9094687 C143.051782,22.9094687 145.825427,21.9017759 148.094772,19.7604287 C150.364118,17.6190814 151.498791,14.9738878 151.498791,11.8248477 C151.498791,8.67580762 150.364118,6.03061397 148.094772,3.76330512 C145.825427,1.49599627 143.051782,0.362341848 139.647763,0.362341848 L139.647763,0.110418642 Z M149.733744,93.6998894 L149.733744,30.4671649 L129.561782,30.4671649 L129.561782,93.6998894 L149.733744,93.6998894 Z M207.349912,29.3335105 C198.020379,29.3335105 190.708043,33.6162049 185.538977,42.3075555 L185.538977,30.2152417 L165.367015,30.2152417 L165.367015,93.4479662 L185.538977,93.4479662 L185.538977,73.6719946 C185.538977,57.9267943 192.851314,49.9912133 207.349912,49.9912133 L211.00608,49.9912133 L211.888603,29.8373569 C210.501781,29.4594721 208.988883,29.3335105 207.349912,29.3335105 L207.349912,29.3335105 Z M282.112247,61.8316039 C281.860097,51.7546757 278.834303,43.6931332 272.656639,37.5210146 C266.478976,31.3488961 258.788415,28.3258176 249.584958,28.3258176 C240.12935,28.3258176 232.18664,31.4748577 225.756827,37.7729378 C219.327014,44.071018 216.04907,52.1325605 216.04907,61.8316039 C216.04907,71.6566089 219.327014,79.7181515 225.756827,86.0162317 C232.18664,92.3143118 240.12935,95.4633518 249.458883,95.4633518 C256.897294,95.4633518 263.327107,93.825851 268.748322,90.5508493 C274.169537,87.2758477 278.203929,82.3633452 280.851499,75.8133418 L262.948883,72.1604554 C260.301313,77.0729579 255.762621,79.4662283 249.458883,79.4662283 C246.054864,79.4662283 243.155145,78.3325739 240.759724,76.1912266 C238.364304,74.0498794 236.725332,71.0268009 235.842808,67.2479529 L282.238321,67.2479529 L282.112247,61.8316039 Z M249.584958,44.9527492 C252.610752,44.9527492 255.258322,45.8344804 257.527668,47.4719812 C259.797013,49.1094821 261.435985,51.6287141 262.318509,54.9037158 L236.221033,54.9037158 C237.103556,51.7546757 238.868603,49.3614053 241.390098,47.5979428 C243.911593,45.8344804 246.685238,44.9527492 249.584958,44.9527492 L249.584958,44.9527492 Z M359.143928,2.7556123 L338.971965,2.7556123 L338.971965,35.2537058 C333.8029,30.5931265 327.247012,28.3258176 319.304302,28.3258176 C310.731218,28.3258176 303.418882,31.4748577 297.367293,37.7729378 C291.315704,44.071018 288.28991,52.1325605 288.28991,61.8316039 C288.28991,71.6566089 291.315704,79.7181515 297.367293,86.0162317 C303.418882,92.3143118 310.731218,95.4633518 319.304302,95.4633518 C327.247012,95.4633518 333.8029,93.196043 338.971965,88.5354637 L338.971965,93.5739278 L359.143928,93.5739278 L359.143928,2.7556123 Z M323.464769,78.3325739 C319.052153,78.3325739 315.395984,76.8210347 312.496265,73.7979562 C309.596545,70.7748777 308.209723,66.870068 308.209723,61.9575655 C308.209723,57.1710246 309.596545,53.266215 312.496265,50.2431365 C315.395984,47.220058 319.052153,45.7085188 323.464769,45.7085188 C327.625237,45.7085188 331.281405,47.220058 334.307199,50.3690981 C337.332993,53.5181382 338.845891,57.4229478 338.845891,62.0835271 C338.845891,66.870068 337.332993,70.7748777 334.307199,73.7979562 C331.281405,76.8210347 327.625237,78.3325739 323.464769,78.3325739 L323.464769,78.3325739 Z M404.152618,77.7027659 C399.613927,77.7027659 395.957759,76.1912266 393.184114,73.2941098 C390.410469,70.3969929 389.023647,66.6181448 389.023647,61.9575655 C389.023647,57.2969862 390.410469,53.5181382 393.184114,50.4950597 C395.957759,47.4719812 399.613927,45.960442 404.152618,45.960442 C407.556637,45.960442 410.456357,46.9681348 412.851777,48.8575589 C415.247198,50.7469829 416.88617,53.5181382 417.768693,57.1710246 L436.679908,52.6364069 C434.914861,45.330634 431.006543,39.4104387 425.081029,35.0017826 C419.155515,30.5931265 412.221403,28.3258176 404.404768,28.3258176 C394.697011,28.3258176 386.502151,31.4748577 379.820189,37.7729378 C373.138226,44.071018 369.734208,52.1325605 369.734208,61.8316039 C369.734208,71.6566089 373.012152,79.7181515 379.694114,86.0162317 C386.376077,92.3143118 394.570936,95.4633518 404.278693,95.4633518 C412.221403,95.4633518 419.155515,93.196043 425.081029,88.6614253 C431.006543,84.1268076 434.788786,78.2066123 436.427758,70.7748777 L417.894768,66.7441064 C415.751497,74.175841 411.212805,77.8287275 404.152618,77.8287275 L404.152618,77.7027659 Z M488.87486,29.3335105 C479.545327,29.3335105 472.232991,33.6162049 467.063926,42.3075555 L467.063926,30.2152417 L446.891964,30.2152417 L446.891964,93.4479662 L467.063926,93.4479662 L467.063926,73.6719946 C467.063926,57.9267943 474.376262,49.9912133 488.87486,49.9912133 L492.531028,49.9912133 L493.413551,29.8373569 C492.026729,29.4594721 490.513832,29.3335105 488.87486,29.3335105 L488.87486,29.3335105 Z M568.175887,30.2152417 L548.003924,30.2152417 L548.003924,35.2537058 C542.834859,30.5931265 536.278971,28.3258176 528.336261,28.3258176 C519.763177,28.3258176 512.450841,31.4748577 506.399252,37.7729378 C500.347664,44.071018 497.321869,52.1325605 497.321869,61.8316039 C497.321869,71.6566089 500.347664,79.7181515 506.399252,86.0162317 C512.450841,92.3143118 519.763177,95.4633518 528.336261,95.4633518 C536.278971,95.4633518 542.834859,93.196043 548.003924,88.5354637 L548.003924,93.5739278 L568.175887,93.5739278 L568.175887,30.2152417 Z M637.390932,46.4642884 L606.37654,46.4642884 L606.37654,93.6998894 L586.330653,93.6998894 L586.330653,46.4642884 L577.25327,46.4678334 L577.25327,30.4671649 L586.330653,30.4671649 L586.330653,25.5546624 C586.330653,18.1229278 588.726073,12.2027325 593.390839,7.7940764 C598.055606,3.38542031 604.233269,1.11811146 611.92383,1.11811146 C616.210372,1.11811146 620.370839,1.99984268 624.405231,3.76330512 L620.11869,19.3825438 C618.101493,18.7527358 616.336447,18.374851 614.697475,18.374851 C612.302054,18.374851 610.284858,19.1306206 608.771961,20.5161983 C607.259064,21.9017759 606.502615,23.7911999 606.502615,26.1844704 L606.502615,30.4644333 L637.390932,30.4644333 L637.390932,11.5729245 L657.562894,11.5729245 L657.562894,30.4644333 L676.223621,30.4644333 L676.223621,46.4642884 L657.562894,46.4642884 L657.562894,68.1296841 C657.562894,74.3018026 660.336539,77.3248811 666.009904,77.3248811 C669.161773,77.3248811 672.187567,76.4431498 675.087287,74.805649 L679.752053,90.6768109 C673.952614,93.825851 668.153175,95.3373902 662.47981,95.3373902 C654.5371,95.3373902 648.359437,93.196043 643.94682,88.9133485 C639.534203,84.630654 637.390932,78.3325739 637.390932,70.1450697 L637.390932,46.4642884 Z M532.496728,78.3325739 C528.084112,78.3325739 524.427943,76.8210347 521.528224,73.7979562 C518.628504,70.7748777 517.241682,66.870068 517.241682,61.9575655 C517.241682,57.1710246 518.628504,53.266215 521.528224,50.2431365 C524.427943,47.220058 528.084112,45.7085188 532.496728,45.7085188 C536.657196,45.7085188 540.313364,47.220058 543.339158,50.3690981 C546.364952,53.5181382 547.87785,57.4229478 547.87785,62.0835271 C547.87785,66.870068 546.364952,70.7748777 543.339158,73.7979562 C540.313364,76.8210347 536.657196,78.3325739 532.496728,78.3325739 Z" id="Wiredcraft" fill="#EF233C"></path>
            <g id="W" transform="translate(0.247947, 8.713115)">
                <mask id="mask-2" fill="white">
                    <use xlink:href="#path-1"></use>
                </mask>
                <use id="Mask" fill="#C6012F" transform="translate(46.923758, 42.649505) scale(-1, 1) translate(-46.923758, -42.649505) " xlink:href="#path-1"></use>
                <rect id="Rectangle-101" fill="url(#linearGradient-3)" mask="url(#mask-2)" x="21.9159386" y="36.6594367" width="20" height="47.9099998">
                    <g transform="translate(31.915939, 60.614437) rotate(-10.000000) translate(-31.915939, -60.614437) "></g>
                </rect>
                <path d="M22.8493904,83.9783889 C22.6259583,83.1930601 0.011795847,0.535293321 0.011795847,0.535293321 L20.6783626,0.535293321 C20.6783626,0.535293321 44.0758563,83.16942 44.3122009,83.9665688 C44.5485454,84.7637177 45.3451292,84.7637177 45.3451292,84.7637177 L23.8731925,84.7637177 C23.8731925,84.7637177 23.0728224,84.7637177 22.8493904,83.9783889 Z" id="Rectangle-9" fill="#EF233C"></path>
                <mask id="mask-5" fill="white">
                    <use xlink:href="#path-4"></use>
                </mask>
                <use id="Mask" fill="#C6012F" transform="translate(96.631579, 42.649505) scale(-1, 1) translate(-96.631579, -42.649505) " xlink:href="#path-4"></use>
                <rect id="Rectangle-101" fill="url(#linearGradient-3)" mask="url(#mask-5)" x="71.9159386" y="36.6594367" width="20" height="47.9099998">
                    <g transform="translate(81.915939, 60.614437) rotate(-10.000000) translate(-81.915939, -60.614437) "></g>
                </rect>
                <path d="M72.9424208,83.9783889 C72.7319487,83.2386124 50.5508567,2.13967677 50.3242979,1.33748505 C50.0977391,0.535293321 49.3099415,0.535293321 49.3099415,0.535293321 L69.9844692,0.535293321 C69.9844692,0.535293321 70.7801792,0.535293321 70.9946304,1.32370527 C71.2090817,2.11211721 94.182477,83.2152576 94.4052313,83.9665688 C94.6415759,84.7637177 95.4381596,84.7637177 95.4381596,84.7637177 L73.9662229,84.7637177 C73.9662229,84.7637177 73.1658529,84.7637177 72.9424208,83.9783889 Z" id="Rectangle-9-Copy-2" fill="#EF233C"></path>
            </g>
        </g>
    </g>
</svg>