<?xml version="1.0" encoding="UTF-8" standalone="no"?>
<svg width="693px" height="96px" viewBox="0 0 693 96" version="1.1" xmlns="http://www.w3.org/2000/svg" xmlns:xlink="http://www.w3.org/1999/xlink">
    <!-- Generator: Sketch 3.6 (26304) - http://www.bohemiancoding.com/sketch -->
    <title>Slice 1</title>
    <desc>Created with Sketch.</desc>
    <defs></defs>
    <g id="Page-1" stroke="none" stroke-width="1" fill="none" fill-rule="evenodd">
        <g id="Light">
            <path d="M152.647763,0.110418642 C149.243745,0.110418642 146.4701,1.24407307 144.326829,3.51138191 C142.183558,5.77869076 141.048885,8.54984602 141.048885,11.6988861 C141.048885,14.8479262 142.183558,17.4931198 144.326829,19.6344671 C146.4701,21.7758143 149.243745,22.9094687 152.647763,22.9094687 C156.051782,22.9094687 158.825427,21.9017759 161.094772,19.7604287 C163.364118,17.6190814 164.498791,14.9738878 164.498791,11.8248477 C164.498791,8.67580762 163.364118,6.03061397 161.094772,3.76330512 C158.825427,1.49599627 156.051782,0.362341848 152.647763,0.362341848 L152.647763,0.110418642 Z M162.733744,93.6998894 L162.733744,30.4671649 L142.561782,30.4671649 L142.561782,93.6998894 L162.733744,93.6998894 Z M220.349912,29.3335105 C211.020379,29.3335105 203.708043,33.6162049 198.538977,42.3075555 L198.538977,30.2152417 L178.367015,30.2152417 L178.367015,93.4479662 L198.538977,93.4479662 L198.538977,73.6719946 C198.538977,57.9267943 205.851314,49.9912133 220.349912,49.9912133 L224.00608,49.9912133 L224.888603,29.8373569 C223.501781,29.4594721 221.988883,29.3335105 220.349912,29.3335105 L220.349912,29.3335105 Z M295.112247,61.8316039 C294.860097,51.7546757 291.834303,43.6931332 285.656639,37.5210146 C279.478976,31.3488961 271.788415,28.3258176 262.584958,28.3258176 C253.12935,28.3258176 245.18664,31.4748577 238.756827,37.7729378 C232.327014,44.071018 229.04907,52.1325605 229.04907,61.8316039 C229.04907,71.6566089 232.327014,79.7181515 238.756827,86.0162317 C245.18664,92.3143118 253.12935,95.4633518 262.458883,95.4633518 C269.897294,95.4633518 276.327107,93.825851 281.748322,90.5508493 C287.169537,87.2758477 291.203929,82.3633452 293.851499,75.8133418 L275.948883,72.1604554 C273.301313,77.0729579 268.762621,79.4662283 262.458883,79.4662283 C259.054864,79.4662283 256.155145,78.3325739 253.759724,76.1912266 C251.364304,74.0498794 249.725332,71.0268009 248.842808,67.2479529 L295.238321,67.2479529 L295.112247,61.8316039 Z M262.584958,44.9527492 C265.610752,44.9527492 268.258322,45.8344804 270.527668,47.4719812 C272.797013,49.1094821 274.435985,51.6287141 275.318509,54.9037158 L249.221033,54.9037158 C250.103556,51.7546757 251.868603,49.3614053 254.390098,47.5979428 C256.911593,45.8344804 259.685238,44.9527492 262.584958,44.9527492 L262.584958,44.9527492 Z M372.143928,2.7556123 L351.971965,2.7556123 L351.971965,35.2537058 C346.8029,30.5931265 340.247012,28.3258176 332.304302,28.3258176 C323.731218,28.3258176 316.418882,31.4748577 310.367293,37.7729378 C304.315704,44.071018 301.28991,52.1325605 301.28991,61.8316039 C301.28991,71.6566089 304.315704,79.7181515 310.367293,86.0162317 C316.418882,92.3143118 323.731218,95.4633518 332.304302,95.4633518 C340.247012,95.4633518 346.8029,93.196043 351.971965,88.5354637 L351.971965,93.5739278 L372.143928,93.5739278 L372.143928,2.7556123 Z M336.464769,78.3325739 C332.052153,78.3325739 328.395984,76.8210347 325.496265,73.7979562 C322.596545,70.7748777 321.209723,66.870068 321.209723,61.9575655 C321.209723,57.1710246 322.596545,53.266215 325.496265,50.2431365 C328.395984,47.220058 332.052153,45.7085188 336.464769,45.7085188 C340.625237,45.7085188 344.281405,47.220058 347.307199,50.3690981 C350.332993,53.5181382 351.845891,57.4229478 351.845891,62.0835271 C351.845891,66.870068 350.332993,70.7748777 347.307199,73.7979562 C344.281405,76.8210347 340.625237,78.3325739 336.464769,78.3325739 L336.464769,78.3325739 Z M417.152618,77.7027659 C412.613927,77.7027659 408.957759,76.1912266 406.184114,73.2941098 C403.410469,70.3969929 402.023647,66.6181448 402.023647,61.9575655 C402.023647,57.2969862 403.410469,53.5181382 406.184114,50.4950597 C408.957759,47.4719812 412.613927,45.960442 417.152618,45.960442 C420.556637,45.960442 423.456357,46.9681348 425.851777,48.8575589 C428.247198,50.7469829 429.88617,53.5181382 430.768693,57.1710246 L449.679908,52.6364069 C447.914861,45.330634 444.006543,39.4104387 438.081029,35.0017826 C432.155515,30.5931265 425.221403,28.3258176 417.404768,28.3258176 C407.697011,28.3258176 399.502151,31.4748577 392.820189,37.7729378 C386.138226,44.071018 382.734208,52.1325605 382.734208,61.8316039 C382.734208,71.6566089 386.012152,79.7181515 392.694114,86.0162317 C399.376077,92.3143118 407.570936,95.4633518 417.278693,95.4633518 C425.221403,95.4633518 432.155515,93.196043 438.081029,88.6614253 C444.006543,84.1268076 447.788786,78.2066123 449.427758,70.7748777 L430.894768,66.7441064 C428.751497,74.175841 424.212805,77.8287275 417.152618,77.8287275 L417.152618,77.7027659 Z M501.87486,29.3335105 C492.545327,29.3335105 485.232991,33.6162049 480.063926,42.3075555 L480.063926,30.2152417 L459.891964,30.2152417 L459.891964,93.4479662 L480.063926,93.4479662 L480.063926,73.6719946 C480.063926,57.9267943 487.376262,49.9912133 501.87486,49.9912133 L505.531028,49.9912133 L506.413551,29.8373569 C505.026729,29.4594721 503.513832,29.3335105 501.87486,29.3335105 L501.87486,29.3335105 Z M581.175887,30.2152417 L561.003924,30.2152417 L561.003924,35.2537058 C555.834859,30.5931265 549.278971,28.3258176 541.336261,28.3258176 C532.763177,28.3258176 525.450841,31.4748577 519.399252,37.7729378 C513.347664,44.071018 510.321869,52.1325605 510.321869,61.8316039 C510.321869,71.6566089 513.347664,79.7181515 519.399252,86.0162317 C525.450841,92.3143118 532.763177,95.4633518 541.336261,95.4633518 C549.278971,95.4633518 555.834859,93.196043 561.003924,88.5354637 L561.003924,93.5739278 L581.175887,93.5739278 L581.175887,30.2152417 Z M650.390932,46.4642884 L619.37654,46.4642884 L619.37654,93.6998894 L599.330653,93.6998894 L599.330653,46.4642884 L590.25327,46.4678334 L590.25327,30.4671649 L599.330653,30.4671649 L599.330653,25.5546624 C599.330653,18.1229278 601.726073,12.2027325 606.390839,7.7940764 C611.055606,3.38542031 617.233269,1.11811146 624.92383,1.11811146 C629.210372,1.11811146 633.370839,1.99984268 637.405231,3.76330512 L633.11869,19.3825438 C631.101493,18.7527358 629.336447,18.374851 627.697475,18.374851 C625.302054,18.374851 623.284858,19.1306206 621.771961,20.5161983 C620.259064,21.9017759 619.502615,23.7911999 619.502615,26.1844704 L619.502615,30.4644333 L650.390932,30.4644333 L650.390932,11.5729245 L670.562894,11.5729245 L670.562894,30.4644333 L689.223621,30.4644333 L689.223621,46.4642884 L670.562894,46.4642884 L670.562894,68.1296841 C670.562894,74.3018026 673.336539,77.3248811 679.009904,77.3248811 C682.161773,77.3248811 685.187567,76.4431498 688.087287,74.805649 L692.752053,90.6768109 C686.952614,93.825851 681.153175,95.3373902 675.47981,95.3373902 C667.5371,95.3373902 661.359437,93.196043 656.94682,88.9133485 C652.534203,84.630654 650.390932,78.3325739 650.390932,70.1450697 L650.390932,46.4642884 Z M545.496728,78.3325739 C541.084112,78.3325739 537.427943,76.8210347 534.528224,73.7979562 C531.628504,70.7748777 530.241682,66.870068 530.241682,61.9575655 C530.241682,57.1710246 531.628504,53.266215 534.528224,50.2431365 C537.427943,47.220058 541.084112,45.7085188 545.496728,45.7085188 C549.657196,45.7085188 553.313364,47.220058 556.339158,50.3690981 C559.364952,53.5181382 560.87785,57.4229478 560.87785,62.0835271 C560.87785,66.870068 559.364952,70.7748777 556.339158,73.7979562 C553.313364,76.8210347 549.657196,78.3325739 545.496728,78.3325739 Z" id="Wiredcraft" fill="#8D99AE"></path>
            <g id="W" transform="translate(13.247947, 8.713115)">
                <path d="M47.4921284,83.9783889 C47.2816563,83.2386124 25.1005643,2.13967677 24.8740055,1.33748505 C24.6474467,0.535293321 23.8596491,0.535293321 23.8596491,0.535293321 L44.5341768,0.535293321 C44.5341768,0.535293321 45.3298868,0.535293321 45.544338,1.32370527 C45.7587893,2.11211721 68.7321846,83.2152576 68.9549389,83.9665688 C69.1912835,84.7637177 69.9878672,84.7637177 69.9878672,84.7637177 L48.5159305,84.7637177 C48.5159305,84.7637177 47.7155605,84.7637177 47.4921284,83.9783889 Z" id="Rectangle-9-Copy" fill="#B2BAC8" transform="translate(46.923758, 42.649505) scale(-1, 1) translate(-46.923758, -42.649505) "></path>
                <path d="M22.8493904,83.9783889 C22.6259583,83.1930601 0.011795847,0.535293321 0.011795847,0.535293321 L20.6783626,0.535293321 C20.6783626,0.535293321 44.0758563,83.16942 44.3122009,83.9665688 C44.5485454,84.7637177 45.3451292,84.7637177 45.3451292,84.7637177 L23.8731925,84.7637177 C23.8731925,84.7637177 23.0728224,84.7637177 22.8493904,83.9783889 Z" id="Rectangle-9" fill="#8D99AE"></path>
                <path d="M96.8025068,83.9783889 C96.5790747,83.1930601 73.9649123,0.535293321 73.9649123,0.535293321 L94.631479,0.535293321 C94.631479,0.535293321 118.028973,83.16942 118.265317,83.9665688 C118.501662,84.7637177 119.298246,84.7637177 119.298246,84.7637177 L97.8263089,84.7637177 C97.8263089,84.7637177 97.0259389,84.7637177 96.8025068,83.9783889 Z" id="Rectangle-9-Copy-3" fill="#B2BAC8" transform="translate(96.631579, 42.649505) scale(-1, 1) translate(-96.631579, -42.649505) "></path>
                <path d="M72.9424208,83.9783889 C72.7319487,83.2386124 50.5508567,2.13967677 50.3242979,1.33748505 C50.0977391,0.535293321 49.3099415,0.535293321 49.3099415,0.535293321 L69.9844692,0.535293321 C69.9844692,0.535293321 70.7801792,0.535293321 70.9946304,1.32370527 C71.2090817,2.11211721 94.182477,83.2152576 94.4052313,83.9665688 C94.6415759,84.7637177 95.4381596,84.7637177 95.4381596,84.7637177 L73.9662229,84.7637177 C73.9662229,84.7637177 73.1658529,84.7637177 72.9424208,83.9783889 Z" id="Rectangle-9-Copy-2" fill="#8D99AE"></path>
            </g>
        </g>
    </g>
</svg>