<?xml version="1.0" encoding="UTF-8" standalone="no"?>
<svg width="1160px" height="140px" viewBox="0 0 1160 140" version="1.1" xmlns="http://www.w3.org/2000/svg" xmlns:xlink="http://www.w3.org/1999/xlink" xmlns:sketch="http://www.bohemiancoding.com/sketch/ns">
    <title>Slice 1</title>
    <description>Created with Sketch (http://www.bohemiancoding.com/sketch)</description>
    <defs></defs>
    <g id="Page-1" stroke="none" stroke-width="1" fill="none" fill-rule="evenodd" sketch:type="MSPage">
        <g id="logo" sketch:type="MSLayerGroup">
            <g id="Page-1" sketch:type="MSShapeGroup">
                <g id="Logo-Adjusted_colors">
                    <g id="Page-1">
                        <g id="Wiredcraft-Logo-White_bg">
                            <g id="Page-1">
                                <g id="Logo-light">
                                    <g id="Doodle">
                                        <path d="M0,0 L40,0 L40,100 L80,100 L80,140 L40,140 L0,100 L0,0 L0,0 Z" id="Fold-1" fill="#E32929"></path>
                                        <path d="M80,0 L120,0 L120,100 L160,100 L160,0 L200,0 L200,140 L120,140 L80,100 L80,0 L80,0 Z" id="Fold-2" fill="#E32929"></path>
                                        <path d="M40,100 L40,140 L80,140 L40,100 L40,100 Z" id="Shade-1" opacity="0.2" fill="#000000"></path>
                                        <path d="M120,140 L160,140 L120,100 L120,140 L120,140 Z" id="Shade-2" opacity="0.2" fill="#000000"></path>
                                    </g>
                                    <path d="M418.698576,27.6154806 L392.917159,138.164794 L369.233214,138.164794 L345.898847,54.1822722 L345.374479,54.1822722 L322.040112,138.164794 L298.356167,138.164794 L272.399961,27.6154806 L262,26.3046192 L262,10.9238452 L308.843523,10.9238452 L308.843523,26.3046192 L297.220037,28.3146067 L311.81494,98.052434 L312.339308,98.139825 L336.198043,10.9238452 L354.987889,10.9238452 L379.021413,98.139825 L379.54578,98.052434 L394.053289,28.3146067 L382.429803,26.3046192 L382.429803,10.9238452 L429.185932,10.9238452 L429.185932,26.3046192 L418.698576,27.6154806 L418.698576,27.6154806 Z M436.527081,122.871411 L448.849724,120.249688 L448.849724,61.610487 L435.216161,58.988764 L435.216161,43.60799 L474.368956,43.60799 L474.368956,120.249688 L486.604205,122.871411 L486.604205,138.164794 L436.527081,138.164794 L436.527081,122.871411 L436.527081,122.871411 Z M474.368956,1.835206 L474.368956,20.9737828 L448.849724,20.9737828 L448.849724,1.835206 L474.368956,1.835206 L474.368956,1.835206 Z M496.916772,122.871411 L509.15202,120.249688 L509.15202,61.610487 L495.605852,58.988764 L495.605852,43.60799 L532.92336,43.60799 L534.05949,57.4157303 C536.273499,52.5218232 539.128362,48.7057981 542.624164,45.9675406 C546.119967,43.229283 550.169211,41.8601748 554.772018,41.8601748 C556.112076,41.8601748 557.524942,41.9621297 559.010658,42.1660424 C560.496374,42.3699552 561.734452,42.6175599 562.72493,42.9088639 L560.015696,66.154806 L549.52834,65.892634 C545.799484,65.892634 542.711571,66.620883 540.264509,68.077403 C537.817447,69.533923 535.953047,71.602151 534.671253,74.282147 L534.671253,120.249688 L546.906501,122.871411 L546.906501,138.164794 L496.916772,138.164794 L496.916772,122.871411 L496.916772,122.871411 Z M613.938184,140 C600.304553,140 589.409465,135.630506 581.252592,126.891386 C573.095719,118.152266 569.017343,107.05375 569.017343,93.595506 L569.017343,90.099875 C569.017343,76.059023 572.877234,64.494427 580.597132,55.4057428 C588.31703,46.3170582 598.67319,41.801914 611.665924,41.8601748 C624.425604,41.8601748 634.33023,45.7053298 641.380099,53.3957553 C648.429968,61.086181 651.954849,71.485577 651.954849,84.594257 L651.954849,98.489388 L595.497917,98.489388 L595.323128,99.013733 C595.789235,105.247638 597.872119,110.374512 601.571844,114.394507 C605.271568,118.414502 610.29671,120.424469 616.647418,120.424469 C622.298966,120.424469 626.989097,119.856435 630.717954,118.72035 C634.44681,117.584264 638.525185,115.792771 642.953202,113.345818 L649.857378,129.076155 C645.953732,132.163977 640.899459,134.756544 634.694409,136.853933 C628.48936,138.951321 621.570687,140 613.938184,140 L613.938184,140 L613.938184,140 Z M611.665924,61.523096 C606.94659,61.523096 603.21779,63.329154 600.479411,66.941323 C597.741032,70.553493 596.051419,75.301677 595.410522,81.186017 L595.672706,81.622971 L626.959984,81.622971 L626.959984,79.350811 C626.959984,73.932557 625.692775,69.606758 623.158318,66.373283 C620.623861,63.139809 616.793101,61.523096 611.665924,61.523096 L611.665924,61.523096 L611.665924,61.523096 Z M725.54113,126.629213 C722.569697,130.998773 719.059381,134.319589 715.010077,136.59176 C710.960772,138.863931 706.343468,140 701.158027,140 C689.505351,140 680.460097,135.747025 674.021994,127.240949 C667.583891,118.734872 664.364887,107.490707 664.364887,93.508115 L664.364887,91.672909 C664.364887,76.758144 667.598456,64.72747 674.065691,55.5805243 C680.532926,46.4335789 689.621877,41.8601748 701.332817,41.8601748 C706.05215,41.8601748 710.305313,42.8942885 714.092433,44.9625468 C717.879553,47.0308052 721.200515,49.9583664 724.055421,53.7453184 L724.055421,19.8377029 L710.421858,17.21598 L710.421858,1.835206 L724.055421,1.835206 L749.574654,1.835206 L749.574654,120.249688 L761.809902,122.871411 L761.809902,138.164794 L727.463812,138.164794 L725.54113,126.629213 L725.54113,126.629213 Z M689.88412,93.508115 C689.88412,101.781148 691.267854,108.291695 694.035365,113.03995 C696.802875,117.788205 701.332785,120.162297 707.62523,120.162297 C711.354086,120.162297 714.587655,119.404918 717.326034,117.890137 C720.064413,116.375357 722.30752,114.190609 724.055421,111.33583 L724.055421,71.223471 C722.30752,68.193909 720.078979,65.848947 717.369732,64.188514 C714.660484,62.528082 711.470612,61.697878 707.800019,61.697878 C701.565838,61.697878 697.021362,64.465224 694.166457,70 C691.311551,75.534776 689.88412,82.759007 689.88412,91.672909 L689.88412,93.508115 L689.88412,93.508115 Z M814.334076,120.424469 C818.87862,120.424469 822.520026,119.099056 825.258405,116.44819 C827.996784,113.797323 829.365953,110.258033 829.365953,105.830212 L852.438136,105.830212 L852.70032,106.354557 C852.933373,115.909328 849.350229,123.905503 841.95078,130.343321 C834.551331,136.781139 825.345855,140 814.334076,140 C800.234338,140 789.368381,135.543116 781.735878,126.629213 C774.103376,117.715311 770.287181,106.267236 770.287181,92.284644 L770.287181,89.662921 C770.287181,75.73859 774.205335,64.290515 782.04176,55.3183521 C789.878184,46.346189 801.05002,41.8601748 815.557601,41.8601748 C823.190104,41.8601748 830.035948,42.9962433 836.09534,45.2684145 C842.154731,47.5405856 847.194438,50.7448815 851.214611,54.8813983 L851.56419,80.137328 L830.851662,80.137328 L826.656719,65.36829 C825.374925,64.261334 823.801837,63.343741 821.937409,62.615481 C820.072981,61.887221 817.9464,61.523096 815.557601,61.523096 C808.332942,61.523096 803.234973,64.144793 800.26354,69.388265 C797.292108,74.631737 795.806414,81.389888 795.806414,89.662921 L795.806414,92.284644 C795.806414,100.73246 797.175583,107.534306 799.913962,112.690387 C802.652341,117.846468 807.458997,120.424469 814.334076,120.424469 L814.334076,120.424469 L814.334076,120.424469 Z M866.159093,122.871411 L878.394342,120.249688 L878.394342,61.610487 L864.848174,58.988764 L864.848174,43.60799 L902.165682,43.60799 L903.301812,57.4157303 C905.51582,52.5218232 908.370683,48.7057981 911.866486,45.9675406 C915.362289,43.229283 919.411533,41.8601748 924.01434,41.8601748 C925.354397,41.8601748 926.767263,41.9621297 928.252979,42.1660424 C929.738696,42.3699552 930.976774,42.6175599 931.967251,42.9088639 L929.258018,66.154806 L918.770662,65.892634 C915.041805,65.892634 911.953893,66.620883 909.506831,68.077403 C907.059769,69.533923 905.195369,71.602151 903.913574,74.282147 L903.913574,120.249688 L916.148823,122.871411 L916.148823,138.164794 L866.159093,138.164794 L866.159093,122.871411 L866.159093,122.871411 Z M998.03759,138.164794 C997.33843,136.591752 996.72668,134.97504 996.20231,133.314607 C995.67794,131.654174 995.2701,129.979201 994.97878,128.289638 C991.94909,131.785286 988.26398,134.610892 983.92336,136.766542 C979.58274,138.922191 974.61586,140 969.02258,140 C959.758698,140 952.403057,137.480258 946.955431,132.440699 C941.507805,127.40114 938.784033,120.541034 938.784033,111.860175 C938.784033,103.004533 942.338045,96.158992 949.446178,91.323346 C956.55431,86.4877 966.9833,84.069913 980.73346,84.069913 L993.75526,84.069913 L993.75526,74.806492 C993.75526,70.26215 992.44435,66.737424 989.8225,64.23221 C987.20065,61.726995 983.32619,60.474407 978.19901,60.474407 C975.28584,60.474407 972.69316,60.809402 970.42089,61.479401 C968.14862,62.1494 966.31335,62.950474 964.91503,63.882647 L963.25453,74.019975 L944.02771,74.019975 L944.115105,53.0461923 C948.776175,49.9001091 954.12176,47.2492825 960.15202,45.093633 C966.18228,42.9379834 972.75138,41.8601748 979.85951,41.8601748 C991.57045,41.8601748 1001.0818,44.7294761 1008.39386,50.4681648 C1015.70591,56.2068535 1019.36188,64.377808 1019.36188,74.981273 L1019.36188,114.044944 C1019.36188,115.501464 1019.37645,116.870572 1019.40558,118.15231 C1019.43471,119.434047 1019.53667,120.657506 1019.71146,121.822722 L1027.48958,122.871411 L1027.48958,138.164794 L998.03759,138.164794 L998.03759,138.164794 Z M975.92675,121.123596 C979.77213,121.123596 983.26788,120.293392 986.41411,118.632959 C989.56033,116.972526 992.00735,114.889734 993.75526,112.384519 L993.75526,97.965044 L980.73346,97.965044 C975.31496,97.965044 971.20746,99.232197 968.41081,101.766542 C965.61417,104.300887 964.21587,107.344968 964.21587,110.898876 C964.21587,114.10322 965.25003,116.608397 967.31838,118.414482 C969.38673,120.220567 972.25616,121.123596 975.92675,121.123596 L975.92675,121.123596 L975.92675,121.123596 Z M1037.53997,138.164794 L1037.53997,122.871411 L1049.86261,120.249688 L1049.86261,61.523096 L1035.79207,61.523096 L1035.79207,43.60799 L1049.86261,43.60799 L1049.86261,33.1210986 C1049.86261,22.5176332 1052.92139,14.3466787 1059.03905,8.60799 C1065.1567,2.8693013 1073.75042,0 1084.82046,0 C1086.97621,0 1089.17562,0.1602148 1091.41876,0.4806492 C1093.6619,0.8010836 1096.12349,1.252598 1098.8036,1.835206 L1096.61874,20.7990012 C1095.22042,20.5659581 1093.86581,20.3620483 1092.55489,20.1872659 C1091.24396,20.0124835 1089.71457,19.9250936 1087.96667,19.9250936 C1083.82997,19.9250936 1080.69836,21.0611622 1078.57175,23.3333333 C1076.44513,25.6055045 1075.38184,28.8680603 1075.38184,33.1210986 L1075.38184,43.60799 L1094.17169,43.60799 L1094.17169,61.523096 L1075.38184,61.523096 L1075.38184,120.249688 L1087.70449,122.871411 L1087.70449,138.164794 L1037.53997,138.164794 L1037.53997,138.164794 Z M1114.97161,20.4494382 L1140.40345,20.4494382 L1140.40345,43.60799 L1157.00843,43.60799 L1157.00843,61.523096 L1140.40345,61.523096 L1140.40345,109.675406 C1140.40345,113.345836 1141.16086,115.967533 1142.67571,117.540574 C1144.19056,119.113616 1146.22975,119.900125 1148.79333,119.900125 C1150.54124,119.900125 1152.07063,119.8273 1153.38155,119.681648 C1154.69248,119.535996 1156.16361,119.288391 1157.79498,118.938826 L1159.97985,137.378277 C1157.12494,138.252189 1154.29921,138.907613 1151.50257,139.344569 C1148.70593,139.781525 1145.67628,140 1142.41353,140 C1133.61576,140 1126.84274,137.582213 1122.09427,132.746567 C1117.34581,127.91092 1114.97161,120.24974 1114.97161,109.762797 L1114.97161,61.523096 L1101.07586,61.523096 L1101.07586,43.60799 L1114.97161,43.60799 L1114.97161,20.4494382 L1114.97161,20.4494382 Z" id="Wiredcraft" fill="#FFFFFF"></path>
                                </g>
                            </g>
                        </g>
                    </g>
                </g>
            </g>
        </g>
    </g>
</svg>