<?xml version="1.0" encoding="UTF-8" standalone="no"?>
<svg width="500px" height="500px" viewBox="0 0 500 500" version="1.1" xmlns="http://www.w3.org/2000/svg" xmlns:xlink="http://www.w3.org/1999/xlink" xmlns:sketch="http://www.bohemiancoding.com/sketch/ns">
    <!-- Generator: Sketch 3.3.2 (12043) - http://www.bohemiancoding.com/sketch -->
    <title>Slice 1</title>
    <desc>Created with Sketch.</desc>
    <defs></defs>
    <g id="Page-1" stroke="none" stroke-width="1" fill="none" fill-rule="evenodd" sketch:type="MSPage">
        <g id="Logo_of_the_United_Nations_(B&amp;W)" sketch:type="MSLayerGroup" transform="translate(109.000000, 130.000000)" fill="#000000">
            <g id="layer1" transform="translate(0.403005, 0.189453)" sketch:type="MSShapeGroup">
                <g id="g2086" transform="translate(0.308682, 0.412478)">
                    <g id="g1987" transform="translate(1.000000, 8.882501)">
                        <path d="M233.626104,184.536754 C225.133174,186.811052 216.070606,187.542336 207.822459,190.355096 C221.792349,178.377004 220.99486,159.843123 230.315303,145.735448 C233.284326,141.741077 235.73837,137.55427 239.199277,133.763898 C233.529882,145.136559 235.988545,159.891616 229.475478,170.927891 C226.968314,175.31176 223.382706,179.564771 219.417587,183.007974 C220.713124,182.959481 221.846998,181.837919 222.986272,181.088924 C233.56529,170.532221 247.385846,167.580137 258.82933,159.003298 C263.413336,155.350712 267.611698,150.564244 269.62697,145.387506 C267.461592,162.902212 250.036952,179.318443 233.626104,184.536754 L233.626104,184.536754 L233.626104,184.536754 Z" id="path1989"></path>
                        <path d="M271.737691,113.62272 C266.561725,120.987932 260.300371,127.844321 255.518522,135.329615 C256.051978,129.403117 256.75401,122.11565 254.445453,116.501677 C250.444934,104.412356 246.930135,92.1375116 245.79626,78.8696614 L245.952523,73.7960736 C248.963111,87.3456601 262.273306,96.659947 261.43348,111.858395 C261.738304,115.54177 260.599039,118.673212 259.90932,121.912431 L260.137944,122.151831 L260.737597,121.479816 C262.711305,114.024538 263.707393,106.185146 266.776492,99.2294533 C271.138038,89.2200638 276.5842,79.1182992 274.364937,67.0328242 C280.998866,81.2813679 278.988978,100.318689 271.737691,113.62272 L271.737691,113.62272 L271.737691,113.62272 Z" id="path1991"></path>
                        <path d="M263.568062,36.8568507 C272.29578,48.6848359 274.208674,67.5339464 267.851862,81.1012449 C265.482493,86.8506942 263.809006,92.9773369 262.878343,99.3410696 C262.434187,98.2433761 262.332574,96.7677166 261.936139,95.5445415 C258.464449,82.264371 245.904795,72.7999855 240.739604,60.2791994 C239.101518,56.1847601 237.705149,51.9540718 236.930756,47.5093893 C242.450044,57.7173864 256.051978,62.9899601 259.759213,74.2394643 C261.277982,77.0845507 261.192536,80.6393776 262.134739,83.6984661 C262.332574,83.6984661 262.530409,83.5514338 262.530409,83.3505246 C260.898487,71.7623251 261.396527,59.634127 262.969181,48.1898699 C262.878343,41.9908737 262.273306,35.9777705 258.82933,31.1793765 C261.03781,32.466053 262.032361,34.9374143 263.568062,36.8568507 L263.568062,36.8568507 L263.568062,36.8568507 Z" id="path1993"></path>
                        <path d="M257.414476,34.5863986 C259.706873,44.9510447 256.358347,55.0451081 258.464449,65.5094362 L258.38594,65.5995017 C252.747326,54.5116519 240.776549,49.2787193 232.53995,40.4043626 C227.766575,35.1383314 225.691262,28.7203277 224.497339,21.9247444 C229.21683,33.3027963 241.951996,35.8099599 249.263324,45.3978958 C251.709674,47.6083069 252.507927,50.6704774 254.085199,53.1772469 L254.343076,52.9282229 C250.138557,43.952647 248.729867,33.851647 245.79626,24.2791057 C244.327522,20.1311679 241.412384,16.0555914 237.501157,13.4402799 C247.098718,15.401667 255.416909,25.4214536 257.414476,34.5863986 L257.414476,34.5863986 L257.414476,34.5863986 Z" id="path1995"></path>
                        <path d="M231.754782,10.8161163 C238.982973,17.2853089 242.252209,25.6616255 244.362938,34.3404567 L245.556853,37.0966364 C235.065583,29.551301 225.534992,19.4083504 218.835638,8.69615694 L210.653696,0.418757892 C217.846479,3.46860807 225.601197,5.28912697 231.754782,10.8161163 L231.754782,10.8161163 L231.754782,10.8161163 Z" id="path1997"></path>
                        <path d="M66.059824,1.79242566 C58.8077729,8.15000206 53.778059,16.1903034 48.3980941,23.6879181 C43.5754536,29.6590627 37.4064739,33.5964668 31.9395256,38.7312544 C34.8908445,32.6130774 34.998614,25.3048319 39.1846559,19.684703 C45.1411785,9.2927283 56.1866835,5.63668223 66.059824,1.79242566 L66.059824,1.79242566 L66.059824,1.79242566 Z" id="path1999"></path>
                        <path d="M26.4002238,23.9311642 C29.9273358,19.5465227 34.3989606,16.4993684 39.430984,15.2126919 C29.6602214,21.9247444 30.2960555,33.9532603 27.1984768,43.952647 C26.2108546,47.6502575 24.4957956,51.0569013 23.6413482,54.847273 L23.889986,55.0451081 C25.5157519,50.7601566 28.3731587,46.7115225 31.9395256,43.2151996 C38.8790513,36.80913 49.1447798,32.8166825 52.5456457,23.3403628 C52.3901554,36.5089171 41.4046836,46.861629 30.8933994,54.2626358 C26.558796,58.06532 22.3789183,62.3991588 19.9918368,67.2876182 C19.7578289,63.9652699 20.482956,60.6294426 20.2466386,57.0703907 C19.1035183,45.5749447 18.2729312,32.4541189 26.4002238,23.9311642 L26.4002238,23.9311642 L26.4002238,23.9311642 Z" id="path2001"></path>
                        <path d="M6.63084696,63.2393704 C6.33679024,51.5903574 11.1717511,42.0813175 17.9850386,33.4017138 C18.1828657,33.3027963 18.3237339,33.1049692 18.5785358,33.1526898 C11.0786115,44.5496046 17.2829994,58.9051454 16.941222,71.8639384 L15.9520547,85.1317886 C16.099087,85.2280103 16.099087,85.6267545 16.4470207,85.473566 C16.8904114,83.9948245 16.9866331,82.4144775 17.2829994,80.8933991 C19.0496335,70.1912165 28.3439067,62.59738 36.461961,55.2013708 C38.1954886,53.2669261 39.7281149,51.3028432 40.618743,49.0327774 C39.9559665,54.3615454 38.2855541,59.7361187 36.0747647,64.6642271 C29.7564431,76.9860194 18.0843345,87.0962499 15.9520547,101.203161 C14.9174764,87.6843633 5.71327649,77.5772071 6.63084696,63.2393704 L6.63084696,63.2393704 L6.63084696,63.2393704 Z" id="path2003"></path>
                        <path d="M0.956833209,79.804936 C1.79665857,76.1615886 2.4386489,72.3912305 4.02438749,69.0480961 C1.01995628,84.448226 11.378052,95.5445415 14.7758436,108.893219 C16.1976183,113.88598 16.5455519,119.24824 18.5785358,123.933095 C18.7678971,124.035473 18.9326256,123.837638 19.0496335,123.687531 C13.9906677,109.507494 21.2935294,96.3304821 28.6317994,85.2280103 C30.4161376,82.2197245 31.4445597,78.8696614 32.3321136,75.4118287 C33.1118979,81.8294461 31.4892061,89.2200638 30.5570136,95.8832448 C28.7726675,104.361545 26.1092491,112.401854 23.7906822,120.628443 C22.2649847,125.769008 22.6660385,131.568496 23.4496695,136.954617 L22.7145395,136.367276 C17.3345746,126.446407 6.68164969,118.708628 3.51787371,107.870188 C0.914496293,99.2294533 -0.815965025,89.2200638 0.956833209,79.804936 L0.956833209,79.804936 L0.956833209,79.804936 Z" id="path2005"></path>
                        <path d="M0.471105584,109.883151 C1.65579038,126.206243 19.2089782,134.831575 27.3455091,148.344981 C29.2707155,151.110021 30.9411279,154.169101 33.5137163,156.483822 C33.1118979,154.744895 31.4892061,153.281555 30.8933994,151.500291 C28.046768,145.832434 27.0091155,139.078423 27.6934427,132.22819 C28.4816929,123.890758 31.9787883,116.153744 30.643997,107.384461 C37.7936702,122.799985 35.6221357,142.04129 39.6195808,158.745422 C40.6664716,162.398772 42.7810472,165.661087 44.1666412,169.152783 C29.4770163,159.148013 9.44668932,149.62897 2.92976815,131.292915 C0.1832051,124.970747 -0.123164086,117.143668 0.471105584,109.883151 L0.471105584,109.883151 L0.471105584,109.883151 Z" id="path2007"></path>
                        <path d="M9.24577224,147.36737 C17.4361879,165.895867 37.9491605,167.430795 51.7027461,178.713398 C54.2337622,180.956522 56.8856406,182.864024 59.7430474,184.194968 L59.8900797,184.045634 C56.73246,181.190537 53.0798743,177.939005 50.869077,174.238691 C42.8195374,163.046154 45.6507664,147.36737 39.6195808,135.329615 C45.0996062,141.885027 50.0831364,148.699079 53.3916351,156.13588 C58.3128069,168.276012 60.1933669,181.988026 71.5806571,191.164905 C59.2573198,187.103564 44.8201794,188.238219 33.9432496,180.650152 C22.0671575,173.351145 11.4681174,160.970841 9.24577224,147.36737 L9.24577224,147.36737 L9.24577224,147.36737 Z" id="path2009"></path>
                        <path d="M30.2960555,181.933368 C43.4284291,196.868935 64.8866871,191.885413 82.3798418,195.79433 C84.8508168,196.131496 87.1124169,197.121427 89.7311967,196.719601 C87.645873,195.400204 84.7522856,195.543382 82.4760635,194.344075 C68.7640501,189.526819 66.7526249,174.682082 59.308895,164.67192 C68.8186995,170.987159 76.8135897,179.50473 85.5867272,187.757875 C91.8927284,193.281782 99.4834827,195.831283 107.481447,197.457049 C105.559323,198.15908 103.039847,197.966637 100.976846,198.507021 C86.6082127,202.04029 70.6446101,207.815144 55.406907,202.645335 C45.50066,199.526205 35.2803504,191.692969 30.2960555,181.933368 L30.2960555,181.933368 L30.2960555,181.933368 Z" id="path2011"></path>
                        <path d="M208.536811,216.747619 C193.738644,222.269989 178.29464,216.495134 166.736457,207.73047 C162.056995,204.756056 157.931766,200.473028 151.879022,200.851758 C149.683619,200.810186 147.566742,200.917956 145.700804,201.456803 C156.929522,206.682035 167.359979,213.885601 176.896726,223.098274 C175.289437,224.933415 173.20796,226.650011 171.247345,228.232676 C162.056995,218.330283 151.879022,208.79892 140.483266,203.231903 C138.25169,203.521341 136.128649,204.863825 134.116451,205.944595 C124.839117,211.81028 115.665699,219.355623 108.76851,228.59293 L102.842012,223.698692 C112.301013,214.130384 122.763805,206.682035 134.209599,201.361346 C122.962404,197.798826 115.621052,207.220883 107.083475,212.013506 C97.1348993,218.959961 82.8270792,222.222268 70.8039548,217.429644 C64.3378364,214.977138 58.0734075,211.365352 53.3916351,205.49504 C62.8537111,212.013506 76.9459921,212.697061 87.7066865,208.463299 C102.146137,202.200407 117.150596,194.260939 134.557532,198.057475 C137.274071,198.105195 139.913629,200.810186 142.480061,198.507021 C155.417682,195.14772 170.06497,197.457049 181.203622,203.370462 L192.684052,207.97218 C203.354681,211.918049 217.150604,210.826512 226.297072,204.324985 C221.594514,210.178358 215.17074,214.372093 208.536811,216.747619 L208.536811,216.747619 L208.536811,216.747619 Z" id="path2013"></path>
                        <path d="M224.394954,201.456803 C207.780122,207.73047 191.065215,200.029637 175.145486,197.457049 L172.080242,197.067543 L172.080242,196.970549 C179.692555,195.243169 187.081627,192.97695 193.140528,187.506928 C202.064536,178.928937 210.005542,170.099613 219.915635,163.340211 C212.56659,172.763032 211.78757,186.175218 199.647446,192.233354 C196.643007,194.199361 192.851098,194.547294 189.750437,196.036039 C194.172032,196.131496 198.22028,194.547294 202.598765,194.103903 C218.877975,191.548247 237.501157,194.170109 248.921546,180.302211 C244.68162,189.96559 234.063338,198.057475 224.394954,201.456803 L224.394954,201.456803 L224.394954,201.456803 Z" id="path2015"></path>
                        <path d="M254.583247,154.708714 C248.02168,159.003298 241.370819,162.986113 235.065583,167.868802 L235.065583,167.269149 C244.723192,151.218555 240.002157,129.169102 245.952523,111.505062 L248.171786,105.587802 C246.930135,116.591743 251.709674,125.912951 251.374052,136.954617 C251.038431,143.624719 248.861505,149.538904 245.359026,154.864984 L245.952523,154.864984 C250.684334,148.650586 254.379256,142.04129 259.90932,136.12172 C268.493088,127.844321 277.220034,119.356775 278.346987,107.870188 C281.262126,127.04606 270.502204,143.85257 254.583247,154.708714 L254.583247,154.708714 L254.583247,154.708714 Z" id="path2017"></path>
                    </g>
                    <g id="g2019" transform="translate(41.200758, 1.000000)">
                        <path d="M97.8311606,120.801259 L100.808263,120.801259 L100.808263,195.544927 L97.8311606,195.544927 L97.8311606,120.801259 L97.8311606,120.801259 Z" id="polygon2021"></path>
                        <path d="M81.6701092,113.460293 L83.7731291,115.566017 L30.8803144,168.378004 L28.7772867,166.270743 L81.6701092,113.460293 L81.6701092,113.460293 Z" id="polygon2023"></path>
                        <path d="M76.6142176,97.8896646 L76.6095985,100.866381 L1.86593787,100.777088 L1.86901205,97.7999853 L76.6142176,97.8896646 L76.6142176,97.8896646 Z" id="polygon2025"></path>
                        <path d="M83.7103923,83.4740749 L81.6042904,85.5782535 L28.7595826,32.7185374 L30.8653061,30.6143588 L83.7103923,83.4740749 L83.7103923,83.4740749 Z" id="polygon2027"></path>
                        <path d="M100.775551,77.3351118 L97.7984404,77.3328022 L97.8669551,2.58759665 L100.844058,2.59067871 L100.775551,77.3351118 L100.775551,77.3351118 Z" id="polygon2029"></path>
                        <path d="M115.7346,84.4651576 L113.631572,82.3575186 L166.554797,29.5763122 L168.657817,31.6835729 L115.7346,84.4651576 L115.7346,84.4651576 Z" id="polygon2031"></path>
                        <path d="M121.506758,101.100397 L121.503676,98.1236724 L196.246572,98.0297603 L196.251964,101.006484 L121.506758,101.100397 L121.506758,101.100397 Z" id="polygon2033"></path>
                        <path d="M112.876807,116.313467 L114.979834,114.20582 L167.876496,167.013582 L165.773468,169.120843 L112.876807,116.313467 L112.876807,116.313467 Z" id="polygon2035"></path>
                        <path d="M127.19463,24.5804695 C168.362223,39.9686731 189.283959,85.8669186 173.895377,127.032211 C158.506787,168.197495 112.608541,189.119609 71.4447943,173.731027 C30.2779652,158.343595 9.35893343,112.446115 24.7444334,71.2800579 C40.1334016,30.1140013 86.0308825,9.19343243 127.19463,24.5804695 L127.19463,24.5804695 L127.19463,24.5804695 Z M125.989931,27.808141 C165.373187,42.5300999 185.388892,86.4419471 170.668478,125.825581 C155.947283,165.210381 112.032748,185.225314 72.649879,170.503355 C33.2666235,155.782941 13.2516831,111.870321 27.9721049,72.4863014 C42.6940638,33.1026596 86.6066756,13.0869546 125.989931,27.808141 L125.989931,27.808141 L125.989931,27.808141 Z" id="path2037"></path>
                        <path d="M120.808574,41.6679513 C152.544108,53.5301938 168.669365,88.9117713 156.809432,120.645768 C144.946425,152.379379 109.562924,168.50656 77.8312364,156.64509 C46.0991625,144.78362 29.9704373,109.400497 41.8319152,77.6668863 C53.6933852,45.9336615 89.0764998,29.806095 120.808574,41.6679513 L120.808574,41.6679513 L120.808574,41.6679513 Z M119.597719,44.9140915 C149.537367,56.1058563 164.755829,89.491411 153.564064,119.433369 C142.372292,149.375713 108.984435,164.593024 79.0451732,153.399714 C49.1028291,142.207949 33.883981,108.822016 45.0772829,78.8804368 C56.2705927,48.9380927 89.6549887,33.7207896 119.597719,44.9140915 L119.597719,44.9140915 L119.597719,44.9140915 Z" id="path2039"></path>
                        <path d="M114.613038,58.2408318 C137.200172,66.6833456 148.678293,91.8653997 140.236938,114.450611 C131.791728,137.035444 106.61006,148.515101 84.026386,140.071823 C61.440016,131.628923 49.9618957,106.447255 58.405182,83.86243 C66.8480742,61.2775971 92.029742,49.7987043 114.613038,58.2408318 L114.613038,58.2408318 L114.613038,58.2408318 Z M113.503402,61.2113998 C134.449763,69.0411674 145.095759,92.3950014 137.265605,113.340983 C129.434679,134.286571 106.081996,144.93103 85.1360215,137.101255 C64.1904257,129.272638 53.5459745,105.918032 61.3745912,84.9720576 C69.2043588,64.0272343 92.5574282,53.3820106 113.503402,61.2113998 L113.503402,61.2113998 L113.503402,61.2113998 Z" id="path2041"></path>
                        <path d="M107.645025,76.8832553 C119.940269,81.4792029 126.189303,95.1869755 121.592977,107.482606 C116.996643,119.776305 103.290022,126.025726 90.9943991,121.429013 C78.699155,116.833838 72.4512715,103.126058 77.0464467,90.8304352 C81.6431669,78.5359636 95.3524844,72.2873076 107.645025,76.8832553 L107.645025,76.8832553 L107.645025,76.8832553 Z M106.443022,80.0966831 C116.966627,84.0294681 122.311948,95.760459 118.3807,106.281754 C114.445992,116.802663 102.71731,122.149135 92.196788,118.21635 C81.6743422,114.283573 76.3278621,102.553347 80.25911,92.0316653 C84.193432,81.5103782 95.9251954,76.1635198 106.443022,80.0966831 L106.443022,80.0966831 L106.443022,80.0966831 Z" id="path2043"></path>
                        <path d="M145.757771,12.7751938 C193.908,39.2727901 212.184005,99.4773265 186.548944,147.157987 C160.916956,194.840578 101.031882,212.034285 52.8820393,185.537075 C4.73258295,159.040243 -13.5438165,98.834942 12.0912528,51.1535092 C37.7247772,3.47130389 97.607542,-13.7220162 145.757771,12.7751938 L145.757771,12.7751938 L145.757771,12.7751938 Z M144.072728,15.9124136 C190.4748,41.4474068 208.085727,99.4646199 183.381313,145.415986 C158.679989,191.365814 100.969145,207.935999 54.569005,182.400619 C8.16578283,156.864089 -9.44514435,98.8468761 15.2588754,52.896283 C39.9601994,6.94568196 97.6702709,-9.62335195 144.072728,15.9124136 L144.072728,15.9124136 L144.072728,15.9124136 Z" id="path2045"></path>
                        <path d="M157.442192,145.353249 C157.498386,145.864768 157.322875,147.123737 157.561509,147.412789 C157.808602,147.804983 158.730792,147.721467 159.130308,147.582909 C160.221854,147.172617 161.308007,145.730442 161.812203,144.649294 C162.167074,144.100443 162.405701,143.457681 162.327956,142.73871 L161.564338,140.425534 C161.373432,139.614189 161.117101,138.188181 160.25187,137.851401 C160.332697,137.636634 160.60674,137.301013 160.574406,136.993485 C160.374262,136.079383 158.847027,136.319547 158.301258,136.990797 C158.026451,137.326419 158.104196,138.043458 158.044927,138.462602 C158.029533,139.293576 157.797054,140.971303 157.466052,141.726068 C157.13505,142.479297 156.207469,143.495012 156.195157,144.325599 C156.260581,144.939882 156.920284,145.295131 157.442192,145.353249 L157.442192,145.353249 L157.442192,145.353249 Z M106.615838,138.935631 L106.887185,139.532211 C106.899112,139.634975 107.021511,139.830492 107.125812,139.82164 C107.817841,140.485189 108.787373,138.947565 107.630016,138.741651 C107.525707,138.750503 107.310941,138.665443 107.218574,138.777445 C107.015733,138.796686 106.809819,138.814777 106.615838,138.935631 L106.615838,138.935631 L106.615838,138.935631 Z M107.38253,137.417249 C106.914128,137.872187 106.744008,138.198956 107.504929,138.544588 L107.38253,137.417249 L107.38253,137.417249 Z M95.0391786,128.376232 C94.2874954,129.063649 94.3444622,128.646042 93.9595754,128.887751 C93.673212,129.118685 93.9118469,129.408123 93.6493517,129.846508 C93.5685245,130.061275 93.2706212,130.191367 93.2944894,130.396896 C93.2255884,130.713276 93.5539025,130.890711 93.8729704,130.965374 C94.2936516,131.030807 95.5226045,130.921886 95.9071051,130.680555 C96.2862219,130.335696 96.13688,129.93465 96.3100822,129.607873 C96.4024572,129.496257 96.5845036,129.272638 96.6768787,129.160636 C96.7215251,128.638727 95.6207496,128.012132 95.0391786,128.376232 L95.0391786,128.376232 L95.0391786,128.376232 Z M124.677463,125.199371 L124.787542,126.223947 L124.668225,127.063772 C125.78363,126.859395 126.470275,126.487979 127.460207,126.088076 C127.755801,125.95837 128.346216,125.697419 128.575604,125.884085 C128.904305,126.063057 128.731102,126.387903 128.650275,126.602669 C128.489393,127.030666 127.85125,127.813918 127.576442,128.149539 C126.74431,129.051715 125.515751,129.162173 124.477326,130.083984 C123.919237,130.652076 123.770668,131.182836 123.209505,131.751314 C122.652188,132.317869 122.251899,132.458359 121.965544,132.69083 C121.691508,133.026451 121.920897,133.212738 121.33972,133.575302 L121.670722,132.822073 C121.354342,132.745865 120.942513,132.783197 120.703886,132.492609 C120.569939,132.195864 120.53684,131.886799 120.605355,131.570805 C120.746223,130.936894 120.874006,129.268019 121.241189,128.820395 C121.333556,128.708779 122.13028,128.429739 122.425101,128.300024 L122.28808,128.933935 C122.595221,128.906993 123.105582,128.860809 123.298798,128.739955 C123.800692,128.591007 124.304124,127.509472 124.566619,127.072624 L123.177171,127.611078 C123.41888,126.968315 124.104752,125.664699 124.677463,125.199371 L124.677463,125.199371 L124.677463,125.199371 Z M97.201869,128.285016 C96.9932586,129.236844 97.5748217,128.872743 97.9266098,129.256093 C98.1533106,129.442372 98.1864092,129.7499 98.2191216,130.058579 L97.4108578,130.234477 L97.0556092,130.783328 L96.5991335,131.342567 L97.9862646,131.736306 C97.2915482,132.004958 96.8708591,131.939139 96.4263176,132.601537 L98.1652368,132.444888 C99.3018147,132.446425 100.155111,132.680433 101.22587,132.065771 L100.99917,131.879484 L101.309385,130.91919 L100.536916,130.471567 L100.26519,129.874987 L98.9646486,128.334282 L98.5324195,128.165706 C98.8992238,127.718461 99.6389729,126.926364 98.5828439,126.711598 L98.0609356,126.655017 L98.5174112,126.095777 C97.8908154,126.049586 97.3689071,125.992627 96.9004973,126.449103 C96.3516466,127.118808 96.3366384,127.948244 97.201869,128.285016 L97.201869,128.285016 L97.201869,128.285016 Z M96.5964377,114.981371 L96.5725774,115.707657 L96.3339425,115.418606 L96.3635807,116.65794 C96.545635,117.367673 97.3419647,117.089018 97.524019,116.865013 C97.7179994,116.744545 97.77458,116.323864 97.7537939,116.119486 C97.7330077,115.915109 97.607542,115.718433 97.4943808,115.625671 C97.2765321,115.540611 97.1749266,115.54985 96.9693904,115.567554 L96.9035794,114.953278 L96.5964377,114.981371 L96.5964377,114.981371 Z M12.2271156,121.51561 C12.186702,123.072483 12.5966079,123.035152 12.9441631,124.350694 C13.1246724,125.059276 12.839854,125.291746 13.403713,126.690812 C13.6750602,127.288928 13.8421062,127.894359 14.4894881,128.146457 C14.303201,126.402919 14.0895852,125.387196 13.50494,123.782602 C13.0873409,122.784583 12.7682651,122.710306 12.4311069,121.495983 L12.2271156,121.51561 L12.2271156,121.51561 Z M153.66567,104.475857 C153.176868,104.726426 153.003666,105.052809 153.05986,105.56432 C153.012132,106.087774 153.465533,106.460726 153.966655,106.311778 C154.661758,106.043127 154.781075,104.271488 153.66567,104.475857 L153.66567,104.475857 L153.66567,104.475857 Z M56.8867994,104.251852 C56.6346933,104.793396 56.5869727,105.315304 57.1431304,105.679405 C57.0880948,105.167886 57.2370426,104.635202 56.8867994,104.251852 L56.8867994,104.251852 L56.8867994,104.251852 Z M87.124351,104.750286 L87.4657421,105.030486 C88.2174332,104.341531 88.3787013,103.911998 88.927552,103.242293 C89.3836414,102.683053 89.6911694,102.656111 89.9759799,102.42364 C90.1576479,102.199635 90.1353247,101.994107 90.2038394,101.677727 C90.3651075,101.248194 90.6618521,101.118487 90.5856441,100.401053 C90.6218248,99.7763807 90.2146147,98.8811335 89.5091151,99.0477853 L89.3509291,98.5443536 C89.0437874,98.5716822 88.5426652,98.7202516 88.2578468,98.9523361 C87.9730284,99.1855793 88.118902,99.5866331 87.7432456,99.9311063 C87.2867699,100.489195 86.4904402,100.76785 86.2964597,100.888704 C85.9997072,101.019956 86.13557,101.318237 85.655234,101.671949 C84.9839917,102.146137 84.5409794,101.874789 84.1426214,102.014885 C83.6414992,102.162682 82.8990543,102.9544 82.5230196,103.298874 C81.9741689,103.968579 81.8148241,104.398112 81.5850413,105.144025 C81.5046004,105.357255 81.3329431,105.683638 81.4568797,105.8807 C81.58043,106.076226 81.8879501,106.047738 82.0830893,105.926884 C82.4814472,105.788325 83.3582258,105.296055 83.6776799,105.370726 C83.9832845,105.342239 84.1083719,105.538923 84.3246756,105.622824 C84.6425927,105.697109 84.8469702,105.679405 85.0628877,105.762928 C85.2776543,105.847988 85.5162891,106.137039 85.7429899,106.323705 C86.2876077,106.584663 86.8364505,105.914958 86.9973402,105.486961 C87.0777812,105.272195 87.1570634,105.057428 87.124351,104.750286 L87.124351,104.750286 L87.124351,104.750286 Z M87.7193853,96.8262126 L87.7313194,96.9289847 L87.6162348,96.8358372 L87.7193853,96.8262126 L87.7193853,96.8262126 Z M88.6261803,97.5732846 C88.8975276,98.1706284 89.8966977,98.8053117 90.4636387,99.272949 C90.657233,99.1520945 90.7484493,99.040092 90.8288981,98.82609 C91.0809963,98.2853267 90.9705309,97.2592142 90.4247622,96.9974915 C90.0968344,96.8200564 89.6969393,96.9597737 89.4017318,97.0894803 C89.3897977,96.9871024 89.255472,96.6888128 89.1423187,96.5949006 C88.3367428,95.8389766 87.3287285,98.0005083 88.6261803,97.5732846 L88.6261803,97.5732846 L88.6261803,97.5732846 Z M84.3443031,96.1976935 C85.0347944,96.86047 85.0467285,96.9624696 85.9685319,96.8797191 C85.82805,97.5136219 85.007852,98.5197208 84.3366097,98.0624726 C83.8951424,97.7911333 83.8504959,97.3808412 83.6357292,97.2965457 C83.3062643,97.1191185 83.280859,97.8461689 83.0988126,98.0694014 C82.6631153,98.8334049 81.9356786,98.7956872 81.8640897,100.044646 L82.2516723,99.8013998 C82.6454112,100.595034 83.3763161,99.7017098 83.8670412,99.4503841 C83.7758249,99.5623866 83.5926198,99.7867698 83.5133298,99.9999994 C83.4417409,100.31753 83.7835261,100.598116 84.0802708,100.466872 C84.3754784,100.336779 84.7303486,99.7867698 85.0140083,99.5539129 C85.3003638,99.3222146 85.4015909,99.3129763 85.6983434,99.1817327 C85.9831539,98.9500265 86.3591966,98.6055534 86.6455521,98.3726964 C87.5015366,97.67489 87.544646,98.0847959 87.8444727,97.0221243 C87.8206123,96.8173606 87.9129874,96.7053581 87.8906641,96.500216 C87.4834541,95.6045826 86.0162604,96.3578108 85.9011759,96.2654357 L85.264191,96.1145568 C85.0494165,96.0302692 84.6499076,96.1699786 84.3443031,96.1976935 L84.3443031,96.1976935 L84.3443031,96.1976935 Z M89.0749627,95.9806173 L88.5634435,96.0260363 L88.6993142,96.3243259 C89.3032005,96.1669045 89.7119476,96.1295729 89.7373529,95.4025146 C89.2254554,95.4487061 89.1226833,95.4575581 89.0749627,95.9806173 L89.0749627,95.9806173 L89.0749627,95.9806173 Z M56.8286817,97.9408535 L56.3541157,100.262495 L56.5661865,101.27821 L56.9926377,103.310808 C57.2551329,102.873959 57.7262385,101.485283 57.773967,100.963375 L57.8905808,100.12355 C57.9263752,99.4996497 58.006824,99.2856477 57.7354768,98.6883039 L57.0730865,99.2652478 L57.0326729,97.9231494 L56.8286817,97.9408535 L56.8286817,97.9408535 Z M90.1353247,95.2631835 C90.0698999,94.6477494 90.1830532,94.7416615 90.7049615,94.7978558 L90.6976466,93.7628913 C90.4009019,93.8929841 89.9921469,93.9303235 89.7057914,94.162408 C89.2493157,94.7208832 89.3062826,95.2347041 90.1353247,95.2631835 L90.1353247,95.2631835 L90.1353247,95.2631835 Z M87.0927894,93.8798991 L87.4434189,94.2624763 C88.1489185,94.0954382 88.3756193,94.2817254 89.0122259,94.4322102 L88.7632019,94.0400164 L89.025697,93.6023957 C89.6403587,93.5481246 89.6880873,93.0250655 89.4286742,92.530872 C89.3151346,92.4373383 89.098823,92.3534369 88.9856697,92.2595248 C87.8833492,91.6344661 87.7790479,92.5755185 87.5165527,93.0131314 L87.0927894,93.8798991 L87.0927894,93.8798991 Z M89.7431229,93.5381217 C89.9475004,93.5196452 90.153415,93.5015548 90.3470171,93.3810865 C90.7230519,93.0362271 90.5113594,92.0193529 90.1799712,91.842304 C89.8624403,91.7672547 89.6911694,92.0928651 89.7134926,92.2980151 L89.6434408,92.6159321 L89.6984764,93.1282159 L89.7431229,93.5381217 L89.7431229,93.5381217 Z M56.8344517,96.076839 C57.199711,95.6299879 57.3267218,94.8933129 57.3744503,94.3710184 C56.6912739,94.743971 56.7570928,95.3586406 56.8344517,96.076839 L56.8344517,96.076839 L56.8344517,96.076839 Z M60.461632,89.4344442 C60.5601633,90.3577925 60.4439279,91.1964591 60.121778,92.0536102 C59.7099488,93.0231421 58.7165566,94.3548514 58.5079462,95.3047559 L58.2708563,95.0153183 C57.8247697,95.6769439 57.773967,97.1318172 58.0576267,97.8307744 C58.6153295,97.2630609 58.7434989,96.5263859 59.0864272,95.8743848 C59.7622965,94.4680047 60.6644724,93.2482979 61.0104827,91.6633318 C61.0701454,91.2438014 61.1536605,90.0968344 60.9030994,89.7054052 C60.7791707,89.5091151 60.6763987,89.5187396 60.461632,89.4344442 L60.461632,89.4344442 L60.461632,89.4344442 Z M153.683374,92.1505965 C154.220677,91.3769763 154.363854,89.8120239 154.569391,88.860196 C155.055883,86.64247 156.081995,85.6186671 155.783327,82.8490162 C155.717895,82.2339682 155.482342,81.0123303 154.745667,80.8706896 C153.597163,80.7671608 154.068261,82.2778422 153.999754,82.5946084 C154.032852,82.902901 153.952025,83.1168951 153.871198,83.3316696 C153.367766,84.4120453 153.603319,85.6336832 153.621023,86.7710257 L153.403175,90.5186744 L153.683374,92.1505965 L153.683374,92.1505965 Z M137.104723,74.4800146 C137.125502,74.6847783 137.238663,74.7786904 137.364136,74.9742159 C137.47729,75.068128 137.591215,75.1612676 137.704377,75.2547935 C138.363306,75.6096637 138.706621,74.9580489 138.455674,74.5654609 C138.334055,74.3695571 137.912987,74.3037382 137.707459,74.322601 C137.504232,74.3410697 137.298704,74.3591601 137.104723,74.4800146 L137.104723,74.4800146 L137.104723,74.4800146 Z M152.418634,72.6914435 C152.517166,73.6147918 152.88743,75.135484 153.283865,75.927967 L154.187578,77.6072315 L155.255255,80.8252785 C155.804106,80.1548008 155.512366,79.3523149 155.333008,78.6437332 C154.871141,77.2354297 154.205282,75.8452165 153.651048,74.5492939 C153.266161,73.8588104 152.985962,73.1583161 152.418634,72.6914435 L152.418634,72.6914435 L152.418634,72.6914435 Z M146.760015,71.0248777 L146.676878,72.1710722 L145.277427,71.6749555 C145.254331,72.4031646 145.579177,73.5127922 146.158052,74.0816566 L147.281923,74.9130161 C148.188718,75.6604665 149.107834,76.5103026 149.922254,77.3685967 C150.638143,78.2369094 150.670477,78.5448156 150.918342,78.9362449 C151.145429,79.1225321 151.371744,79.3099701 151.667337,79.1794989 C151.861318,79.0586444 151.909046,78.5367361 151.989101,78.3219694 L152.332423,77.6699683 C152.481757,77.139208 152.087632,76.3463387 151.828219,75.8513728 L151.150813,74.3591601 C150.867539,73.6594383 150.697419,73.0532345 150.223239,72.4747535 C149.41805,71.7184511 148.803766,71.7734867 147.953166,71.5387064 L146.760015,71.0248777 L146.760015,71.0248777 Z M118.279087,72.4408824 C118.219046,72.8607911 118.183638,73.4858498 117.682515,73.634033 C117.580902,73.6432713 117.160607,73.5774524 117.046681,73.4835403 L116.656403,74.6582222 C116.483201,74.9838325 116.161051,75.841362 116.196845,76.1496624 C116.149125,76.6707982 116.865013,76.6065243 117.229114,76.1600515 C117.607845,75.8155783 117.655573,75.2932838 117.918068,74.8556709 C118.341445,73.9892816 119.125841,73.6074768 119.221298,72.5640465 L118.279087,72.4408824 L118.279087,72.4408824 Z M150.008465,68.5581356 C150.313297,69.4633936 150.527299,69.5476811 151.026112,70.3313121 C151.285525,70.8258918 151.217018,71.142658 151.818981,70.9852366 C151.458727,70.4998952 150.453401,68.8294828 150.008465,68.5581356 L150.008465,68.5581356 L150.008465,68.5581356 Z M107.081166,74.0666483 C105.932662,73.9631117 106.690501,75.2413223 106.541167,75.7720827 C106.290606,76.3128538 105.139406,77.1411313 104.581703,76.7766444 C104.28611,76.9071156 103.978968,76.9348305 103.6599,76.8593949 C103.34352,76.7839515 103.116819,76.5976722 102.809678,76.6253792 L101.178142,77.8073682 C100.891786,78.0398468 100.506899,78.2815559 100.095456,78.3181149 C99.7910028,78.3458298 99.3795598,78.3820105 99.1975056,78.60678 C98.9111501,78.8384861 99.1824973,79.43583 99.319905,79.7341196 L99.8060189,80.4157589 C98.8037667,80.7125036 98.8811335,81.4299373 98.9796648,82.3540503 C99.0362375,82.866334 99.2333,84.7126445 99.3795598,85.1136983 C99.5373675,85.6179025 100.20861,86.0751427 100.739756,86.2337229 C101.070758,86.4123089 101.592667,86.468117 101.899808,86.4411746 L101.971397,85.1914434 L102.278917,85.164501 L102.594911,86.1721369 C102.696524,86.162134 102.902053,86.144422 103.003666,86.1348054 L104.277258,86.4354046 C104.390797,86.5285442 104.390797,86.5285442 104.503958,86.6216839 C104.638284,86.9199735 104.387723,87.4607446 104.420435,87.7686509 C104.599407,88.4768464 105.339164,88.6181008 105.953826,88.5626789 C105.938818,89.3921072 106.019259,89.1781131 105.97153,89.7000214 C106.028111,90.2130777 105.720969,90.2407847 106.353343,91.3227053 C106.478817,91.5182307 106.73823,92.0131966 107.045371,91.9854818 C107.352513,91.9581531 107.991043,91.1756809 108.674219,90.803879 C108.832019,91.3069245 108.843953,91.4100749 109.285421,91.6814222 L109.136465,92.2121825 L110.299599,91.4866692 C109.953581,93.0708628 109.294659,92.7156142 108.575688,93.7120885 C108.322045,94.253238 108.480231,94.7566776 108.330897,95.2878164 L108.444437,95.3809639 L108.832019,95.1392548 L109.127613,95.0095483 C110.037104,94.8236474 109.330453,95.9228859 109.351232,96.128028 C109.383952,96.4363284 109.601793,96.5194572 109.816559,96.6045173 L109.336223,96.9574642 L109.619497,97.6575722 L107.776276,97.8230732 C106.866399,98.0082095 106.111634,98.6971559 105.348017,99.2833381 L105.371877,99.4884881 L105.688257,99.5635374 L103.922395,100.447237 C104.45623,100.605431 105.15134,100.336779 105.664396,100.290588 C106.165519,100.14164 106.073144,100.254793 106.678575,100.095456 L107.006495,100.274429 L106.94684,100.693565 L109.19612,101.422933 C109.729962,101.582278 110.117931,101.340561 110.448933,101.518382 C110.8904,101.789729 110.741066,102.32049 111.480816,102.460585 C112.331038,102.694987 113.005354,102.2208 113.709317,102.053762 L112.876807,102.957475 L113.261693,103.647966 L114.263938,103.351221 C113.521106,104.141781 113.556901,103.518259 112.125123,103.646429 C112.45343,103.823864 113.428731,104.253397 113.64658,104.338457 C114.180423,104.49818 114.463696,104.263786 115.215387,104.508577 C115.850835,104.657525 116.623304,105.106694 116.829219,104.154866 C116.954306,104.351928 117.07978,104.547446 117.192933,104.641366 C117.521634,104.818793 117.727162,104.800703 118.046616,104.875374 C118.466919,104.941193 119.463007,105.576254 119.418361,106.098549 C119.325985,106.210165 119.23361,106.322168 119.144317,106.43417 C119.006531,106.134343 118.872584,105.837591 118.633957,105.548161 C118.046616,104.875374 117.145213,105.163266 116.405842,105.021634 L114.917097,104.638284 L113.768972,104.533975 C113.145458,104.486254 112.793284,104.104442 112.179,104.159485 C111.973086,104.177575 111.677878,104.307282 111.701746,104.51281 C111.722525,104.717188 111.949225,104.905398 112.062765,104.997765 C112.721695,105.352636 112.483068,105.063198 113.482616,105.698646 C114.037245,106.062754 114.231225,105.9419 114.765068,106.101245 L115.310836,106.363732 C115.731518,106.429551 115.811958,106.214784 116.23264,106.280217 C116.43548,106.262513 116.856161,106.327938 117.073624,106.412998 L115.296206,107.193168 L113.932936,107.005344 C114.204283,107.601915 114.317822,107.695835 113.861347,108.25353 L113.610786,107.862873 C113.336364,108.196958 113.360225,108.402872 113.085803,108.738107 L112.62932,109.296196 C112.548879,109.510963 112.274457,109.846584 112.068543,109.864288 C111.761401,109.892767 111.412309,109.509426 111.182526,109.323138 C110.741066,109.051405 110.53553,109.069495 110.034408,109.218451 C110.410057,109.80617 110.604045,109.685316 111.146731,109.946274 C111.591281,110.217613 112.724777,111.151351 113.076943,111.5347 C112.972256,111.543552 112.871029,111.552791 112.790588,111.767557 C112.608541,111.991176 112.808292,112.905286 113.046927,113.193187 C113.273627,113.381011 113.491468,113.464526 113.795536,113.43797 L112.575821,114.5834 C113.109664,114.741199 113.303644,114.620731 113.757045,114.994843 L112.733629,115.085681 L111.38267,114.068806 L109.974753,113.469145 C110.499736,113.525726 111.328786,113.55575 111.817982,113.303644 C112.695139,112.811374 112.277531,111.813749 111.597437,111.252964 C111.15597,110.98123 110.84845,111.009718 110.326541,110.953137 C109.90586,110.887318 109.258857,110.634061 108.847027,110.671015 L107.731622,110.875392 L107.803219,110.557853 C107.483757,110.48319 107.370603,110.389278 107.084248,110.622135 C106.744008,110.34155 106.735148,110.240323 106.314466,110.174512 L106.368351,110.686023 L105.903023,110.210306 L105.858377,110.732214 C105.607816,110.340013 105.595882,110.238786 105.166349,110.070202 L105.512367,111.384208 L105.342239,111.710598 C104.77261,112.175926 104.77838,113.211277 104.846894,113.827097 C104.978138,115.057579 104.703717,115.393201 104.599407,116.334253 C104.572465,117.060539 104.8111,117.349968 104.614416,118.404182 C104.557843,118.823318 104.166792,119.997228 103.993984,120.323997 L103.537501,120.8817 L103.194572,121.533314 C103.02137,121.860084 102.738089,122.092562 102.565281,122.419331 C102.404013,122.847327 102.630705,123.035152 102.756179,123.230669 C102.925921,123.836101 102.493692,123.667518 103.206499,124.536981 L102.842398,124.983068 L103.251145,124.945728 C103.02137,125.691641 103.486698,126.168903 104.19066,126.001865 C104.691783,125.852531 105.240633,125.182826 105.389967,124.650521 L105.595882,124.63243 L106.973782,126.89057 C107.212409,127.180008 107.26899,127.693064 107.689671,127.758489 C108.110352,127.824307 108.268546,127.396311 108.441362,127.069542 C108.623409,126.845923 108.817397,126.725069 108.999057,126.50145 C109.2527,125.961452 108.75466,125.177048 108.802381,124.654754 C108.858962,124.235996 109.145317,124.003139 109.193046,123.48123 C109.115679,122.763805 108.581458,122.604074 108.22967,122.220724 C107.877495,121.838919 107.835931,121.429013 107.77935,120.915957 C107.656959,119.786694 108.238522,119.424517 108.345905,118.483464 C108.3817,117.858406 108.029912,117.476601 107.984879,117.065158 C107.952166,116.75763 108.020673,116.441636 108.328201,116.413157 C109.03486,116.246111 109.121457,117.067846 109.178037,117.579751 L109.08258,118.623568 C109.026,119.044249 108.853192,119.369481 108.909764,119.882151 C109.056024,120.283583 109.294651,120.573021 109.428598,120.87131 C109.667225,121.160362 109.700324,121.469427 109.927025,121.655714 C110.141791,121.739229 110.254953,121.831604 110.460867,121.8139 C110.675634,121.89896 110.8904,121.982097 111.096315,121.964393 C111.597437,121.815059 112.113189,120.836667 112.590451,120.484887 C112.876807,120.250871 113.297488,120.317841 113.604629,120.289361 C113.431813,120.61613 112.975338,121.17537 112.793284,121.397838 C112.405701,121.639161 111.698664,121.806199 111.66287,122.431258 C111.445021,123.279935 112.569665,123.17833 112.545805,123.904607 C112.498076,124.426902 111.70482,123.773364 111.463111,124.416127 C111.120175,125.068128 111.573577,125.442625 111.731377,125.946443 C111.764483,126.253963 111.594363,126.578809 111.522766,126.896726 C111.090159,127.660343 110.726436,127.175388 110.144487,127.537952 C109.655291,127.79005 109.118375,128.562519 108.617252,128.711861 C108.220818,128.85042 107.877495,128.569834 107.570354,128.596777 C107.161607,128.634108 106.818671,129.287268 106.138576,128.726483 C105.446548,128.062934 106.234025,127.682667 106.063905,127.075698 L105.646306,126.077687 C105.064735,126.440251 104.495106,126.907123 104.686005,127.718461 C104.969286,128.416268 105.64938,128.977044 105.294518,129.525895 C105.008162,129.758752 104.393493,129.813796 103.916231,130.167507 C103.334668,130.531221 102.729237,131.620071 102.535256,131.742462 C102.248901,131.974941 101.941759,132.001883 101.658478,132.234354 L100.629291,133.258922 C100.539612,133.370924 100.539612,133.370924 100.447237,133.482927 L99.1647932,133.07995 L99.2421521,133.797383 C98.7291037,133.843567 98.7291037,133.843567 98.3084146,133.778134 C97.9924287,133.701926 97.365825,133.655743 97.2049432,134.083739 C97.0317489,134.410508 97.8850454,134.644516 98.1028862,134.728039 C99.406116,135.336544 99.6628412,136.76256 99.1051384,137.332189 C98.7291037,137.675125 98.0817217,137.423027 97.6614189,137.357594 C96.7157551,137.235202 95.2273891,136.850308 94.2967337,136.831066 C93.0674024,136.939987 93.4615275,137.733242 93.2228926,138.376391 C93.1628516,138.796686 92.775269,139.038395 92.7067622,139.354775 C92.6140009,139.466392 92.6263213,139.569542 92.6378691,139.672306 C92.6263213,139.569542 92.9750274,140.884706 92.9630932,140.781942 C93.1093531,141.182996 93.8283239,141.1191 94.2490051,141.184533 C94.7797655,141.342719 94.9171733,141.642545 95.3582544,141.913893 C95.7908697,142.080939 95.9848502,141.960084 96.3843669,141.821518 C97.3034745,141.738002 98.180253,142.177925 99.5466058,141.433557 C99.8418134,141.30385 100.128169,141.071371 100.20861,140.856605 C100.483031,140.522529 100.346018,140.222694 100.721666,139.878221 C101.190076,139.421745 102.099945,139.236617 102.579903,138.883291 C102.955937,138.53881 102.68459,137.942239 103.379314,137.672429 C103.880437,137.524632 104.435444,137.88874 105.130554,137.618544 C105.732903,137.460358 106.383367,136.781801 106.988791,136.623993 C107.603074,136.568571 107.984879,137.259063 108.838175,137.493457 L112.223655,138.223975 C112.327956,138.215123 112.542722,138.300183 112.656262,138.394096 C113.563057,139.140009 112.256367,139.464855 111.755245,139.614189 C111.355728,139.752747 111.254115,139.761599 110.842672,139.798939 C110.958907,139.891692 110.967759,139.994456 111.081307,140.088368 C111.513914,140.256951 112.557731,140.370491 112.936461,140.025631 C113.118516,139.802013 113.097729,139.596098 113.065017,139.288957 C113.461452,139.150398 113.655432,139.029543 113.8167,138.60001 C113.783602,138.292868 113.64658,137.994579 113.932936,137.761722 C114.11499,137.538103 114.523359,137.500772 114.833574,137.472292 C114.356313,136.89534 113.96873,137.136671 113.342134,137.088942 C113.026141,137.014658 112.900667,136.817595 112.581599,136.743311 C112.274457,136.771412 111.991176,137.004269 111.558569,136.835686 C111.239493,136.759478 110.899252,136.479278 110.583259,136.404607 C110.25187,136.22718 109.410894,136.095929 109.458615,135.573634 C109.539056,135.358867 109.631431,135.247251 109.834271,135.229161 C109.927025,135.117545 110.028252,135.108306 110.132553,135.097917 L110.278813,135.500894 C111.370736,135.092147 111.015488,135.64099 111.961159,135.763389 C112.811374,135.997397 113.813626,135.700653 114.678463,136.037811 C115.212691,136.195619 115.039489,136.522388 115.504817,136.998105 C116.071758,137.466514 116.880022,137.289079 117.595532,137.224805 C117.506239,137.336808 117.402316,137.347197 117.413864,137.448424 C117.240662,137.775193 117.467749,137.96148 117.68559,138.045003 C118.454599,138.494164 119.597719,137.563508 118.619327,137.133975 L120.191216,136.371895 C119.430673,136.025885 119.054252,136.370358 118.055082,135.734902 C118.568524,135.688719 118.669365,135.679867 119.045786,135.335007 L119.105063,134.914712 L120.769311,134.040629 C120.242019,134.916249 120.835516,134.65645 121.034888,135.570946 C121.548331,135.524755 122.183392,135.67371 122.696835,135.629064 C123.096344,135.48896 124.187889,135.080213 124.474244,134.847356 C124.757518,134.614885 124.829107,134.298505 125.112388,134.066035 L126.297073,133.545277 C126.777409,133.191952 127.141517,132.744715 127.507927,132.297091 C127.689595,132.073472 127.872036,131.849846 128.19149,131.925675 C128.621023,132.094251 128.731102,133.120363 128.775749,133.530655 C128.912771,133.828945 129.05903,134.228454 129.092129,134.537132 C129.029006,135.888477 127.609541,136.119797 126.753548,136.817595 C126.183912,137.282923 125.748222,138.04654 125.154725,138.307498 C124.391108,138.893681 122.204178,139.711183 121.201926,140.007927 L119.075038,140.405907 C118.586228,140.658005 118.0166,141.123333 117.85571,141.551329 C117.694063,141.980862 117.953476,142.474677 117.464667,142.725238 C116.975092,142.977337 114.938262,143.262155 114.415975,143.207119 C113.574991,143.074331 113.858273,142.841474 112.62932,142.951939 C111.504684,143.053545 110.287665,143.266774 109.127613,143.059323 C109.309281,142.835704 109.676464,142.388072 109.74497,142.072087 C109.825411,141.857312 109.712258,141.7634 109.688398,141.55903 C109.679159,141.457417 109.655291,141.251889 109.542138,141.157976 C109.303511,140.868539 108.486009,140.941665 108.178867,140.969766 C107.471823,141.136804 107.597296,141.33233 106.47266,141.433557 L102.693442,141.876561 C100.85291,142.040903 99.3822556,142.79529 98.6663668,142.859564 C98.1533106,142.905748 97.0048065,142.801446 96.4709641,142.641715 C96.038735,142.473132 95.5853335,142.099029 95.0957592,142.351127 C94.5946371,142.500075 94.4337552,142.928071 93.8433322,143.187484 C93.2494566,143.448828 92.1251991,143.550056 91.4508748,144.024235 C90.7796325,144.498801 91.1302619,144.881765 90.3443213,145.262419 C89.9459633,145.402514 88.6050158,145.418681 88.0923458,145.464865 C86.9557679,145.463714 86.3857527,145.929042 85.3942759,146.328558 L84.3008153,146.737306 C83.9028357,146.875864 83.0941935,147.052148 82.9229146,147.378531 C82.7512574,147.703763 83.0002735,148.095965 83.03338,148.404644 C83.0660924,148.711786 82.9971993,149.028158 82.9271475,149.345688 C82.391768,150.118544 81.0123303,150.75977 81.2374939,151.879794 C81.4164661,152.588368 81.8371473,152.653801 82.6304029,153.306961 C83.6730608,154.352701 84.4528451,155.83644 85.5759439,156.667413 C87.0273568,157.676972 89.1273025,158.938638 90.9228102,159.295045 L94.0400164,159.429371 C95.7104288,159.589094 96.9932586,159.99323 98.747194,159.938186 L102.601075,159.281952 C103.421265,159.208826 104.638284,158.995597 105.491194,159.229612 C106.344491,159.46362 106.511529,160.070588 108.047616,159.93203 L110.186438,159.636822 C110.68756,159.489025 111.087077,159.348922 111.630157,159.611417 C112.948395,160.321536 110.714502,161.66056 111.734459,162.501922 C112.3014,162.968795 114.17734,163.110436 114.929024,163.353296 C115.451318,163.410262 117.097484,164.29743 117.450045,164.680772 C117.676359,164.867059 117.697137,165.072974 117.935772,165.362411 C118.171317,165.651849 118.708628,165.810035 118.740954,166.118714 C118.774053,166.425855 118.112049,167.003185 117.929608,167.226812 C117.369218,167.794904 116.28345,169.238616 116.89503,170.115772 C117.133665,170.404824 117.781047,170.65693 118.112049,170.834365 L121.098011,171.705366 C122.392003,172.211107 122.502846,173.237219 123.28725,173.787607 C123.842257,174.152867 124.763682,174.069344 125.491883,174.10822 L128.570221,174.867218 C129.64098,175.186672 129.193734,175.847139 130.034332,175.978383 C131.809432,176.130799 134.533672,174.53929 135.980079,173.581693 L138.918313,172.075236 C140.09376,171.452109 141.152199,170.734675 142.21141,170.018786 C144.218988,168.493089 145.862458,166.480899 146.858546,164.216989 C147.201869,163.565374 148.174096,162.027356 148.234137,161.608598 C148.371159,160.974688 147.711457,160.619439 147.965486,160.079827 C148.296488,159.323524 149.632816,158.272007 149.952271,157.416022 C150.217848,156.977629 150.140103,156.260203 149.695167,155.988856 C149.265634,155.820273 148.979278,156.052743 148.126368,155.818736 C148.770668,154.104828 149.936876,152.446349 150.906794,150.908725 C151.354032,150.248251 152.153065,149.03701 152.168459,148.207968 C152.171534,147.275767 151.338637,147.245743 150.989931,146.863938 C150.649691,146.583739 150.727436,146.368972 150.512669,146.283912 C150.083136,146.116866 149.397264,146.488289 148.976969,146.422471 C148.669054,146.449413 148.442748,146.263126 148.227973,146.179603 C147.896971,146.002176 147.499772,146.140734 147.19263,146.167677 C146.730763,144.759752 147.693753,142.188322 148.165623,140.800032 C149.083966,137.818302 150.313297,134.807329 149.868369,131.637775 L149.397264,129.194893 C149.263324,128.895066 149.015459,128.504402 148.615942,128.642968 C148.013207,128.801154 147.482068,130.608974 147.231885,131.148587 L145.847828,133.655743 C145.492966,134.204593 145.262805,134.950507 144.794781,135.406596 C144.41836,135.751455 143.824863,136.010869 143.336054,136.26143 C143.177481,135.75877 142.882652,135.888477 142.483143,136.028573 L140.627216,137.02351 C140.24002,137.265219 139.476402,137.851401 138.96296,137.897593 C138.554205,137.934924 138.315578,137.645486 137.713615,137.802135 C137.30486,137.839475 136.609757,138.109277 136.290295,138.033069 C135.87,137.967636 135.416599,137.594684 134.995531,137.529251 C134.679924,137.453043 134.074114,137.611237 133.77852,137.740944 C132.754718,137.833311 131.152812,137.354512 130.094373,137.139745 C130.288362,137.018891 130.49389,137.001187 130.473104,136.795272 C130.622438,136.264512 129.804936,135.405445 130.807188,135.108306 C130.908793,135.099454 131.11433,135.080213 131.215935,135.071361 L132.96641,135.017476 L133.981739,134.823496 C134.503648,134.880455 134.640669,135.178744 135.356558,135.11447 L137.871415,134.474782 C138.897527,134.382028 139.311666,135.381577 140.373959,134.664151 C141.239182,134.069109 142.05361,132.027281 142.363826,131.068146 L143.258308,128.813088 L143.604705,127.229273 C143.994983,126.053827 144.349846,125.504976 144.206668,124.171722 L143.998058,122.222269 C143.908765,121.402071 143.741726,120.795102 142.897282,121.596051 C142.244508,122.276154 142.014347,123.021681 140.970531,122.908519 C140.693413,124.176341 140.868925,125.816737 139.604178,126.552253 C139.123842,126.905578 138.590386,126.745855 138.092346,126.895189 C137.79367,127.024896 137.405701,127.268142 137.190934,127.183082 C136.883792,127.209646 136.657478,127.023359 136.624379,126.716217 C136.681346,126.297073 137.376449,126.02727 137.674352,125.897178 C138.665057,125.497661 139.166179,125.348327 139.896697,124.455003 C140.340861,123.792991 140.388581,123.270705 140.743451,122.721854 C141.107552,122.274609 141.427006,122.34928 141.791115,121.903193 C142.065158,121.567572 142.569354,120.486424 142.831849,120.049189 L144.084276,116.31193 C144.690086,115.221543 145.704651,115.027563 145.970228,113.656977 L146.128028,114.161173 C147.211107,113.649662 147.201869,112.614698 146.990176,111.598982 C147.60446,111.543552 148.854577,111.637851 149.355699,111.490054 L151.678877,110.039027 C152.260835,109.674927 153.218432,108.96789 153.355454,108.333979 C153.516336,107.905983 152.85125,106.516148 152.612615,106.226718 C152.490223,106.031193 152.37707,105.937281 152.159221,105.853758 C151.624993,105.694413 150.921424,105.861459 150.536537,105.170581 C150.059276,104.5921 149.531203,102.568355 149.13785,101.774721 C148.290332,99.6763124 148.234137,100.095456 147.83693,99.3025872 C147.577517,98.8083859 147.625246,98.2860992 147.568279,97.773043 C147.422792,97.3727538 147.184165,97.0833241 147.163378,96.8774095 C147.117959,96.4675036 147.404315,96.2346467 147.679131,95.8997901 C148.111738,95.1354082 148.045541,94.5203524 148.514337,94.0638767 C148.889985,93.7194035 149.220987,93.8976032 149.391107,93.5712204 C150.020785,92.6867485 148.499707,91.9947201 149.012377,91.0163361 C149.274872,90.578337 150.017703,89.787391 150.530373,89.7408212 C150.92758,89.6022547 151.258582,89.7789252 151.655017,89.6403587 C152.042986,89.3978851 152.069928,88.6708268 152.23081,88.242066 C152.630327,87.1705346 153.256923,87.2182631 153.409339,85.7553024 C153.457059,85.2330157 153.480928,84.5051928 153.233054,84.1137557 C152.755793,83.5345021 152.08455,84.0094544 151.923668,84.4382231 C151.568806,84.9870659 151.646551,85.7060367 151.711984,86.3210925 C151.675803,86.9453788 151.559568,87.7840454 151.204698,88.3336686 C150.772082,89.0980584 149.886073,88.5561364 149.635898,88.1646993 C149.513499,87.9684092 149.594326,87.7544151 149.570466,87.5485005 C149.585088,86.718678 149.346461,86.430013 149.555071,85.4793439 C149.61203,85.0594272 150.002309,83.8855178 149.880682,83.689614 C149.844509,83.3816999 148.904607,82.3278804 148.669054,82.0376782 C148.204113,81.5619534 147.365825,80.4977369 146.590667,80.9819275 C145.907105,81.353343 146.050283,82.6873618 145.922499,83.4232722 C145.85322,83.7400305 145.713116,84.3739413 145.405983,84.4016561 C145.215076,84.5225107 144.872526,84.2419251 144.648522,84.055638 C144.069646,83.486009 143.717858,83.1034318 143.619327,82.1800834 C143.935707,82.2547544 144.788617,82.4895347 144.847894,82.0696181 C144.803247,81.6597122 144.31752,80.9780808 143.90569,81.0154123 C143.485387,80.9495934 143.428429,81.3687376 142.87034,81.0050232 C142.416938,80.631298 141.411612,78.9608777 140.93435,78.3820105 C140.335469,77.6072315 139.440222,76.9629316 138.563443,76.5237738 C138.032297,76.3652015 136.304925,75.6908772 135.825354,76.0449749 C135.631373,76.1658294 135.6637,76.4729632 135.583645,76.6869652 C135.470484,76.5945902 135.356558,76.5006781 135.154112,76.5187684 C134.414355,76.3782865 134.196506,77.2261914 134.148785,77.7484859 C134.169563,77.9532418 134.21421,78.3643064 133.918616,78.4940129 C133.620713,78.6237195 133.393634,78.4374323 133.166547,78.2503806 C132.61154,77.8862721 132.599992,77.7835079 131.851004,77.5402618 C131.997256,77.9413156 132.143516,78.3427556 132.391381,78.7341849 C132.993352,79.5089638 133.402099,79.4716244 133.30665,80.5165997 C132.444502,80.1794336 131.469192,79.7499004 130.878777,79.077121 L131.675493,78.7984588 L131.653942,78.5940813 C131.326014,78.4158816 130.20137,77.5849083 130.156724,77.1750024 C130.123625,76.8670883 130.53238,76.8297567 130.500046,76.5222288 C130.571635,76.2054705 130.240633,76.0280354 130.401515,75.5992746 C130.675558,75.2636535 131.269055,75.0034678 131.224409,74.5931758 C131.20054,74.3880337 130.974226,74.2017465 130.759459,74.117451 C130.317606,73.8461117 129.53321,73.295716 129.065187,73.7514271 C128.68953,74.0959003 128.972812,74.7952437 128.764201,75.7459128 C128.444747,75.6716281 127.898978,75.4091408 127.582598,75.3344698 C127.162296,75.268651 126.672721,75.519212 126.126953,75.2582618 C125.375648,75.0146295 125.106996,74.4172777 124.459614,74.1644071 C123.266464,73.6505862 122.264219,73.9481034 121.148814,74.1517084 C120.638454,74.1971274 119.817869,74.2710258 119.32906,74.5215869 C118.941099,74.7640684 118.767897,75.0896788 118.597776,75.4156833 C118.142073,75.9749231 117.240662,76.2620511 117.330727,77.0822411 C117.509313,77.7915953 118.135909,77.839316 118.362224,78.0248307 L119.015762,79.3134384 C118.311421,79.4797119 117.980419,79.3030492 117.369218,79.3576986 L114.94404,79.8853848 C113.703161,79.8938506 113.318274,79.2033592 112.557731,78.8573489 C112.128197,78.6887659 111.821056,78.7160945 111.490054,78.5386594 C111.149814,78.2592326 111.117101,77.9513185 111.003554,77.8570201 C110.764927,77.5687412 109.72111,77.4544292 109.413968,77.4821441 C109.434755,77.6880587 109.446689,77.7900504 109.264634,78.0129044 C109.091819,78.3396735 108.214662,78.8327161 107.805907,78.8692752 C107.612312,78.9901297 107.29285,78.9154666 107.078084,78.8311712 L107.135051,78.4112624 C107.182779,77.8901266 106.875251,77.9174474 106.478817,78.0563922 C105.872999,78.2141999 105.509285,78.661051 105.028941,79.0147625 C105.202143,78.6887659 105.363025,78.2599972 105.637454,77.9251486 C106.013489,77.5806754 106.514611,77.4313414 107.003799,77.1807724 L108.55182,76.2135501 C108.939402,75.971841 109.533286,75.7108908 109.816559,75.4784201 C110.672552,74.7802275 110.851524,72.5902164 110.627905,71.4709642 C109.04409,72.129894 109.464393,72.1957129 108.393634,72.8099884 C108.006051,73.0516974 107.800137,73.0705602 107.504929,73.2002668 C107.221261,73.43351 107.149673,73.7506546 107.081166,74.0666483 L107.081166,74.0666483 L107.081166,74.0666483 Z M117.945011,70.2962902 L118.953411,71.0345022 L119.72242,72.4147125 C120.313608,72.1545269 120.393662,71.9405248 120.793944,71.8012016 C120.98716,71.6803471 122.261137,71.9801738 121.965544,71.1784525 C121.85239,71.0845403 121.739229,70.9913928 121.626076,70.8982532 L121.557561,71.2150115 C121.217321,70.9348122 120.763927,70.5610871 120.331312,70.3925119 C119.898697,70.2247013 118.454599,70.2508712 117.945011,70.2962902 L117.945011,70.2962902 L117.945011,70.2962902 Z M121.411309,70.8139577 C122.843087,70.6857961 122.595221,70.2932081 123.415806,70.2200822 C123.81224,70.0799786 124.447302,70.2308576 124.868369,70.2962902 L124.811403,70.7154264 C125.673551,71.0525926 125.619666,70.5395363 126.255508,70.6892565 C126.902882,70.9421272 127.299317,71.735769 128.367002,72.0532998 C128.796535,72.2226474 129.014384,72.3061704 129.402345,72.0644614 C129.649445,72.4566631 129.754133,72.4478111 130.162888,72.4104717 C130.210609,71.8885713 130.505438,71.7580922 130.368416,71.4598026 C130.234477,71.1607484 129.15448,70.7400593 129.062105,71.7846484 C128.698004,71.2985345 128.891984,71.17768 128.758045,70.8801628 C128.393944,70.394049 127.6665,70.355945 127.164613,70.5045144 C126.952921,69.4880264 127.087632,69.7863081 125.670477,69.0854276 C125.226314,68.8144666 124.251012,68.3841609 123.726021,68.3275882 C123.102508,68.2798596 122.941618,68.7086283 122.452044,68.959954 C122.178001,69.2955751 121.858547,69.2201396 121.575273,69.4529965 C121.300458,69.7878531 121.366663,70.4036735 121.411309,70.8139577 L121.411309,70.8139577 L121.411309,70.8139577 Z M143.043542,66.2834506 L144.338298,67.7213844 C144.824798,68.4022512 145.310526,69.0838905 145.889401,69.6527549 C146.342794,70.0264801 146.990176,70.2793507 147.592912,70.1219293 C147.992428,69.9822198 149.200201,68.7347982 148.213351,68.2017283 C147.884659,68.0246794 147.392767,68.2756267 147.088708,68.3029553 C147.112576,67.575897 147.067929,67.1656128 146.888571,66.4566449 C146.867785,66.2515028 146.823138,65.8415969 146.422857,65.980928 C145.934047,66.2322537 146.50984,67.7333185 145.736985,67.2849224 L145.409057,67.1074952 L145.068817,66.8272959 C144.702406,67.2737608 145.134249,67.4423438 145.48681,67.824921 C145.940203,68.1994187 146.28891,68.5819959 146.357424,69.1970438 C145.245101,68.4676839 145.179668,67.8534005 144.463771,66.9854819 C144.00114,66.5089926 143.660899,66.2284071 143.043542,66.2834506 L143.043542,66.2834506 L143.043542,66.2834506 Z M147.485142,65.2642668 C147.765341,65.9636023 148.863043,67.5223985 149.615112,67.7652663 C149.104752,66.8792494 148.448904,65.5914221 147.485142,65.2642668 L147.485142,65.2642668 L147.485142,65.2642668 Z M71.6953554,72.7892022 C72.0024971,72.7618815 72.4127813,72.7249283 72.6167725,72.7064517 L75.2867413,73.5024031 C76.0264983,73.6432713 76.7543212,73.6817615 77.2404351,74.3626284 C75.9098767,74.4827104 76.1935364,74.2494672 75.1374073,74.033928 C74.1948178,73.9115364 73.9084623,74.1443934 73.1806394,74.1055248 C72.7599503,74.0397059 72.5451836,73.9557967 72.2261157,73.8811336 L69.4849443,74.3337626 C68.7571214,74.2956586 68.5989354,73.792219 68.1663201,73.6236438 C67.7248527,73.3522966 67.325336,73.4916277 66.937375,73.7341013 C66.2453466,74.0035252 65.5714006,74.477705 64.8986212,74.9526572 C63.6442708,75.7894084 62.1978633,76.7481571 61.2953012,77.968258 C60.6675466,78.8527298 60.8241956,79.3569261 60.1960627,80.241398 C59.557919,81.0234919 58.0872649,81.7767201 57.0938648,83.1092018 C56.3737431,84.1056761 56.4391758,84.720724 56.1662836,85.0563452 C55.9826922,85.2791993 54.7179527,86.0147155 54.4212081,86.144422 C54.1260005,86.2741365 53.8188588,86.3018435 53.6248705,86.4234705 C53.3400599,86.6559412 53.1683948,86.9819378 52.9955789,87.3083286 L51.9814005,88.4345094 C51.7189053,88.8721223 50.6539241,90.5209839 50.5958065,90.9409006 C50.5704012,91.667951 51.7427735,91.9774022 51.123871,92.9646382 C51.0326547,93.0758682 50.9418167,93.1878707 50.8506004,93.3002594 C50.1781994,93.7744391 49.9976901,93.0654791 49.4757818,93.0088985 C48.8387969,92.858792 47.8919666,93.6685929 47.3250334,93.2017281 C46.9732452,92.8191509 47.1237301,92.2883905 47.0806286,91.8777122 C46.9224346,91.3742805 46.6957418,91.1876071 46.549482,90.7865533 C46.2885239,90.291209 46.4959834,89.340532 45.7708563,88.3702276 C45.398282,87.7828946 44.9672038,87.6143115 44.6346647,88.3698493 L44.3929557,89.0118396 C43.9872827,88.1169786 44.2166793,87.3710654 43.4769223,87.2294247 C42.534719,87.1077977 42.2468185,88.2728551 41.6979678,88.9429465 C40.3285408,90.6195152 40.1006893,90.4328418 39.0518673,91.2511164 L37.6604954,92.722543 L36.7925768,93.3183497 C36.3257041,93.7744391 36.0154883,94.7343544 35.7753163,95.3771093 L34.7715271,99.5061922 C34.5521413,100.353325 34.1838077,101.734307 33.284706,102.020663 C32.9891122,102.150369 32.0557609,102.13112 31.7378439,102.056457 C31.408379,101.879022 31.1712891,101.589971 30.853372,101.513763 C30.5462304,101.542242 29.7260403,101.61499 28.9654972,101.268972 C28.5121036,100.896405 27.9124423,100.120854 27.4798348,99.9538158 C27.0487566,99.7836957 26.6388507,99.8210272 26.2301036,99.8583587 C25.7170474,99.9030052 25.0011586,99.9684379 24.5804695,99.9030052 C23.5127925,99.5847098 22.8234599,97.9893467 22.4177869,97.0937132 C22.2719134,96.6926594 22.0001878,96.0953156 21.6707229,95.9178805 C21.2173214,95.5441553 20.6700157,96.2146251 20.1361732,96.0556666 C19.715492,95.9894693 18.7848287,95.0380278 18.2406051,94.7755326 C18.1270576,94.6820067 17.7856665,94.4025799 17.5932231,94.5234344 C17.3888456,94.5411385 17.3291908,94.9618197 17.2499007,95.1750493 C17.2352708,96.0052501 17.4635165,96.1915373 17.9376963,96.7707908 C18.0508496,96.8635521 18.403024,97.2469017 18.1166685,97.4793725 C17.6394067,97.8326977 16.9504603,96.2377208 16.4135358,97.0109627 C16.3327086,97.2257293 16.3446427,97.3281073 16.2522677,97.4389589 L16.0478981,97.4578138 L15.5529322,95.7419903 L15.4767241,95.0237841 L14.7877699,93.4288151 L13.9437116,94.2293777 L13.7420299,93.3152677 L13.4602936,92.6159321 C13.3021075,92.1124925 12.8937388,92.1490594 12.5057699,92.3903822 C11.7421526,92.9773369 11.214088,93.8529567 10.7368262,94.206282 C10.1552631,94.569618 9.71225868,94.2982708 9.31428695,94.4376019 C8.82509102,94.6889354 8.48176867,95.3405503 8.33128383,95.8724615 L7.54379829,100.085059 C6.86216685,103.356991 6.42685571,104.120609 6.8025042,107.607693 L7.21702919,109.537905 L7.60653512,112.195553 L7.95409037,113.510717 L8.15961872,113.491468 C8.01644096,112.158222 8.05839163,109.668762 8.43712218,108.392475 C8.80700068,107.014196 9.39780205,106.753238 9.42744026,105.093223 L9.67223134,106.419162 C10.2314712,105.849139 10.1879755,105.439233 10.9727653,105.058965 C11.2337155,105.552394 11.3468767,105.646692 11.5154597,106.253653 C11.6736458,106.755934 11.7167552,107.166226 11.9777054,107.661578 C12.2375047,108.154999 12.4522714,108.240059 12.7012954,108.632261 C12.9399302,108.920161 13.0965792,109.424365 13.2424449,109.825411 C13.5261124,110.525141 13.7497311,111.645166 14.6011043,111.879174 C14.9340297,111.124408 14.8354984,110.201454 14.8474325,109.370859 C14.9278734,109.156092 14.965205,108.532579 15.1576484,108.411724 C15.6587705,108.262382 15.8616109,109.176879 15.8943233,109.48402 C16.1868429,110.286514 16.4000646,111.303767 16.8861785,111.983483 C17.3946156,112.871029 17.7945185,112.730933 18.4596046,114.12076 L18.6100973,113.59 C18.8922199,114.289343 18.5373497,114.839731 19.3098191,115.287354 C19.2651726,114.87707 19.1816496,113.124672 19.3513835,112.797903 C19.4322107,112.583136 19.7393524,112.556194 19.9452669,112.53849 L20.4225288,116.016336 C20.4656382,116.426628 20.6222871,116.930832 20.8609141,117.220262 C21.439403,117.789899 22.1121902,117.314174 22.3716034,117.80914 L22.7757313,119.636201 C23.1232866,120.951751 23.6082496,122.565583 24.147862,123.758734 C24.5550721,124.654754 25.0966078,125.849449 25.7886362,126.511839 C26.0272632,126.801277 26.3779005,127.184627 26.7758723,127.044137 C27.1757673,126.905578 27.0175813,126.401374 27.086096,126.08538 C27.1457508,125.666244 27.3381941,125.54539 27.4082459,125.227851 C27.4559666,124.705564 27.2858465,124.098596 27.5483416,123.661748 C27.4113201,124.295658 27.6260868,124.379173 27.6930565,124.994994 C27.7811986,125.815192 27.9824941,126.729688 28.2761645,127.530637 C28.7149361,128.735722 29.041319,129.843812 29.776843,130.917653 C30.264494,131.599285 31.3876007,132.429872 32.067695,132.990657 C32.9983505,133.942098 33.9155426,134.792313 35.0386414,135.6229 L36.3780518,136.538933 L37.4903752,137.268301 C38.4779975,137.800598 38.5823066,136.858009 39.1965821,136.804124 C39.5156579,136.878795 40.6372196,137.709382 40.9774599,137.98996 C42.7017571,139.596098 42.1348161,139.129612 43.3248925,140.576027 L46.0094833,143.441127 C46.7015118,144.103517 47.5605783,145.374035 48.5047128,145.494889 L49.4488394,145.618826 C50.5049764,145.83513 51.6861929,146.246573 52.7896643,145.939439 C53.1999564,145.902099 53.4847748,145.67078 53.6679799,145.447161 C53.9412504,145.11154 54.1021323,144.683543 54.5124244,144.646212 C54.9327194,144.712031 55.9099525,145.141564 56.3406445,145.311298 C57.4310309,145.833593 58.974811,146.731149 60.1337121,146.937064 C61.2937641,147.144516 62.1262745,146.240803 61.9353682,145.429457 C61.6428564,144.626971 60.4169855,143.805236 59.7622965,142.518165 C59.1283857,141.436631 58.6900004,140.233091 57.9648654,139.262014 L56.3006171,137.236739 L55.3041428,135.669091 L54.818029,134.987838 C54.6929337,134.792313 54.5139615,134.083739 54.4808628,133.77506 L53.341597,130.874158 C52.8223845,129.885384 51.796272,129.977752 51.131186,128.587925 C51.6069028,129.166414 52.5152429,129.913864 53.1610799,130.165962 C52.8689544,129.363476 52.2138712,128.076406 51.7262202,127.394774 L50.6839486,126.34942 C51.2505034,126.815899 51.703897,127.190397 52.443654,127.330492 L52.6615027,126.481815 C52.9836526,125.624285 53.2788602,125.494579 53.2715452,124.459614 C53.1864852,122.707224 51.5680342,120.159655 51.3371005,118.006202 C51.2370322,117.082862 51.4444839,116.132958 51.5503301,115.191905 L51.5788096,113.531882 C51.5457109,113.224362 51.7277652,112.999198 51.78742,112.581599 L51.7681709,111.44387 C51.9067374,110.809959 51.9871783,110.595193 51.9217457,109.978986 L51.4263935,108.263927 L51.3967553,107.023048 L51.2193281,105.382652 C51.0865395,104.15217 51.7485435,103.57484 51.8651651,102.736552 C51.9248199,102.316257 51.3936811,101.224325 51.1654433,101.038046 C50.8359784,100.860611 50.1320158,101.027649 50.3825769,100.48765 C50.634683,99.9476517 51.5638013,100.899101 51.8024283,101.188531 C52.1007179,100.126632 51.8740171,99.9387997 51.6727217,99.0250758 L51.2832158,96.3674274 C51.1042436,95.6584673 50.6508421,95.2855068 50.6165926,94.9776005 C50.6866365,94.6604559 50.9937782,94.6327411 51.3578867,94.1862683 C51.7246831,93.7390309 51.8740171,93.2078843 51.9217457,92.685976 L51.9394498,90.9235748 C52.0545343,90.0849082 52.7627219,88.9856697 53.663747,88.6977692 C54.5736241,88.513027 55.5027425,89.4644686 56.0142537,89.4190496 C56.52731,89.3724798 56.7778711,88.8328674 56.950687,88.5060983 L58.1319114,85.0863696 L58.337826,85.0675068 C58.8462631,85.9550607 59.3804839,86.113633 60.0709753,86.7767957 L60.6613904,87.4488105 C60.7749299,87.5419501 60.9689183,87.4210956 61.1625125,87.3002411 C61.526621,86.85339 61.9650064,85.157186 61.7055932,84.6626064 C61.5593334,84.2615526 61.1059398,83.8878274 60.9477459,83.3843957 C60.9150335,83.0764815 61.0866908,82.7504849 61.2579696,82.4248666 C61.4996787,81.7813392 61.6266894,81.0450505 62.0931758,80.5889532 C63.0180613,79.5740102 64.8612897,79.408123 65.9843885,80.2398609 C66.5528666,80.7067336 66.4812777,81.0234919 66.7199126,81.3129295 C67.0717007,81.6955067 67.583212,81.6500877 67.7517951,82.2562915 C67.7741183,82.4614336 67.7279269,82.9833419 67.6578829,83.3001081 C67.7248527,83.9155423 67.8472443,84.1114461 67.6070723,84.7542089 C67.2641441,85.40621 66.6945073,85.8715377 66.4631874,86.6170647 C66.1425745,87.4745942 66.6660278,87.531561 66.5378583,88.2674635 C66.3080834,89.0133767 65.7488357,89.5814765 65.5190608,90.3270035 C65.2550285,90.7650025 65.3000612,91.1749084 64.8227994,91.5286199 C64.4348306,91.7699426 63.808621,91.7229866 63.399866,91.7595535 C62.7959797,91.9169749 62.3171808,92.2710727 61.8279848,92.5220121 C61.848771,92.7275483 61.8710942,92.931918 61.9950308,93.1282159 C62.1647647,93.7344118 62.6766622,93.6882282 63.1762473,93.5396588 C63.9845111,93.3645333 65.0552701,92.7498716 65.850449,93.4034098 C66.5409404,94.0669588 66.7510879,96.0156392 67.3403521,96.6872678 C67.9069069,97.1541405 68.3171911,97.1175735 68.9537977,97.26768 C69.384876,97.4362631 69.7147192,97.6136982 70.0545733,97.8938975 C70.8482151,98.5470494 70.597654,99.0878127 70.9582942,99.5727757 C71.2985345,99.8522025 71.5952791,99.724033 71.9459165,100.105846 L73.4504416,102.559117 L74.4873295,101.637699 C74.8391177,102.020663 75.2494098,101.983323 75.2955934,101.461423 C75.262881,101.154281 75.095835,100.54885 74.9584351,100.249023 C75.6504636,100.912572 75.7058854,101.425629 75.7028034,102.357821 C75.7251266,102.562199 75.6446857,102.776965 75.7697731,102.974028 C75.8132688,103.382397 76.3113088,104.167178 76.6511708,104.447378 C77.0941752,104.717188 77.3893828,104.587481 77.7773517,104.345764 C78.132214,103.796922 78.3396735,102.845472 78.8869793,102.175775 C79.3449999,101.616527 80.2544908,101.431785 81.0766042,100.424914 C80.8618375,100.341398 80.2144556,100.089292 80.2829703,99.7717616 C80.4438521,99.3437654 81.0585217,99.2883435 81.4460964,99.0462482 C82.0161195,98.5809205 82.4514307,97.8165307 82.5784414,97.0810145 L81.3267869,96.9855574 L80.588567,96.8446892 L79.5639994,96.9374505 L78.5559773,96.1988522 L77.1003315,96.122258 C77.3508926,95.5822593 77.5237085,95.2554902 78.1383781,95.2004467 C78.4455119,95.1727397 78.8765901,95.3420874 79.0705706,95.2212329 C79.4685502,95.0811372 79.4239037,94.6708451 79.7102593,94.4383743 C80.257565,93.7678967 81.0642917,93.5920065 81.1824504,92.7529458 C82.0234345,92.8841973 82.2070258,92.6613432 82.62617,92.7267759 C83.4894694,93.0631695 83.7581208,94.5927137 84.1534046,95.3859693 C83.0853336,95.067666 83.2866369,95.9813898 83.2612316,96.7084402 C83.6492004,96.4667312 84.1056761,95.9082559 84.5036478,95.7685465 L85.8461403,95.751607 C86.1532741,95.7239 86.244112,95.6126621 86.5412429,95.482191 C87.2463563,95.3159175 87.7116919,95.7916343 88.0846446,96.3793615 C88.4726134,96.1376525 88.4502902,95.9321241 88.20088,95.5403086 L88.7127775,95.4941172 L88.4202658,94.6927821 C87.9087545,94.7382011 87.7936699,94.6450535 87.6447143,95.1758139 C87.2032548,94.9052391 87.2032548,94.9052391 86.6798015,94.8482802 L87.056995,94.5045716 L87.0331347,94.298657 C86.1594382,93.8594992 87.1616825,93.5627546 87.3106381,93.0312217 C87.380682,92.7140771 87.2571396,92.5189379 87.1316659,92.3226479 L88.4187287,91.7926521 C88.9660344,91.1229469 89.43137,91.5986717 89.6611449,90.8527584 C90.717274,91.0690621 90.3697266,89.7539062 91.1675934,89.4748577 C91.3600368,89.3540032 91.6775755,89.4294388 91.8834901,89.4105838 C92.1786976,89.2808773 92.4739052,89.1511707 92.7721948,89.0206917 C93.1809419,88.9841247 93.3868565,88.9664206 93.7832912,88.8259387 C94.17126,88.5846159 94.5261224,88.0349927 94.8005516,87.7001441 C94.9826059,87.4753667 95.3582544,87.1316659 95.4390816,86.9168914 C95.5075884,86.6001331 95.3732627,86.302616 95.3197641,85.7887872 C95.7400591,85.8542199 96.047587,85.8268912 96.3189343,85.4920426 C96.6052898,85.2591856 96.5606433,84.8488935 96.128028,84.6806967 C96.0264225,84.6903212 95.7192808,84.7180282 95.6180538,84.7268803 L97.0317489,83.4606037 L97.3092523,82.1927822 L96.9093494,82.3321133 L97.0498313,81.6982025 L95.9221134,81.7998158 C96.1041676,81.5761892 96.6530183,80.9057194 96.8350647,80.6821007 C97.3154086,80.3283893 97.8373169,80.3853482 98.0790259,79.7414345 C97.0675433,79.9361875 95.8239683,80.8760812 95.1854384,81.6581751 L94.1889641,82.9898844 L94.2490051,82.5707402 C93.2467608,82.8682574 93.3121935,83.4836994 92.9242246,83.7254085 L92.7306225,83.8458767 C93.0377642,83.8185481 90.9797692,83.8997615 91.2988449,83.975197 C90.7753917,83.9182381 90.2084585,83.4517516 89.755057,83.077254 C89.413658,82.797441 89.1777269,82.5083896 88.7901443,82.7504849 L86.8722449,81.2659734 C87.0539129,81.0423547 87.1466742,80.9303522 86.9199735,80.7432926 C86.6932727,80.5566271 86.1594382,80.3972823 85.7164337,80.1263213 C84.9212549,79.4731694 84.9585864,78.8481107 84.858518,77.9251486 C84.7722992,77.1049506 84.6676117,77.1138027 84.3874125,76.4140809 C84.2515497,76.1150188 84.2292264,75.9102629 83.9905916,75.6208254 C83.7535017,75.3313878 83.197336,74.9676734 82.8570957,74.6870879 C82.4037021,74.3141273 81.8371473,73.8468763 81.3137019,73.7899094 C80.575482,73.6498137 80.0054668,74.1151415 79.3673231,73.9646487 C78.8334807,73.8056902 78.142611,73.1429137 77.4956153,72.8900431 C77.0749262,72.8242321 76.5634149,72.8704156 76.1531228,72.9069826 C76.1307996,72.7018326 76.0861531,72.2919267 75.8713864,72.2076392 C75.5430724,72.030204 74.9495831,72.2903897 74.5408281,72.3269566 C74.1309222,72.3635156 73.9950594,72.0652339 73.6775286,71.9897905 C73.3596116,71.9151274 71.9143549,71.9412973 71.7311498,72.1645298 C71.5371615,72.2857705 71.674183,72.5840601 71.6953554,72.7892022 L71.6953554,72.7892022 L71.6953554,72.7892022 Z M144.86637,62.081628 C145.704651,63.1454583 147.201869,64.5645371 148.463526,64.7623721 C148.09096,64.1738803 147.771498,64.0995956 147.318104,63.7258705 C146.649936,63.2678499 145.513752,62.3341124 144.86637,62.081628 L144.86637,62.081628 L144.86637,62.081628 Z M136.669026,57.9502434 L136.409613,57.4556637 C136.842228,57.6234743 137.274843,57.7920495 137.522709,58.1842512 C137.656648,58.4825409 137.680516,58.6876908 137.713615,58.9955971 C137.779048,59.6110313 138.855963,60.9642992 139.479477,61.0112552 C139.696553,61.0955428 139.685005,60.9935511 139.890541,60.9746883 L139.362469,58.9509506 C139.123842,58.661513 138.82902,58.7919921 138.477232,58.4094149 L136.347262,55.9076429 C136.221788,55.7113529 135.747609,55.132864 135.816116,54.816484 C135.997784,54.5928653 136.511226,54.5466817 136.716754,54.5289776 L134.766143,52.7361657 C134.539056,52.549114 134.187275,52.1665368 133.787759,52.30586 C133.390552,52.4451911 133.241218,52.9763377 133.068015,53.3019559 C132.897895,53.628725 132.62386,53.9635737 132.656186,54.2714878 C132.802446,54.67292 133.26816,55.1486447 133.504477,55.4376961 L135.32115,56.9314459 C135.786099,57.4079352 136.021644,57.6973728 136.669026,57.9502434 L136.669026,57.9502434 L136.669026,57.9502434 Z M163.213964,57.7427839 C162.945313,56.2132396 161.960773,54.7487418 160.806877,53.6098622 L158.990213,52.1157262 C158.288946,51.3505717 157.531485,50.0723611 156.499216,49.128999 C155.366107,48.1952616 154.513196,47.9612459 153.504788,47.2230338 L151.789729,45.7196595 L148.729103,43.1982601 C147.935462,42.5451081 146.993258,41.4897437 146.393605,40.7157372 C145.781631,39.8381941 145.954833,39.5121896 145.603045,39.1296124 C145.36441,38.8401827 144.502262,38.5030166 144.081967,38.4375839 L144.242849,38.0088231 L143.482313,37.662805 C143.90569,36.7964235 143.312193,37.0566091 142.712532,36.2826026 C142.473905,35.993165 142.43234,35.5821005 142.056684,34.9947674 C141.468579,34.3227526 140.684175,33.7715923 139.914401,33.3235825 L136.180224,31.2763628 C134.974753,30.6597778 133.327429,29.7714514 131.976478,29.6860051 C130.941127,29.6752297 130.279123,30.2525599 129.264559,30.4465483 C128.355454,30.6320629 126.389448,30.6016601 125.75977,31.486132 C125.121626,32.268218 126.72045,33.6784527 127.299317,34.2480817 L128.918927,35.862686 C129.384641,36.3391753 129.51858,36.6374649 129.992768,37.2159538 C130.449243,37.589679 131.33217,38.1319872 131.696279,38.6165561 C132.057305,39.1019054 131.45457,39.2600914 131.940297,39.9409582 C132.313636,40.5286854 133.223514,41.2757495 133.495247,41.8730934 C133.641499,42.2741472 133.706932,42.8895813 134.047172,43.1701669 C134.3751,43.347602 134.763061,43.1051205 135.070202,43.0774056 C135.571324,42.9292303 137.042373,42.1760021 137.483454,42.4473494 C137.9253,42.7179241 139.434065,44.2393888 139.786618,44.6227306 C140.012933,44.8090178 140.475565,45.2847425 140.407058,45.6026595 C140.463252,46.1149433 138.849799,45.5345311 139.234693,46.2250224 C139.359395,46.4213125 140.347017,46.9536099 140.687257,47.2341955 L141.94584,48.3638446 L143.407642,49.4750093 C143.747883,49.7555949 144.120457,50.3429358 144.451459,50.5207572 C145.098841,50.7732416 145.429843,50.0188625 145.987932,50.3825769 C147.076395,50.9060223 147.857716,52.3901554 148.991599,53.3235067 C149.761372,53.7719028 149.95458,53.6510483 150.601962,53.9039189 C151.147739,54.1656416 151.500291,54.5482188 152.054534,54.9127057 C152.928995,55.3518635 153.000584,55.0351052 154.02054,55.8756951 C155.380729,56.9957198 156.538471,58.1349856 157.704687,59.3766372 C158.169629,59.8523541 159.315051,60.8888636 159.849279,61.0478221 C159.950893,61.0389701 160.051733,61.0301102 160.156421,61.0204935 L161.328785,60.3977444 C161.328785,60.3977444 161.433473,60.3877336 161.42116,60.2857419 C161.489667,59.9689757 161.445021,59.5586915 161.513535,59.241539 C161.585124,58.9247807 161.779105,58.8039262 161.836072,58.3840096 C161.904579,58.0680159 161.839146,57.4518092 162.133975,57.3221026 C162.432643,57.1916315 162.999198,57.6584963 163.213964,57.7427839 L163.213964,57.7427839 L163.213964,57.7427839 Z M138.226285,31.0923853 C138.181638,30.682101 138.068477,30.5889535 137.922225,30.1878997 C137.310252,29.3107429 136.630536,28.7507305 135.6637,28.4224243 C135.348092,28.3481397 134.393568,28.1225976 134.220374,28.4485943 C133.957879,28.886215 135.070202,29.615575 135.39813,29.7930101 C135.73837,30.0728231 136.170986,30.2413983 136.511226,30.5219838 C137.170148,30.876854 137.486528,30.9519033 138.226285,31.0923853 L138.226285,31.0923853 L138.226285,31.0923853 Z M98.1205903,22.4716717 C99.4750169,22.5567318 99.9849911,22.5113128 101.279369,23.0159033 C102.460585,23.4277325 103.152614,24.0905089 104.507032,24.1763415 L102.988658,22.5521127 L103.85388,21.9570784 C103.400487,21.5833532 103.197646,21.6014436 102.753105,21.3308688 C102.526404,21.1441954 102.505618,20.9386671 102.278917,20.7519937 C102.073003,20.7708565 101.559954,20.8162676 101.357114,20.8347442 C100.751683,20.9921656 100.253256,21.1414996 99.558532,21.4105373 C98.9527224,21.5679587 98.1475327,21.7438488 98.1205903,22.4716717 L98.1205903,22.4716717 L98.1205903,22.4716717 Z M104.32806,19.6365882 C104.178726,20.1673485 103.677604,20.3159179 103.197646,20.6692432 C103.310808,20.7623828 103.322734,20.8655332 103.436281,20.9586807 C103.767283,21.136108 105.44963,21.3993756 105.870311,21.4655729 C106.905276,21.4763561 106.94107,20.852062 108.158081,20.6388404 L109.682234,20.3986684 C111.114019,20.2697265 113.070787,20.1981376 114.347461,19.5657718 C113.861347,18.884905 113.554205,18.9114611 112.805218,18.6685934 C111.633232,18.35915 110.383114,18.2644654 109.187268,18.6820645 C108.08341,18.9884416 108.128057,19.3987258 106.693583,19.5276678 L104.32806,19.6365882 L104.32806,19.6365882 Z M82.5826743,195.149257 C58.6719101,190.044108 87.4465009,196.162285 82.5826743,195.149257 L82.5826743,195.149257 L82.5826743,195.149257 Z" id="path2047"></path>
                    </g>
                </g>
            </g>
        </g>
    </g>
</svg>