<?xml version="1.0" encoding="UTF-8" standalone="no"?>
<svg width="500px" height="500px" viewBox="0 0 500 500" version="1.1" xmlns="http://www.w3.org/2000/svg" xmlns:xlink="http://www.w3.org/1999/xlink" xmlns:sketch="http://www.bohemiancoding.com/sketch/ns">
    <!-- Generator: Sketch 3.3.2 (12043) - http://www.bohemiancoding.com/sketch -->
    <title>Slice 1</title>
    <desc>Created with Sketch.</desc>
    <defs></defs>
    <g id="Page-1" stroke="none" stroke-width="1" fill="none" fill-rule="evenodd" sketch:type="MSPage">
        <path d="M110.962199,309.465673 L110.962199,347.133333 L390,347.133333 L390,309.465673 L110.962199,309.465673 L110.962199,309.465673 Z M110.962199,232.198674 L110.962199,270.735589 L390,270.735589 L390,232.198674 L110.962199,232.198674 L110.962199,232.198674 Z M179.27835,155.897512 L179.27835,194.434428 L389.422681,194.434428 L389.422681,155.897512 L179.27835,155.897512 L179.27835,155.897512 Z M132.611684,196.849021 C145.099772,196.849021 155.223368,187.033083 155.223368,174.924511 C155.223368,162.815938 145.099772,153 132.611684,153 C120.123596,153 110,162.815938 110,174.924511 C110,187.033083 120.123596,196.849021 132.611684,196.849021 L132.611684,196.849021 L132.611684,196.849021 Z" id="Rectangle-path" fill="#313334" sketch:type="MSShapeGroup"></path>
    </g>
</svg>