<?xml version="1.0" encoding="UTF-8" standalone="no"?>
<svg width="500px" height="500px" viewBox="0 0 500 500" version="1.1" xmlns="http://www.w3.org/2000/svg" xmlns:xlink="http://www.w3.org/1999/xlink" xmlns:sketch="http://www.bohemiancoding.com/sketch/ns">
    <!-- Generator: Sketch 3.3.2 (12043) - http://www.bohemiancoding.com/sketch -->
    <title>Slice 1</title>
    <desc>Created with Sketch.</desc>
    <defs></defs>
    <g id="Page-1" stroke="none" stroke-width="1" fill="none" fill-rule="evenodd" sketch:type="MSPage">
        <g id="nvidia" sketch:type="MSLayerGroup" transform="translate(110.000000, 147.000000)" fill="#313334">
            <path d="M277.76875,199.745795 C277.76875,202.745455 275.566136,204.75875 272.958636,204.75875 L272.958636,204.740455 C270.277159,204.75875 268.115114,202.745455 268.115114,199.746591 C268.115114,196.748523 270.277159,194.740795 272.958636,194.740795 C275.566932,194.74 277.76875,196.747727 277.76875,199.745795 L277.76875,199.745795 Z M279.72,199.745795 C279.72,195.629318 276.522273,193.239773 272.958636,193.239773 C269.370341,193.239773 266.172614,195.629318 266.172614,199.745795 C266.172614,203.859886 269.371136,206.258977 272.958636,206.258977 C276.523068,206.258977 279.72,203.859886 279.72,199.745795 L279.72,199.745795 Z M271.837045,200.29625 L272.560909,200.29625 L274.238523,203.241818 L276.080795,203.241818 L274.222614,200.172159 C275.182727,200.10375 275.972614,199.646364 275.972614,198.35375 C275.972614,196.747727 274.865341,196.231477 272.989659,196.231477 L270.276364,196.231477 L270.276364,203.241818 L271.83625,203.241818 L271.83625,200.29625 L271.837045,200.29625 Z M271.837045,199.109432 L271.837045,197.421477 L272.922045,197.421477 C273.512273,197.421477 274.316477,197.469205 274.316477,198.189091 C274.316477,198.972614 273.900455,199.109432 273.204432,199.109432 L271.837045,199.109432 L271.837045,199.109432 Z" id="path17" sketch:type="MSShapeGroup"></path>
            <path d="M234.186591,163.885114 L242.616818,186.947727 L225.495455,186.947727 L234.186591,163.885114 L234.186591,163.885114 Z M225.158182,154.905227 L205.730795,204.127955 L219.449205,204.127955 L222.522045,195.430455 L245.513068,195.430455 L248.42125,204.127955 L263.31375,204.127955 L243.741591,154.898864 L225.158182,154.905227 L225.158182,154.905227 Z M186.154659,204.14625 L200.072727,204.14625 L200.072727,154.890114 L186.152273,154.886932 L186.154659,204.14625 L186.154659,204.14625 Z M89.5331818,154.886932 L77.9211364,193.92625 L66.7975,154.890114 L51.7801136,154.886932 L67.6669318,204.14625 L87.7179545,204.14625 L103.732841,154.886932 L89.5331818,154.886932 L89.5331818,154.886932 Z M145.791705,165.612841 L151.773523,165.612841 C160.451932,165.612841 166.064659,169.508977 166.064659,179.62 C166.064659,189.733409 160.451932,193.630341 151.773523,193.630341 L145.791705,193.630341 L145.791705,165.612841 L145.791705,165.612841 Z M131.990568,154.886932 L131.990568,204.14625 L154.554432,204.14625 C166.576136,204.14625 170.501705,202.148068 174.74625,197.664886 C177.744318,194.517273 179.683636,187.609545 179.683636,180.058295 C179.683636,173.132273 178.042614,166.95875 175.181364,163.111932 C170.026023,156.232045 162.599659,154.886932 151.516591,154.886932 L131.990568,154.886932 L131.990568,154.886932 Z M0.149545455,154.818523 L0.149545455,204.14625 L14.1853409,204.14625 L14.1853409,166.691477 L25.0607955,166.694659 C28.6618182,166.694659 31.22875,167.591932 32.9628409,169.444545 C35.1622727,171.787159 36.0603409,175.56875 36.0603409,182.486023 L36.0603409,204.14625 L49.6610227,204.14625 L49.6610227,176.892386 C49.6610227,157.441136 37.2630682,154.818523 25.1323864,154.818523 L0.149545455,154.818523 L0.149545455,154.818523 Z M109.590568,154.886932 L109.596136,204.14625 L123.507841,204.14625 L123.507841,154.886932 L109.590568,154.886932 L109.590568,154.886932 Z" id="path19" sketch:type="MSShapeGroup"></path>
            <path d="M37.5542045,56.8065909 C37.5542045,56.8065909 55.4551136,30.3951136 91.1972727,27.6627273 L91.1972727,18.0806818 C51.6082955,21.2601136 17.3257955,54.7901136 17.3257955,54.7901136 C17.3257955,54.7901136 36.7428409,110.921364 91.1972727,116.060795 L91.1972727,105.875795 C51.2360227,100.848523 37.5542045,56.8065909 37.5542045,56.8065909 L37.5542045,56.8065909 Z M91.1972727,85.6203409 L91.1972727,94.9478409 C60.9954545,89.5634091 52.6121591,58.1684091 52.6121591,58.1684091 C52.6121591,58.1684091 67.1132955,42.1042045 91.1972727,39.4990909 L91.1972727,49.7342045 C91.1789773,49.7342045 91.16625,49.7286364 91.1511364,49.7286364 C78.5105682,48.2117045 68.6357955,60.0202273 68.6357955,60.0202273 C68.6357955,60.0202273 74.1705682,79.8994318 91.1972727,85.6203409 L91.1972727,85.6203409 Z M91.1972727,0.407272727 L91.1972727,18.0806818 C92.3594318,17.9915909 93.5215909,17.9160227 94.6901136,17.87625 C139.698523,16.3593182 169.024545,54.7901136 169.024545,54.7901136 C169.024545,54.7901136 135.342614,95.7464773 100.251932,95.7464773 C97.0359091,95.7464773 94.0251136,95.4481818 91.1972727,94.9470455 L91.1972727,105.875795 C93.6154545,106.182841 96.1227273,106.363409 98.7389773,106.363409 C131.393182,106.363409 155.007841,89.6867045 177.873977,69.9490909 C181.665114,72.9853409 197.186023,80.3719318 200.376591,83.6054545 C178.635227,101.807841 127.965568,116.480795 99.2393182,116.480795 C96.4703409,116.480795 93.8111364,116.312955 91.1972727,116.060795 L91.1972727,131.417841 L215.313636,131.417841 L215.313636,0.407272727 L91.1972727,0.407272727 L91.1972727,0.407272727 Z M91.1972727,39.4990909 L91.1972727,27.6635227 C92.3475,27.5831818 93.5064773,27.5211364 94.6901136,27.48375 C127.055568,26.4671591 148.289432,55.2968182 148.289432,55.2968182 C148.289432,55.2968182 125.354886,87.1492045 100.764205,87.1492045 C97.2252273,87.1492045 94.0521591,86.5804545 91.1964773,85.6203409 L91.1964773,49.7342045 C103.796477,51.2567045 106.332386,56.8225 113.9075,69.4503409 L130.755227,55.2443182 C130.755227,55.2443182 118.456705,39.1148864 97.7247727,39.1148864 C95.47125,39.1140909 93.3147727,39.2723864 91.1972727,39.4990909 L91.1972727,39.4990909 Z" id="path21" sketch:type="MSShapeGroup"></path>
        </g>
    </g>
</svg>