<?xml version="1.0" encoding="UTF-8" standalone="no"?>
<svg width="500px" height="500px" viewBox="0 0 500 500" version="1.1" xmlns="http://www.w3.org/2000/svg" xmlns:xlink="http://www.w3.org/1999/xlink" xmlns:sketch="http://www.bohemiancoding.com/sketch/ns">
    <!-- Generator: Sketch 3.3.2 (12043) - http://www.bohemiancoding.com/sketch -->
    <title>Slice 1</title>
    <desc>Created with Sketch.</desc>
    <defs></defs>
    <g id="Page-1" stroke="none" stroke-width="1" fill="none" fill-rule="evenodd" sketch:type="MSPage">
        <g id="Logo_of_the_United_Nations_(B&amp;W)" sketch:type="MSLayerGroup" transform="translate(110.000000, 131.000000)" fill="#313334">
            <g id="layer1" transform="translate(0.402338, 0.189139)" sketch:type="MSShapeGroup">
                <g id="g2086" transform="translate(0.308171, 0.411795)">
                    <g id="g1987" transform="translate(0.463576, 8.333027)">
                        <path d="M233.239306,184.231229 C224.760436,186.501763 215.712874,187.231835 207.478382,190.039939 C221.425143,178.081678 220.628975,159.578482 229.933987,145.494164 C232.898094,141.506406 235.348075,137.326531 238.803251,133.542435 C233.143243,144.896266 235.597835,159.626895 229.095552,170.644898 C226.592539,175.021508 223.012867,179.267479 219.054313,182.704981 C220.347705,182.656568 221.479702,181.536863 222.617089,180.789108 C233.178593,170.249883 246.976266,167.302687 258.400805,158.740047 C262.977221,155.093509 267.168632,150.314966 269.180568,145.146798 C267.018774,162.632506 249.622983,179.021558 233.239306,184.231229 L233.239306,184.231229 L233.239306,184.231229 Z" id="path1989"></path>
                        <path d="M271.287794,113.434603 C266.120398,120.787621 259.86941,127.632658 255.095478,135.10556 C255.628051,129.188874 256.32892,121.913472 254.024186,116.308794 C250.03029,104.239488 246.52131,91.984966 245.389313,78.7390825 L245.545317,73.6738946 C248.55092,87.2010481 261.839078,96.499914 261.000643,111.673199 C261.304963,115.350476 260.167583,118.476733 259.479006,121.71059 L259.707252,121.949593 L260.305912,121.27869 C262.276352,113.835756 263.270791,106.009343 266.334809,99.0651662 C270.689134,89.0723484 276.126279,78.9873086 273.91069,66.9218427 C280.533636,81.1467961 278.527075,100.152598 271.287794,113.434603 L271.287794,113.434603 L271.287794,113.434603 Z" id="path1991"></path>
                        <path d="M263.131691,36.7958294 C271.844959,48.6042318 273.754686,67.4221352 267.408399,80.9669713 C265.042952,86.7069016 263.372236,92.8234009 262.443114,99.1765976 C261.999694,98.0807215 261.898249,96.6075051 261.50247,95.3863552 C258.036528,82.1281717 245.497667,72.6794557 240.341029,60.1793994 C238.705654,56.091739 237.311597,51.8680551 236.538486,47.4307314 C242.048637,57.6218278 255.628051,62.8856721 259.329148,74.1165513 C260.845403,76.9569273 260.760098,80.5058687 261.700741,83.5598924 C261.898249,83.5598924 262.095756,83.4131036 262.095756,83.212527 C260.466536,71.6435133 260.963751,59.535395 262.533801,48.1100854 C262.443114,41.9213524 261.839078,35.9182047 258.400805,31.1277551 C260.605628,32.4123013 261.598533,34.8795709 263.131691,36.7958294 L263.131691,36.7958294 L263.131691,36.7958294 Z" id="path1993"></path>
                        <path d="M256.988294,34.5291364 C259.276895,44.8766224 255.933913,54.9539738 258.036528,65.4009769 L257.958148,65.4908932 C252.32887,54.4214008 240.377913,49.197132 232.15495,40.337468 C227.389478,35.0801553 225.317601,28.6727775 224.125655,21.8884451 C228.837331,33.2476592 241.551413,35.7506719 248.850636,45.3227337 C251.292936,47.5294852 252.089867,50.5865859 253.664529,53.0892051 L253.921978,52.8405934 C249.72442,43.8798777 248.318063,33.7956012 245.389313,24.2389085 C243.923006,20.0978381 241.012694,16.0290093 237.107943,13.4180278 C246.689614,15.3761675 254.994033,25.3793651 256.988294,34.5291364 L256.988294,34.5291364 L256.988294,34.5291364 Z" id="path1995"></path>
                        <path d="M231.371082,10.7982088 C238.587306,17.2566909 241.851129,25.6191394 243.958363,34.2836016 L245.150302,37.0352181 C234.676401,29.502375 225.16159,19.3762173 218.473327,8.68175933 L210.304932,0.418064584 C217.485806,3.46286535 225.227685,5.28037014 231.371082,10.7982088 L231.371082,10.7982088 L231.371082,10.7982088 Z" id="path1997"></path>
                        <path d="M65.9504534,1.78945807 C58.710409,8.13650868 53.6890225,16.1634982 48.3179648,23.6486997 C43.5033088,29.6099583 37.3445426,33.5408435 31.8866456,38.6671298 C34.8330782,32.5590823 34.9406693,25.2629365 39.1197806,19.6521124 C45.0664414,9.27734299 56.0936592,5.62734997 65.9504534,1.78945807 L65.9504534,1.78945807 L65.9504534,1.78945807 Z" id="path1999"></path>
                        <path d="M26.3565148,23.891543 C29.8777872,19.5141609 34.3420087,16.4720515 39.365701,15.1875053 C29.6111151,21.8884451 30.2458965,33.8970463 27.1534462,43.8798777 C26.1674591,47.5713664 24.4552397,50.97237 23.6022069,54.7564663 L23.850433,54.9539738 C25.4735073,50.6761166 28.3261833,46.6341856 31.8866456,43.1436513 C38.814682,36.7481878 49.0634143,32.7623502 52.4586496,23.3017198 C52.3034168,36.4484719 41.3361328,46.7840435 30.8422514,54.172797 C26.5148245,57.9691854 22.3418671,62.2958489 19.9587377,67.1762149 C19.7251173,63.8593672 20.4490438,60.5290627 20.2131177,56.9759033 C19.0718899,45.4994895 18.242678,32.4003869 26.3565148,23.891543 L26.3565148,23.891543 L26.3565148,23.891543 Z" id="path2001"></path>
                        <path d="M6.61986874,63.1346694 C6.32629887,51.5049429 11.1532549,42.0116465 17.955262,33.346413 C18.1527616,33.2476592 18.2933966,33.0501596 18.5477766,33.0978013 C11.0602694,44.475847 17.2543851,58.8076203 16.9131736,71.7449584 L15.9256441,84.9908419 C16.0724329,85.0869043 16.0724329,85.4849884 16.4197905,85.3320535 C16.8624471,83.8557602 16.9585095,82.2780297 17.2543851,80.7594696 C19.0180943,70.0750058 28.2969798,62.493742 36.4015935,55.1099778 C38.1322511,53.1787358 39.6623399,51.2179047 40.5514934,48.9515973 C39.8898143,54.2715429 38.2221674,59.6372179 36.0150382,64.5571671 C29.7071775,76.8585591 18.0543935,86.9520508 15.9256441,101.035606 C14.8927786,87.5391905 5.70381743,77.448768 6.61986874,63.1346694 L6.61986874,63.1346694 L6.61986874,63.1346694 Z" id="path2003"></path>
                        <path d="M0.955249048,79.6728086 C1.79368396,76.0354933 2.4346114,72.2713775 4.0177246,68.933778 C1.01826761,84.308411 11.3592141,95.3863552 14.7513803,108.712932 C16.1708011,113.697427 16.5181586,119.05081 18.5477766,123.727908 C18.7368244,123.830116 18.9012802,123.632608 19.0180943,123.482751 C13.9675043,109.326191 21.2582752,96.1709946 28.5843957,85.0869043 C30.3657797,82.0835992 31.3924991,78.7390825 32.2785836,75.2869747 C33.0570769,81.6939669 31.4370717,89.0723484 30.5064226,95.7244977 C28.7250307,104.188761 26.0660219,112.215759 23.7512937,120.428727 C22.2281221,125.560781 22.6285119,131.350667 23.4108455,136.727871 L22.6769326,136.141502 C17.3058749,126.237058 6.67058735,118.512091 3.51204941,107.691595 C0.912982226,99.0651662 -0.814614089,89.0723484 0.955249048,79.6728086 L0.955249048,79.6728086 L0.955249048,79.6728086 Z" id="path2005"></path>
                        <path d="M0.470325608,109.701225 C1.65304901,125.997292 19.1771753,134.608344 27.3002351,148.099377 C29.2222541,150.859839 30.8899009,153.913855 33.45823,156.224742 C33.0570769,154.488694 31.4370717,153.027778 30.8422514,151.249463 C28.0003329,145.590989 26.9643984,138.848161 27.6475927,132.009269 C28.4345378,123.685641 31.9258433,115.961436 30.5932619,107.206672 C37.7310979,122.596674 35.5631586,141.806122 39.5539854,158.482598 C40.599143,162.1299 42.7102176,165.386814 44.0935176,168.872729 C29.4282133,158.884522 9.43104911,149.38124 2.92491755,131.075543 C0.18290178,124.763842 -0.122960172,116.949721 0.470325608,109.701225 L0.470325608,109.701225 L0.470325608,109.701225 Z" id="path2007"></path>
                        <path d="M9.23046467,147.123384 C17.40732,165.621205 37.8863307,167.153592 51.6171456,178.417515 C54.1439712,180.656925 56.7914591,182.561269 59.6441351,183.89001 L59.790924,183.740923 C56.6385321,180.890553 52.9919937,177.644404 50.7848567,173.950217 C42.7486442,162.77621 45.5751857,147.123384 39.5539854,135.10556 C45.0249379,141.650118 50.0002173,148.452888 53.3032384,155.877377 C58.2162626,167.99741 60.093709,181.686721 71.4621461,190.848407 C59.1592117,186.79379 44.7459738,187.926566 33.8870521,180.351063 C22.0306225,173.06414 11.4491305,160.704333 9.23046467,147.123384 L9.23046467,147.123384 L9.23046467,147.123384 Z" id="path2009"></path>
                        <path d="M30.2458965,181.632154 C43.3565278,196.542993 64.7792588,191.567722 82.2434513,195.470167 C84.7103354,195.806775 86.968191,196.795068 89.5826351,196.393906 C87.500764,195.076694 84.6119672,195.219635 82.3395137,194.022314 C68.6502024,189.213032 66.6421074,174.392873 59.2107015,164.399284 C68.7047613,170.704068 76.6864149,179.207537 85.4450273,187.447017 C91.7405881,192.961779 99.318775,195.507059 107.303498,197.130133 C105.384556,197.831002 102.869251,197.638877 100.809666,198.178367 C86.4648216,201.705786 70.5276488,207.471079 55.3151737,202.309829 C45.4253277,199.195864 35.2219392,191.375597 30.2458965,181.632154 L30.2458965,181.632154 L30.2458965,181.632154 Z" id="path2011"></path>
                        <path d="M208.191551,216.388765 C193.417885,221.901992 177.99945,216.136699 166.460404,207.386546 C161.788688,204.417056 157.67029,200.141119 151.627567,200.519222 C149.435799,200.477719 147.322426,200.58531 145.459577,201.123266 C156.669705,206.339846 167.082893,213.531485 176.60385,222.728906 C174.999222,224.561009 172.921191,226.274763 170.963823,227.854807 C161.788688,217.968809 151.627567,208.453226 140.250678,202.895427 C138.022797,203.184385 135.90327,204.524647 133.894404,205.603627 C124.63243,211.459601 115.474199,218.992452 108.58843,228.214464 L102.671743,223.32833 C112.115085,213.775863 122.560553,206.339846 133.987397,201.027966 C122.758824,197.471345 115.429627,206.877802 106.906185,211.662491 C96.9740799,218.597444 82.6899482,221.854351 70.6867297,217.069661 C64.2313168,214.621215 57.9772595,211.015409 53.3032384,205.154817 C62.7496487,211.662491 76.8185981,212.344914 87.5614768,208.118161 C101.97702,201.865638 116.956638,193.939315 134.334755,197.729565 C137.046796,197.777206 139.681984,200.477719 142.244167,198.178367 C155.160368,194.824628 169.783405,197.130133 180.903616,203.033756 L192.365039,207.627855 C203.018001,211.567192 216.791083,210.477462 225.922408,203.986699 C221.227635,209.83038 214.814497,214.017172 208.191551,216.388765 L208.191551,216.388765 L208.191551,216.388765 Z" id="path2013"></path>
                        <path d="M224.023439,201.123266 C207.436116,207.386546 190.748882,199.698462 174.85551,197.130133 L171.795341,196.741272 L171.795341,196.644438 C179.39505,194.919919 186.771889,192.657452 192.820759,187.196486 C201.729992,178.632697 209.65785,169.817991 219.551537,163.06978 C212.214659,172.477 211.436929,185.866981 199.316904,191.915087 C196.317439,193.877838 192.531808,194.225196 189.436281,195.711476 C193.850555,195.806775 197.8921,194.225196 202.263337,193.782539 C218.515594,191.231114 237.107943,193.848635 248.509424,180.003697 C244.276518,189.651078 233.675816,197.729565 224.023439,201.123266 L224.023439,201.123266 L224.023439,201.123266 Z" id="path2015"></path>
                        <path d="M254.161752,154.452574 C247.611048,158.740047 240.971199,162.716268 234.676401,167.590874 L234.676401,166.992213 C244.318021,150.968193 239.604802,128.955245 245.545317,111.320451 L247.760906,105.412988 C246.52131,116.39871 251.292936,125.704485 250.95787,136.727871 C250.622805,143.386929 248.449483,149.291323 244.952802,154.608585 L245.545317,154.608585 C250.269293,148.404476 253.958098,141.806122 259.479006,135.896353 C268.048563,127.632658 276.76106,119.159164 277.886148,107.691595 C280.79646,126.835719 270.054352,143.614404 254.161752,154.452574 L254.161752,154.452574 L254.161752,154.452574 Z" id="path2017"></path>
                    </g>
                    <g id="g2019" transform="translate(41.061352, 0.463576)">
                        <path d="M97.2056124,120.601257 L100.177786,120.601257 L100.177786,195.221177 L97.2056124,195.221177 L97.2056124,120.601257 L97.2056124,120.601257 Z" id="polygon2021"></path>
                        <path d="M81.0713177,113.272445 L83.1708557,115.374682 L30.3656119,168.099232 L28.266066,165.995461 L81.0713177,113.272445 L81.0713177,113.272445 Z" id="polygon2023"></path>
                        <path d="M76.0237967,97.7275956 L76.0191852,100.699384 L1.39927241,100.610238 L1.4023415,97.6380648 L76.0237967,97.7275956 L76.0237967,97.7275956 Z" id="polygon2025"></path>
                        <path d="M83.1082228,83.3358728 L81.0056078,85.4365676 L28.2483912,32.6643677 L30.3506285,30.5636728 L83.1082228,83.3358728 L83.1082228,83.3358728 Z" id="polygon2027"></path>
                        <path d="M100.145128,77.2070735 L97.1729463,77.2047678 L97.2413475,2.58331255 L100.213521,2.5863895 L100.145128,77.2070735 L100.145128,77.2070735 Z" id="polygon2029"></path>
                        <path d="M115.07941,84.3253146 L112.979864,82.221165 L165.815468,29.5273448 L167.915006,31.6311166 L115.07941,84.3253146 L115.07941,84.3253146 Z" id="polygon2031"></path>
                        <path d="M120.842012,100.933012 L120.838935,97.961216 L195.458085,97.8674593 L195.463467,100.839255 L120.842012,100.933012 L120.842012,100.933012 Z" id="polygon2033"></path>
                        <path d="M112.226348,116.120895 L114.325894,114.016737 L167.134978,166.73707 L165.035432,168.840842 L112.226348,116.120895 L112.226348,116.120895 Z" id="polygon2035"></path>
                        <path d="M126.520466,24.5397733 C167.619902,39.9024998 188.506999,85.7247548 173.143894,126.821892 C157.780782,167.919022 111.958527,188.806497 70.8629321,173.443392 C29.76426,158.081437 8.87986235,112.259945 24.2398896,71.1620446 C39.6033794,30.0641437 85.4248711,9.17821152 126.520466,24.5397733 L126.520466,24.5397733 L126.520466,24.5397733 Z M125.317762,27.762101 C164.635814,42.4596858 184.61838,86.2988313 169.922338,125.61726 C155.225516,164.936854 111.383687,184.918649 72.0660216,170.221065 C32.7479702,155.525022 12.7661671,111.685106 27.4622173,72.3662909 C42.1598021,33.0478539 85.9997109,13.0652875 125.317762,27.762101 L125.317762,27.762101 L125.317762,27.762101 Z" id="path2037"></path>
                        <path d="M120.144983,41.5989646 C151.827975,53.4415676 167.926535,88.7645663 156.086238,120.446024 C144.242871,152.127096 108.917952,168.227575 77.2388006,156.385744 C45.5592633,144.543912 29.4572412,109.219371 41.2990809,77.5382987 C53.1409127,45.8576124 88.465446,29.7567472 120.144983,41.5989646 L120.144983,41.5989646 L120.144983,41.5989646 Z M118.936133,44.8397304 C148.826213,56.0129658 164.019478,89.3432464 152.846243,119.235631 C141.673,149.128402 108.340421,164.320519 78.4507275,153.145741 C48.5579569,141.972506 33.3643056,108.641847 44.5390755,78.74984 C55.7138533,48.8570694 89.0429771,33.6649605 118.936133,44.8397304 L118.936133,44.8397304 L118.936133,44.8397304 Z" id="path2039"></path>
                        <path d="M113.959705,58.1444066 C136.509444,66.5729427 147.96856,91.7133047 139.541181,114.261123 C131.109954,136.808564 105.969977,148.269215 83.4236933,139.839916 C60.874718,131.410994 49.4156012,106.271018 57.8449085,83.7235849 C66.2738224,61.1761441 91.4137987,49.7162561 113.959705,58.1444066 L113.959705,58.1444066 L113.959705,58.1444066 Z M112.851907,61.1100564 C133.763588,68.9268608 144.391958,92.2420295 136.574768,113.153333 C128.756807,134.064243 105.442787,144.691078 84.5314917,136.874266 C63.620574,129.058611 52.9937461,105.742671 60.8094015,84.8313754 C68.6262059,63.9212289 91.9406113,53.2936298 112.851907,61.1100564 L112.851907,61.1100564 L112.851907,61.1100564 Z" id="path2041"></path>
                        <path d="M107.003228,76.7559651 C119.278116,81.3443036 125.516804,95.0293812 120.928088,107.304654 C116.339364,119.578 102.655435,125.817074 90.38017,121.227972 C78.1052823,116.640405 71.8677429,102.955319 76.4553102,90.6800537 C81.0444199,78.4059372 94.7310399,72.1676266 107.003228,76.7559651 L107.003228,76.7559651 L107.003228,76.7559651 Z M105.803216,79.9640727 C116.309397,83.8903464 121.645869,95.6019152 117.721129,106.105791 C113.792936,116.609281 102.083673,121.946901 91.5805681,118.020628 C81.0755436,114.094362 75.7379153,102.383556 79.6626545,91.879295 C83.5904627,81.3754273 95.3028027,76.0374213 105.803216,79.9640727 L105.803216,79.9640727 L105.803216,79.9640727 Z" id="path2043"></path>
                        <path d="M145.052874,12.7540428 C193.123384,39.2077689 211.369131,99.3126289 185.776512,146.914348 C160.186961,194.517995 100.401034,211.683235 52.3309101,185.229894 C4.26117139,158.776931 -13.9849692,98.671308 11.607658,51.068818 C37.1987428,3.4655567 96.9823639,-13.6992977 145.052874,12.7540428 L145.052874,12.7540428 L145.052874,12.7540428 Z M143.370621,15.8860686 C189.695868,41.3787852 207.277638,99.2999434 182.614125,145.175231 C157.953698,191.048983 100.338401,207.591734 54.0150828,182.098632 C7.68868716,156.604381 -9.89308286,98.6832224 14.7700362,52.8087064 C39.430464,6.93418248 97.044989,-9.60741925 143.370621,15.8860686 L143.370621,15.8860686 L143.370621,15.8860686 Z" id="path2045"></path>
                        <path d="M156.71795,145.112598 C156.774051,145.62327 156.59883,146.880155 156.83707,147.168728 C157.083753,147.560272 158.004416,147.476895 158.403272,147.338566 C159.493009,146.928953 160.577365,145.489167 161.080726,144.409808 C161.435009,143.861866 161.673241,143.220168 161.595624,142.502387 L160.833271,140.193042 C160.642681,139.383039 160.386775,137.959393 159.522976,137.62317 C159.60367,137.408759 159.877259,137.073694 159.844979,136.766675 C159.645165,135.854086 158.120459,136.093853 157.575594,136.763991 C157.301241,137.099057 157.378858,137.814909 157.319687,138.23336 C157.304318,139.062957 157.072225,140.737907 156.741771,141.491423 C156.411317,142.243404 155.485271,143.257438 155.472979,144.086649 C155.538296,144.699916 156.196906,145.054576 156.71795,145.112598 L156.71795,145.112598 L156.71795,145.112598 Z M105.975746,138.705605 L106.246644,139.301197 C106.25855,139.403791 106.380747,139.598985 106.484875,139.590147 C107.175758,140.252598 108.143685,138.71752 106.988245,138.511946 C106.884108,138.520783 106.669697,138.435864 106.577483,138.547681 C106.374979,138.566891 106.169405,138.584951 105.975746,138.705605 L105.975746,138.705605 L105.975746,138.705605 Z M106.741168,137.189737 C106.273541,137.643922 106.103703,137.97015 106.863365,138.31521 L106.741168,137.189737 L106.741168,137.189737 Z M94.4182528,128.163689 C93.6678141,128.849968 93.7246866,128.433052 93.3404371,128.674361 C93.0545478,128.904912 93.2927875,129.193871 93.030727,129.63153 C92.9500336,129.845941 92.6526234,129.975819 92.6764521,130.181007 C92.6076653,130.496863 92.9354358,130.674004 93.2539754,130.748544 C93.6739601,130.813868 94.9008784,130.705128 95.2847423,130.464197 C95.6632314,130.119908 95.5141368,129.719527 95.6870523,129.393291 C95.7792744,129.281859 95.9610193,129.058611 96.0532414,128.946794 C96.097814,128.425749 94.9988609,127.800191 94.4182528,128.163689 L94.4182528,128.163689 L94.4182528,128.163689 Z M124.007467,124.992088 L124.117364,126.014967 L123.998244,126.853402 C125.111803,126.649363 125.797311,126.278562 126.785604,125.879321 C127.080708,125.749829 127.670146,125.489311 127.899155,125.675667 C128.227311,125.854343 128.054395,126.178651 127.973702,126.393062 C127.813087,126.82035 127.175999,127.602306 126.901647,127.937371 C126.070892,128.838054 124.844368,128.948328 123.807662,129.868613 C123.250497,130.435765 123.102173,130.965646 122.541939,131.533183 C121.985546,132.0988 121.585919,132.239057 121.300038,132.471143 C121.026456,132.806209 121.255465,132.992187 120.675251,133.354151 L121.005705,132.602169 C120.689848,132.526088 120.278701,132.563357 120.040469,132.27325 C119.906744,131.976997 119.8737,131.668443 119.942101,131.352973 C120.082736,130.720111 120.210308,129.053999 120.576882,128.607117 C120.669097,128.495685 121.464501,128.217107 121.758835,128.087607 L121.62204,128.720468 C121.928673,128.69357 122.438189,128.647463 122.631085,128.526809 C123.132148,128.378108 123.634746,127.298364 123.896807,126.862239 L122.509659,127.399801 C122.750968,126.758103 123.435704,125.456645 124.007467,124.992088 L124.007467,124.992088 L124.007467,124.992088 Z M96.5773626,128.072624 C96.3690976,129.022876 96.9496978,128.659378 97.3009035,129.042093 C97.527229,129.228064 97.5602728,129.535082 97.592931,129.84325 L96.7860054,130.018857 L96.4313449,130.566799 L95.975625,131.125113 L97.3604595,131.5182 C96.6668934,131.786406 96.2469008,131.720696 95.8030952,132.381998 L97.5391354,132.225608 C98.6738316,132.227143 99.5257154,132.460763 100.594702,131.847119 L100.368376,131.66114 L100.678078,130.702437 L99.906888,130.255554 L99.6356123,129.659963 L98.3372237,128.121808 L97.9057102,127.953512 C98.2719072,127.507007 99.0104316,126.716221 97.9560511,126.50181 L97.4350069,126.445323 L97.8907268,125.887009 C97.2651684,125.840894 96.7441241,125.78403 96.2764899,126.23975 C95.7285479,126.908346 95.7135645,127.736409 96.5773626,128.072624 L96.5773626,128.072624 L96.5773626,128.072624 Z M95.9729337,114.791005 L95.9491129,115.516088 L95.7108731,115.227515 L95.7404622,116.464798 C95.9222151,117.173355 96.7172264,116.895162 96.8989792,116.671528 C97.0926385,116.551259 97.1491254,116.131275 97.1283737,115.927236 C97.107622,115.723196 96.9823639,115.526846 96.8693901,115.434238 C96.651902,115.349319 96.5504648,115.358542 96.3452689,115.376217 L96.2795668,114.762958 L95.9729337,114.791005 L95.9729337,114.791005 Z M11.7432959,121.314426 C11.7029492,122.868721 12.1121764,122.831451 12.4591562,124.144815 C12.6393667,124.852224 12.3550198,125.08431 12.9179452,126.481059 C13.1888432,127.078185 13.3556126,127.682614 14.0019227,127.934294 C13.815944,126.193643 13.6026819,125.179601 13.0190047,123.577664 C12.6020969,122.581297 12.2835494,122.507143 11.9469494,121.294831 L11.7432959,121.314426 L11.7432959,121.314426 Z M152.94768,104.302884 C152.459688,104.553038 152.286772,104.87888 152.342874,105.389545 C152.295224,105.912132 152.747875,106.284467 153.248167,106.135766 C153.942119,105.867559 154.061239,104.098853 152.94768,104.302884 L152.94768,104.302884 L152.94768,104.302884 Z M56.3290398,104.07925 C56.0773511,104.619897 56.0297095,105.140941 56.5849464,105.504439 C56.5300019,104.993767 56.6787031,104.461965 56.3290398,104.07925 L56.3290398,104.07925 L56.3290398,104.07925 Z M86.5165292,104.576859 L86.8573551,104.856594 C87.6078017,104.168781 87.7688028,103.739958 88.3167448,103.071362 C88.7720791,102.513048 89.0790979,102.48615 89.3634369,102.254064 C89.5448041,102.03043 89.5225178,101.825242 89.5909191,101.509386 C89.7519202,101.080564 90.0481736,100.951072 89.9720917,100.234826 C90.0082125,99.611188 89.6016766,98.717423 88.897345,98.8837989 L88.7394209,98.3812007 C88.4327877,98.4084841 87.9324953,98.5568075 87.6481484,98.7885078 C87.3638015,99.0213648 87.5094336,99.4217546 87.1343992,99.7656575 C86.6786792,100.322822 85.883668,100.601015 85.6900086,100.72167 C85.3937474,100.852704 85.5293853,101.150492 85.0498445,101.503618 C84.3797136,101.97702 83.9374347,101.706122 83.5397362,101.845986 C83.0394438,101.993538 82.298228,102.783946 81.9228159,103.127849 C81.3748739,103.796445 81.2157929,104.225267 80.9863906,104.969946 C80.9060828,105.182822 80.7347098,105.508665 80.8584412,105.705401 C80.9817869,105.900603 81.2887978,105.872163 81.483614,105.751508 C81.8813124,105.613179 82.7566393,105.121724 83.0755645,105.196271 C83.3806632,105.167831 83.5055435,105.36419 83.7214891,105.447952 C84.0388798,105.522114 84.2429189,105.504439 84.4584789,105.587824 C84.67289,105.672743 84.9111297,105.961316 85.1374551,106.147672 C85.6811712,106.408198 86.2291054,105.739602 86.3897287,105.312314 C86.4700365,105.097903 86.5491874,104.883492 86.5165292,104.576859 L86.5165292,104.576859 L86.5165292,104.576859 Z M87.1105783,96.6659043 L87.1224927,96.7685062 L87.0075987,96.6755129 L87.1105783,96.6659043 L87.1105783,96.6659043 Z M88.0158721,97.4117394 C88.2867701,98.0080943 89.2842859,98.6417268 89.8502883,99.1085898 C90.0435621,98.9879354 90.1346273,98.8761183 90.214943,98.6624706 C90.4666237,98.1226027 90.3563413,97.098189 89.8114762,96.8368996 C89.4840913,96.6597583 89.0848583,96.7992443 88.7901395,96.9287361 C88.7782252,96.8265277 88.6441218,96.5287319 88.5311559,96.4349753 C87.7269137,95.6803028 86.7205683,97.8382558 88.0158721,97.4117394 L88.0158721,97.4117394 L88.0158721,97.4117394 Z M83.741084,96.0384258 C84.4304322,96.700105 84.4423465,96.8019357 85.3626237,96.7193222 C85.2223744,97.3521756 84.4035344,98.3566087 83.7334034,97.9001176 C83.292667,97.6292274 83.2480944,97.2196147 83.0336833,97.1354587 C82.7047639,96.9583253 82.6794006,97.684172 82.4976557,97.9070348 C82.0626796,98.6697735 81.3364474,98.6321182 81.264977,99.8790091 L81.6519179,99.6361657 C82.0450048,100.428486 82.7746997,99.5366407 83.2646124,99.2857311 C83.1735471,99.3975482 82.9906453,99.62156 82.9114865,99.8344365 C82.8400161,100.151442 83.1812355,100.431563 83.4774889,100.300536 C83.7722077,100.170659 84.1264904,99.62156 84.4096804,99.3890885 C84.6955619,99.1577739 84.7966213,99.1485509 85.0928826,99.0175245 C85.3772216,98.786202 85.7526416,98.4422991 86.038523,98.2098277 C86.8930903,97.5131767 86.9361283,97.9224038 87.2354586,96.8614917 C87.2116378,96.6570669 87.3038599,96.5452499 87.2815736,96.3404475 C86.8750378,95.4462968 85.4102733,96.198278 85.2953793,96.1060559 L84.6594489,95.9554267 C84.44503,95.8712787 84.0461826,96.0107568 83.741084,96.0384258 L83.741084,96.0384258 L83.741084,96.0384258 Z M88.4639114,95.821709 L87.9532391,95.8670528 L88.0888849,96.1648485 C88.6917714,96.0076877 89.0998418,95.970418 89.125205,95.2445635 C88.614155,95.2906784 88.5115531,95.2995158 88.4639114,95.821709 L88.4639114,95.821709 L88.4639114,95.821709 Z M56.2710183,97.7786998 L55.797238,100.096497 L56.0089577,101.110531 L56.4347029,103.139763 C56.6967635,102.703638 57.1670891,101.317261 57.2147386,100.796217 L57.3311593,99.9577823 C57.3668944,99.3349152 57.4472101,99.1212675 57.1763121,98.5249126 L56.5150185,99.1009013 L56.4746718,97.761025 L56.2710183,97.7786998 L56.2710183,97.7786998 Z M89.5225178,95.105463 C89.4572014,94.4910478 89.5701674,94.5848044 90.0912116,94.6409057 L90.0839087,93.6076547 C89.7876554,93.7375321 89.3795771,93.7748097 89.0936957,94.0065099 C88.6379758,94.5640605 88.6948483,95.0770307 89.5225178,95.105463 L89.5225178,95.105463 L89.5225178,95.105463 Z M86.4850199,93.7244688 L86.8350688,94.1064126 C87.5394004,93.9396511 87.7657259,94.1256298 88.4012785,94.2758655 L88.1526668,93.884321 L88.4147273,93.4474248 C89.0283714,93.3932436 89.0760209,92.8710505 88.8170373,92.3776752 C88.7036857,92.2842963 88.4877322,92.2005339 88.3747663,92.1067773 C87.2742708,91.4827534 87.1701422,92.4222478 86.9080816,92.8591361 L86.4850199,93.7244688 L86.4850199,93.7244688 Z M89.1309654,93.3832573 C89.3350046,93.3648113 89.5405782,93.3467509 89.7338598,93.2264821 C90.109272,92.8821936 89.89793,91.867003 89.5670904,91.6902472 C89.2500853,91.6153222 89.0790979,91.9403935 89.1013842,92.1452038 L89.0314484,92.4625945 L89.0863929,92.9740301 L89.1309654,93.3832573 L89.1309654,93.3832573 Z M56.2767787,95.9177714 C56.6414334,95.4716601 56.7682338,94.7362048 56.8158834,94.214775 C56.133838,94.5871102 56.1995479,95.2007621 56.2767787,95.9177714 L56.2767787,95.9177714 L56.2767787,95.9177714 Z M59.8979538,89.2863739 C59.996322,90.2081935 59.880279,91.0454716 59.5586625,91.9012036 C59.1475151,92.8691303 58.1557676,94.1986347 57.9475025,95.1469665 L57.7108052,94.8580081 C57.2654572,95.5185384 57.2147386,96.971003 57.4979287,97.6688029 C58.0547081,97.1020293 58.1826653,96.366574 58.5250258,95.7156524 C59.1997761,94.3116007 60.1004584,93.0939133 60.4458958,91.5115713 C60.5054597,91.0927355 60.5888365,89.9476675 60.3386903,89.5568863 C60.2149668,89.3609212 60.1123649,89.3705298 59.8979538,89.2863739 L59.8979538,89.2863739 L59.8979538,89.2863739 Z M152.965355,91.9980293 C153.501768,91.2256899 153.644709,89.6633285 153.849905,88.7130765 C154.335592,86.4990222 155.360005,85.4769143 155.061832,82.7118489 C154.996507,82.0978193 154.761345,80.8782039 154.025889,80.7367977 C152.879287,80.6334404 153.349605,82.1416206 153.281211,82.4578624 C153.314255,82.7656445 153.233562,82.9792843 153.152868,83.1937033 C152.65027,84.2722902 152.885433,85.4919056 152.903108,86.6273651 L152.68562,90.368809 L152.965355,91.9980293 L152.965355,91.9980293 Z M136.414153,74.3567033 C136.434896,74.561128 136.54787,74.6548847 136.673136,74.8500864 C136.786102,74.943843 136.899839,75.0368285 137.012813,75.1301995 C137.670652,75.4844822 138.013398,74.8339461 137.762866,74.4420081 C137.641448,74.2464287 137.221078,74.1807188 137.01589,74.1995504 C136.813,74.2179885 136.607812,74.2360489 136.414153,74.3567033 L136.414153,74.3567033 L136.414153,74.3567033 Z M151.702709,72.5710934 C151.801078,73.492913 152.170729,75.0110875 152.566508,75.8022585 L153.468724,77.4787427 L154.534634,80.6914618 C155.082576,80.0220942 154.791319,79.2209369 154.612258,78.5135283 C154.151155,77.1075564 153.486399,75.719645 152.933082,74.4258679 C152.548833,73.7365276 152.269097,73.0371931 151.702709,72.5710934 L151.702709,72.5710934 L151.702709,72.5710934 Z M146.053459,70.9072868 L145.97046,72.0515837 L144.573325,71.5562883 C144.550268,72.2832918 144.874576,73.3910823 145.452492,73.9590048 L146.574503,74.788988 C147.479797,75.5352008 148.39739,76.3836299 149.210462,77.240503 C149.925166,78.1073781 149.957446,78.4147746 150.204901,78.8055558 C150.431612,78.9915345 150.657552,79.1786622 150.952656,79.048407 C151.146316,78.9277526 151.193965,78.4067084 151.273887,78.1922973 L151.616641,77.5413757 C151.765728,77.0114941 151.372255,76.2199375 151.113272,75.725791 L150.436987,74.2360489 C150.154182,73.5374856 149.984344,72.9322854 149.510949,72.3547622 C148.707093,71.599712 148.093826,71.6546565 147.244634,71.4202649 L146.053459,70.9072868 L146.053459,70.9072868 Z M117.619684,72.3209471 C117.559743,72.7401607 117.524393,73.3641845 117.024101,73.5121223 C116.922656,73.5213453 116.503056,73.4556354 116.389319,73.3618788 L115.999687,74.5346158 C115.826772,74.8596871 115.505155,75.7157968 115.54089,76.0235868 C115.493249,76.5438598 116.207952,76.4796923 116.57145,76.0339587 C116.949553,75.6900558 116.997203,75.168626 117.259264,74.7317377 C117.68194,73.8667827 118.465037,73.4856101 118.560336,72.4439073 L117.619684,72.3209471 L117.619684,72.3209471 Z M149.29653,68.4446287 C149.600858,69.3483879 149.814505,69.432536 150.312492,70.2148696 C150.571476,70.7086304 150.503082,71.0248722 151.104049,70.8677114 C150.744391,70.3831735 149.740729,68.7155267 149.29653,68.4446287 L149.29653,68.4446287 L149.29653,68.4446287 Z M106.440303,73.9440214 C105.2937,73.8406562 106.050285,75.1167506 105.901198,75.6466322 C105.651052,76.186508 104.501758,77.0134142 103.944979,76.6495308 C103.649874,76.7797859 103.343241,76.8074549 103.024702,76.7321443 C102.708845,76.6568258 102.48252,76.4708549 102.175887,76.498516 L100.547052,77.6785481 C100.261171,77.9106418 99.8769211,78.1519506 99.4661594,78.1884491 C99.1622097,78.2161181 98.751448,78.2522389 98.5696951,78.4766363 C98.2838137,78.7079588 98.5547117,79.3043137 98.691892,79.6021095 L99.177201,80.2826202 C98.1766082,80.5788736 98.2538468,81.2951195 98.352215,82.2177025 C98.408694,82.7291381 98.6054303,84.5723917 98.751448,84.9727815 C98.9089944,85.476151 99.5791253,85.9326342 100.109393,86.0909518 C100.439847,86.2692421 100.960891,86.3249578 101.267524,86.29806 L101.338994,85.0503979 L101.646005,85.0235002 L101.961476,86.0294678 C102.062921,86.0194815 102.268109,86.0017988 102.369554,85.9921981 L103.641037,86.2922996 C103.754388,86.385285 103.754388,86.385285 103.867362,86.4782705 C104.001466,86.7760662 103.751319,87.3159421 103.783978,87.6233386 C103.962653,88.3303615 104.701186,88.4713821 105.31483,88.416052 C105.299846,89.2441071 105.380154,89.0304672 105.332505,89.5515114 C105.388991,90.0637183 105.082358,90.0913794 105.713685,91.1715087 C105.838951,91.3667105 106.097935,91.8608569 106.404568,91.8331879 C106.711201,91.8059045 107.348674,91.0247277 108.030719,90.6535415 C108.188258,91.1557541 108.200172,91.2587337 108.640908,91.5296317 L108.492199,92.0595133 L109.653408,91.3352012 C109.307962,92.916772 108.650131,92.5621116 107.932351,93.5569361 C107.679128,94.0971896 107.837052,94.5997957 107.687965,95.1300551 L107.801317,95.2230484 L108.188258,94.9817395 L108.483362,94.8522477 C109.391347,94.6666546 108.685867,95.7640731 108.70661,95.9688756 C108.739276,96.2766656 108.956757,96.3596568 109.171168,96.444576 L108.691627,96.7969386 L108.974431,97.4958875 L107.134263,97.6611145 C106.225892,97.8459443 105.472376,98.53375 104.710023,99.1189617 L104.733844,99.3237721 L105.0497,99.3986971 L103.286762,100.280933 C103.819713,100.438865 104.513672,100.170659 105.025879,100.124544 C105.526172,99.9758426 105.43395,100.088809 106.038379,99.9297355 L106.365756,100.108411 L106.3062,100.526854 L108.551755,101.255014 C109.084714,101.414095 109.47204,101.172778 109.802494,101.350305 C110.243231,101.621203 110.094144,102.151085 110.832668,102.290949 C111.681483,102.524962 112.354683,102.05156 113.05748,101.884798 L112.226348,102.787015 L112.610598,103.476363 L113.611183,103.18011 C112.869581,103.969361 112.905317,103.346871 111.47591,103.474829 C111.803672,103.65197 112.777359,104.080792 112.994847,104.165711 C113.527806,104.32517 113.81061,104.091164 114.561057,104.33555 C115.195453,104.484251 115.966643,104.932676 116.172217,103.982424 C116.297097,104.17916 116.422363,104.374354 116.535329,104.468119 C116.863485,104.645252 117.068673,104.627192 117.387599,104.701739 C117.807206,104.767449 118.801644,105.401459 118.757072,105.922889 C118.66485,106.03432 118.572628,106.146138 118.483483,106.257955 C118.345925,105.958624 118.212199,105.662363 117.973967,105.373413 C117.387599,104.701739 116.487687,104.989155 115.749541,104.847757 L114.263261,104.465042 L113.117036,104.360905 C112.494555,104.313264 112.142964,103.932083 111.529697,103.987036 C111.324124,104.005096 111.029405,104.134588 111.053233,104.339776 C111.073977,104.543815 111.300303,104.731714 111.413654,104.823928 C112.071493,105.178211 111.833261,104.889252 112.831155,105.523648 C113.384865,105.887154 113.578525,105.766499 114.111483,105.92558 L114.656348,106.187633 C115.076333,106.253343 115.156641,106.038932 115.576625,106.104256 C115.77913,106.086582 116.199115,106.151898 116.416217,106.236817 L114.641742,107.015696 L113.280729,106.828183 C113.551627,107.423766 113.664978,107.517531 113.209258,108.074303 L112.959112,107.684293 C112.685145,108.017823 112.708966,108.223397 112.434999,108.558077 L111.979271,109.115242 C111.898963,109.329653 111.624996,109.664719 111.419423,109.682393 C111.112789,109.710826 110.764275,109.328119 110.534873,109.14214 C110.094144,108.870856 109.888948,108.888917 109.388656,109.037626 C109.763682,109.624372 109.957349,109.503717 110.499138,109.764244 C110.942951,110.035134 112.07457,110.967325 112.426154,111.35004 C112.321639,111.358878 112.22058,111.368101 112.140272,111.582512 C111.958527,111.80576 112.157947,112.718357 112.396187,113.005781 C112.622512,113.193294 112.839992,113.276671 113.143556,113.250158 L111.925861,114.393692 C112.45882,114.551231 112.652479,114.430962 113.10513,114.804454 L112.083408,114.895141 L110.734686,113.879951 L109.3291,113.281282 C109.853213,113.337769 110.68089,113.367744 111.169276,113.116055 C112.044981,112.6246 111.628065,111.628627 110.949097,111.06877 C110.508361,110.797487 110.20135,110.825927 109.680305,110.76944 C109.260321,110.70373 108.614388,110.450892 108.203241,110.487784 L107.089682,110.691824 L107.16116,110.374811 C106.842227,110.300271 106.729261,110.206515 106.44338,110.438986 C106.103703,110.158865 106.094858,110.057806 105.674873,109.992103 L105.728668,110.502768 L105.264111,110.027839 L105.219539,110.548883 C104.969392,110.15733 104.957478,110.056271 104.528656,109.887967 L104.874101,111.199797 L104.704255,111.525647 C104.135569,111.990204 104.141329,113.023841 104.209731,113.638642 C104.340757,114.867087 104.06679,115.202152 103.962653,116.141647 C103.935756,116.86673 104.173995,117.15568 103.977637,118.208149 C103.921158,118.626591 103.530754,119.798557 103.358232,120.124785 L102.902505,120.681564 L102.560144,121.3321 C102.387229,121.658328 102.104416,121.890422 101.931894,122.21665 C101.770893,122.643938 101.997211,122.831451 102.122477,123.026645 C102.291938,123.631074 101.860424,123.46277 102.572051,124.330794 L102.208553,124.776142 L102.616623,124.738864 C102.387229,125.483543 102.851786,125.960014 103.554583,125.793253 C104.054876,125.644166 104.602818,124.97557 104.751904,124.444146 L104.957478,124.426085 L106.333097,126.680486 C106.571329,126.969445 106.627816,127.481651 107.047801,127.546968 C107.467786,127.612678 107.625718,127.18539 107.798248,126.859162 C107.979992,126.635914 108.17366,126.515259 108.355019,126.292011 C108.608242,125.752906 108.111027,124.969801 108.158668,124.448372 C108.215155,124.030307 108.501037,123.797835 108.548686,123.276791 C108.471448,122.560553 107.938111,122.401087 107.586906,122.018372 C107.235314,121.637199 107.193819,121.227972 107.137332,120.715765 C107.015143,119.588372 107.595743,119.226794 107.702948,118.2873 C107.738684,117.663276 107.387478,117.282103 107.34252,116.871341 C107.309862,116.564323 107.378255,116.248852 107.685274,116.22042 C108.390762,116.05365 108.477216,116.874025 108.533703,117.385083 L108.438404,118.427171 C108.381917,118.847156 108.209395,119.17185 108.265874,119.683671 C108.411892,120.084438 108.650123,120.373397 108.783849,120.671192 C109.022081,120.959765 109.055125,121.268319 109.28145,121.454297 C109.495861,121.537674 109.608835,121.629896 109.814409,121.612221 C110.02882,121.697141 110.243231,121.78014 110.448805,121.762465 C110.949097,121.613378 111.463995,120.636606 111.940467,120.285408 C112.226348,120.05178 112.646333,120.118639 112.952966,120.090207 C112.780436,120.416435 112.324716,120.974749 112.142964,121.196848 C111.756023,121.437771 111.050156,121.604533 111.014421,122.228557 C110.796933,123.075829 111.919715,122.974392 111.895894,123.699467 C111.848245,124.220897 111.056303,123.568441 110.814994,124.21014 C110.472625,124.861061 110.925276,125.234939 111.082815,125.737923 C111.115866,126.044934 110.946028,126.369242 110.87455,126.686632 C110.442658,127.448985 110.079538,126.964833 109.498553,127.326796 C109.010167,127.578477 108.474139,128.349668 107.973846,128.498762 C107.578068,128.637091 107.235314,128.35697 106.928681,128.383868 C106.520611,128.421138 106.178242,129.073216 105.499274,128.51336 C104.808391,127.85091 105.594565,127.471272 105.424727,126.865308 L105.007819,125.868949 C104.427211,126.230912 103.858525,126.697012 104.049107,127.507007 C104.33192,128.203658 105.010888,128.763506 104.656613,129.311448 C104.370732,129.54392 103.75708,129.598872 103.280608,129.951998 C102.700008,130.31511 102.095579,131.402157 101.90192,131.524346 C101.616038,131.756439 101.309405,131.783337 101.026593,132.015423 L99.9991101,133.038294 C99.9095793,133.150111 99.9095793,133.150111 99.8173572,133.261928 L98.5370369,132.859618 L98.6142677,133.575864 C98.1020687,133.621972 98.1020687,133.621972 97.6820761,133.556647 C97.3666135,133.480565 96.7410472,133.434458 96.5804317,133.861746 C96.4075241,134.187974 97.2594079,134.421594 97.4768881,134.504979 C98.7779601,135.112477 99.0342603,136.536132 98.4774809,137.104817 C98.1020687,137.447186 97.4557586,137.195505 97.0361516,137.130181 C96.0920536,137.007992 94.6061517,136.623734 93.6770371,136.604525 C92.4497411,136.713265 92.8432137,137.505207 92.6049739,138.147291 C92.5450323,138.566891 92.1580914,138.808199 92.089698,139.124056 C91.9970903,139.235487 92.0093903,139.338467 92.020919,139.441061 C92.0093903,139.338467 92.357519,140.651453 92.3456047,140.548859 C92.4916223,140.949249 93.2094028,140.885459 93.6293876,140.950783 C94.1592692,141.108708 94.2964495,141.408038 94.7368003,141.678936 C95.1686994,141.845705 95.3623587,141.725051 95.761214,141.586714 C96.6787998,141.503337 97.5541267,141.942531 98.9182174,141.199395 C99.2129362,141.069903 99.4988176,140.83781 99.5791253,140.623398 C99.8530924,140.289875 99.7163056,139.990537 100.091332,139.646634 C100.558966,139.190914 101.467329,139.006093 101.946492,138.653352 C102.321904,138.309442 102.051006,137.713858 102.744581,137.444494 C103.244873,137.296942 103.798961,137.660448 104.492921,137.390699 C105.094273,137.232775 105.74366,136.555341 106.348081,136.397794 C106.961347,136.342464 107.34252,137.031813 108.194404,137.265819 L111.574278,137.995128 C111.678406,137.98629 111.892817,138.07121 112.006169,138.164966 C112.911463,138.909645 111.606936,139.233952 111.106643,139.383039 C110.707788,139.521368 110.606343,139.530206 110.195581,139.567483 C110.311624,139.660083 110.320462,139.762677 110.433821,139.856434 C110.865712,140.024738 111.907801,140.138089 112.285904,139.793801 C112.467657,139.570553 112.446905,139.364979 112.414247,139.058346 C112.810025,138.920016 113.003685,138.799362 113.164686,138.37054 C113.131642,138.063907 112.994847,137.766111 113.280729,137.53364 C113.462482,137.310391 113.870174,137.273121 114.179877,137.244689 C113.703405,136.668692 113.316464,136.909624 112.690906,136.861974 C112.375435,136.787812 112.250169,136.591076 111.931629,136.516914 C111.624996,136.544969 111.342184,136.77744 110.910293,136.609136 C110.591745,136.533055 110.252068,136.253319 109.936598,136.178772 C109.605758,136.001638 108.766174,135.870604 108.813816,135.349174 C108.894124,135.134763 108.986346,135.023332 109.18885,135.005272 C109.28145,134.89384 109.38251,134.884617 109.486638,134.874245 L109.632656,135.276555 C110.722772,134.868485 110.368111,135.416419 111.312217,135.538616 C112.161024,135.772236 113.161617,135.475983 114.025021,135.812583 C114.558366,135.970129 114.38545,136.296357 114.850007,136.771286 C115.41601,137.238921 116.222935,137.061779 116.937261,136.997612 C116.848116,137.109429 116.744365,137.119801 116.755894,137.22086 C116.582979,137.547088 116.80969,137.733067 117.02717,137.816452 C117.794906,138.264869 118.936133,137.335754 117.959361,136.906932 L119.528648,136.146114 C118.769364,135.800676 118.393566,136.144579 117.39605,135.510175 C117.908643,135.464068 118.009317,135.455231 118.385114,135.110942 L118.444293,134.691343 L120.105786,133.818708 C119.579367,134.692878 120.171881,134.433509 120.370923,135.346491 C120.883516,135.300376 121.517526,135.449085 122.030118,135.404512 C122.428966,135.264641 123.518704,134.85657 123.804585,134.624099 C124.087389,134.392013 124.15886,134.076157 124.441672,133.844071 L125.624395,133.324176 C126.103936,132.971436 126.467442,132.524939 126.833245,132.078056 C127.014613,131.854808 127.196751,131.631551 127.515676,131.707255 C127.944498,131.875551 128.054395,132.899965 128.098968,133.309578 C128.235763,133.607374 128.38178,134.006221 128.414824,134.314389 C128.351806,135.663496 126.934691,135.894433 126.080115,136.591076 C125.511422,137.055633 125.076453,137.817986 124.483939,138.078512 C123.721586,138.663724 121.538277,139.479873 120.537685,139.776126 L118.414318,140.173447 C117.926318,140.425128 117.357632,140.889685 117.197008,141.316973 C117.035629,141.745795 117.294613,142.238792 116.806613,142.488938 C116.317849,142.740619 114.284391,143.024966 113.762969,142.970022 C112.923377,142.837453 113.206189,142.604981 111.979271,142.715264 C110.856497,142.816701 109.641493,143.029578 108.483362,142.822469 C108.664729,142.599221 109.031304,142.152331 109.099697,141.836868 C109.180005,141.622449 109.067039,141.528692 109.043218,141.324661 C109.033995,141.223216 109.010167,141.018028 108.897201,140.924271 C108.658969,140.635313 107.84282,140.708318 107.536187,140.736372 C106.830313,140.903134 106.955579,141.098336 105.832805,141.199395 L102.059844,141.641666 C100.222359,141.805736 98.7541393,142.558874 98.0394358,142.623042 C97.527229,142.669149 96.3806263,142.56502 95.8476678,142.405554 C95.4161543,142.23725 94.9635035,141.863766 94.4747397,142.115446 C93.9744473,142.264148 93.8138318,142.691435 93.2243863,142.950419 C92.631494,143.21133 91.5090978,143.31239 90.8358899,143.785785 C90.1657589,144.259565 90.5158078,144.641894 89.7311685,145.021918 C89.33347,145.161782 87.9947426,145.177922 87.4829214,145.224029 C86.3482253,145.22288 85.7791538,145.687437 84.7893185,146.086293 L83.6976683,146.494363 C83.3003475,146.632692 82.4930442,146.808685 82.3220489,147.134527 C82.1506758,147.459221 82.3992797,147.850773 82.4323314,148.158941 C82.4649896,148.465574 82.3962106,148.781422 82.3262748,149.098427 C81.7917817,149.870003 80.4146277,150.510167 80.6394186,151.628338 C80.8180945,152.335738 81.2380792,152.401063 82.0300214,153.053141 C83.070953,154.09715 83.8494464,155.578432 84.9706857,156.40803 C86.4196956,157.415918 88.5161646,158.675494 90.3086996,159.031311 L93.4207448,159.165415 C95.0883917,159.324873 96.3690976,159.72834 98.1201291,159.673388 L101.96763,159.01824 C102.786462,158.945235 104.001466,158.732359 104.852964,158.965987 C105.704848,159.199607 105.871609,159.805571 107.405153,159.667242 L109.540434,159.372523 C110.040726,159.224971 110.439582,159.085099 110.981763,159.34716 C112.297819,160.056103 110.067624,161.39291 111.085892,162.232879 C111.651894,162.698979 113.524729,162.840385 114.275168,163.082843 C114.796598,163.139716 116.440038,164.025414 116.792015,164.408122 C117.017955,164.5941 117.038699,164.799674 117.276938,165.088632 C117.512093,165.377591 118.048514,165.535515 118.080787,165.843683 C118.113831,166.150316 117.452923,166.72669 117.270784,166.949946 C116.711321,167.517098 115.627352,168.958419 116.237919,169.834124 C116.476159,170.122697 117.122469,170.374385 117.452923,170.551527 L120.433942,171.421085 C121.725791,171.925989 121.836451,172.950403 122.619556,173.499879 C123.173644,173.864534 124.093543,173.781149 124.820539,173.819961 L127.89378,174.577703 C128.962766,174.896628 128.516261,175.556002 129.355467,175.687028 C131.127628,175.839192 133.847358,174.250318 135.291371,173.294306 L138.22474,171.790343 C139.39824,171.168248 140.454927,170.452002 141.512384,169.737298 C143.516639,168.214126 145.157388,166.205268 146.151827,163.945107 C146.494581,163.294571 147.465199,161.759099 147.525141,161.341035 C147.661935,160.708173 147.003325,160.353513 147.256934,159.814794 C147.587388,159.059744 148.921504,158.009967 149.240429,157.155399 C149.505567,156.717732 149.42795,156.001494 148.983751,155.730596 C148.554929,155.562292 148.269048,155.794378 147.417549,155.560758 C148.060783,153.849687 149.22506,152.193955 150.193372,150.658877 C150.639869,149.999495 151.43758,148.79026 151.452949,147.96259 C151.456018,147.031933 150.6245,147.001958 150.276371,146.620786 C149.936694,146.34105 150.014311,146.126639 149.7999,146.04172 C149.371078,145.874951 148.686341,146.245759 148.266742,146.180049 C147.959338,146.206947 147.733406,146.020968 147.518987,145.937584 C147.188533,145.76045 146.791991,145.898779 146.485358,145.925677 C146.024255,144.520083 146.98565,141.952911 147.456739,140.566919 C148.373562,137.590126 149.600858,134.584138 149.156667,131.419832 L148.686341,128.980994 C148.552623,128.681664 148.305168,128.291646 147.906313,128.429983 C147.304576,128.587907 146.774316,130.392734 146.524548,130.931453 L145.142782,133.434458 C144.788507,133.9824 144.558727,134.727079 144.091479,135.182413 C143.715681,135.526701 143.123166,135.785685 142.635166,136.035831 C142.476856,135.534004 142.182515,135.663496 141.783668,135.80336 L139.930813,136.79665 C139.544258,137.037959 138.781905,137.62317 138.269313,137.669285 C137.861234,137.706555 137.623002,137.417597 137.022036,137.573986 C136.613958,137.611264 135.920006,137.880619 135.601073,137.804538 C135.181474,137.739213 134.728823,137.366878 134.308453,137.301554 C133.993368,137.225472 133.388561,137.383404 133.093457,137.512896 C132.071349,137.60511 130.472095,137.127104 129.415409,136.912693 C129.609076,136.792038 129.814264,136.774363 129.793513,136.56879 C129.942599,136.038908 129.126451,135.181264 130.127044,134.884617 C130.228481,134.87578 130.433677,134.85657 130.535114,134.847733 L132.282691,134.793937 L133.296339,134.600278 C133.817383,134.657143 133.954178,134.954938 134.668881,134.890771 L137.179575,134.252141 C138.203988,134.159542 138.617441,135.157435 139.677976,134.441197 C140.541766,133.84714 141.354846,131.808693 141.664548,130.851146 L142.55755,128.599822 L142.903373,127.018629 C143.293005,125.845128 143.64728,125.297186 143.504339,123.966139 L143.296074,122.019914 C143.206929,121.201074 143.040167,120.595111 142.197121,121.394733 C141.545428,122.07371 141.315648,122.818002 140.273559,122.705028 C139.996901,123.970751 140.172122,125.608431 138.909469,126.342729 C138.429928,126.69547 137.897355,126.536011 137.40014,126.685098 C137.101958,126.81459 136.714632,127.057433 136.500221,126.972514 C136.193588,126.999034 135.967648,126.813055 135.934604,126.506422 C135.991476,126.087972 136.685428,125.818616 136.982838,125.688739 C137.971902,125.289883 138.472195,125.140797 139.201504,124.248952 C139.644932,123.588036 139.692574,123.066614 140.046856,122.518672 C140.410354,122.072167 140.729279,122.146714 141.092785,121.701367 C141.366374,121.366301 141.869736,120.286943 142.131797,119.850432 L143.38215,116.11936 C143.986957,115.030779 144.999842,114.83712 145.264979,113.468803 L145.422518,113.972165 C146.503804,113.4615 146.494581,112.428249 146.283239,111.414216 C146.896505,111.358878 148.144553,111.45302 148.644845,111.305468 L150.964177,109.856843 C151.545171,109.493346 152.501183,108.787479 152.637978,108.154618 C152.798593,107.727331 152.134609,106.339797 151.896369,106.050846 C151.77418,105.855645 151.661214,105.761888 151.443726,105.678503 C150.910382,105.519422 150.207978,105.686192 149.823728,104.996458 C149.347257,104.418935 148.820059,102.39854 148.427357,101.60622 C147.581242,99.5112853 147.525141,99.9297355 147.128591,99.1381789 C146.869607,98.6447958 146.917257,98.1233739 146.860384,97.6111671 C146.715138,97.2115406 146.476906,96.9225901 146.456154,96.7170164 C146.410811,96.3077892 146.696692,96.0753178 146.971052,95.7410156 C147.402944,94.9778992 147.336856,94.3638617 147.804876,93.9081418 C148.179902,93.5642389 148.510356,93.7421436 148.680195,93.4163011 C149.30883,92.5332936 147.79027,91.8424109 148.302091,90.8656468 C148.564152,90.4283729 149.305753,89.6387364 149.817575,89.5922437 C150.214124,89.4539066 150.544578,89.6302846 150.940356,89.4919476 C151.327683,89.2498754 151.354581,88.5240208 151.515196,88.0959699 C151.914051,87.0262125 152.53961,87.073862 152.691774,85.6133234 C152.739415,85.0919014 152.763244,84.3652835 152.515781,83.9744945 C152.039309,83.3962 151.369178,83.8703659 151.208563,84.2984247 C150.854288,84.8463588 150.931905,85.5641393 150.997229,86.1781768 C150.961108,86.8014295 150.845065,87.6387076 150.490782,88.1874208 C150.058883,88.9505451 149.174341,88.4095203 148.924581,88.0187312 C148.802384,87.8227662 148.883077,87.6091263 148.859256,87.4035527 C148.873854,86.5751041 148.635622,86.2869169 148.843887,85.3378218 C148.900752,84.9186004 149.290384,83.7466345 149.168959,83.5510551 C149.132846,83.2436507 148.1945,82.1915759 147.959338,81.9018542 C147.495166,81.4269171 146.658265,80.3644625 145.884391,80.8478514 C145.201961,81.2186521 145.344901,82.5504622 145.21733,83.2851542 C145.148165,83.6013881 145.008293,84.2342493 144.701668,84.2619183 C144.511078,84.3825727 144.169095,84.1024517 143.945461,83.916473 C143.367544,83.3477871 143.016339,82.9658433 142.91797,82.0440237 C143.233827,82.118571 144.085325,82.3529626 144.144503,81.9337412 C144.099931,81.524514 143.615007,80.8440111 143.20386,80.8812808 C142.784253,80.8155709 142.727388,81.2340211 142.170223,80.8709089 C141.717572,80.4978025 140.71391,78.8301478 140.237439,78.2522389 C139.639549,77.4787427 138.745784,76.8355095 137.870457,76.3970788 C137.34019,76.2387691 135.615679,75.5655611 135.136901,75.9190726 C134.943242,76.039727 134.975515,76.3463523 134.895592,76.56 C134.782619,76.467778 134.668881,76.3740213 134.46677,76.3920817 C133.728238,76.2518323 133.51075,77.0983334 133.463108,77.6197633 C133.483852,77.8241801 133.528425,78.2345641 133.23332,78.3640559 C132.93591,78.4935478 132.709207,78.307569 132.482496,78.120827 C131.928408,77.7573213 131.916879,77.6547272 131.169132,77.4118839 C131.315142,77.8122737 131.461159,78.2130491 131.708614,78.6038302 C132.309589,79.3773265 132.717659,79.3400489 132.622368,80.3832941 C131.761647,80.0466862 130.787951,79.6178641 130.198514,78.9461986 L130.993911,78.6679978 L130.972396,78.4639586 C130.645011,78.2860539 129.522229,77.4564564 129.477656,77.0472292 C129.444613,76.7398249 129.852691,76.7025552 129.82041,76.3955364 C129.891881,76.0793025 129.561427,75.9021612 129.722042,75.4741102 C129.995632,75.1390448 130.588146,74.8792899 130.543574,74.4696771 C130.519745,74.2648747 130.293805,74.0788959 130.079394,73.99474 C129.638272,73.7238499 128.855175,73.1743655 128.387926,73.6293221 C128.012892,73.9732249 128.295704,74.6714105 128.087439,75.6205056 C127.768514,75.5463439 127.223649,75.2842912 126.907793,75.2097439 C126.488186,75.144034 125.999422,75.3941802 125.454557,75.1336621 C124.704496,74.8904331 124.436289,74.2940703 123.789979,74.0416183 C122.598804,73.5286482 121.598219,73.8256727 120.48466,74.0289407 C119.975145,74.0742844 119.155919,74.1480605 118.667919,74.3982068 C118.2806,74.6402868 118.107685,74.9653581 117.937846,75.2908229 C117.482898,75.8491368 116.582979,76.1357894 116.672895,76.9546215 C116.851185,77.6628013 117.476744,77.710443 117.702683,77.8956505 L118.35514,79.1821247 C117.651965,79.3481229 117.321511,79.1717528 116.711321,79.2263117 L114.290159,79.7531242 C113.051334,79.761576 112.667085,79.0722278 111.907801,78.7267904 C111.478979,78.5584865 111.172345,78.5857699 110.841891,78.4086285 C110.502214,78.1296643 110.469556,77.82226 110.356197,77.7281177 C110.117965,77.4403162 109.075876,77.3261934 108.769243,77.3538624 C108.789995,77.5594361 108.801909,77.6612589 108.620157,77.883744 C108.447627,78.2099721 107.571922,78.7021984 107.163844,78.7386969 C106.97057,78.8593513 106.651637,78.7848119 106.437226,78.700656 L106.494098,78.2814425 C106.541748,77.7611694 106.234729,77.788445 105.838951,77.9271598 C105.234136,78.0847062 104.871024,78.5308175 104.391476,78.8839434 C104.564391,78.5584865 104.725007,78.1304277 104.998982,77.7961334 C105.374394,77.4522305 105.874686,77.3031438 106.363064,77.0529897 L107.908522,76.0873687 C108.295463,75.8460598 108.888363,75.5855417 109.171168,75.3534558 C110.025743,74.6564192 110.204419,72.4700339 109.98117,71.3526348 C108.399977,72.0104737 108.819584,72.0761836 107.750598,72.6894421 C107.363657,72.9307509 107.158083,72.9495825 106.863365,73.0790743 C106.580167,73.3119314 106.508696,73.6285509 106.440303,73.9440214 L106.440303,73.9440214 L106.440303,73.9440214 Z M117.286161,70.1799056 L118.292892,70.9168954 L119.060628,72.2948206 C119.650837,72.0350657 119.730759,71.821418 120.130378,71.6823255 C120.323274,71.561671 121.595142,71.8610013 121.300038,71.0606073 C121.187072,70.9668507 121.074098,70.8738574 120.961132,70.780872 L120.892731,71.0971059 C120.553054,70.8173705 120.100411,70.4442641 119.668512,70.275968 C119.236613,70.1084353 117.794906,70.1345618 117.286161,70.1799056 L117.286161,70.1799056 L117.286161,70.1799056 Z M120.746721,70.6967161 C122.176128,70.5687667 121.928673,70.1768287 122.747899,70.1038238 C123.143677,69.9639521 123.777687,70.1145813 124.198057,70.1799056 L124.141185,70.5983479 C125.001906,70.9349558 124.948111,70.422749 125.5829,70.5722213 C126.229202,70.8246733 126.62498,71.6170011 127.690898,71.9340062 C128.11972,72.1030735 128.337208,72.1864582 128.724526,71.9451494 C128.971218,72.3367018 129.075732,72.3278644 129.48381,72.2905868 C129.531452,71.7695504 129.825793,71.6392874 129.688998,71.3414917 C129.555281,71.0429326 128.477071,70.62294 128.384849,71.6657996 C128.021352,71.1804906 128.215011,71.0598361 128.081293,70.7628116 C127.717795,70.2775025 126.991555,70.2394616 126.490499,70.387785 C126.279157,69.37298 126.413646,69.6707679 124.998837,68.9710478 C124.555409,68.7005354 123.581722,68.2709421 123.057601,68.214463 C122.435119,68.1668135 122.274496,68.5948723 121.785732,68.8457818 C121.512143,69.1808473 121.193218,69.1055367 120.910413,69.3380081 C120.636053,69.6723103 120.702148,70.2871111 120.746721,70.6967161 L120.746721,70.6967161 L120.746721,70.6967161 Z M142.343139,66.1737098 L143.635751,67.6092629 C144.121446,68.2890024 144.606369,68.9695132 145.184286,69.5374358 C145.636929,69.9105422 146.283239,70.1629942 146.884976,70.0058334 C147.283832,69.8663552 148.489605,68.6209988 147.504389,68.0888115 C147.176241,67.9120557 146.685163,68.1625876 146.381607,68.189871 C146.405436,67.4640164 146.360863,67.0544115 146.181802,66.3466173 C146.16105,66.1418149 146.116477,65.7325877 145.716859,65.8716881 C145.228858,66.1225977 145.803698,67.6211772 145.032122,67.1735235 L144.704737,66.99639 L144.36506,66.7166547 C143.999257,67.1623804 144.430385,67.3306843 144.782361,67.7126281 C145.235004,68.0865057 145.583133,68.4684495 145.651534,69.0824792 C144.541053,68.3543268 144.475728,67.7410604 143.761017,66.8745788 C143.299151,66.3988784 142.959474,66.1187574 142.343139,66.1737098 L142.343139,66.1737098 L142.343139,66.1737098 Z M146.777385,65.1562134 C147.057121,65.854391 148.153005,67.4106065 148.903829,67.6530721 C148.394314,66.7685222 147.739552,65.482827 146.777385,65.1562134 L146.777385,65.1562134 L146.777385,65.1562134 Z M71.1130783,72.6686903 C71.4197115,72.6414148 71.8293164,72.6045228 72.0329699,72.5860768 L74.6985182,73.3807104 C75.4370505,73.5213453 76.1636683,73.5597719 76.6489774,74.2395114 C75.3206219,74.3593946 75.603812,74.1265376 74.5494315,73.9113553 C73.6084025,73.7891664 73.3225211,74.0216378 72.5959032,73.9828335 C72.1759106,73.9171236 71.9614996,73.8333533 71.6429599,73.7588139 L68.9063269,74.2106935 C68.179709,74.1726526 68.0217848,73.6700465 67.5898857,73.5017504 C67.1491493,73.2308524 66.750294,73.3699528 66.3629754,73.612025 C65.6720927,73.8810028 64.9992625,74.3543975 64.327597,74.8285634 C63.0753234,75.6639293 61.6313106,76.6210906 60.7302427,77.8391714 C60.1035275,78.7221789 60.2599171,79.2255405 59.6328242,80.108548 C58.995737,80.889347 57.5275178,81.6413282 56.5357624,82.9716038 C55.8168329,83.9664283 55.8821573,84.5804579 55.6097169,84.9155234 C55.4264295,85.1380085 54.1637839,85.872307 53.8675306,86.0017988 C53.5728118,86.1312985 53.2661786,86.1589596 53.0725114,86.2803853 C52.7881724,86.5124711 52.6167915,86.837928 52.4442617,87.1637784 L51.4317624,88.2880947 C51.1697018,88.724983 50.1064839,90.3711148 50.0484624,90.7903361 C50.0230992,91.5161828 51.1935305,91.8251217 50.5756527,92.8107233 C50.4845874,92.9217691 50.3938998,93.0335861 50.3028345,93.1457887 C49.6315468,93.6191834 49.4513363,92.9113971 48.9302921,92.8549102 C48.2943618,92.7050523 47.3490991,93.5135124 46.7831045,93.0474206 C46.4318988,92.6654768 46.5821345,92.1355952 46.5391043,91.7255968 C46.3811723,91.2229986 46.1548548,91.0366342 46.0088371,90.6362444 C45.7483111,90.1417203 45.9554272,89.1926173 45.2315006,88.2239193 C44.8595432,87.6375586 44.4291786,87.4692547 44.0971901,88.2235416 L43.8558812,88.864469 C43.45088,87.9710896 43.6798967,87.2264113 42.9413645,87.0850051 C42.0007211,86.9635795 41.7132973,88.126708 41.1653553,88.79569 C39.7981956,90.4694829 39.5707212,90.2831186 38.5236357,91.1000384 L37.1345674,92.5690288 L36.2680858,93.1638491 C35.8019861,93.6191834 35.4922838,94.5775094 35.2525095,95.2192002 L34.2503821,99.3414469 C34.0313596,100.187177 33.6636359,101.565873 32.7660227,101.851755 C32.4709183,101.981246 31.5391123,101.962029 31.2217216,101.88749 C30.8928022,101.710348 30.6561048,101.421776 30.3387141,101.345694 C30.032081,101.374126 29.2132489,101.446753 28.4539649,101.101308 C28.0013219,100.729358 27.4026535,99.9550909 26.9707622,99.7883294 C26.5403977,99.6184909 26.1311705,99.6557606 25.7231001,99.6930303 C25.2108933,99.7376029 24.4961898,99.8029272 24.0761972,99.7376029 C23.0102879,99.4198345 22.3220965,97.8271127 21.9170952,96.932962 C21.7714632,96.5325722 21.5001875,95.9362174 21.171268,95.759076 C20.7186172,95.3859696 20.1722176,96.0553294 19.6392591,95.896634 C19.2192743,95.8305464 18.2901519,94.88068 17.7468292,94.6186194 C17.6334698,94.5252484 17.2926439,94.2462842 17.1005191,94.3669387 C16.8964799,94.3846135 16.8369239,94.8045982 16.7577651,95.0174747 C16.7431594,95.846301 16.9710273,96.0322798 17.444422,96.6105742 C17.5573879,96.7031819 17.9089793,97.0858969 17.6230978,97.3179828 C17.1466262,97.6707231 16.4588204,96.0783869 15.9227849,96.8503485 C15.8420916,97.0647596 15.8540059,97.166968 15.7617838,97.2776361 L15.5577526,97.2964598 L15.0636061,95.5834771 L14.9875243,94.8664599 L14.2997106,93.2741316 L13.4570498,94.0733688 L13.2557021,93.1607722 L12.9744321,92.4625945 C12.816508,91.9599884 12.4088153,91.9964948 12.0214888,92.237418 C11.2591358,92.8234009 10.7319455,93.697571 10.2554739,94.0503113 C9.67487364,94.4130458 9.23260262,94.1421478 8.83528978,94.2812482 C8.34690378,94.5321657 8.00414985,95.1827017 7.85391416,95.7137322 L7.06773239,99.9193557 C6.38722949,103.18587 5.95263906,103.948223 6.32766561,107.429535 L6.7415043,109.356551 L7.13036536,112.009799 L7.47734519,113.322786 L7.68253325,113.303568 C7.53959255,111.97253 7.58147376,109.487192 7.95957728,108.213017 C8.32884339,106.83702 8.91866662,106.576494 8.94825575,104.919227 L9.19264155,106.242971 C9.75095549,105.673892 9.70753186,105.264665 10.4910223,104.885027 C10.7515404,105.377638 10.8645143,105.471781 11.0328182,106.077736 C11.1907424,106.579186 11.2337804,106.988798 11.4942986,107.48333 C11.7536678,107.975934 11.9680789,108.060854 12.2166906,108.452406 C12.4549303,108.73983 12.6113199,109.243199 12.7569441,109.643581 C13.0401421,110.342152 13.2633905,111.460323 14.1133542,111.693943 C14.4457283,110.940427 14.3473602,110.019001 14.3592745,109.189781 C14.4395823,108.97537 14.476852,108.352889 14.6689768,108.232235 C15.1692692,108.08314 15.3717738,108.996122 15.404432,109.302755 C15.6964674,110.103921 15.909336,111.119489 16.3946451,111.79808 C16.9022404,112.684156 17.3014812,112.544292 17.9654662,113.931818 L18.1157097,113.401937 C18.3973653,114.100122 18.0430826,114.649599 18.814273,115.096481 C18.7697005,114.686876 18.6863158,112.937379 18.8557686,112.611151 C18.936462,112.39674 19.2430951,112.369842 19.4486688,112.352168 L19.9251405,115.824256 C19.9681785,116.233869 20.1245681,116.737238 20.3628,117.026189 C20.9403311,117.594882 21.6120045,117.119945 21.8709881,117.614092 L22.274447,119.438128 C22.6214269,120.7515 23.105587,122.36266 23.644306,123.553835 C24.0508418,124.448372 24.591481,125.641089 25.2823637,126.302383 C25.5205956,126.591341 25.8706523,126.974056 26.2679652,126.833799 C26.6671982,126.69547 26.509274,126.1921 26.5776753,125.87663 C26.6372313,125.458187 26.8293561,125.337533 26.8992919,125.02052 C26.9469335,124.499098 26.7770951,123.893135 27.0391556,123.45701 C26.902361,124.089871 27.116772,124.173248 27.1836309,124.788049 C27.2716271,125.606888 27.4725893,126.519871 27.7657735,127.319493 C28.2038187,128.522583 28.5296611,129.628839 29.2639675,130.700902 C29.7508111,131.381405 30.8720583,132.210617 31.5510267,132.770473 C32.4801413,133.72034 33.3958149,134.569147 34.5170542,135.398358 L35.8542471,136.312875 L36.9647289,137.041036 C37.950716,137.572452 38.0548525,136.631423 38.6681109,136.577627 C38.9866584,136.652174 40.1063633,137.481386 40.4460403,137.761499 C42.1674827,139.364979 41.6014803,138.899265 42.7895864,140.343285 L45.4697325,143.203642 C46.1606152,143.864936 47.0182595,145.133349 47.9608308,145.254004 L48.9033943,145.377735 C49.9577827,145.593681 51.1370436,146.004443 52.238688,145.697817 C52.6483008,145.66054 52.9326477,145.429603 53.1155495,145.206354 C53.3883676,144.871289 53.5489831,144.444001 53.9585959,144.406731 C54.378195,144.472441 55.3538102,144.901264 55.7837891,145.070716 C56.8723703,145.592146 58.4135944,146.488217 59.5705768,146.693791 C60.7287082,146.900899 61.5598402,145.998682 61.36925,145.188679 C61.0772225,144.387522 59.8533813,143.567148 59.1997761,142.282208 C58.5669149,141.202464 58.1292554,140.000917 57.405321,139.031448 L55.743828,137.009526 L54.7490035,135.444473 L54.2636945,134.764348 C54.1388063,134.569147 53.9601304,133.861746 53.9270866,133.553578 L52.789707,130.657479 C52.2713541,129.670342 51.2469404,129.762557 50.5829555,128.375031 C51.0578848,128.952562 51.9647209,129.698775 52.6094887,129.950456 C52.3178468,129.149298 51.6638482,127.864359 51.1770046,127.183856 L50.1364586,126.140233 C50.7020754,126.605939 51.1547183,126.979817 51.8932506,127.11968 L52.1107386,126.272408 C52.4323552,125.416298 52.727074,125.286806 52.7197712,124.253555 C52.6348519,122.504066 51.0190805,119.960715 50.7885292,117.810828 C50.6886265,116.889016 50.8957347,115.940684 51.0014057,115.00119 L51.029838,113.343915 C50.9967942,113.036904 51.178547,112.812113 51.2381031,112.395206 L51.2188859,111.259361 C51.3572229,110.626499 51.4375307,110.412088 51.3722064,109.796902 L50.8776743,108.084682 L50.8480852,106.845858 L50.6709517,105.208178 C50.5383829,103.979733 51.1992909,103.403358 51.3157194,102.566458 C51.3752755,102.146859 50.8450161,101.056735 50.6171562,100.870764 C50.2882367,100.693623 49.5854396,100.860385 49.8355859,100.32128 C50.0872745,99.7821755 51.0148546,100.73205 51.2530865,101.021 C51.5508822,99.9608592 51.3245568,99.7733381 51.1235947,98.861127 L50.7347336,96.2078787 C50.5560577,95.5000924 50.1034069,95.1277493 50.0692141,94.8203528 C50.1391421,94.5037333 50.4457752,94.4760643 50.8092809,94.0303308 C51.1754701,93.5838339 51.3245568,93.0535666 51.3722064,92.5325224 L51.3898812,90.7730391 C51.5047751,89.935761 52.2117902,88.8383424 53.1113236,88.5509186 C54.0196943,88.3664823 54.9472743,89.3163486 55.4579388,89.2710049 C55.9701456,89.2245121 56.2202918,88.6857931 56.3928217,88.359565 L57.5720904,84.9454982 L57.777664,84.9266666 C58.2852594,85.812751 58.8185957,85.9710608 59.5079438,86.6331255 L60.0973815,87.3040277 C60.210733,87.3970131 60.4044002,87.2763587 60.5976739,87.1557043 C60.9611796,86.709593 61.3988391,85.0161973 61.1398555,84.5224365 C60.9938378,84.1220467 60.5411949,83.7489403 60.3832629,83.246342 C60.3506047,82.9389377 60.5219777,82.6134808 60.692973,82.2884016 C60.9342818,81.6459397 61.0610823,80.91087 61.5267964,80.4555278 C62.4501506,79.4422652 64.2903273,79.2766526 65.4115666,80.1070134 C65.9791036,80.5731131 65.9076332,80.889347 66.145873,81.1783054 C66.4970787,81.5602492 67.0077431,81.5149054 67.1760471,82.1201056 C67.1983333,82.324908 67.1522184,82.8459522 67.0822904,83.162194 C67.1491493,83.7766093 67.2713382,83.9721887 67.0315639,84.6138874 C66.6892035,85.264809 66.1205097,85.7293663 65.8895728,86.473659 C65.5694908,87.3297687 66.0920774,87.3866412 65.9641201,88.1213253 C65.7347256,88.8660036 65.1764038,89.4331628 64.9470093,90.1774554 C64.6834142,90.6147293 64.7283724,91.0239565 64.2519007,91.3770824 C63.8645742,91.6180057 63.2394014,91.5711273 62.8313232,91.6076337 C62.2284367,91.7647945 61.7504305,92.118306 61.2620445,92.36883 C61.2827962,92.5740259 61.3050825,92.7780572 61.4288139,92.9740301 C61.5982668,93.5792224 62.1093168,93.5331152 62.6080747,93.3847918 C63.4150003,93.2099562 64.4839866,92.5963122 65.2778489,93.2487684 C65.9671971,93.9112188 66.1769966,95.856673 66.7652853,96.5271895 C67.3309021,96.9932892 67.740507,96.9567829 68.3760596,97.1066408 C68.8064242,97.2749448 69.1357214,97.4520861 69.4750127,97.7318215 C70.2673405,98.3838921 70.0171943,98.92376 70.3772374,99.4079201 C70.7169144,99.6868843 71.0131678,99.558927 71.3632245,99.9401075 L72.8652588,102.389317 L73.90043,101.469425 C74.2516357,101.851755 74.6612485,101.814477 74.7073556,101.293441 C74.6746974,100.986807 74.507928,100.382378 74.3707556,100.083048 C75.0616383,100.745499 75.1169684,101.257705 75.1138915,102.188355 C75.1361777,102.392394 75.05587,102.606805 75.1807503,102.803541 C75.2241739,103.211234 75.7213895,103.994716 76.0606887,104.274452 C76.5029597,104.543815 76.7976785,104.414323 77.185005,104.173006 C77.5392799,103.625072 77.7463959,102.675198 78.2927955,102.00661 C78.7500578,101.448288 79.658043,101.263851 80.4787952,100.258647 C80.2643842,100.17527 79.618074,99.9235816 79.6864753,99.6065765 C79.8470908,99.1792889 80.4607427,99.1239588 80.8476757,98.8822644 C81.4167551,98.4177071 81.8513455,97.6545828 81.978146,96.9202843 L80.7285637,96.8249853 L79.991566,96.6843503 L78.9686948,96.776958 L77.9623415,96.0395826 L76.5091058,95.9631152 C76.759252,95.4240105 76.9317818,95.0977825 77.5454338,95.0428301 C77.8520591,95.015169 78.2824236,95.1842362 78.4760829,95.0635818 C78.8734036,94.9237181 78.8288311,94.5141053 79.1147125,94.2820194 C79.6611121,93.6126518 80.4665032,93.4370529 80.5844662,92.5993813 C81.4240579,92.7304155 81.6073453,92.5079304 82.0257955,92.5732547 C82.8876657,92.9090914 83.1558723,94.4361033 83.5505016,95.2280455 C82.4841989,94.9102692 82.6851689,95.8224802 82.6598057,96.5483269 C83.0471322,96.307018 83.5028521,95.7494674 83.900165,95.6099893 L85.2404348,95.5930778 C85.5470601,95.5654167 85.6377476,95.454363 85.9343866,95.3241079 C86.6383326,95.1581097 87.1028977,95.6330389 87.4752329,96.219793 C87.8625595,95.9784842 87.8402732,95.7732961 87.5912759,95.3821293 L88.1023259,95.3360143 L87.8102984,94.536006 C87.299634,94.5813497 87.18474,94.4883564 87.036031,95.018238 C86.5953024,94.7481113 86.5953024,94.7481113 86.0727158,94.6912466 L86.4492847,94.3481071 L86.4254639,94.1425334 C85.553214,93.7041027 86.5537989,93.4078493 86.7025079,92.8771965 C86.7724359,92.560577 86.649098,92.3657609 86.5238321,92.1697958 L87.8087639,91.6406775 C88.3551635,90.9720811 88.8197286,91.4470182 89.0491231,90.7023399 C90.1035037,90.9182856 89.7565317,89.605307 90.5530775,89.3267206 C90.7452023,89.2060661 91.0622153,89.2813768 91.2677889,89.2625531 C91.5625077,89.1330612 91.8572266,89.0035694 92.1550223,88.8733064 C92.5630927,88.8368 92.7686664,88.8191252 93.1644447,88.6788759 C93.5517712,88.4379526 93.906046,87.8892394 94.1800209,87.5549452 C94.3617738,87.3305399 94.7368003,86.9874082 94.8174937,86.7729893 C94.8858871,86.4567554 94.7517838,86.1597308 94.6983738,85.6467528 C95.1179729,85.7120771 95.4249917,85.6847937 95.6958897,85.3504995 C95.9817711,85.118028 95.9371985,84.7084152 95.5052994,84.5404969 C95.4038622,84.5501055 95.097229,84.5777666 94.9961696,84.586604 L96.4075241,83.3224239 L96.6845681,82.0567014 L96.2853273,82.1958018 L96.4255766,81.5629406 L95.2997258,81.6643857 C95.4814786,81.4411293 96.0294206,80.7717696 96.2111656,80.5485211 C96.6907142,80.1953952 97.2117584,80.2522599 97.4530672,79.6094123 C96.4432593,79.8038428 95.2017432,80.7421804 94.5642705,81.5229795 L93.569446,82.8524839 L93.6293876,82.4340337 C92.6288026,82.7310583 92.6941269,83.3454814 92.3068004,83.5867902 L92.1135188,83.707059 C92.420152,83.6797757 90.3655643,83.7608546 90.6841118,83.8361653 C90.1615251,83.7793006 89.5955306,83.3135865 89.1428798,82.9397089 C88.802046,82.6603591 88.5665055,82.3717863 88.1795645,82.6134808 L86.2648406,81.1314271 C86.4462078,80.9081786 86.5388155,80.7963616 86.3124901,80.6096117 C86.0861647,80.4232552 85.553214,80.2641742 85.110943,79.9936619 C84.3170806,79.3415913 84.3543503,78.7175674 84.2544476,77.7961334 C84.1683716,76.9772934 84.0638574,76.9861308 83.784122,76.2875675 C83.6484842,75.9890006 83.6261979,75.7845837 83.3879581,75.4956253 C83.1512608,75.206667 82.5960159,74.8435547 82.256339,74.5634338 C81.803696,74.1910907 81.2380792,73.7246132 80.7155005,73.6677407 C79.9785028,73.527877 79.4094313,73.9924343 78.7723441,73.8421907 C78.2393856,73.6834954 77.5496597,73.0218162 76.9037351,72.7693642 C76.4837425,72.7036622 75.9730781,72.7497693 75.5634653,72.7862756 C75.541179,72.5814653 75.4966065,72.1722381 75.2821954,72.0880901 C74.9544249,71.9109487 74.3619182,72.1707036 73.9538399,72.20721 C73.5446128,72.2437085 73.4089749,71.9459206 73.0919698,71.8706021 C72.7745791,71.7960626 71.3317153,71.8221892 71.1488135,72.0450521 C70.9551463,72.1660921 71.091941,72.4638878 71.1130783,72.6686903 L71.1130783,72.6686903 L71.1130783,72.6686903 Z M144.162949,61.9788438 C144.999842,63.0409128 146.494581,64.4576422 147.754149,64.6551497 C147.3822,64.0676322 147.063267,63.9934705 146.610624,63.6203641 C145.943562,63.1631018 144.809259,62.2309102 144.162949,61.9788438 L144.162949,61.9788438 L144.162949,61.9788438 Z M135.979176,57.8542993 L135.720193,57.3605385 C136.152092,57.5280712 136.583991,57.6963673 136.831446,58.0879197 C136.965164,58.3857155 136.988992,58.5905258 137.022036,58.8979223 C137.08736,59.5123375 138.162493,60.8633649 138.784974,60.9102432 C139.001691,60.9943912 138.990162,60.8925684 139.195358,60.8737368 L138.66816,58.8533497 C138.429928,58.5643913 138.135595,58.6946544 137.784389,58.3127106 L135.657945,55.8150806 C135.53268,55.6191155 135.059285,55.0415844 135.127678,54.7257282 C135.309046,54.5024798 135.821638,54.4563727 136.026826,54.4386979 L134.079444,52.6488542 C133.852733,52.4621121 133.501535,52.0801683 133.10268,52.2192609 C132.70613,52.3583613 132.557043,52.8886285 132.384128,53.2137077 C132.214289,53.5399357 131.940708,53.87423 131.972981,54.1816344 C132.118998,54.5824019 132.583941,55.057339 132.819867,55.3459118 L134.633532,56.8371885 C135.097711,57.3128889 135.332866,57.6018473 135.979176,57.8542993 L135.979176,57.8542993 L135.979176,57.8542993 Z M162.480167,57.6471832 C162.21196,56.1201713 161.22905,54.6580982 160.077064,53.5211041 L158.263408,52.0294418 C157.563302,51.2655542 156.807095,49.9894598 155.776535,49.0476596 C154.645302,48.1154681 153.793804,47.8818398 152.787065,47.14485 L151.074845,45.6439647 L148.019287,43.1267398 C147.226959,42.4746692 146.286316,41.421052 145.687655,40.648327 C145.076695,39.7722368 145.24961,39.446772 144.898404,39.0648282 C144.660165,38.7758777 143.799443,38.4392698 143.379844,38.3739455 L143.54046,37.9458946 L142.781184,37.6004493 C143.20386,36.7355022 142.611345,36.9952571 142.012677,36.2225321 C141.774445,35.9335737 141.732949,35.5231897 141.357915,34.936829 C140.770783,34.2659269 139.987678,33.7156791 139.219179,33.268411 L135.491184,31.2245808 C134.287709,30.6090166 132.643112,29.7221609 131.294398,29.6368561 C130.260761,29.6260985 129.599853,30.2024729 128.586968,30.3961401 C127.679369,30.5813476 125.716618,30.5509951 125.087982,31.4340026 C124.450895,32.2147938 126.047072,33.6226937 126.62498,34.1913795 L128.241909,35.8033107 C128.706852,36.2790111 128.840569,36.5768069 129.313972,37.154338 C129.769692,37.5274444 130.651157,38.0688548 131.014662,38.5526214 C131.375091,39.0371671 130.773354,39.1950913 131.258277,39.8748308 C131.630998,40.461585 132.539369,41.2074122 132.810652,41.8037671 C132.956662,42.2041568 133.021986,42.8185721 133.361663,43.0986931 C133.689048,43.2758344 134.076367,43.0337544 134.383,43.0060854 C134.883292,42.8581554 136.351905,42.1061743 136.792256,42.3770723 C137.23337,42.6471991 138.739638,44.1661448 139.091607,44.5488519 C139.317547,44.7348306 139.779413,45.2097677 139.71102,45.5271584 C139.767121,46.0385941 138.156339,45.4591428 138.540596,46.1484909 C138.665091,46.344456 139.651078,46.8758722 139.990755,47.1559931 L141.247255,48.283772 L142.706636,49.3930971 C143.046313,49.673218 143.418271,50.2595866 143.748725,50.4371135 C144.395035,50.6891799 144.725489,49.9360498 145.282654,50.299162 C146.369315,50.8217408 147.149343,52.3034168 148.281348,53.2352227 C149.049847,53.6828765 149.242735,53.562222 149.889045,53.814674 C150.433918,54.0759634 150.785887,54.4579072 151.339212,54.8217906 C152.212225,55.2602213 152.283695,54.9439875 153.301963,55.7831857 C154.6599,56.901356 155.815725,58.0387356 156.98001,59.2783315 C157.444182,59.7532608 158.587708,60.7880542 159.121052,60.9467496 C159.222497,60.9379122 159.323171,60.9290669 159.427685,60.9194662 L160.598109,60.2977481 C160.598109,60.2977481 160.702623,60.2877539 160.690331,60.1859311 C160.758724,59.8696893 160.714152,59.4600844 160.782553,59.143457 C160.854023,58.8272231 161.047682,58.7065687 161.104555,58.2873473 C161.172948,57.9718768 161.107624,57.3566903 161.401965,57.2271985 C161.700139,57.0969433 162.265755,57.5630352 162.480167,57.6471832 L162.480167,57.6471832 L162.480167,57.6471832 Z M137.533857,31.0409078 C137.489285,30.6313029 137.376311,30.5383096 137.230301,30.1379198 C136.619341,29.2622151 135.94075,28.70313 134.975515,28.3753674 C134.66043,28.3012056 133.707486,28.076037 133.534579,28.4014939 C133.272518,28.8383901 134.383,29.5665425 134.710385,29.7436839 C135.050062,30.0230337 135.481961,30.1913297 135.821638,30.4714507 C136.479469,30.8257334 136.795325,30.9006584 137.533857,31.0409078 L137.533857,31.0409078 L137.533857,31.0409078 Z M97.4945629,22.434467 C98.846747,22.5193862 99.3558769,22.4740424 100.648112,22.9777975 C101.827372,23.3889448 102.518255,24.050624 103.870431,24.1363144 L102.354571,22.5147747 L103.218361,21.9207256 C102.765718,21.5476192 102.563213,21.5656796 102.119408,21.2955528 C101.893082,21.1091885 101.872331,20.9040004 101.646005,20.7176361 C101.440432,20.7364677 100.928233,20.7818036 100.725728,20.8002496 C100.121299,20.9574104 99.6236979,21.1064971 98.9301239,21.3750894 C98.3253172,21.5322502 97.5214606,21.7078491 97.4945629,22.434467 L97.4945629,22.434467 L97.4945629,22.434467 Z M103.691756,19.6040773 C103.542669,20.1339589 103.042376,20.2822823 102.563213,20.6350226 C102.676187,20.728008 102.688094,20.8309876 102.801453,20.9239809 C103.131907,21.1011144 104.811468,21.3639462 105.231453,21.4300339 C106.264704,21.4407993 106.300439,20.8175387 107.515435,20.6046701 L109.037064,20.3648958 C110.466479,20.2361673 112.420008,20.164697 113.694567,19.5333781 C113.209258,18.8536386 112.902625,18.8801507 112.154878,18.6376851 C110.984832,18.328754 109.736784,18.2342262 108.542918,18.651134 C107.440888,18.9570038 107.48546,19.3666087 106.053362,19.4953372 L103.691756,19.6040773 L103.691756,19.6040773 Z M81.9823719,194.826162 C58.111195,189.729465 86.8381458,195.837513 81.9823719,194.826162 L81.9823719,194.826162 L81.9823719,194.826162 Z" id="path2047"></path>
                    </g>
                </g>
            </g>
        </g>
    </g>
</svg>