<?xml version="1.0" encoding="UTF-8" standalone="no"?>
<svg width="151px" height="150px" viewBox="0 0 151 150" version="1.1" xmlns="http://www.w3.org/2000/svg" xmlns:xlink="http://www.w3.org/1999/xlink" xmlns:sketch="http://www.bohemiancoding.com/sketch/ns">
    <!-- Generator: Sketch 3.1.1 (8761) - http://www.bohemiancoding.com/sketch -->
    <title>WB</title>
    <desc>Created with Sketch.</desc>
    <defs></defs>
    <g id="Page-1" stroke="none" stroke-width="1" fill="none" fill-rule="evenodd" sketch:type="MSPage">
        <g id="WB" sketch:type="MSLayerGroup" transform="translate(-76.000000, -75.000000)">
            <rect id="Rectangle-7" sketch:type="MSShapeGroup" x="0" y="0" width="300" height="300"></rect>
            <path d="M142.349908,224.485902 C111.422188,220.827429 86.2885177,199.257619 78.3220158,169.536924 C75.2143342,157.943069 75.227403,141.337573 78.3530064,130.158545 C87.707668,96.7006821 116.302076,75.064903 151.251637,75.0002795 C165.334751,74.9742466 172.856576,76.7595157 186.233937,83.3031695 C213.753099,96.764419 230.338633,127.836136 226.433172,158.613355 C224.114219,176.888057 217.231769,190.852277 204.235831,203.650823 C188.365692,219.27993 164.958742,227.160327 142.349908,224.485902 L142.349908,224.485902 Z M147.253514,201.034607 L147.220756,185.911307 L144.730251,185.911307 C140.545611,185.911307 127.688229,189.144345 127.688229,190.196593 C127.688229,191.749547 133.78968,203.553878 138.002628,210.15161 C141.051229,214.9259 142.379639,216.141511 144.556269,216.148781 L147.286262,216.157907 L147.253514,201.034607 L147.253514,201.034607 Z M165.177243,209.461268 C169.740363,202.549096 174.786827,192.572255 174.804809,190.427593 C174.810432,189.756526 171.540953,188.46583 167.53928,187.559381 C155.00009,184.719048 155.964315,183.596534 155.964315,201.034607 C155.964315,216.096955 155.97397,216.157907 158.360356,216.157907 C160.149091,216.157907 161.876911,214.460572 165.177243,209.461268 L165.177243,209.461268 Z M124.721735,203.381326 C122.03335,198.075133 119.749154,193.571217 119.645744,193.372622 C119.542334,193.174027 116.57101,194.543864 113.042803,196.416702 L106.627879,199.821854 L109.565403,202.247892 C111.931278,204.201812 128.084224,213.028948 129.293868,213.028948 C129.467581,213.028948 127.410121,208.687518 124.721735,203.381326 L124.721735,203.381326 Z M184.210868,207.742322 C187.395079,206.050317 191.372288,203.574612 193.049112,202.240768 L196.097891,199.815585 L190.303483,196.513898 C187.11656,194.697965 184.196237,193.21221 183.813892,193.21221 C183.431537,193.21221 182.255482,195.206921 181.200439,197.644902 C180.145396,200.082882 177.830422,204.520705 176.056067,207.506733 L172.829965,212.935872 L175.625684,211.877283 C177.163327,211.295057 181.026667,209.434328 184.210868,207.742322 L184.210868,207.742322 Z M115.544339,183.825334 C113.512379,178.173069 109.884771,162.055354 109.884771,158.67948 L109.884771,154.621717 L97.2255716,154.621717 L84.5663724,154.621717 L85.25288,159.054413 C86.9946751,170.300974 91.2591688,180.940945 97.5241973,189.671533 L100.596739,193.953242 L108.35175,189.671533 C113.847592,186.637152 115.942918,184.934049 115.544339,183.825334 L115.544339,183.825334 Z M206.657709,187.555272 C211.338416,180.532283 214.312127,173.711507 216.237529,165.582129 C218.97811,154.010931 219.564818,154.621717 205.709276,154.621717 C199.085343,154.621717 193.665761,154.794909 193.665761,155.006589 C193.665761,157.838812 190.081652,174.366878 188.436361,179.121873 C187.247342,182.55821 186.641553,185.497544 187.090169,185.65371 C187.538774,185.809887 190.733426,187.543883 194.189392,189.507043 C197.645357,191.470194 201.016222,193.106962 201.680207,193.144312 C202.344192,193.181651 204.584066,190.666583 206.657709,187.555272 L206.657709,187.555272 Z M139.733134,178.060145 C142.612352,177.644421 145.492145,176.890404 146.132692,176.384545 C146.848035,175.819622 147.297321,171.444431 147.297321,165.04327 L147.297321,154.621717 L132.78009,154.621717 L118.262869,154.621717 L118.270206,157.489933 C118.278146,160.593953 121.63375,175.305461 123.367012,179.835151 L124.434295,182.624377 L129.466256,180.720187 C132.233834,179.672893 136.853928,178.475868 139.733134,178.060145 L139.733134,178.060145 Z M181.643745,171.849673 C183.071907,166.242683 184.2404,160.072627 184.2404,158.138431 L184.2404,154.621717 L170.066931,154.621717 L155.893446,154.621717 L156.190701,165.821348 L156.487946,177.020976 L161.724262,177.779613 C164.604233,178.196859 169.552547,179.4326 172.720516,180.525691 C175.888484,181.618772 178.607952,182.407614 178.763774,182.278659 C178.919596,182.149704 180.215583,177.456662 181.643745,171.849673 L181.643745,171.849673 Z M109.884771,142.174069 C109.884771,138.223546 112.450086,126.185902 114.539317,120.332789 C116.648224,114.424554 116.611816,114.061542 113.803715,112.99827 C112.503169,112.505814 108.97878,110.658184 105.971739,108.892409 L100.504394,105.681909 L97.4809967,110.074331 C91.080264,119.373377 86.9732774,129.693752 85.25288,140.80215 L84.5663724,145.234841 L97.2255716,145.234841 L109.884771,145.234841 L109.884771,142.174069 L109.884771,142.174069 Z M147.204439,134.03676 L147.062588,122.838678 L141.561654,122.050598 C138.536145,121.617153 133.44776,120.347881 130.254133,119.229998 L124.447545,117.197479 L123.372032,120.004061 C121.519287,124.838854 119.303936,134.05997 118.625919,139.759163 L117.974491,145.234841 L132.660391,145.234841 L147.346291,145.234841 L147.204439,134.03676 L147.204439,134.03676 Z M183.863428,138.716177 C183.491995,135.130912 182.171618,128.773245 180.929271,124.588027 C179.11068,118.461567 178.345791,117.1172 177.004562,117.690008 C173.098808,119.358066 161.539504,122.28915 158.866949,122.28915 L155.964315,122.28915 L155.964315,133.761993 L155.964315,145.234841 L170.251553,145.234841 L184.538776,145.234841 L183.863428,138.716177 L183.863428,138.716177 Z M217.752792,142.794215 C217.752792,138.593642 213.817306,124.802548 211.111432,119.520939 C209.687281,116.74113 207.047185,112.45234 205.244554,109.990277 L201.967031,105.513801 L199.125474,107.507354 C197.562613,108.603814 194.16321,110.558579 191.571236,111.851288 C188.979262,113.143996 186.735712,114.305434 186.585556,114.432261 C186.43541,114.559088 187.045419,116.730773 187.941121,119.258242 C189.542553,123.777063 191.854636,133.631455 193.118189,141.323643 L193.760674,145.234841 L205.756728,145.234841 C217.635677,145.234841 217.752792,145.211014 217.752792,142.794215 L217.752792,142.794215 Z M147.170393,98.561213 L147.278198,83.6986594 L144.552237,83.7077751 C142.385996,83.7150239 141.031562,84.9464256 137.955878,89.7049459 C131.598267,99.5410673 127.208617,108.669867 128.309332,109.766087 C129.656444,111.107701 141.193081,113.863052 144.444432,113.619712 L147.062588,113.423767 L147.170393,98.561213 L147.170393,98.561213 Z M170.673809,111.227019 L175.852898,109.695279 L172.57614,103.230558 C166.112176,90.4777987 161.222665,83.6986594 158.488594,83.6986594 L155.964315,83.6986594 L155.964315,98.9403803 L155.964315,114.182101 L160.729515,113.47044 C163.350388,113.079018 167.825319,112.06948 170.673809,111.227019 L170.673809,111.227019 Z M121.860283,101.168679 C123.24834,98.1570559 125.628294,93.6935338 127.149072,91.2497441 L129.914123,86.8064872 L124.444192,88.9537246 C119.297354,90.974135 106.300148,99.2500846 107.069951,100.016742 C107.495529,100.44058 118.669122,106.598496 119.061521,106.625457 C119.212783,106.635845 120.472225,104.180301 121.860283,101.168679 L121.860283,101.168679 Z M192.462592,97.0853145 C189.349564,94.5146455 175.142331,86.8276181 173.504245,86.8276181 C173.157235,86.8276181 174.370561,89.3050337 176.200526,92.333 C178.030481,95.3609663 180.420187,99.8112946 181.510984,102.222616 L183.494258,106.60684 L189.733176,103.295108 L195.972094,99.9833769 L192.462592,97.0853145 L192.462592,97.0853145 Z" id="path2483" fill="#000000" sketch:type="MSShapeGroup"></path>
        </g>
    </g>
</svg>