<?xml version="1.0" encoding="UTF-8" standalone="no"?>
<svg width="300px" height="300px" viewBox="0 0 300 300" version="1.1" xmlns="http://www.w3.org/2000/svg" xmlns:xlink="http://www.w3.org/1999/xlink" xmlns:sketch="http://www.bohemiancoding.com/sketch/ns">
    <!-- Generator: Sketch 3.3.2 (12043) - http://www.bohemiancoding.com/sketch -->
    <title>Slice 1</title>
    <desc>Created with Sketch.</desc>
    <defs></defs>
    <g id="Page-1" stroke="none" stroke-width="1" fill="none" fill-rule="evenodd" sketch:type="MSPage">
        <g id="wri" sketch:type="MSLayerGroup">
            <g id="Page-1" sketch:type="MSShapeGroup">
                <g id="WRI">
                    <rect id="Rectangle-10" x="0" y="0" width="300" height="300"></rect>
                    <path d="M136.648732,150.394891 L138.690472,148.346079 L138.692477,148.350098 L134.606991,152.443704 L136.648732,150.394891 L134.606991,152.443704 L116.35715,170.732297 L107.026201,161.378497 L116.515557,151.865937 L116.543629,151.895076 L122.954583,145.4693 L116.543629,151.895076 L116.515557,151.865937 L129.335461,139.015389 L129.3505,139.029457 L129.335461,139.015389 L139.350165,128.977312 L148.68713,138.334127 L138.692477,148.350098 L138.690472,148.346079 L136.648732,150.394891 L136.648732,150.394891 Z M174.215654,138.193453 L174.212646,138.191443 L161.38071,151.053044 L161.386726,151.057063 L167.802694,144.626263 L161.386726,151.057063 L161.38071,151.053044 L151.412124,161.04289 L160.748087,170.400709 L192.152692,138.923952 L182.818735,129.567137 L174.212646,138.191443 L174.215654,138.193453 L174.215654,138.193453 Z M176.592755,199.17251 L183.005213,192.735681 L183.050329,192.781903 L170.192327,205.622402 L170.180296,205.609339 L176.592755,199.17251 L170.180296,205.609339 L170.192327,205.622402 L149.787956,226 L129.831735,206.007245 L137.601678,198.220953 L149.642583,210.274684 L185.019383,174.859062 L193.011897,182.831244 L183.050329,192.781903 L183.005213,192.735681 L176.592755,199.17251 L176.592755,199.17251 Z M161.486983,102.067428 L169.835411,93.6641811 L150.204024,74 L107.449287,116.828124 L115.368613,124.771167 L149.788958,90.2819821 L161.486983,102.067428 L161.486983,102.067428 Z M196.70638,138.857634 L182.891923,124.99926 L182.818735,125.071606 L196.639207,138.925961 L196.70638,138.857634 L196.70638,138.857634 Z M196.70638,138.857634 L196.639207,138.925961 L208.750292,151.065101 L198.000702,161.789465 L205.929051,169.738537 L225,150.638056 L183.004211,108.549474 L174.665809,116.898461 L182.818735,125.071606 L182.891923,124.99926 L196.70638,138.857634 L196.70638,138.857634 Z M102.394312,137.765403 L94.4850115,129.821355 L75,149.35893 L116.730107,191.151092 L124.467968,183.393939 L90.7053103,149.504627 L102.394312,137.765403 L102.394312,137.765403 Z M161.563179,125.433339 L191.153126,95.7793114 L181.817164,86.4305357 L152.226214,116.078534 L161.563179,125.433339 L161.563179,125.433339 Z M94.375731,192.777884 L103.97537,183.15178 L94.6353975,173.803004 L85.0397687,183.426093 L94.375731,192.777884 L94.375731,192.777884 Z M138.399726,174.100428 L106.922936,205.643503 L116.257895,214.989264 L147.739699,183.448199 L138.399726,174.100428 L138.399726,174.100428 Z M204.140461,108.205828 L195.665709,116.695489 L204.987635,126.060342 L213.47542,117.554604 L204.140461,108.205828 L204.140461,108.205828 Z M175.242289,160.443017 L207.252448,192.508594 L215.58684,184.163626 L183.587708,152.09202 L175.242289,160.443017 L175.242289,160.443017 Z M138.141062,106.532815 L129.810681,114.886826 L161.382716,146.554498 L169.727133,138.191443 L138.141062,106.532815 L138.141062,106.532815 Z M106.95602,93.3205352 L116.55566,102.94061 L124.891054,94.5825797 L115.309461,84.9655191 L106.95602,93.3205352 L106.95602,93.3205352 Z M192.61187,206.889471 L183.044314,197.27442 L174.680848,205.626421 L184.269458,215.246496 L192.61187,206.889471 L192.61187,206.889471 Z M130.355078,161.206674 L162.183772,193.100428 L170.519166,184.747422 L138.691475,152.844624 L130.355078,161.206674 L130.355078,161.206674 Z M92.8638505,106.957851 L84.5334692,115.304828 L116.515557,147.370406 L124.850951,139.015389 L92.8638505,106.957851 L92.8638505,106.957851 Z" id="Fill-21" fill="#1A1918"></path>
                </g>
            </g>
        </g>
    </g>
</svg>