<?xml version="1.0" encoding="UTF-8" standalone="no"?>
<svg width="240px" height="240px" viewBox="0 0 240 240" version="1.1" xmlns="http://www.w3.org/2000/svg" xmlns:xlink="http://www.w3.org/1999/xlink">
    <!-- Generator: Sketch 3.6 (26304) - http://www.bohemiancoding.com/sketch -->
    <title>Slice 2</title>
    <desc>Created with Sketch.</desc>
    <defs></defs>
    <g id="Page-1" stroke="none" stroke-width="1" fill="none" fill-rule="evenodd">
        <g id="Grey" fill="#8D99AE">
            <g id="axel-springer" transform="translate(0.000000, 93.000000)">
                <g id="Group-2" transform="translate(203.389831, 0.000000)">
                    <path d="M0.75648523,35.8348643 L18.326461,35.8348643 L18.326461,18.2317376 L0.75648523,18.2317376 L0.75648523,35.8348643 L0.75648523,35.8348643 Z" id="path31"></path>
                    <path d="M0.755032446,53.4365355 L18.3250082,53.4365355 L18.3250082,35.8334088 L0.755032446,35.8334088 L0.755032446,53.4365355 L0.755032446,53.4365355 Z" id="path33"></path>
                    <path d="M18.3235554,35.8348643 L35.8935312,35.8348643 L35.8935312,18.2317376 L18.3235554,18.2317376 L18.3235554,35.8348643 L18.3235554,35.8348643 Z" id="path35"></path>
                    <path d="M18.3235554,18.2331932 L35.8935312,18.2331932 L35.8935312,0.630066469 L18.3235554,0.630066469 L18.3235554,18.2331932 L18.3235554,18.2331932 Z" id="path37"></path>
                </g>
                <g id="Axel-springer" transform="translate(99.500000, 26.792453) scale(1, -1) translate(-99.500000, -26.792453) translate(0.000000, 10.792453)">
                    <path d="M56.6397094,7.46102426 L61.4571429,7.46102426 L61.4571429,31.7319137 L56.6397094,31.7319137 L56.6397094,7.46102426 L56.6397094,7.46102426 Z" id="path59"></path>
                    <path d="M120.873123,7.46102426 L125.690557,7.46102426 L125.690557,25.036496 L120.873123,25.036496 L120.873123,7.46102426 L120.873123,7.46102426 Z M125.69201,31.7319137 L120.874576,31.7319137 L120.874576,27.7554178 L125.69201,27.7554178 L125.69201,31.7319137 L125.69201,31.7319137 Z" id="path73"></path>
                    <path d="M12.4699758,14.2593477 C12.4699758,13.2055472 12.3348668,10.214442 8.56779661,10.214442 C7.00750605,10.214442 5.6157385,10.6554663 5.6157385,12.457407 C5.6157385,14.2258706 6.97409201,14.7353046 8.46610169,15.040965 C9.95956416,15.3131482 11.6549637,15.3466253 12.4699758,16.0612884 L12.4699758,14.2593477 L12.4699758,14.2593477 Z M6.1590799,19.6302372 C6.32905569,21.5340647 7.51598063,22.2822049 9.34794189,22.2822049 C11.0447942,22.2822049 12.4699758,21.9765445 12.4699758,19.9024205 C12.4699758,17.9301833 9.72130751,17.998593 6.76924939,17.5910458 C3.78377724,17.148566 0.798305085,16.2315849 0.798305085,12.2536334 C0.798305085,8.64975202 3.44527845,6.98463073 6.76924939,6.98463073 C8.90774818,6.98463073 11.1464891,7.56247439 12.6733656,9.16064151 C12.7067797,8.58279784 12.8433414,8.00495418 13.0133172,7.4605876 L17.8990315,7.4605876 C17.457385,8.17379515 17.2874092,9.77196226 17.2874092,11.3701294 L17.2874092,20.5137412 C17.2874092,24.7289434 13.0801453,25.5105606 9.58619855,25.5105606 C5.65060533,25.5105606 1.61186441,24.1510997 1.34164649,19.6302372 L6.1590799,19.6302372 L6.1590799,19.6302372 Z" id="path49"></path>
                    <path d="M18.847845,7.50338005 L24.2420339,7.50338005 L27.9074092,13.044566 L31.5713317,7.50338005 L37.0686683,7.50338005 L30.5877966,16.852221 L36.3553511,25.0773962 L31.0279903,25.0773962 L27.9742373,20.4895795 L24.8870702,25.0773962 L19.3911864,25.0773962 L25.1587409,16.7503342 L18.847845,7.50338005 L18.847845,7.50338005 Z" id="path53"></path>
                    <path d="M54.1638741,15.0751698 C54.5038257,20.4795364 51.6185956,25.5112884 45.6476513,25.5112884 C40.3202906,25.5112884 36.6897821,21.4998598 36.6897821,16.2308571 C36.6897821,10.791558 40.1169007,6.98535849 45.6476513,6.98535849 C49.6166586,6.98535849 52.5018886,8.75236658 53.8587893,12.899159 L49.6166586,12.899159 C49.3115738,11.8118814 47.7512833,10.6212615 45.8176271,10.6212615 C43.1372397,10.6212615 41.6437772,12.015655 41.5086683,15.0751698 L54.1638741,15.0751698 L54.1638741,15.0751698 Z M41.5086683,18.1346846 C41.5754964,19.4941456 42.4587893,21.8739299 45.5110896,21.8739299 C47.8529782,21.8739299 48.9047942,20.5828787 49.3464407,18.1346846 L41.5086683,18.1346846 L41.5086683,18.1346846 Z" id="path57"></path>
                    <path d="M69.082954,13.1714879 C69.2863438,8.51380593 73.2568039,6.98404852 77.3275061,6.98404852 C81.3313801,6.98404852 85.3352542,8.48032884 85.3352542,13.1030782 C85.3352542,16.3663666 82.586586,17.38669 79.7710896,18.0329434 C77.0224213,18.6791968 74.3086199,18.9164474 74.3086199,20.6499784 C74.3086199,22.0778491 75.9023245,22.2816226 76.9890073,22.2816226 C78.7192736,22.2816226 80.1444552,21.7721887 80.2795642,19.9018383 L84.8601937,19.9018383 C84.4868281,24.2189272 80.9580145,25.511434 77.1241162,25.511434 C73.3584988,25.511434 69.4897337,24.3557466 69.4897337,19.8683612 C69.4897337,16.7753693 72.271816,15.7885229 75.0538983,15.1772022 C78.5158838,14.429062 80.5178208,13.919628 80.5178208,12.4582803 C80.5178208,10.7582264 78.7526877,10.2138598 77.3623729,10.2138598 C75.4621308,10.2138598 73.6969976,11.0638868 73.6635835,13.1714879 L69.082954,13.1714879 L69.082954,13.1714879 Z" id="path63"></path>
                    <path d="M87.4677966,1.27373046 L92.28523,1.27373046 L92.28523,9.63572507 L92.3535109,9.63572507 C93.5070218,7.90219407 95.5089588,6.98521294 97.6125908,6.98521294 C102.736562,6.98521294 105.315254,11.3692561 105.315254,16.0604151 C105.315254,21.05869 102.838257,25.5111429 97.3409201,25.5111429 C95.17046,25.5111429 93.2702179,24.6611159 92.116707,22.792221 L92.0484262,22.792221 L92.0484262,25.035186 L87.4677966,25.035186 L87.4677966,1.27373046 L87.4677966,1.27373046 Z M96.3239709,10.6225714 C93.201937,10.6225714 92.116707,13.3414933 92.116707,16.1972345 C92.116707,19.0529757 93.1336562,21.8737844 96.2891041,21.8737844 C99.377724,21.8737844 100.496368,18.984566 100.496368,16.1972345 C100.496368,13.3414933 99.4794189,10.6225714 96.3239709,10.6225714 L96.3239709,10.6225714 Z" id="path67"></path>
                    <path d="M107.309782,7.4605876 L112.127215,7.4605876 L112.127215,15.381558 C112.127215,18.4745499 113.349007,20.5617736 116.877821,20.5617736 C117.454576,20.5617736 118.167893,20.4948194 118.608087,20.3929326 L118.608087,25.0171375 C118.273947,25.0418814 117.896223,25.049159 117.556271,25.049159 C115.215835,25.049159 112.840533,23.9808032 111.958692,21.7713154 L111.890412,21.7713154 L111.890412,25.0360593 L107.309782,25.0360593 L107.309782,7.4605876 L107.309782,7.4605876 Z" id="path71"></path>
                    <path d="M128.442421,7.4605876 L133.259855,7.4605876 L133.259855,16.6726092 C133.259855,20.241558 134.379952,21.7043612 136.992058,21.7043612 C139.232252,21.7043612 140.080678,20.2764906 140.080678,17.3872722 L140.080678,7.4605876 L144.898111,7.4605876 L144.898111,18.2707763 C144.898111,22.6213423 143.609492,25.5105606 138.485521,25.5105606 C136.450169,25.5105606 134.346538,24.5601024 133.124746,22.5878652 L133.023051,22.5878652 L133.023051,25.0360593 L128.442421,25.0360593 L128.442421,7.4605876 L128.442421,7.4605876 Z" id="path77"></path>
                    <path d="M164.742131,25.0353315 L160.161501,25.0353315 L160.161501,22.6890243 L160.09322,22.6890243 C158.939709,24.7296712 157.176029,25.5112884 154.869007,25.5112884 C149.948426,25.5112884 147.33632,21.364496 147.33632,16.8087008 C147.33632,11.9821779 149.575061,7.97074933 154.83414,7.97074933 C156.937772,7.97074933 159.041404,8.85425337 160.09322,10.6896712 L160.161501,10.6896712 L160.161501,8.3782965 C160.161501,5.86314825 158.974576,4.02773046 156.294189,4.02773046 C154.597337,4.02773046 153.138741,4.63905121 152.697094,6.44099191 L147.913075,6.44099191 C148.149879,2.42956334 152.18862,0.797919137 155.649153,0.797919137 C163.723729,0.797919137 164.742131,5.69285175 164.742131,8.58207008 L164.742131,25.0353315 L164.742131,25.0353315 Z M156.055932,11.6081078 C153.103874,11.6081078 152.153753,14.3619623 152.153753,16.8771105 C152.153753,19.4941456 153.342131,21.8739299 156.055932,21.8739299 C159.177966,21.8739299 160.161501,19.3238491 160.161501,16.4695633 C160.161501,13.9529596 158.8046,11.6081078 156.055932,11.6081078 L156.055932,11.6081078 Z" id="path81"></path>
                    <path d="M184.516562,15.0751698 C184.855061,20.4795364 181.971283,25.5112884 176.000339,25.5112884 C170.672978,25.5112884 167.04247,21.4998598 167.04247,16.2308571 C167.04247,10.791558 170.469588,6.98535849 176.000339,6.98535849 C179.969346,6.98535849 182.854576,8.75236658 184.211477,12.899159 L179.969346,12.899159 C179.664262,11.8118814 178.103971,10.6212615 176.170315,10.6212615 C173.489927,10.6212615 171.996465,12.015655 171.861356,15.0751698 L184.516562,15.0751698 L184.516562,15.0751698 Z M171.861356,18.1346846 C171.928184,19.4941456 172.811477,21.8739299 175.863777,21.8739299 C178.205666,21.8739299 179.257482,20.5828787 179.699128,18.1346846 L171.861356,18.1346846 L171.861356,18.1346846 Z" id="path85"></path>
                    <path d="M187.065327,7.52463073 L191.88276,7.52463073 L191.88276,15.4456011 C191.88276,18.538593 193.104552,20.6258167 196.633366,20.6258167 C197.210121,20.6258167 197.923438,20.5588625 198.363632,20.4569757 L198.363632,25.0811806 C198.029492,25.1059245 197.651768,25.1132022 197.311816,25.1132022 C194.97138,25.1132022 192.596077,24.0463019 191.714237,21.8353585 L191.645956,21.8353585 L191.645956,25.1001024 L187.065327,25.1001024 L187.065327,7.52463073 L187.065327,7.52463073 Z" id="path89"></path>
                </g>
            </g>
        </g>
    </g>
</svg>