<?xml version="1.0" encoding="UTF-8" standalone="no"?>
<svg width="240px" height="240px" viewBox="0 0 240 240" version="1.1" xmlns="http://www.w3.org/2000/svg" xmlns:xlink="http://www.w3.org/1999/xlink">
    <!-- Generator: Sketch 3.6 (26304) - http://www.bohemiancoding.com/sketch -->
    <title>Slice 2</title>
    <desc>Created with Sketch.</desc>
    <defs></defs>
    <g id="Page-1" stroke="none" stroke-width="1" fill="none" fill-rule="evenodd">
        <g id="Grey" fill="#8D99AE">
            <g id="cnn" transform="translate(120.000000, 120.000000) scale(1, -1) translate(-120.000000, -120.000000) translate(0.000000, 63.000000)">
                <path d="M98.9098335,113.681875 C89.0180671,112.978527 80.6377506,104.65807 80.6377506,92.9256274 L80.6377506,37.1067339 C80.6377506,35.0864791 79.1412656,33.3505564 76.9563973,33.3505564 L59.5223462,33.3505564 C21.7809924,33.3056618 25.133119,81.537376 57.2626537,81.5972354 L76.5373815,81.5972354 L76.5373815,95.6193006 L56.5593057,95.6193006 C43.7643583,95.6193006 34.2766429,90.8455131 27.8716867,83.7222442 C21.4667306,76.5989752 18.2492877,67.0065058 18.2343228,57.4439662 C18.219358,47.8814265 21.3919063,38.3488165 27.946511,31.2255476 C34.5011156,24.1172434 44.4078469,19.3284912 57.9809665,19.3284912 L90.8587437,19.3284912 C93.0286471,19.3284912 94.8244292,21.1990975 94.8244292,23.3690009 L94.8244292,91.4441072 C94.8094644,94.9458823 96.7848247,97.6694851 99.358779,98.4626222 C101.932733,99.2557593 104.955633,98.2531143 106.721486,95.6941248 L106.79631,95.6193006 C116.149342,80.325223 153.277136,20.7651169 153.336996,20.6603629 C154.354606,19.2087724 155.566759,18.9543699 156.449685,19.2387021 C157.332611,19.5379991 158.230502,20.4957495 158.215537,22.860196 L158.215537,91.4441072 C158.200572,94.9458823 160.175933,97.6694851 162.749887,98.4626222 C165.323841,99.2557593 168.271917,98.2531143 170.052734,95.6941248 L170.052734,95.6193006 L170.187418,95.6193006 C179.54045,80.325223 216.668244,20.7651169 216.728104,20.6603629 C217.730749,19.2237372 218.912972,18.9394051 219.840793,19.2387021 C220.768614,19.5379991 221.696434,20.4358901 221.681469,22.7853717 L221.681469,113.322719 L207.58458,113.322719 L207.58458,60.4818309 C207.58458,60.4818309 199.174334,74.8480876 184.778147,99.584986 C170.666293,123.813079 144.043823,113.786629 144.043823,92.9256274 L144.043823,60.4818309 C144.043823,60.4818309 135.783226,74.8480876 121.372075,99.584986 C115.206556,110.1801 106.601767,114.235575 98.9098335,113.681875 L98.9098335,113.681875 Z M59.0285061,113.322719 C-19.4322067,113.322719 -18.6689993,1.52031872 60.0910105,1.46045932 L90.9036383,1.46045932 C104.147531,1.46045932 112.602672,9.30204114 112.587707,23.7730519 L112.587707,52.1164793 C112.587707,52.1164793 129.887075,23.5186494 136.681117,12.3099762 C148.204052,-6.74027892 176.068604,-2.98410137 175.99378,20.8100114 L175.99378,52.1164793 C175.99378,52.1164793 193.233288,23.5186494 200.012365,12.3099762 C211.535301,-6.74027892 239.474677,-2.98410137 239.399853,20.8100114 L239.399853,113.337684 L225.302963,113.337684 L225.302963,22.8003366 C225.317928,19.3284912 223.492216,16.7545368 220.978121,15.93147 C218.464027,15.1084033 215.57581,16.140978 213.824923,18.6251432 L213.750099,18.6251432 L213.750099,18.7598268 C213.750099,18.7598268 176.607339,78.1553197 167.134588,93.6439402 C167.104659,93.67387 167.089694,93.6140105 167.059764,93.6439402 C167.044799,93.6439402 167.074729,93.7187645 167.059764,93.7187645 C166.087049,95.0207065 164.830001,95.3050387 163.797427,94.9907768 C162.734922,94.6615501 161.732277,93.7486942 161.747242,91.4441072 L161.747242,22.8751608 C161.762207,19.4182803 159.98139,16.6946774 157.497224,15.8566458 C155.013059,15.0186141 152.154773,16.1260131 150.41885,18.6251432 L150.41885,18.6999674 L150.344026,18.6999674 C150.344026,18.6999674 113.171336,78.2151791 103.728515,93.6589051 C102.740835,95.0656011 101.468823,95.4097926 100.406319,95.0805659 C99.3438141,94.7513392 98.3411691,93.8384833 98.356134,91.5338963 L98.356134,91.459072 L98.356134,23.3839657 C98.356134,19.2536669 94.9591129,15.7967864 90.8437789,15.7967864 L57.9660017,15.7967864 C43.5398855,15.7967864 32.6005796,20.9895896 25.3725566,28.8311714 C18.1445337,36.6727533 14.5828992,47.0733246 14.5978641,57.458931 C14.6128289,67.8295726 18.1744634,78.3049682 25.2229081,86.14655 C32.2713529,93.9881318 42.8515024,99.1659702 56.529376,99.180935 L76.5074518,99.180935 L76.5074518,113.352649 L59.0135412,113.352649 L59.0285061,113.322719 Z" id="Shape"></path>
            </g>
        </g>
    </g>
</svg>