<?xml version="1.0" encoding="UTF-8" standalone="no"?>
<svg width="240px" height="240px" viewBox="0 0 240 240" version="1.1" xmlns="http://www.w3.org/2000/svg" xmlns:xlink="http://www.w3.org/1999/xlink">
    <!-- Generator: Sketch 3.6 (26304) - http://www.bohemiancoding.com/sketch -->
    <title>Slice 2</title>
    <desc>Created with Sketch.</desc>
    <defs></defs>
    <g id="Page-1" stroke="none" stroke-width="1" fill="none" fill-rule="evenodd">
        <g id="Grey" fill="#8D99AE">
            <g id="nvidia" transform="translate(0.000000, 27.000000)">
                <g id="svg2">
                    <path d="M212.823614,149.109035 L220.484819,170.092296 L204.925301,170.092296 L212.823614,149.109035 L212.823614,149.109035 Z M204.618795,140.938786 L186.963614,185.723533 L199.430602,185.723533 L202.223133,177.81021 L223.116867,177.81021 L225.759759,185.723533 L239.293735,185.723533 L221.506988,140.932996 L204.618795,140.938786 L204.618795,140.938786 Z M169.173253,185.740179 L181.821687,185.740179 L181.821687,140.925035 L169.171084,140.92214 L169.173253,185.740179 L169.173253,185.740179 Z M81.3657831,140.92214 L70.813012,176.441626 L60.7040964,140.925035 L47.0566265,140.92214 L61.4942169,185.740179 L79.7161446,185.740179 L94.2701205,140.92214 L81.3657831,140.92214 L81.3657831,140.92214 Z M132.492289,150.680988 L137.928434,150.680988 C145.815181,150.680988 150.915904,154.225844 150.915904,163.425245 C150.915904,172.626817 145.815181,176.172397 137.928434,176.172397 L132.492289,176.172397 L132.492289,150.680988 L132.492289,150.680988 Z M119.95012,140.92214 L119.95012,185.740179 L140.455663,185.740179 C151.380723,185.740179 154.948193,183.922156 158.805542,179.843183 C161.53012,176.979362 163.29253,170.694444 163.29253,163.824023 C163.29253,157.522459 161.801205,151.905549 159.200964,148.405564 C154.515904,142.145977 147.766988,140.92214 137.69494,140.92214 L119.95012,140.92214 L119.95012,140.92214 Z M0.135903614,140.859899 L0.135903614,185.740179 L12.8913253,185.740179 L12.8913253,151.662374 L22.7746988,151.665268 C26.0472289,151.665268 28.38,152.481642 29.9559036,154.167222 C31.9546988,156.298623 32.7708434,159.739261 32.7708434,166.032864 L32.7708434,185.740179 L45.1308434,185.740179 L45.1308434,160.943556 C45.1308434,143.246054 33.8638554,140.859899 22.839759,140.859899 L0.135903614,140.859899 L0.135903614,140.859899 Z M99.593494,140.92214 L99.5985542,185.740179 L112.241205,185.740179 L112.241205,140.92214 L99.593494,140.92214 L99.593494,140.92214 Z" id="path19"></path>
                    <path d="M34.1284337,51.6848405 C34.1284337,51.6848405 50.3963855,27.6546537 82.8780723,25.1686226 L82.8780723,16.4505058 C46.9004819,19.3432763 15.7453012,49.8501712 15.7453012,49.8501712 C15.7453012,49.8501712 33.3910843,100.92056 82.8780723,105.596615 L82.8780723,96.3299066 C46.5621687,91.7558988 34.1284337,51.6848405 34.1284337,51.6848405 L34.1284337,51.6848405 Z M82.8780723,77.9007082 L82.8780723,86.3872296 C55.4313253,81.4882646 47.8127711,52.9238755 47.8127711,52.9238755 C47.8127711,52.9238755 60.9910843,38.3080389 82.8780723,35.9378054 L82.8780723,45.2501089 C82.8614458,45.2501089 82.8498795,45.2450428 82.8361446,45.2450428 C71.3486747,43.8648794 62.3746988,54.6087315 62.3746988,54.6087315 C62.3746988,54.6087315 67.4045783,72.6956031 82.8780723,77.9007082 L82.8780723,77.9007082 Z M82.8780723,0.370552529 L82.8780723,16.4505058 C83.9342169,16.3694475 84.9903614,16.3006926 86.0522892,16.2645058 C126.95494,14.8843424 153.605783,49.8501712 153.605783,49.8501712 C153.605783,49.8501712 122.996386,87.1138599 91.106747,87.1138599 C88.1840964,87.1138599 85.4479518,86.8424591 82.8780723,86.3865058 L82.8780723,96.3299066 C85.0756627,96.6092685 87.3542169,96.7735564 89.7318072,96.7735564 C119.407229,96.7735564 140.867711,81.6004436 161.647952,63.6423969 C165.093253,66.4048949 179.198313,73.1255019 182.097831,76.0674864 C162.339759,92.6287237 116.292289,105.978747 90.186506,105.978747 C87.6701205,105.978747 85.253494,105.826039 82.8780723,105.596615 L82.8780723,119.569051 L195.672289,119.569051 L195.672289,0.370552529 L82.8780723,0.370552529 L82.8780723,0.370552529 Z M82.8780723,35.9378054 L82.8780723,25.1693463 C83.9233735,25.096249 84.9766265,25.0397977 86.0522892,25.0057821 C115.465301,24.0808482 134.762169,50.3111907 134.762169,50.3111907 C134.762169,50.3111907 113.919759,79.2917276 91.5722892,79.2917276 C88.3561446,79.2917276 85.4725301,78.7742568 82.8773494,77.9007082 L82.8773494,45.2501089 C94.3279518,46.6353385 96.6325301,51.6993152 103.516627,63.1886148 L118.82747,50.2634241 C118.82747,50.2634241 107.650843,35.5882412 88.8101205,35.5882412 C86.7621687,35.5875175 84.8024096,35.7315409 82.8780723,35.9378054 L82.8780723,35.9378054 Z" id="path21"></path>
                </g>
            </g>
        </g>
    </g>
</svg>